<svg xmlns="http://www.w3.org/2000/svg" xmlns:xlink="http://www.w3.org/1999/xlink" contentStyleType="text/css" data-diagram-type="CLASS" height="322px" preserveAspectRatio="none" style="width:6209px;height:322px;background:#FFFFFF;" version="1.1" viewBox="0 0 6209 322" width="6209px" zoomAndPan="magnify"><defs/><g><!--entity Feature_User--><g id="elem_Feature_User"><ellipse cx="3126.6685" cy="14" fill="#F1F1F1" rx="8" ry="8" style="stroke:#181818;stroke-width:0.5;"/><path d="M3126.6685,22 L3126.6685,49 M3113.6685,30 L3139.6685,30 M3126.6685,49 L3113.6685,64 M3126.6685,49 L3139.6685,64 " fill="transparent" style="stroke:#181818;stroke-width:0.5;"/><text fill="#000000" font-family="sans-serif" font-size="14" lengthAdjust="spacing" textLength="90.3369" x="3081.5" y="78.4951">Feature User</text></g><!--class comp_arc_sta__baselibs__bit_manipulation--><g id="elem_comp_arc_sta__baselibs__bit_manipulation"><rect fill="#F1F1F1" height="40" id="comp_arc_sta__baselibs__bit_manipulation" rx="2.5" ry="2.5" style="stroke:#181818;stroke-width:0.5;" width="330.8057" x="4111" y="275.5"/><ellipse cx="4126" cy="291.5" fill="#ADD1B2" rx="11" ry="11" style="stroke:#181818;stroke-width:1;"/><path d="M4128.9688,297.1406 Q4128.3906,297.4375 4127.75,297.5781 Q4127.1094,297.7344 4126.4063,297.7344 Q4123.9063,297.7344 4122.5781,296.0938 Q4121.2656,294.4375 4121.2656,291.3125 Q4121.2656,288.1875 4122.5781,286.5313 Q4123.9063,284.875 4126.4063,284.875 Q4127.1094,284.875 4127.75,285.0313 Q4128.4063,285.1875 4128.9688,285.4844 L4128.9688,288.2031 Q4128.3438,287.625 4127.75,287.3594 Q4127.1563,287.0781 4126.5313,287.0781 Q4125.1875,287.0781 4124.5,288.1563 Q4123.8125,289.2188 4123.8125,291.3125 Q4123.8125,293.4063 4124.5,294.4844 Q4125.1875,295.5469 4126.5313,295.5469 Q4127.1563,295.5469 4127.75,295.2813 Q4128.3438,295 4128.9688,294.4219 L4128.9688,297.1406 Z " fill="#000000"/><text fill="#000000" font-family="sans-serif" font-size="14" lengthAdjust="spacing" textLength="298.8057" x="4140" y="296.3467">comp_arc_sta__baselibs__bit_manipulation</text><line style="stroke:#181818;stroke-width:0.5;" x1="4112" x2="4440.8057" y1="307.5" y2="307.5"/></g><!--class logic_arc_int__baselibs__bit_mask_operator--><g id="elem_logic_arc_int__baselibs__bit_mask_operator"><rect fill="#F1F1F1" height="40" id="logic_arc_int__baselibs__bit_mask_operator" rx="2.5" ry="2.5" style="stroke:#181818;stroke-width:0.5;" width="334.6406" x="4322" y="158.5"/><ellipse cx="4337" cy="174.5" fill="#ADD1B2" rx="11" ry="11" style="stroke:#181818;stroke-width:1;"/><path d="M4339.9688,180.1406 Q4339.3906,180.4375 4338.75,180.5781 Q4338.1094,180.7344 4337.4063,180.7344 Q4334.9063,180.7344 4333.5781,179.0938 Q4332.2656,177.4375 4332.2656,174.3125 Q4332.2656,171.1875 4333.5781,169.5313 Q4334.9063,167.875 4337.4063,167.875 Q4338.1094,167.875 4338.75,168.0313 Q4339.4063,168.1875 4339.9688,168.4844 L4339.9688,171.2031 Q4339.3438,170.625 4338.75,170.3594 Q4338.1563,170.0781 4337.5313,170.0781 Q4336.1875,170.0781 4335.5,171.1563 Q4334.8125,172.2188 4334.8125,174.3125 Q4334.8125,176.4063 4335.5,177.4844 Q4336.1875,178.5469 4337.5313,178.5469 Q4338.1563,178.5469 4338.75,178.2813 Q4339.3438,178 4339.9688,177.4219 L4339.9688,180.1406 Z " fill="#000000"/><text fill="#000000" font-family="sans-serif" font-size="14" lengthAdjust="spacing" textLength="302.6406" x="4351" y="179.3467">logic_arc_int__baselibs__bit_mask_operator</text><line style="stroke:#181818;stroke-width:0.5;" x1="4323" x2="4655.6406" y1="190.5" y2="190.5"/></g><!--class comp_arc_sta__baselibs__containers--><g id="elem_comp_arc_sta__baselibs__containers"><rect fill="#F1F1F1" height="40" id="comp_arc_sta__baselibs__containers" rx="2.5" ry="2.5" style="stroke:#181818;stroke-width:0.5;" width="287.1445" x="4866" y="275.5"/><ellipse cx="4881" cy="291.5" fill="#ADD1B2" rx="11" ry="11" style="stroke:#181818;stroke-width:1;"/><path d="M4883.9688,297.1406 Q4883.3906,297.4375 4882.75,297.5781 Q4882.1094,297.7344 4881.4063,297.7344 Q4878.9063,297.7344 4877.5781,296.0938 Q4876.2656,294.4375 4876.2656,291.3125 Q4876.2656,288.1875 4877.5781,286.5313 Q4878.9063,284.875 4881.4063,284.875 Q4882.1094,284.875 4882.75,285.0313 Q4883.4063,285.1875 4883.9688,285.4844 L4883.9688,288.2031 Q4883.3438,287.625 4882.75,287.3594 Q4882.1563,287.0781 4881.5313,287.0781 Q4880.1875,287.0781 4879.5,288.1563 Q4878.8125,289.2188 4878.8125,291.3125 Q4878.8125,293.4063 4879.5,294.4844 Q4880.1875,295.5469 4881.5313,295.5469 Q4882.1563,295.5469 4882.75,295.2813 Q4883.3438,295 4883.9688,294.4219 L4883.9688,297.1406 Z " fill="#000000"/><text fill="#000000" font-family="sans-serif" font-size="14" lengthAdjust="spacing" textLength="255.1445" x="4895" y="296.3467">comp_arc_sta__baselibs__containers</text><line style="stroke:#181818;stroke-width:0.5;" x1="4867" x2="5152.1445" y1="307.5" y2="307.5"/></g><!--class logic_arc_int__baselibs__intrusive_list--><g id="elem_logic_arc_int__baselibs__intrusive_list"><rect fill="#F1F1F1" height="40" id="logic_arc_int__baselibs__intrusive_list" rx="2.5" ry="2.5" style="stroke:#181818;stroke-width:0.5;" width="293.0713" x="5036" y="158.5"/><ellipse cx="5051" cy="174.5" fill="#ADD1B2" rx="11" ry="11" style="stroke:#181818;stroke-width:1;"/><path d="M5053.9688,180.1406 Q5053.3906,180.4375 5052.75,180.5781 Q5052.1094,180.7344 5051.4063,180.7344 Q5048.9063,180.7344 5047.5781,179.0938 Q5046.2656,177.4375 5046.2656,174.3125 Q5046.2656,171.1875 5047.5781,169.5313 Q5048.9063,167.875 5051.4063,167.875 Q5052.1094,167.875 5052.75,168.0313 Q5053.4063,168.1875 5053.9688,168.4844 L5053.9688,171.2031 Q5053.3438,170.625 5052.75,170.3594 Q5052.1563,170.0781 5051.5313,170.0781 Q5050.1875,170.0781 5049.5,171.1563 Q5048.8125,172.2188 5048.8125,174.3125 Q5048.8125,176.4063 5049.5,177.4844 Q5050.1875,178.5469 5051.5313,178.5469 Q5052.1563,178.5469 5052.75,178.2813 Q5053.3438,178 5053.9688,177.4219 L5053.9688,180.1406 Z " fill="#000000"/><text fill="#000000" font-family="sans-serif" font-size="14" lengthAdjust="spacing" textLength="261.0713" x="5065" y="179.3467">logic_arc_int__baselibs__intrusive_list</text><line style="stroke:#181818;stroke-width:0.5;" x1="5037" x2="5328.0713" y1="190.5" y2="190.5"/></g><!--class logic_arc_int__baselibs__synchronized_queue--><g id="elem_logic_arc_int__baselibs__synchronized_queue"><rect fill="#F1F1F1" height="40" id="logic_arc_int__baselibs__synchronized_queue" rx="2.5" ry="2.5" style="stroke:#181818;stroke-width:0.5;" width="348.3604" x="3581.5" y="158.5"/><ellipse cx="3596.5" cy="174.5" fill="#ADD1B2" rx="11" ry="11" style="stroke:#181818;stroke-width:1;"/><path d="M3599.4688,180.1406 Q3598.8906,180.4375 3598.25,180.5781 Q3597.6094,180.7344 3596.9063,180.7344 Q3594.4063,180.7344 3593.0781,179.0938 Q3591.7656,177.4375 3591.7656,174.3125 Q3591.7656,171.1875 3593.0781,169.5313 Q3594.4063,167.875 3596.9063,167.875 Q3597.6094,167.875 3598.25,168.0313 Q3598.9063,168.1875 3599.4688,168.4844 L3599.4688,171.2031 Q3598.8438,170.625 3598.25,170.3594 Q3597.6563,170.0781 3597.0313,170.0781 Q3595.6875,170.0781 3595,171.1563 Q3594.3125,172.2188 3594.3125,174.3125 Q3594.3125,176.4063 3595,177.4844 Q3595.6875,178.5469 3597.0313,178.5469 Q3597.6563,178.5469 3598.25,178.2813 Q3598.8438,178 3599.4688,177.4219 L3599.4688,180.1406 Z " fill="#000000"/><text fill="#000000" font-family="sans-serif" font-size="14" lengthAdjust="spacing" textLength="316.3604" x="3610.5" y="179.3467">logic_arc_int__baselibs__synchronized_queue</text><line style="stroke:#181818;stroke-width:0.5;" x1="3582.5" x2="3928.8604" y1="190.5" y2="190.5"/></g><!--class logic_arc_int__baselibs__bit_manipulation--><g id="elem_logic_arc_int__baselibs__bit_manipulation"><rect fill="#F1F1F1" height="40" id="logic_arc_int__baselibs__bit_manipulation" rx="2.5" ry="2.5" style="stroke:#181818;stroke-width:0.5;" width="321.8369" x="3964.5" y="158.5"/><ellipse cx="3979.5" cy="174.5" fill="#ADD1B2" rx="11" ry="11" style="stroke:#181818;stroke-width:1;"/><path d="M3982.4688,180.1406 Q3981.8906,180.4375 3981.25,180.5781 Q3980.6094,180.7344 3979.9063,180.7344 Q3977.4063,180.7344 3976.0781,179.0938 Q3974.7656,177.4375 3974.7656,174.3125 Q3974.7656,171.1875 3976.0781,169.5313 Q3977.4063,167.875 3979.9063,167.875 Q3980.6094,167.875 3981.25,168.0313 Q3981.9063,168.1875 3982.4688,168.4844 L3982.4688,171.2031 Q3981.8438,170.625 3981.25,170.3594 Q3980.6563,170.0781 3980.0313,170.0781 Q3978.6875,170.0781 3978,171.1563 Q3977.3125,172.2188 3977.3125,174.3125 Q3977.3125,176.4063 3978,177.4844 Q3978.6875,178.5469 3980.0313,178.5469 Q3980.6563,178.5469 3981.25,178.2813 Q3981.8438,178 3982.4688,177.4219 L3982.4688,180.1406 Z " fill="#000000"/><text fill="#000000" font-family="sans-serif" font-size="14" lengthAdjust="spacing" textLength="289.8369" x="3993.5" y="179.3467">logic_arc_int__baselibs__bit_manipulation</text><line style="stroke:#181818;stroke-width:0.5;" x1="3965.5" x2="4285.3369" y1="190.5" y2="190.5"/></g><!--class comp_arc_sta__baselibs__result--><g id="elem_comp_arc_sta__baselibs__result"><rect fill="#F1F1F1" height="40" id="comp_arc_sta__baselibs__result" rx="2.5" ry="2.5" style="stroke:#181818;stroke-width:0.5;" width="253.4297" x="5949" y="275.5"/><ellipse cx="5964" cy="291.5" fill="#ADD1B2" rx="11" ry="11" style="stroke:#181818;stroke-width:1;"/><path d="M5966.9688,297.1406 Q5966.3906,297.4375 5965.75,297.5781 Q5965.1094,297.7344 5964.4063,297.7344 Q5961.9063,297.7344 5960.5781,296.0938 Q5959.2656,294.4375 5959.2656,291.3125 Q5959.2656,288.1875 5960.5781,286.5313 Q5961.9063,284.875 5964.4063,284.875 Q5965.1094,284.875 5965.75,285.0313 Q5966.4063,285.1875 5966.9688,285.4844 L5966.9688,288.2031 Q5966.3438,287.625 5965.75,287.3594 Q5965.1563,287.0781 5964.5313,287.0781 Q5963.1875,287.0781 5962.5,288.1563 Q5961.8125,289.2188 5961.8125,291.3125 Q5961.8125,293.4063 5962.5,294.4844 Q5963.1875,295.5469 5964.5313,295.5469 Q5965.1563,295.5469 5965.75,295.2813 Q5966.3438,295 5966.9688,294.4219 L5966.9688,297.1406 Z " fill="#000000"/><text fill="#000000" font-family="sans-serif" font-size="14" lengthAdjust="spacing" textLength="221.4297" x="5978" y="296.3467">comp_arc_sta__baselibs__result</text><line style="stroke:#181818;stroke-width:0.5;" x1="5950" x2="6201.4297" y1="307.5" y2="307.5"/></g><!--class logic_arc_int__baselibs__result--><g id="elem_logic_arc_int__baselibs__result"><rect fill="#F1F1F1" height="40" id="logic_arc_int__baselibs__result" rx="2.5" ry="2.5" style="stroke:#181818;stroke-width:0.5;" width="244.4609" x="5949.5" y="158.5"/><ellipse cx="5964.5" cy="174.5" fill="#ADD1B2" rx="11" ry="11" style="stroke:#181818;stroke-width:1;"/><path d="M5967.4688,180.1406 Q5966.8906,180.4375 5966.25,180.5781 Q5965.6094,180.7344 5964.9063,180.7344 Q5962.4063,180.7344 5961.0781,179.0938 Q5959.7656,177.4375 5959.7656,174.3125 Q5959.7656,171.1875 5961.0781,169.5313 Q5962.4063,167.875 5964.9063,167.875 Q5965.6094,167.875 5966.25,168.0313 Q5966.9063,168.1875 5967.4688,168.4844 L5967.4688,171.2031 Q5966.8438,170.625 5966.25,170.3594 Q5965.6563,170.0781 5965.0313,170.0781 Q5963.6875,170.0781 5963,171.1563 Q5962.3125,172.2188 5962.3125,174.3125 Q5962.3125,176.4063 5963,177.4844 Q5963.6875,178.5469 5965.0313,178.5469 Q5965.6563,178.5469 5966.25,178.2813 Q5966.8438,178 5967.4688,177.4219 L5967.4688,180.1406 Z " fill="#000000"/><text fill="#000000" font-family="sans-serif" font-size="14" lengthAdjust="spacing" textLength="212.4609" x="5978.5" y="179.3467">logic_arc_int__baselibs__result</text><line style="stroke:#181818;stroke-width:0.5;" x1="5950.5" x2="6192.9609" y1="190.5" y2="190.5"/></g><!--class logic_arc_int__baselibs__future--><g id="elem_logic_arc_int__baselibs__future"><rect fill="#F1F1F1" height="40" id="logic_arc_int__baselibs__future" rx="2.5" ry="2.5" style="stroke:#181818;stroke-width:0.5;" width="247.0791" x="2377" y="158.5"/><ellipse cx="2392" cy="174.5" fill="#ADD1B2" rx="11" ry="11" style="stroke:#181818;stroke-width:1;"/><path d="M2394.9688,180.1406 Q2394.3906,180.4375 2393.75,180.5781 Q2393.1094,180.7344 2392.4063,180.7344 Q2389.9063,180.7344 2388.5781,179.0938 Q2387.2656,177.4375 2387.2656,174.3125 Q2387.2656,171.1875 2388.5781,169.5313 Q2389.9063,167.875 2392.4063,167.875 Q2393.1094,167.875 2393.75,168.0313 Q2394.4063,168.1875 2394.9688,168.4844 L2394.9688,171.2031 Q2394.3438,170.625 2393.75,170.3594 Q2393.1563,170.0781 2392.5313,170.0781 Q2391.1875,170.0781 2390.5,171.1563 Q2389.8125,172.2188 2389.8125,174.3125 Q2389.8125,176.4063 2390.5,177.4844 Q2391.1875,178.5469 2392.5313,178.5469 Q2393.1563,178.5469 2393.75,178.2813 Q2394.3438,178 2394.9688,177.4219 L2394.9688,180.1406 Z " fill="#000000"/><text fill="#000000" font-family="sans-serif" font-size="14" lengthAdjust="spacing" textLength="215.0791" x="2406" y="179.3467">logic_arc_int__baselibs__future</text><line style="stroke:#181818;stroke-width:0.5;" x1="2378" x2="2623.0791" y1="190.5" y2="190.5"/></g><!--class logic_arc_int__baselibs__condition_variable--><g id="elem_logic_arc_int__baselibs__condition_variable"><rect fill="#F1F1F1" height="40" id="logic_arc_int__baselibs__condition_variable" rx="2.5" ry="2.5" style="stroke:#181818;stroke-width:0.5;" width="332.7539" x="2009" y="158.5"/><ellipse cx="2024" cy="174.5" fill="#ADD1B2" rx="11" ry="11" style="stroke:#181818;stroke-width:1;"/><path d="M2026.9688,180.1406 Q2026.3906,180.4375 2025.75,180.5781 Q2025.1094,180.7344 2024.4063,180.7344 Q2021.9063,180.7344 2020.5781,179.0938 Q2019.2656,177.4375 2019.2656,174.3125 Q2019.2656,171.1875 2020.5781,169.5313 Q2021.9063,167.875 2024.4063,167.875 Q2025.1094,167.875 2025.75,168.0313 Q2026.4063,168.1875 2026.9688,168.4844 L2026.9688,171.2031 Q2026.3438,170.625 2025.75,170.3594 Q2025.1563,170.0781 2024.5313,170.0781 Q2023.1875,170.0781 2022.5,171.1563 Q2021.8125,172.2188 2021.8125,174.3125 Q2021.8125,176.4063 2022.5,177.4844 Q2023.1875,178.5469 2024.5313,178.5469 Q2025.1563,178.5469 2025.75,178.2813 Q2026.3438,178 2026.9688,177.4219 L2026.9688,180.1406 Z " fill="#000000"/><text fill="#000000" font-family="sans-serif" font-size="14" lengthAdjust="spacing" textLength="300.7539" x="2038" y="179.3467">logic_arc_int__baselibs__condition_variable</text><line style="stroke:#181818;stroke-width:0.5;" x1="2010" x2="2340.7539" y1="190.5" y2="190.5"/></g><!--class comp_arc_sta__baselibs__json--><g id="elem_comp_arc_sta__baselibs__json"><rect fill="#F1F1F1" height="40" id="comp_arc_sta__baselibs__json" rx="2.5" ry="2.5" style="stroke:#181818;stroke-width:0.5;" width="242.1367" x="5671.5" y="275.5"/><ellipse cx="5686.5" cy="291.5" fill="#ADD1B2" rx="11" ry="11" style="stroke:#181818;stroke-width:1;"/><path d="M5689.4688,297.1406 Q5688.8906,297.4375 5688.25,297.5781 Q5687.6094,297.7344 5686.9063,297.7344 Q5684.4063,297.7344 5683.0781,296.0938 Q5681.7656,294.4375 5681.7656,291.3125 Q5681.7656,288.1875 5683.0781,286.5313 Q5684.4063,284.875 5686.9063,284.875 Q5687.6094,284.875 5688.25,285.0313 Q5688.9063,285.1875 5689.4688,285.4844 L5689.4688,288.2031 Q5688.8438,287.625 5688.25,287.3594 Q5687.6563,287.0781 5687.0313,287.0781 Q5685.6875,287.0781 5685,288.1563 Q5684.3125,289.2188 5684.3125,291.3125 Q5684.3125,293.4063 5685,294.4844 Q5685.6875,295.5469 5687.0313,295.5469 Q5687.6563,295.5469 5688.25,295.2813 Q5688.8438,295 5689.4688,294.4219 L5689.4688,297.1406 Z " fill="#000000"/><text fill="#000000" font-family="sans-serif" font-size="14" lengthAdjust="spacing" textLength="210.1367" x="5700.5" y="296.3467">comp_arc_sta__baselibs__json</text><line style="stroke:#181818;stroke-width:0.5;" x1="5672.5" x2="5912.6367" y1="307.5" y2="307.5"/></g><!--class logic_arc_int__baselibs__json--><g id="elem_logic_arc_int__baselibs__json"><rect fill="#F1F1F1" height="40" id="logic_arc_int__baselibs__json" rx="2.5" ry="2.5" style="stroke:#181818;stroke-width:0.5;" width="233.168" x="5676" y="158.5"/><ellipse cx="5691" cy="174.5" fill="#ADD1B2" rx="11" ry="11" style="stroke:#181818;stroke-width:1;"/><path d="M5693.9688,180.1406 Q5693.3906,180.4375 5692.75,180.5781 Q5692.1094,180.7344 5691.4063,180.7344 Q5688.9063,180.7344 5687.5781,179.0938 Q5686.2656,177.4375 5686.2656,174.3125 Q5686.2656,171.1875 5687.5781,169.5313 Q5688.9063,167.875 5691.4063,167.875 Q5692.1094,167.875 5692.75,168.0313 Q5693.4063,168.1875 5693.9688,168.4844 L5693.9688,171.2031 Q5693.3438,170.625 5692.75,170.3594 Q5692.1563,170.0781 5691.5313,170.0781 Q5690.1875,170.0781 5689.5,171.1563 Q5688.8125,172.2188 5688.8125,174.3125 Q5688.8125,176.4063 5689.5,177.4844 Q5690.1875,178.5469 5691.5313,178.5469 Q5692.1563,178.5469 5692.75,178.2813 Q5693.3438,178 5693.9688,177.4219 L5693.9688,180.1406 Z " fill="#000000"/><text fill="#000000" font-family="sans-serif" font-size="14" lengthAdjust="spacing" textLength="201.168" x="5705" y="179.3467">logic_arc_int__baselibs__json</text><line style="stroke:#181818;stroke-width:0.5;" x1="5677" x2="5908.168" y1="190.5" y2="190.5"/></g><!--class logic_arc_int__baselibs__message_passing--><g id="elem_logic_arc_int__baselibs__message_passing"><rect fill="#F1F1F1" height="40" id="logic_arc_int__baselibs__message_passing" rx="2.5" ry="2.5" style="stroke:#181818;stroke-width:0.5;" width="328.167" x="15.5" y="158.5"/><ellipse cx="30.5" cy="174.5" fill="#ADD1B2" rx="11" ry="11" style="stroke:#181818;stroke-width:1;"/><path d="M33.4688,180.1406 Q32.8906,180.4375 32.25,180.5781 Q31.6094,180.7344 30.9063,180.7344 Q28.4063,180.7344 27.0781,179.0938 Q25.7656,177.4375 25.7656,174.3125 Q25.7656,171.1875 27.0781,169.5313 Q28.4063,167.875 30.9063,167.875 Q31.6094,167.875 32.25,168.0313 Q32.9063,168.1875 33.4688,168.4844 L33.4688,171.2031 Q32.8438,170.625 32.25,170.3594 Q31.6563,170.0781 31.0313,170.0781 Q29.6875,170.0781 29,171.1563 Q28.3125,172.2188 28.3125,174.3125 Q28.3125,176.4063 29,177.4844 Q29.6875,178.5469 31.0313,178.5469 Q31.6563,178.5469 32.25,178.2813 Q32.8438,178 33.4688,177.4219 L33.4688,180.1406 Z " fill="#000000"/><text fill="#000000" font-family="sans-serif" font-size="14" lengthAdjust="spacing" textLength="296.167" x="44.5" y="179.3467">logic_arc_int__baselibs__message_passing</text><line style="stroke:#181818;stroke-width:0.5;" x1="16.5" x2="342.667" y1="190.5" y2="190.5"/></g><!--class logic_arc_int__baselibs__executor--><g id="elem_logic_arc_int__baselibs__executor"><rect fill="#F1F1F1" height="40" id="logic_arc_int__baselibs__executor" rx="2.5" ry="2.5" style="stroke:#181818;stroke-width:0.5;" width="266.4385" x="1707.5" y="158.5"/><ellipse cx="1722.5" cy="174.5" fill="#ADD1B2" rx="11" ry="11" style="stroke:#181818;stroke-width:1;"/><path d="M1725.4688,180.1406 Q1724.8906,180.4375 1724.25,180.5781 Q1723.6094,180.7344 1722.9063,180.7344 Q1720.4063,180.7344 1719.0781,179.0938 Q1717.7656,177.4375 1717.7656,174.3125 Q1717.7656,171.1875 1719.0781,169.5313 Q1720.4063,167.875 1722.9063,167.875 Q1723.6094,167.875 1724.25,168.0313 Q1724.9063,168.1875 1725.4688,168.4844 L1725.4688,171.2031 Q1724.8438,170.625 1724.25,170.3594 Q1723.6563,170.0781 1723.0313,170.0781 Q1721.6875,170.0781 1721,171.1563 Q1720.3125,172.2188 1720.3125,174.3125 Q1720.3125,176.4063 1721,177.4844 Q1721.6875,178.5469 1723.0313,178.5469 Q1723.6563,178.5469 1724.25,178.2813 Q1724.8438,178 1725.4688,177.4219 L1725.4688,180.1406 Z " fill="#000000"/><text fill="#000000" font-family="sans-serif" font-size="14" lengthAdjust="spacing" textLength="234.4385" x="1736.5" y="179.3467">logic_arc_int__baselibs__executor</text><line style="stroke:#181818;stroke-width:0.5;" x1="1708.5" x2="1972.9385" y1="190.5" y2="190.5"/></g><!--class comp_arc_sta__baselibs__utils--><g id="elem_comp_arc_sta__baselibs__utils"><rect fill="#F1F1F1" height="40" id="comp_arc_sta__baselibs__utils" rx="2.5" ry="2.5" style="stroke:#181818;stroke-width:0.5;" width="242.9502" x="900" y="275.5"/><ellipse cx="915" cy="291.5" fill="#ADD1B2" rx="11" ry="11" style="stroke:#181818;stroke-width:1;"/><path d="M917.9688,297.1406 Q917.3906,297.4375 916.75,297.5781 Q916.1094,297.7344 915.4063,297.7344 Q912.9063,297.7344 911.5781,296.0938 Q910.2656,294.4375 910.2656,291.3125 Q910.2656,288.1875 911.5781,286.5313 Q912.9063,284.875 915.4063,284.875 Q916.1094,284.875 916.75,285.0313 Q917.4063,285.1875 917.9688,285.4844 L917.9688,288.2031 Q917.3438,287.625 916.75,287.3594 Q916.1563,287.0781 915.5313,287.0781 Q914.1875,287.0781 913.5,288.1563 Q912.8125,289.2188 912.8125,291.3125 Q912.8125,293.4063 913.5,294.4844 Q914.1875,295.5469 915.5313,295.5469 Q916.1563,295.5469 916.75,295.2813 Q917.3438,295 917.9688,294.4219 L917.9688,297.1406 Z " fill="#000000"/><text fill="#000000" font-family="sans-serif" font-size="14" lengthAdjust="spacing" textLength="210.9502" x="929" y="296.3467">comp_arc_sta__baselibs__utils</text><line style="stroke:#181818;stroke-width:0.5;" x1="901" x2="1141.9502" y1="307.5" y2="307.5"/></g><!--class logic_arc_int__baselibs__utils_scoped_op--><g id="elem_logic_arc_int__baselibs__utils_scoped_op"><rect fill="#F1F1F1" height="40" id="logic_arc_int__baselibs__utils_scoped_op" rx="2.5" ry="2.5" style="stroke:#181818;stroke-width:0.5;" width="315.377" x="1061" y="158.5"/><ellipse cx="1076" cy="174.5" fill="#ADD1B2" rx="11" ry="11" style="stroke:#181818;stroke-width:1;"/><path d="M1078.9688,180.1406 Q1078.3906,180.4375 1077.75,180.5781 Q1077.1094,180.7344 1076.4063,180.7344 Q1073.9063,180.7344 1072.5781,179.0938 Q1071.2656,177.4375 1071.2656,174.3125 Q1071.2656,171.1875 1072.5781,169.5313 Q1073.9063,167.875 1076.4063,167.875 Q1077.1094,167.875 1077.75,168.0313 Q1078.4063,168.1875 1078.9688,168.4844 L1078.9688,171.2031 Q1078.3438,170.625 1077.75,170.3594 Q1077.1563,170.0781 1076.5313,170.0781 Q1075.1875,170.0781 1074.5,171.1563 Q1073.8125,172.2188 1073.8125,174.3125 Q1073.8125,176.4063 1074.5,177.4844 Q1075.1875,178.5469 1076.5313,178.5469 Q1077.1563,178.5469 1077.75,178.2813 Q1078.3438,178 1078.9688,177.4219 L1078.9688,180.1406 Z " fill="#000000"/><text fill="#000000" font-family="sans-serif" font-size="14" lengthAdjust="spacing" textLength="283.377" x="1090" y="179.3467">logic_arc_int__baselibs__utils_scoped_op</text><line style="stroke:#181818;stroke-width:0.5;" x1="1062" x2="1375.377" y1="190.5" y2="190.5"/></g><!--class logic_arc_int__baselibs__dynamic_array--><g id="elem_logic_arc_int__baselibs__dynamic_array"><rect fill="#F1F1F1" height="40" id="logic_arc_int__baselibs__dynamic_array" rx="2.5" ry="2.5" style="stroke:#181818;stroke-width:0.5;" width="308.3496" x="4692.5" y="158.5"/><ellipse cx="4707.5" cy="174.5" fill="#ADD1B2" rx="11" ry="11" style="stroke:#181818;stroke-width:1;"/><path d="M4710.4688,180.1406 Q4709.8906,180.4375 4709.25,180.5781 Q4708.6094,180.7344 4707.9063,180.7344 Q4705.4063,180.7344 4704.0781,179.0938 Q4702.7656,177.4375 4702.7656,174.3125 Q4702.7656,171.1875 4704.0781,169.5313 Q4705.4063,167.875 4707.9063,167.875 Q4708.6094,167.875 4709.25,168.0313 Q4709.9063,168.1875 4710.4688,168.4844 L4710.4688,171.2031 Q4709.8438,170.625 4709.25,170.3594 Q4708.6563,170.0781 4708.0313,170.0781 Q4706.6875,170.0781 4706,171.1563 Q4705.3125,172.2188 4705.3125,174.3125 Q4705.3125,176.4063 4706,177.4844 Q4706.6875,178.5469 4708.0313,178.5469 Q4708.6563,178.5469 4709.25,178.2813 Q4709.8438,178 4710.4688,177.4219 L4710.4688,180.1406 Z " fill="#000000"/><text fill="#000000" font-family="sans-serif" font-size="14" lengthAdjust="spacing" textLength="276.3496" x="4721.5" y="179.3467">logic_arc_int__baselibs__dynamic_array</text><line style="stroke:#181818;stroke-width:0.5;" x1="4693.5" x2="4999.8496" y1="190.5" y2="190.5"/></g><!--class comp_arc_sta__baselibs__concurrency--><g id="elem_comp_arc_sta__baselibs__concurrency"><rect fill="#F1F1F1" height="40" id="comp_arc_sta__baselibs__concurrency" rx="2.5" ry="2.5" style="stroke:#181818;stroke-width:0.5;" width="300.2012" x="2455.5" y="275.5"/><ellipse cx="2470.5" cy="291.5" fill="#ADD1B2" rx="11" ry="11" style="stroke:#181818;stroke-width:1;"/><path d="M2473.4688,297.1406 Q2472.8906,297.4375 2472.25,297.5781 Q2471.6094,297.7344 2470.9063,297.7344 Q2468.4063,297.7344 2467.0781,296.0938 Q2465.7656,294.4375 2465.7656,291.3125 Q2465.7656,288.1875 2467.0781,286.5313 Q2468.4063,284.875 2470.9063,284.875 Q2471.6094,284.875 2472.25,285.0313 Q2472.9063,285.1875 2473.4688,285.4844 L2473.4688,288.2031 Q2472.8438,287.625 2472.25,287.3594 Q2471.6563,287.0781 2471.0313,287.0781 Q2469.6875,287.0781 2469,288.1563 Q2468.3125,289.2188 2468.3125,291.3125 Q2468.3125,293.4063 2469,294.4844 Q2469.6875,295.5469 2471.0313,295.5469 Q2471.6563,295.5469 2472.25,295.2813 Q2472.8438,295 2473.4688,294.4219 L2473.4688,297.1406 Z " fill="#000000"/><text fill="#000000" font-family="sans-serif" font-size="14" lengthAdjust="spacing" textLength="268.2012" x="2484.5" y="296.3467">comp_arc_sta__baselibs__concurrency</text><line style="stroke:#181818;stroke-width:0.5;" x1="2456.5" x2="2754.7012" y1="307.5" y2="307.5"/></g><!--class logic_arc_int__baselibs__task--><g id="elem_logic_arc_int__baselibs__task"><rect fill="#F1F1F1" height="40" id="logic_arc_int__baselibs__task" rx="2.5" ry="2.5" style="stroke:#181818;stroke-width:0.5;" width="234.0156" x="3312.5" y="158.5"/><ellipse cx="3327.5" cy="174.5" fill="#ADD1B2" rx="11" ry="11" style="stroke:#181818;stroke-width:1;"/><path d="M3330.4688,180.1406 Q3329.8906,180.4375 3329.25,180.5781 Q3328.6094,180.7344 3327.9063,180.7344 Q3325.4063,180.7344 3324.0781,179.0938 Q3322.7656,177.4375 3322.7656,174.3125 Q3322.7656,171.1875 3324.0781,169.5313 Q3325.4063,167.875 3327.9063,167.875 Q3328.6094,167.875 3329.25,168.0313 Q3329.9063,168.1875 3330.4688,168.4844 L3330.4688,171.2031 Q3329.8438,170.625 3329.25,170.3594 Q3328.6563,170.0781 3328.0313,170.0781 Q3326.6875,170.0781 3326,171.1563 Q3325.3125,172.2188 3325.3125,174.3125 Q3325.3125,176.4063 3326,177.4844 Q3326.6875,178.5469 3328.0313,178.5469 Q3328.6563,178.5469 3329.25,178.2813 Q3329.8438,178 3330.4688,177.4219 L3330.4688,180.1406 Z " fill="#000000"/><text fill="#000000" font-family="sans-serif" font-size="14" lengthAdjust="spacing" textLength="202.0156" x="3341.5" y="179.3467">logic_arc_int__baselibs__task</text><line style="stroke:#181818;stroke-width:0.5;" x1="3313.5" x2="3545.5156" y1="190.5" y2="190.5"/></g><!--class logic_arc_int__baselibs__promise--><g id="elem_logic_arc_int__baselibs__promise"><rect fill="#F1F1F1" height="40" id="logic_arc_int__baselibs__promise" rx="2.5" ry="2.5" style="stroke:#181818;stroke-width:0.5;" width="261.1885" x="1411" y="158.5"/><ellipse cx="1426" cy="174.5" fill="#ADD1B2" rx="11" ry="11" style="stroke:#181818;stroke-width:1;"/><path d="M1428.9688,180.1406 Q1428.3906,180.4375 1427.75,180.5781 Q1427.1094,180.7344 1426.4063,180.7344 Q1423.9063,180.7344 1422.5781,179.0938 Q1421.2656,177.4375 1421.2656,174.3125 Q1421.2656,171.1875 1422.5781,169.5313 Q1423.9063,167.875 1426.4063,167.875 Q1427.1094,167.875 1427.75,168.0313 Q1428.4063,168.1875 1428.9688,168.4844 L1428.9688,171.2031 Q1428.3438,170.625 1427.75,170.3594 Q1427.1563,170.0781 1426.5313,170.0781 Q1425.1875,170.0781 1424.5,171.1563 Q1423.8125,172.2188 1423.8125,174.3125 Q1423.8125,176.4063 1424.5,177.4844 Q1425.1875,178.5469 1426.5313,178.5469 Q1427.1563,178.5469 1427.75,178.2813 Q1428.3438,178 1428.9688,177.4219 L1428.9688,180.1406 Z " fill="#000000"/><text fill="#000000" font-family="sans-serif" font-size="14" lengthAdjust="spacing" textLength="229.1885" x="1440" y="179.3467">logic_arc_int__baselibs__promise</text><line style="stroke:#181818;stroke-width:0.5;" x1="1412" x2="1671.1885" y1="190.5" y2="190.5"/></g><!--class comp_arc_sta__baselibs__filesystem--><g id="elem_comp_arc_sta__baselibs__filesystem"><rect fill="#F1F1F1" height="40" id="comp_arc_sta__baselibs__filesystem" rx="2.5" ry="2.5" style="stroke:#181818;stroke-width:0.5;" width="285.4492" x="5351" y="275.5"/><ellipse cx="5366" cy="291.5" fill="#ADD1B2" rx="11" ry="11" style="stroke:#181818;stroke-width:1;"/><path d="M5368.9688,297.1406 Q5368.3906,297.4375 5367.75,297.5781 Q5367.1094,297.7344 5366.4063,297.7344 Q5363.9063,297.7344 5362.5781,296.0938 Q5361.2656,294.4375 5361.2656,291.3125 Q5361.2656,288.1875 5362.5781,286.5313 Q5363.9063,284.875 5366.4063,284.875 Q5367.1094,284.875 5367.75,285.0313 Q5368.4063,285.1875 5368.9688,285.4844 L5368.9688,288.2031 Q5368.3438,287.625 5367.75,287.3594 Q5367.1563,287.0781 5366.5313,287.0781 Q5365.1875,287.0781 5364.5,288.1563 Q5363.8125,289.2188 5363.8125,291.3125 Q5363.8125,293.4063 5364.5,294.4844 Q5365.1875,295.5469 5366.5313,295.5469 Q5367.1563,295.5469 5367.75,295.2813 Q5368.3438,295 5368.9688,294.4219 L5368.9688,297.1406 Z " fill="#000000"/><text fill="#000000" font-family="sans-serif" font-size="14" lengthAdjust="spacing" textLength="253.4492" x="5380" y="296.3467">comp_arc_sta__baselibs__filesystem</text><line style="stroke:#181818;stroke-width:0.5;" x1="5352" x2="5635.4492" y1="307.5" y2="307.5"/></g><!--class logic_arc_int__baselibs__filesystem--><g id="elem_logic_arc_int__baselibs__filesystem"><rect fill="#F1F1F1" height="40" id="logic_arc_int__baselibs__filesystem" rx="2.5" ry="2.5" style="stroke:#181818;stroke-width:0.5;" width="276.4805" x="5364.5" y="158.5"/><ellipse cx="5379.5" cy="174.5" fill="#ADD1B2" rx="11" ry="11" style="stroke:#181818;stroke-width:1;"/><path d="M5382.4688,180.1406 Q5381.8906,180.4375 5381.25,180.5781 Q5380.6094,180.7344 5379.9063,180.7344 Q5377.4063,180.7344 5376.0781,179.0938 Q5374.7656,177.4375 5374.7656,174.3125 Q5374.7656,171.1875 5376.0781,169.5313 Q5377.4063,167.875 5379.9063,167.875 Q5380.6094,167.875 5381.25,168.0313 Q5381.9063,168.1875 5382.4688,168.4844 L5382.4688,171.2031 Q5381.8438,170.625 5381.25,170.3594 Q5380.6563,170.0781 5380.0313,170.0781 Q5378.6875,170.0781 5378,171.1563 Q5377.3125,172.2188 5377.3125,174.3125 Q5377.3125,176.4063 5378,177.4844 Q5378.6875,178.5469 5380.0313,178.5469 Q5380.6563,178.5469 5381.25,178.2813 Q5381.8438,178 5382.4688,177.4219 L5382.4688,180.1406 Z " fill="#000000"/><text fill="#000000" font-family="sans-serif" font-size="14" lengthAdjust="spacing" textLength="244.4805" x="5393.5" y="179.3467">logic_arc_int__baselibs__filesystem</text><line style="stroke:#181818;stroke-width:0.5;" x1="5365.5" x2="5639.9805" y1="190.5" y2="190.5"/></g><!--class logic_arc_int__baselibs__utils_base64--><g id="elem_logic_arc_int__baselibs__utils_base64"><rect fill="#F1F1F1" height="40" id="logic_arc_int__baselibs__utils_base64" rx="2.5" ry="2.5" style="stroke:#181818;stroke-width:0.5;" width="292.1689" x="733.5" y="158.5"/><ellipse cx="748.5" cy="174.5" fill="#ADD1B2" rx="11" ry="11" style="stroke:#181818;stroke-width:1;"/><path d="M751.4688,180.1406 Q750.8906,180.4375 750.25,180.5781 Q749.6094,180.7344 748.9063,180.7344 Q746.4063,180.7344 745.0781,179.0938 Q743.7656,177.4375 743.7656,174.3125 Q743.7656,171.1875 745.0781,169.5313 Q746.4063,167.875 748.9063,167.875 Q749.6094,167.875 750.25,168.0313 Q750.9063,168.1875 751.4688,168.4844 L751.4688,171.2031 Q750.8438,170.625 750.25,170.3594 Q749.6563,170.0781 749.0313,170.0781 Q747.6875,170.0781 747,171.1563 Q746.3125,172.2188 746.3125,174.3125 Q746.3125,176.4063 747,177.4844 Q747.6875,178.5469 749.0313,178.5469 Q749.6563,178.5469 750.25,178.2813 Q750.8438,178 751.4688,177.4219 L751.4688,180.1406 Z " fill="#000000"/><text fill="#000000" font-family="sans-serif" font-size="14" lengthAdjust="spacing" textLength="260.1689" x="762.5" y="179.3467">logic_arc_int__baselibs__utils_base64</text><line style="stroke:#181818;stroke-width:0.5;" x1="734.5" x2="1024.6689" y1="190.5" y2="190.5"/></g><!--class logic_arc_int__baselibs__task_result--><g id="elem_logic_arc_int__baselibs__task_result"><rect fill="#F1F1F1" height="40" id="logic_arc_int__baselibs__task_result" rx="2.5" ry="2.5" style="stroke:#181818;stroke-width:0.5;" width="280.9307" x="2659" y="158.5"/><ellipse cx="2674" cy="174.5" fill="#ADD1B2" rx="11" ry="11" style="stroke:#181818;stroke-width:1;"/><path d="M2676.9688,180.1406 Q2676.3906,180.4375 2675.75,180.5781 Q2675.1094,180.7344 2674.4063,180.7344 Q2671.9063,180.7344 2670.5781,179.0938 Q2669.2656,177.4375 2669.2656,174.3125 Q2669.2656,171.1875 2670.5781,169.5313 Q2671.9063,167.875 2674.4063,167.875 Q2675.1094,167.875 2675.75,168.0313 Q2676.4063,168.1875 2676.9688,168.4844 L2676.9688,171.2031 Q2676.3438,170.625 2675.75,170.3594 Q2675.1563,170.0781 2674.5313,170.0781 Q2673.1875,170.0781 2672.5,171.1563 Q2671.8125,172.2188 2671.8125,174.3125 Q2671.8125,176.4063 2672.5,177.4844 Q2673.1875,178.5469 2674.5313,178.5469 Q2675.1563,178.5469 2675.75,178.2813 Q2676.3438,178 2676.9688,177.4219 L2676.9688,180.1406 Z " fill="#000000"/><text fill="#000000" font-family="sans-serif" font-size="14" lengthAdjust="spacing" textLength="248.9307" x="2688" y="179.3467">logic_arc_int__baselibs__task_result</text><line style="stroke:#181818;stroke-width:0.5;" x1="2660" x2="2938.9307" y1="190.5" y2="190.5"/></g><!--class logic_arc_int__baselibs__memory_shared--><g id="elem_logic_arc_int__baselibs__memory_shared"><rect fill="#F1F1F1" height="40" id="logic_arc_int__baselibs__memory_shared" rx="2.5" ry="2.5" style="stroke:#181818;stroke-width:0.5;" width="318.043" x="380.5" y="158.5"/><ellipse cx="395.5" cy="174.5" fill="#ADD1B2" rx="11" ry="11" style="stroke:#181818;stroke-width:1;"/><path d="M398.4688,180.1406 Q397.8906,180.4375 397.25,180.5781 Q396.6094,180.7344 395.9063,180.7344 Q393.4063,180.7344 392.0781,179.0938 Q390.7656,177.4375 390.7656,174.3125 Q390.7656,171.1875 392.0781,169.5313 Q393.4063,167.875 395.9063,167.875 Q396.6094,167.875 397.25,168.0313 Q397.9063,168.1875 398.4688,168.4844 L398.4688,171.2031 Q397.8438,170.625 397.25,170.3594 Q396.6563,170.0781 396.0313,170.0781 Q394.6875,170.0781 394,171.1563 Q393.3125,172.2188 393.3125,174.3125 Q393.3125,176.4063 394,177.4844 Q394.6875,178.5469 396.0313,178.5469 Q396.6563,178.5469 397.25,178.2813 Q397.8438,178 398.4688,177.4219 L398.4688,180.1406 Z " fill="#000000"/><text fill="#000000" font-family="sans-serif" font-size="14" lengthAdjust="spacing" textLength="286.043" x="409.5" y="179.3467">logic_arc_int__baselibs__memory_shared</text><line style="stroke:#181818;stroke-width:0.5;" x1="381.5" x2="697.543" y1="190.5" y2="190.5"/></g><!--class logic_arc_int__baselibs__shared_future--><g id="elem_logic_arc_int__baselibs__shared_future"><rect fill="#F1F1F1" height="40" id="logic_arc_int__baselibs__shared_future" rx="2.5" ry="2.5" style="stroke:#181818;stroke-width:0.5;" width="302.0811" x="2975.5" y="158.5"/><ellipse cx="2990.5" cy="174.5" fill="#ADD1B2" rx="11" ry="11" style="stroke:#181818;stroke-width:1;"/><path d="M2993.4688,180.1406 Q2992.8906,180.4375 2992.25,180.5781 Q2991.6094,180.7344 2990.9063,180.7344 Q2988.4063,180.7344 2987.0781,179.0938 Q2985.7656,177.4375 2985.7656,174.3125 Q2985.7656,171.1875 2987.0781,169.5313 Q2988.4063,167.875 2990.9063,167.875 Q2991.6094,167.875 2992.25,168.0313 Q2992.9063,168.1875 2993.4688,168.4844 L2993.4688,171.2031 Q2992.8438,170.625 2992.25,170.3594 Q2991.6563,170.0781 2991.0313,170.0781 Q2989.6875,170.0781 2989,171.1563 Q2988.3125,172.2188 2988.3125,174.3125 Q2988.3125,176.4063 2989,177.4844 Q2989.6875,178.5469 2991.0313,178.5469 Q2991.6563,178.5469 2992.25,178.2813 Q2992.8438,178 2993.4688,177.4219 L2993.4688,180.1406 Z " fill="#000000"/><text fill="#000000" font-family="sans-serif" font-size="14" lengthAdjust="spacing" textLength="270.0811" x="3004.5" y="179.3467">logic_arc_int__baselibs__shared_future</text><line style="stroke:#181818;stroke-width:0.5;" x1="2976.5" x2="3276.5811" y1="190.5" y2="190.5"/></g><!--class comp_arc_sta__baselibs__memory_shared--><g id="elem_comp_arc_sta__baselibs__memory_shared"><rect fill="#F1F1F1" height="40" id="comp_arc_sta__baselibs__memory_shared" rx="2.5" ry="2.5" style="stroke:#181818;stroke-width:0.5;" width="327.0117" x="379" y="275.5"/><ellipse cx="394" cy="291.5" fill="#ADD1B2" rx="11" ry="11" style="stroke:#181818;stroke-width:1;"/><path d="M396.9688,297.1406 Q396.3906,297.4375 395.75,297.5781 Q395.1094,297.7344 394.4063,297.7344 Q391.9063,297.7344 390.5781,296.0938 Q389.2656,294.4375 389.2656,291.3125 Q389.2656,288.1875 390.5781,286.5313 Q391.9063,284.875 394.4063,284.875 Q395.1094,284.875 395.75,285.0313 Q396.4063,285.1875 396.9688,285.4844 L396.9688,288.2031 Q396.3438,287.625 395.75,287.3594 Q395.1563,287.0781 394.5313,287.0781 Q393.1875,287.0781 392.5,288.1563 Q391.8125,289.2188 391.8125,291.3125 Q391.8125,293.4063 392.5,294.4844 Q393.1875,295.5469 394.5313,295.5469 Q395.1563,295.5469 395.75,295.2813 Q396.3438,295 396.9688,294.4219 L396.9688,297.1406 Z " fill="#000000"/><text fill="#000000" font-family="sans-serif" font-size="14" lengthAdjust="spacing" textLength="295.0117" x="408" y="296.3467">comp_arc_sta__baselibs__memory_shared</text><line style="stroke:#181818;stroke-width:0.5;" x1="380" x2="705.0117" y1="307.5" y2="307.5"/></g><!--class comp_arc_sta__baselibs__message_passing--><g id="elem_comp_arc_sta__baselibs__message_passing"><rect fill="#F1F1F1" height="40" id="comp_arc_sta__baselibs__message_passing" rx="2.5" ry="2.5" style="stroke:#181818;stroke-width:0.5;" width="337.1357" x="7" y="275.5"/><ellipse cx="22" cy="291.5" fill="#ADD1B2" rx="11" ry="11" style="stroke:#181818;stroke-width:1;"/><path d="M24.9688,297.1406 Q24.3906,297.4375 23.75,297.5781 Q23.1094,297.7344 22.4063,297.7344 Q19.9063,297.7344 18.5781,296.0938 Q17.2656,294.4375 17.2656,291.3125 Q17.2656,288.1875 18.5781,286.5313 Q19.9063,284.875 22.4063,284.875 Q23.1094,284.875 23.75,285.0313 Q24.4063,285.1875 24.9688,285.4844 L24.9688,288.2031 Q24.3438,287.625 23.75,287.3594 Q23.1563,287.0781 22.5313,287.0781 Q21.1875,287.0781 20.5,288.1563 Q19.8125,289.2188 19.8125,291.3125 Q19.8125,293.4063 20.5,294.4844 Q21.1875,295.5469 22.5313,295.5469 Q23.1563,295.5469 23.75,295.2813 Q24.3438,295 24.9688,294.4219 L24.9688,297.1406 Z " fill="#000000"/><text fill="#000000" font-family="sans-serif" font-size="14" lengthAdjust="spacing" textLength="305.1357" x="36" y="296.3467">comp_arc_sta__baselibs__message_passing</text><line style="stroke:#181818;stroke-width:0.5;" x1="8" x2="343.1357" y1="307.5" y2="307.5"/></g><!--reverse link logic_arc_int__baselibs__bit_mask_operator to comp_arc_sta__baselibs__bit_manipulation--><g id="link_logic_arc_int__baselibs__bit_mask_operator_comp_arc_sta__baselibs__bit_manipulation"><path codeLine="15" d="M4448.5701,201.6001 C4409.1301,222.8901 4351.25,254.14 4311.91,275.38 " fill="transparent" id="logic_arc_int__baselibs__bit_mask_operator-backto-comp_arc_sta__baselibs__bit_manipulation" style="stroke:#181818;stroke-width:1;"/><polygon fill="#181818" points="4453.85,198.75,4444.0301,199.5053,4449.4501,201.1251,4447.8303,206.5451,4453.85,198.75" style="stroke:#181818;stroke-width:1;"/><text fill="#000000" font-family="sans-serif" font-size="13" lengthAdjust="spacing" textLength="76.9082" x="4397.5" y="241.5669">implements</text></g><!--reverse link logic_arc_int__baselibs__intrusive_list to comp_arc_sta__baselibs__containers--><g id="link_logic_arc_int__baselibs__intrusive_list_comp_arc_sta__baselibs__containers"><path codeLine="16" d="M5148.5431,202.0714 C5116.5131,223.3614 5070.22,254.14 5038.26,275.38 " fill="transparent" id="logic_arc_int__baselibs__intrusive_list-backto-comp_arc_sta__baselibs__containers" style="stroke:#181818;stroke-width:1;"/><polygon fill="#181818" points="5153.54,198.75,5143.8305,200.4008,5149.376,201.5178,5148.259,207.0633,5153.54,198.75" style="stroke:#181818;stroke-width:1;"/><text fill="#000000" font-family="sans-serif" font-size="13" lengthAdjust="spacing" textLength="76.9082" x="5107.5" y="241.5669">implements</text></g><!--link Feature_User to logic_arc_int__baselibs__synchronized_queue--><g id="link_Feature_User_logic_arc_int__baselibs__synchronized_queue"><path codeLine="17" d="M3171.74,54.07 C3274.9,75.88 3523.3198,128.4089 3659.7298,157.2489 " fill="transparent" id="Feature_User-to-logic_arc_int__baselibs__synchronized_queue" style="stroke:#181818;stroke-width:1;"/><polygon fill="#181818" points="3665.6,158.49,3657.622,152.7149,3660.7081,157.4558,3655.9672,160.5419,3665.6,158.49" style="stroke:#181818;stroke-width:1;"/><text fill="#000000" font-family="sans-serif" font-size="13" lengthAdjust="spacing" textLength="23.0103" x="3517.5" y="124.5669">use</text></g><!--link Feature_User to logic_arc_int__baselibs__intrusive_list--><g id="link_Feature_User_logic_arc_int__baselibs__intrusive_list"><path codeLine="18" d="M3171.6,46.18 C3381.28,54.22 4281.8,91.16 5017.5,158.5 C5023.53,159.05 5023.7097,159.0439 5029.9197,159.6639 " fill="transparent" id="Feature_User-to-logic_arc_int__baselibs__intrusive_list" style="stroke:#181818;stroke-width:1;"/><polygon fill="#181818" points="5035.89,160.26,5027.3319,155.3857,5030.9147,159.7633,5026.5371,163.3461,5035.89,160.26" style="stroke:#181818;stroke-width:1;"/><text fill="#000000" font-family="sans-serif" font-size="13" lengthAdjust="spacing" textLength="23.0103" x="4605.5" y="124.5669">use</text></g><!--link Feature_User to logic_arc_int__baselibs__bit_manipulation--><g id="link_Feature_User_logic_arc_int__baselibs__bit_manipulation"><path codeLine="19" d="M3171.69,50.52 C3313.4,69.38 3747.2925,127.1482 3976.8325,157.7082 " fill="transparent" id="Feature_User-to-logic_arc_int__baselibs__bit_manipulation" style="stroke:#181818;stroke-width:1;"/><polygon fill="#181818" points="3982.78,158.5,3974.3866,153.3472,3977.8237,157.8401,3973.3308,161.2773,3982.78,158.5" style="stroke:#181818;stroke-width:1;"/><text fill="#000000" font-family="sans-serif" font-size="13" lengthAdjust="spacing" textLength="23.0103" x="3746.5" y="124.5669">use</text></g><!--reverse link logic_arc_int__baselibs__result to comp_arc_sta__baselibs__result--><g id="link_logic_arc_int__baselibs__result_comp_arc_sta__baselibs__result"><path codeLine="20" d="M6072.379,204.7464 C6073.119,225.9764 6074.09,253.94 6074.83,275.19 " fill="transparent" id="logic_arc_int__baselibs__result-backto-comp_arc_sta__baselibs__result" style="stroke:#181818;stroke-width:1;"/><polygon fill="#181818" points="6072.17,198.75,6068.4859,207.8839,6072.3442,203.747,6076.4811,207.6052,6072.17,198.75" style="stroke:#181818;stroke-width:1;"/><text fill="#000000" font-family="sans-serif" font-size="13" lengthAdjust="spacing" textLength="76.9082" x="6075.5" y="241.5669">implements</text></g><!--link Feature_User to logic_arc_int__baselibs__future--><g id="link_Feature_User_logic_arc_int__baselibs__future"><path codeLine="21" d="M3081.48,54.07 C2978.8,75.88 2731.6091,128.4033 2595.8391,157.2433 " fill="transparent" id="Feature_User-to-logic_arc_int__baselibs__future" style="stroke:#181818;stroke-width:1;"/><polygon fill="#181818" points="2589.97,158.49,2599.6047,160.5327,2594.8609,157.4511,2597.9424,152.7073,2589.97,158.49" style="stroke:#181818;stroke-width:1;"/><text fill="#000000" font-family="sans-serif" font-size="13" lengthAdjust="spacing" textLength="23.0103" x="2796.5" y="124.5669">use</text></g><!--link Feature_User to logic_arc_int__baselibs__condition_variable--><g id="link_Feature_User_logic_arc_int__baselibs__condition_variable"><path codeLine="22" d="M3081.27,50.83 C2944.14,70 2535.0822,127.2089 2317.6522,157.6189 " fill="transparent" id="Feature_User-to-logic_arc_int__baselibs__condition_variable" style="stroke:#181818;stroke-width:1;"/><polygon fill="#181818" points="2311.71,158.45,2321.1773,161.1648,2316.6618,157.7574,2320.0692,153.2419,2311.71,158.45" style="stroke:#181818;stroke-width:1;"/><text fill="#000000" font-family="sans-serif" font-size="13" lengthAdjust="spacing" textLength="23.0103" x="2623.5" y="124.5669">use</text></g><!--reverse link logic_arc_int__baselibs__json to comp_arc_sta__baselibs__json--><g id="link_logic_arc_int__baselibs__json_comp_arc_sta__baselibs__json"><path codeLine="23" d="M5792.5,204.75 C5792.5,225.98 5792.5,253.94 5792.5,275.19 " fill="transparent" id="logic_arc_int__baselibs__json-backto-comp_arc_sta__baselibs__json" style="stroke:#181818;stroke-width:1;"/><polygon fill="#181818" points="5792.5,198.75,5788.5,207.75,5792.5,203.75,5796.5,207.75,5792.5,198.75" style="stroke:#181818;stroke-width:1;"/><text fill="#000000" font-family="sans-serif" font-size="13" lengthAdjust="spacing" textLength="76.9082" x="5793.5" y="241.5669">implements</text></g><!--link Feature_User to logic_arc_int__baselibs__message_passing--><g id="link_Feature_User_logic_arc_int__baselibs__message_passing"><path codeLine="24" d="M3081.37,45.42 C2861.36,50.02 1879.24,71.89 1075.5,111.5 C758.31,127.13 678.94,131.65 362.5,158.5 C356.29,159.03 355.9454,159.0368 349.5654,159.6168 " fill="transparent" id="Feature_User-to-logic_arc_int__baselibs__message_passing" style="stroke:#181818;stroke-width:1;"/><polygon fill="#181818" points="343.59,160.16,352.9152,163.3288,348.5695,159.7073,352.1909,155.3616,343.59,160.16" style="stroke:#181818;stroke-width:1;"/><text fill="#000000" font-family="sans-serif" font-size="13" lengthAdjust="spacing" textLength="23.0103" x="1076.5" y="124.5669">use</text></g><!--link Feature_User to logic_arc_int__baselibs__executor--><g id="link_Feature_User_logic_arc_int__baselibs__executor"><path codeLine="25" d="M3081.31,48.63 C2928.17,62.71 2414.83,110.61 1991.5,158.5 C1985.72,159.15 1985.789,159.1301 1979.829,159.8301 " fill="transparent" id="Feature_User-to-logic_arc_int__baselibs__executor" style="stroke:#181818;stroke-width:1;"/><polygon fill="#181818" points="1973.87,160.53,1983.2752,163.4529,1978.8359,159.9468,1982.342,155.5075,1973.87,160.53" style="stroke:#181818;stroke-width:1;"/><text fill="#000000" font-family="sans-serif" font-size="13" lengthAdjust="spacing" textLength="23.0103" x="2429.5" y="124.5669">use</text></g><!--reverse link logic_arc_int__baselibs__utils_scoped_op to comp_arc_sta__baselibs__utils--><g id="link_logic_arc_int__baselibs__utils_scoped_op_comp_arc_sta__baselibs__utils"><path codeLine="26" d="M1180.3479,201.7743 C1143.8679,223.0643 1090.64,254.14 1054.25,275.38 " fill="transparent" id="logic_arc_int__baselibs__utils_scoped_op-backto-comp_arc_sta__baselibs__utils" style="stroke:#181818;stroke-width:1;"/><polygon fill="#181818" points="1185.53,198.75,1175.7407,199.8317,1181.2116,201.2702,1179.7731,206.7411,1185.53,198.75" style="stroke:#181818;stroke-width:1;"/><text fill="#000000" font-family="sans-serif" font-size="13" lengthAdjust="spacing" textLength="76.9082" x="1133.5" y="241.5669">implements</text></g><!--link Feature_User to logic_arc_int__baselibs__dynamic_array--><g id="link_Feature_User_logic_arc_int__baselibs__dynamic_array"><path codeLine="27" d="M3171.51,47.21 C3357.05,58.52 4080.79,103.86 4674.5,158.5 C4680.33,159.04 4680.3088,159.0128 4686.3088,159.6028 " fill="transparent" id="Feature_User-to-logic_arc_int__baselibs__dynamic_array" style="stroke:#181818;stroke-width:1;"/><polygon fill="#181818" points="4692.28,160.19,4683.7146,155.3284,4687.304,159.7007,4682.9318,163.29,4692.28,160.19" style="stroke:#181818;stroke-width:1;"/><text fill="#000000" font-family="sans-serif" font-size="13" lengthAdjust="spacing" textLength="23.0103" x="4294.5" y="124.5669">use</text></g><!--reverse link logic_arc_int__baselibs__synchronized_queue to comp_arc_sta__baselibs__concurrency--><g id="link_logic_arc_int__baselibs__synchronized_queue_comp_arc_sta__baselibs__concurrency"><path codeLine="28" d="M3594.7029,199.2359 C3479.0429,213.1359 3322.98,231.26 3180.5,245.5 C3036.45,259.9 2871.82,273.66 2755.74,282.91 " fill="transparent" id="logic_arc_int__baselibs__synchronized_queue-backto-comp_arc_sta__baselibs__concurrency" style="stroke:#181818;stroke-width:1;"/><polygon fill="#181818" points="3600.66,198.52,3591.247,195.6225,3595.6957,199.1166,3592.2016,203.5653,3600.66,198.52" style="stroke:#181818;stroke-width:1;"/><text fill="#000000" font-family="sans-serif" font-size="13" lengthAdjust="spacing" textLength="76.9082" x="3340.5" y="241.5669">implements</text></g><!--reverse link logic_arc_int__baselibs__task to comp_arc_sta__baselibs__concurrency--><g id="link_logic_arc_int__baselibs__task_comp_arc_sta__baselibs__concurrency"><path codeLine="29" d="M3306.2676,198.3482 C3216.3776,211.9582 3095.14,230 2983.5,245.5 C2908.45,255.92 2824.92,266.82 2755.5,275.69 " fill="transparent" id="logic_arc_int__baselibs__task-backto-comp_arc_sta__baselibs__concurrency" style="stroke:#181818;stroke-width:1;"/><polygon fill="#181818" points="3312.2,197.45,3302.7026,194.8424,3307.2563,198.1985,3303.9002,202.7522,3312.2,197.45" style="stroke:#181818;stroke-width:1;"/><text fill="#000000" font-family="sans-serif" font-size="13" lengthAdjust="spacing" textLength="76.9082" x="3095.5" y="241.5669">implements</text></g><!--link Feature_User to logic_arc_int__baselibs__promise--><g id="link_Feature_User_logic_arc_int__baselibs__promise"><path codeLine="30" d="M3081.42,47.18 C2903.98,57.9 2236.65,100.03 1689.5,158.5 C1683.83,159.11 1684.0122,159.0773 1678.1622,159.7373 " fill="transparent" id="Feature_User-to-logic_arc_int__baselibs__promise" style="stroke:#181818;stroke-width:1;"/><polygon fill="#181818" points="1672.2,160.41,1681.5917,163.3758,1677.1685,159.8495,1680.6948,155.4262,1672.2,160.41" style="stroke:#181818;stroke-width:1;"/><text fill="#000000" font-family="sans-serif" font-size="13" lengthAdjust="spacing" textLength="23.0103" x="2164.5" y="124.5669">use</text></g><!--reverse link logic_arc_int__baselibs__filesystem to comp_arc_sta__baselibs__filesystem--><g id="link_logic_arc_int__baselibs__filesystem_comp_arc_sta__baselibs__filesystem"><path codeLine="31" d="M5500.5223,204.7317 C5498.8623,225.9617 5496.67,253.94 5495.01,275.19 " fill="transparent" id="logic_arc_int__baselibs__filesystem-backto-comp_arc_sta__baselibs__filesystem" style="stroke:#181818;stroke-width:1;"/><polygon fill="#181818" points="5500.99,198.75,5496.3006,207.4108,5500.6002,203.7348,5504.2762,208.0344,5500.99,198.75" style="stroke:#181818;stroke-width:1;"/><text fill="#000000" font-family="sans-serif" font-size="13" lengthAdjust="spacing" textLength="76.9082" x="5500.5" y="241.5669">implements</text></g><!--link Feature_User to logic_arc_int__baselibs__utils_base64--><g id="link_Feature_User_logic_arc_int__baselibs__utils_base64"><path codeLine="32" d="M3081.34,45.74 C2859.05,52.12 1859.05,83.8 1043.5,158.5 C1037.65,159.04 1037.6504,159.0149 1031.6304,159.6149 " fill="transparent" id="Feature_User-to-logic_arc_int__baselibs__utils_base64" style="stroke:#181818;stroke-width:1;"/><polygon fill="#181818" points="1025.66,160.21,1035.0123,163.2977,1030.6353,159.7141,1034.2189,155.3371,1025.66,160.21" style="stroke:#181818;stroke-width:1;"/><text fill="#000000" font-family="sans-serif" font-size="13" lengthAdjust="spacing" textLength="23.0103" x="1616.5" y="124.5669">use</text></g><!--link Feature_User to logic_arc_int__baselibs__utils_scoped_op--><g id="link_Feature_User_logic_arc_int__baselibs__utils_scoped_op"><path codeLine="33" d="M3081.24,46.51 C2882,55.57 2063.25,94.92 1393.5,158.5 C1387.87,159.03 1388.111,159.0012 1382.331,159.5712 " fill="transparent" id="Feature_User-to-logic_arc_int__baselibs__utils_scoped_op" style="stroke:#181818;stroke-width:1;"/><polygon fill="#181818" points="1376.36,160.16,1385.7091,163.2574,1381.3359,159.6693,1384.924,155.2961,1376.36,160.16" style="stroke:#181818;stroke-width:1;"/><text fill="#000000" font-family="sans-serif" font-size="13" lengthAdjust="spacing" textLength="23.0103" x="1966.5" y="124.5669">use</text></g><!--reverse link logic_arc_int__baselibs__task_result to comp_arc_sta__baselibs__concurrency--><g id="link_logic_arc_int__baselibs__task_result_comp_arc_sta__baselibs__concurrency"><path codeLine="34" d="M2761.8685,201.8092 C2725.9485,223.0992 2673.59,254.14 2637.75,275.38 " fill="transparent" id="logic_arc_int__baselibs__task_result-backto-comp_arc_sta__baselibs__concurrency" style="stroke:#181818;stroke-width:1;"/><polygon fill="#181818" points="2767.03,198.75,2757.2483,199.8979,2762.7288,201.2994,2761.3273,206.7799,2767.03,198.75" style="stroke:#181818;stroke-width:1;"/><text fill="#000000" font-family="sans-serif" font-size="13" lengthAdjust="spacing" textLength="76.9082" x="2715.5" y="241.5669">implements</text></g><!--reverse link logic_arc_int__baselibs__future to comp_arc_sta__baselibs__concurrency--><g id="link_logic_arc_int__baselibs__future_comp_arc_sta__baselibs__concurrency"><path codeLine="35" d="M2522.1163,203.1803 C2541.5063,224.4103 2568.46,253.94 2587.87,275.19 " fill="transparent" id="logic_arc_int__baselibs__future-backto-comp_arc_sta__baselibs__concurrency" style="stroke:#181818;stroke-width:1;"/><polygon fill="#181818" points="2518.07,198.75,2521.1859,208.093,2521.4419,202.4419,2527.093,202.6979,2518.07,198.75" style="stroke:#181818;stroke-width:1;"/><text fill="#000000" font-family="sans-serif" font-size="13" lengthAdjust="spacing" textLength="76.9082" x="2560.5" y="241.5669">implements</text></g><!--link Feature_User to logic_arc_int__baselibs__json--><g id="link_Feature_User_logic_arc_int__baselibs__json"><path codeLine="36" d="M3171.59,45.55 C3379.33,50.5 4264.95,72.91 4990.5,111.5 C5287.26,127.28 5361.96,127.33 5657.5,158.5 C5663.5,159.13 5663.6923,159.1189 5669.8923,159.8589 " fill="transparent" id="Feature_User-to-logic_arc_int__baselibs__json" style="stroke:#181818;stroke-width:1;"/><polygon fill="#181818" points="5675.85,160.57,5667.3875,155.5316,5670.8852,159.9774,5666.4394,163.4752,5675.85,160.57" style="stroke:#181818;stroke-width:1;"/><text fill="#000000" font-family="sans-serif" font-size="13" lengthAdjust="spacing" textLength="23.0103" x="5303.5" y="124.5669">use</text></g><!--link Feature_User to logic_arc_int__baselibs__memory_shared--><g id="link_Feature_User_logic_arc_int__baselibs__memory_shared"><path codeLine="37" d="M3081.35,45.78 C2883.49,51.51 2073.19,76.01 1408.5,111.5 C1100.23,127.96 1023.02,131.48 715.5,158.5 C709.99,158.98 710.3539,158.9306 704.6939,159.4606 " fill="transparent" id="Feature_User-to-logic_arc_int__baselibs__memory_shared" style="stroke:#181818;stroke-width:1;"/><polygon fill="#181818" points="698.72,160.02,708.0537,163.1635,703.6982,159.5538,707.3079,155.1983,698.72,160.02" style="stroke:#181818;stroke-width:1;"/><text fill="#000000" font-family="sans-serif" font-size="13" lengthAdjust="spacing" textLength="23.0103" x="1409.5" y="124.5669">use</text></g><!--reverse link logic_arc_int__baselibs__condition_variable to comp_arc_sta__baselibs__concurrency--><g id="link_logic_arc_int__baselibs__condition_variable_comp_arc_sta__baselibs__concurrency"><path codeLine="38" d="M2252.7863,200.1702 C2332.4263,221.4702 2454.63,254.15 2534.2,275.43 " fill="transparent" id="logic_arc_int__baselibs__condition_variable-backto-comp_arc_sta__baselibs__concurrency" style="stroke:#181818;stroke-width:1;"/><polygon fill="#181818" points="2246.99,198.62,2254.6509,204.8095,2251.8202,199.9119,2256.7179,197.0812,2246.99,198.62" style="stroke:#181818;stroke-width:1;"/><text fill="#000000" font-family="sans-serif" font-size="13" lengthAdjust="spacing" textLength="76.9082" x="2417.5" y="241.5669">implements</text></g><!--reverse link logic_arc_int__baselibs__executor to comp_arc_sta__baselibs__concurrency--><g id="link_logic_arc_int__baselibs__executor_comp_arc_sta__baselibs__concurrency"><path codeLine="39" d="M1973.2232,199.4526 C2060.9032,212.6426 2174.32,229.69 2279.5,245.5 C2345.29,255.39 2418.56,266.4 2478.94,275.48 " fill="transparent" id="logic_arc_int__baselibs__executor-backto-comp_arc_sta__baselibs__concurrency" style="stroke:#181818;stroke-width:1;"/><polygon fill="#181818" points="1967.29,198.56,1975.5948,203.8543,1972.2344,199.3038,1976.7849,195.9433,1967.29,198.56" style="stroke:#181818;stroke-width:1;"/><text fill="#000000" font-family="sans-serif" font-size="13" lengthAdjust="spacing" textLength="76.9082" x="2280.5" y="241.5669">implements</text></g><!--link Feature_User to logic_arc_int__baselibs__task--><g id="link_Feature_User_logic_arc_int__baselibs__task"><path codeLine="40" d="M3171.53,64.27 C3229.4,89.67 3323.666,131.0483 3380.686,156.0783 " fill="transparent" id="Feature_User-to-logic_arc_int__baselibs__task" style="stroke:#181818;stroke-width:1;"/><polygon fill="#181818" points="3386.18,158.49,3379.5468,151.2098,3381.6017,156.4803,3376.3312,158.5351,3386.18,158.49" style="stroke:#181818;stroke-width:1;"/><text fill="#000000" font-family="sans-serif" font-size="13" lengthAdjust="spacing" textLength="23.0103" x="3315.5" y="124.5669">use</text></g><!--reverse link logic_arc_int__baselibs__promise to comp_arc_sta__baselibs__concurrency--><g id="link_logic_arc_int__baselibs__promise_comp_arc_sta__baselibs__concurrency"><path codeLine="41" d="M1678.1837,197.0942 C1684.0237,197.8242 1683.84,197.8 1689.5,198.5 C1865.4,220.23 1909.26,226.74 2085.5,245.5 C2209.93,258.74 2351.32,271.95 2455.22,281.31 " fill="transparent" id="logic_arc_int__baselibs__promise-backto-comp_arc_sta__baselibs__concurrency" style="stroke:#181818;stroke-width:1;"/><polygon fill="#181818" points="1672.23,196.35,1680.6644,201.4354,1677.1914,196.9702,1681.6566,193.4972,1672.23,196.35" style="stroke:#181818;stroke-width:1;"/><text fill="#000000" font-family="sans-serif" font-size="13" lengthAdjust="spacing" textLength="76.9082" x="2086.5" y="241.5669">implements</text></g><!--link Feature_User to logic_arc_int__baselibs__task_result--><g id="link_Feature_User_logic_arc_int__baselibs__task_result"><path codeLine="42" d="M3081.38,62.85 C3019.53,88.01 2914.5276,130.7088 2851.8276,156.2188 " fill="transparent" id="Feature_User-to-logic_arc_int__baselibs__task_result" style="stroke:#181818;stroke-width:1;"/><polygon fill="#181818" points="2846.27,158.48,2856.1139,158.7933,2850.9014,156.5957,2853.099,151.3832,2846.27,158.48" style="stroke:#181818;stroke-width:1;"/><text fill="#000000" font-family="sans-serif" font-size="13" lengthAdjust="spacing" textLength="23.0103" x="2954.5" y="124.5669">use</text></g><!--reverse link logic_arc_int__baselibs__shared_future to comp_arc_sta__baselibs__concurrency--><g id="link_logic_arc_int__baselibs__shared_future_comp_arc_sta__baselibs__concurrency"><path codeLine="43" d="M3034.321,199.8433 C2937.871,221.1333 2788.5,254.11 2691.99,275.41 " fill="transparent" id="logic_arc_int__baselibs__shared_future-backto-comp_arc_sta__baselibs__concurrency" style="stroke:#181818;stroke-width:1;"/><polygon fill="#181818" points="3040.18,198.55,3030.5294,196.584,3035.2975,199.6277,3032.2537,204.3959,3040.18,198.55" style="stroke:#181818;stroke-width:1;"/><text fill="#000000" font-family="sans-serif" font-size="13" lengthAdjust="spacing" textLength="76.9082" x="2898.5" y="241.5669">implements</text></g><!--reverse link logic_arc_int__baselibs__dynamic_array to comp_arc_sta__baselibs__containers--><g id="link_logic_arc_int__baselibs__dynamic_array_comp_arc_sta__baselibs__containers"><path codeLine="44" d="M4878.6828,202.2086 C4908.8628,223.4986 4952.29,254.14 4982.4,275.38 " fill="transparent" id="logic_arc_int__baselibs__dynamic_array-backto-comp_arc_sta__baselibs__containers" style="stroke:#181818;stroke-width:1;"/><polygon fill="#181818" points="4873.78,198.75,4878.8285,207.2065,4877.8657,201.6322,4883.44,200.6694,4873.78,198.75" style="stroke:#181818;stroke-width:1;"/><text fill="#000000" font-family="sans-serif" font-size="13" lengthAdjust="spacing" textLength="76.9082" x="4939.5" y="241.5669">implements</text></g><!--reverse link logic_arc_int__baselibs__memory_shared to comp_arc_sta__baselibs__memory_shared--><g id="link_logic_arc_int__baselibs__memory_shared_comp_arc_sta__baselibs__memory_shared"><path codeLine="45" d="M540.1582,204.7479 C540.7182,225.9779 541.44,253.94 542,275.19 " fill="transparent" id="logic_arc_int__baselibs__memory_shared-backto-comp_arc_sta__baselibs__memory_shared" style="stroke:#181818;stroke-width:1;"/><polygon fill="#181818" points="540,198.75,536.2387,207.8523,540.1318,203.7483,544.2359,207.6414,540,198.75" style="stroke:#181818;stroke-width:1;"/><text fill="#000000" font-family="sans-serif" font-size="13" lengthAdjust="spacing" textLength="76.9082" x="542.5" y="241.5669">implements</text></g><!--reverse link logic_arc_int__baselibs__bit_manipulation to comp_arc_sta__baselibs__bit_manipulation--><g id="link_logic_arc_int__baselibs__bit_manipulation_comp_arc_sta__baselibs__bit_manipulation"><path codeLine="46" d="M4155.5436,202.3849 C4183.5036,223.6749 4223.51,254.14 4251.4,275.38 " fill="transparent" id="logic_arc_int__baselibs__bit_manipulation-backto-comp_arc_sta__baselibs__bit_manipulation" style="stroke:#181818;stroke-width:1;"/><polygon fill="#181818" points="4150.77,198.75,4155.5072,207.3847,4154.748,201.7791,4160.3537,201.0199,4150.77,198.75" style="stroke:#181818;stroke-width:1;"/><text fill="#000000" font-family="sans-serif" font-size="13" lengthAdjust="spacing" textLength="76.9082" x="4211.5" y="241.5669">implements</text></g><!--reverse link logic_arc_int__baselibs__message_passing to comp_arc_sta__baselibs__message_passing--><g id="link_logic_arc_int__baselibs__message_passing_comp_arc_sta__baselibs__message_passing"><path codeLine="47" d="M178.621,204.7464 C177.881,225.9764 176.91,253.94 176.17,275.19 " fill="transparent" id="logic_arc_int__baselibs__message_passing-backto-comp_arc_sta__baselibs__message_passing" style="stroke:#181818;stroke-width:1;"/><polygon fill="#181818" points="178.83,198.75,174.5189,207.6052,178.6558,203.747,182.5141,207.8839,178.83,198.75" style="stroke:#181818;stroke-width:1;"/><text fill="#000000" font-family="sans-serif" font-size="13" lengthAdjust="spacing" textLength="76.9082" x="179.5" y="241.5669">implements</text></g><!--link Feature_User to logic_arc_int__baselibs__result--><g id="link_Feature_User_logic_arc_int__baselibs__result"><path codeLine="48" d="M3171.64,45.05 C3401.6,48 4465.85,63.76 5335.5,111.5 C5598.6,125.94 5664.45,130.93 5926.5,158.5 C5933.95,159.28 5935.6504,159.4452 5943.3704,160.3452 " fill="transparent" id="Feature_User-to-logic_arc_int__baselibs__result" style="stroke:#181818;stroke-width:1;"/><polygon fill="#181818" points="5949.33,161.04,5940.8537,156.0247,5944.3636,160.461,5939.9274,163.9709,5949.33,161.04" style="stroke:#181818;stroke-width:1;"/><text fill="#000000" font-family="sans-serif" font-size="13" lengthAdjust="spacing" textLength="23.0103" x="5603.5" y="124.5669">use</text></g><!--link Feature_User to logic_arc_int__baselibs__bit_mask_operator--><g id="link_Feature_User_logic_arc_int__baselibs__bit_mask_operator"><path codeLine="49" d="M3171.68,48.79 C3328.3,63.68 3862.49,114.62 4303.5,158.5 C4309.48,159.09 4309.5904,159.0972 4315.7304,159.7172 " fill="transparent" id="Feature_User-to-logic_arc_int__baselibs__bit_mask_operator" style="stroke:#181818;stroke-width:1;"/><polygon fill="#181818" points="4321.7,160.32,4313.1474,155.436,4316.7253,159.8177,4312.3437,163.3956,4321.7,160.32" style="stroke:#181818;stroke-width:1;"/><text fill="#000000" font-family="sans-serif" font-size="13" lengthAdjust="spacing" textLength="23.0103" x="3981.5" y="124.5669">use</text></g><!--link Feature_User to logic_arc_int__baselibs__shared_future--><g id="link_Feature_User_logic_arc_int__baselibs__shared_future"><path codeLine="50" d="M3126.5,81.55 C3126.5,106.45 3126.5,132.26 3126.5,152.26 " fill="transparent" id="Feature_User-to-logic_arc_int__baselibs__shared_future" style="stroke:#181818;stroke-width:1;"/><polygon fill="#181818" points="3126.5,158.26,3130.5,149.26,3126.5,153.26,3122.5,149.26,3126.5,158.26" style="stroke:#181818;stroke-width:1;"/><text fill="#000000" font-family="sans-serif" font-size="13" lengthAdjust="spacing" textLength="23.0103" x="3127.5" y="124.5669">use</text></g><!--link Feature_User to logic_arc_int__baselibs__filesystem--><g id="link_Feature_User_logic_arc_int__baselibs__filesystem"><path codeLine="51" d="M3171.64,46.14 C3354.58,52.87 4058.73,79.49 4637.5,111.5 C4952.82,128.94 5032.08,128.95 5346.5,158.5 C5352.34,159.05 5352.3316,159.0253 5358.3516,159.6453 " fill="transparent" id="Feature_User-to-logic_arc_int__baselibs__filesystem" style="stroke:#181818;stroke-width:1;"/><polygon fill="#181818" points="5364.32,160.26,5355.7771,155.359,5359.3463,159.7478,5354.9576,163.3169,5364.32,160.26" style="stroke:#181818;stroke-width:1;"/><text fill="#000000" font-family="sans-serif" font-size="13" lengthAdjust="spacing" textLength="23.0103" x="4958.5" y="124.5669">use</text></g><!--reverse link logic_arc_int__baselibs__utils_base64 to comp_arc_sta__baselibs__utils--><g id="link_logic_arc_int__baselibs__utils_base64_comp_arc_sta__baselibs__utils"><path codeLine="52" d="M907.9324,202.5265 C934.1424,223.7565 971.41,253.94 997.65,275.19 " fill="transparent" id="logic_arc_int__baselibs__utils_base64-backto-comp_arc_sta__baselibs__utils" style="stroke:#181818;stroke-width:1;"/><polygon fill="#181818" points="903.27,198.75,907.7459,207.523,907.1553,201.8971,912.7813,201.3065,903.27,198.75" style="stroke:#181818;stroke-width:1;"/><text fill="#000000" font-family="sans-serif" font-size="13" lengthAdjust="spacing" textLength="76.9082" x="960.5" y="241.5669">implements</text></g><!--SRC=[hLPDRzim3BthLmYzfnk6OOUYw6N0JZrkPq6MsOIhFZoHwkeD- - -JdRIDtRIo7TyYXwBu7Xy_jBNXjtBuY7uhE3IIWwm2St2onWY6CNYnmneaCKG8t3QmFuDhk9MQEMAL64XS4xSMRiIb9hIL_2jkqSFNO4EK4Uh-z7s7vju3aVnq-L7y4zSV3dU4DfpjBhw1vXH1_Y285rAJF7nGtGSfX0ckKJeQHQoLgZI1nOhoBsJbjCScMTs5B3TfSoDjsABfpT7pQtEwLw61gFFBLn9TOy61Pv9llcA2PvrXH2hupyUO21z0MIGUEXyWsjJlkQ7McrqC7lz0hNubI70b4y4i7-DGvjuVCtlmy1P54IXPBj2pDrfCortgBET3oUchiSEW7dH4NLaeWFb9HILr9ek1k5m9UWkgqKIv_kOZWaSmgPVlkpWIeor9jhTHP795rBai5cEgMwzT_rVKRI6kd12JOWHlsa9qfofXOiLEV85pErWCked18PNaT8SMgCrzr1LYUJ5S7D4-dTtvo-VvkdebXfNIs95yilhFT_tK51RojQ_ZkJmvS26sYdOwJxZLM3hLfzObwwLlBAHhNoqhuNskdZE2ULRLMWsdJ-b9LPsz7OnQv1JV0w4Lt8z4ESNzelNfU2UOXc4mxOeeHhDneJW6kfYzzmnMnBakHXgQU_ru2gmqtf_cmJ6N_m40]--></g></svg>