<svg xmlns="http://www.w3.org/2000/svg" xmlns:xlink="http://www.w3.org/1999/xlink" contentStyleType="text/css" data-diagram-type="CLASS" height="322px" preserveAspectRatio="none" style="width:966px;height:322px;background:#FFFFFF;" version="1.1" viewBox="0 0 966 322" width="966px" zoomAndPan="magnify"><defs/><g><!--entity Feature_User--><g id="elem_Feature_User"><ellipse cx="502.1685" cy="14" fill="#F1F1F1" rx="8" ry="8" style="stroke:#181818;stroke-width:0.5;"/><path d="M502.1685,22 L502.1685,49 M489.1685,30 L515.1685,30 M502.1685,49 L489.1685,64 M502.1685,49 L515.1685,64 " fill="transparent" style="stroke:#181818;stroke-width:0.5;"/><text fill="#000000" font-family="sans-serif" font-size="14" lengthAdjust="spacing" textLength="90.3369" x="457" y="78.4951">Feature User</text></g><!--class logic_arc_int__orchestration__user--><g id="elem_logic_arc_int__orchestration__user"><rect fill="#F1F1F1" height="40" id="logic_arc_int__orchestration__user" rx="2.5" ry="2.5" style="stroke:#181818;stroke-width:0.5;" width="271.1895" x="366.5" y="158.5"/><ellipse cx="381.5" cy="174.5" fill="#ADD1B2" rx="11" ry="11" style="stroke:#181818;stroke-width:1;"/><path d="M384.4688,180.1406 Q383.8906,180.4375 383.25,180.5781 Q382.6094,180.7344 381.9063,180.7344 Q379.4063,180.7344 378.0781,179.0938 Q376.7656,177.4375 376.7656,174.3125 Q376.7656,171.1875 378.0781,169.5313 Q379.4063,167.875 381.9063,167.875 Q382.6094,167.875 383.25,168.0313 Q383.9063,168.1875 384.4688,168.4844 L384.4688,171.2031 Q383.8438,170.625 383.25,170.3594 Q382.6563,170.0781 382.0313,170.0781 Q380.6875,170.0781 380,171.1563 Q379.3125,172.2188 379.3125,174.3125 Q379.3125,176.4063 380,177.4844 Q380.6875,178.5469 382.0313,178.5469 Q382.6563,178.5469 383.25,178.2813 Q383.8438,178 384.4688,177.4219 L384.4688,180.1406 Z " fill="#000000"/><text fill="#000000" font-family="sans-serif" font-size="14" lengthAdjust="spacing" textLength="239.1895" x="395.5" y="179.3467">logic_arc_int__orchestration__user</text><line style="stroke:#181818;stroke-width:0.5;" x1="367.5" x2="636.6895" y1="190.5" y2="190.5"/></g><!--class logic_arc_int__orchestration__design--><g id="elem_logic_arc_int__orchestration__design"><rect fill="#F1F1F1" height="40" id="logic_arc_int__orchestration__design" rx="2.5" ry="2.5" style="stroke:#181818;stroke-width:0.5;" width="287.0967" x="672.5" y="158.5"/><ellipse cx="687.5" cy="174.5" fill="#ADD1B2" rx="11" ry="11" style="stroke:#181818;stroke-width:1;"/><path d="M690.4688,180.1406 Q689.8906,180.4375 689.25,180.5781 Q688.6094,180.7344 687.9063,180.7344 Q685.4063,180.7344 684.0781,179.0938 Q682.7656,177.4375 682.7656,174.3125 Q682.7656,171.1875 684.0781,169.5313 Q685.4063,167.875 687.9063,167.875 Q688.6094,167.875 689.25,168.0313 Q689.9063,168.1875 690.4688,168.4844 L690.4688,171.2031 Q689.8438,170.625 689.25,170.3594 Q688.6563,170.0781 688.0313,170.0781 Q686.6875,170.0781 686,171.1563 Q685.3125,172.2188 685.3125,174.3125 Q685.3125,176.4063 686,177.4844 Q686.6875,178.5469 688.0313,178.5469 Q688.6563,178.5469 689.25,178.2813 Q689.8438,178 690.4688,177.4219 L690.4688,180.1406 Z " fill="#000000"/><text fill="#000000" font-family="sans-serif" font-size="14" lengthAdjust="spacing" textLength="255.0967" x="701.5" y="179.3467">logic_arc_int__orchestration__design</text><line style="stroke:#181818;stroke-width:0.5;" x1="673.5" x2="958.5967" y1="190.5" y2="190.5"/></g><!--class comp_arc_sta__orch__orchestrator--><g id="elem_comp_arc_sta__orch__orchestrator"><rect fill="#F1F1F1" height="40" id="comp_arc_sta__orch__orchestrator" rx="2.5" ry="2.5" style="stroke:#181818;stroke-width:0.5;" width="273.5068" x="365" y="275.5"/><ellipse cx="380" cy="291.5" fill="#ADD1B2" rx="11" ry="11" style="stroke:#181818;stroke-width:1;"/><path d="M382.9688,297.1406 Q382.3906,297.4375 381.75,297.5781 Q381.1094,297.7344 380.4063,297.7344 Q377.9063,297.7344 376.5781,296.0938 Q375.2656,294.4375 375.2656,291.3125 Q375.2656,288.1875 376.5781,286.5313 Q377.9063,284.875 380.4063,284.875 Q381.1094,284.875 381.75,285.0313 Q382.4063,285.1875 382.9688,285.4844 L382.9688,288.2031 Q382.3438,287.625 381.75,287.3594 Q381.1563,287.0781 380.5313,287.0781 Q379.1875,287.0781 378.5,288.1563 Q377.8125,289.2188 377.8125,291.3125 Q377.8125,293.4063 378.5,294.4844 Q379.1875,295.5469 380.5313,295.5469 Q381.1563,295.5469 381.75,295.2813 Q382.3438,295 382.9688,294.4219 L382.9688,297.1406 Z " fill="#000000"/><text fill="#000000" font-family="sans-serif" font-size="14" lengthAdjust="spacing" textLength="241.5068" x="394" y="296.3467">comp_arc_sta__orch__orchestrator</text><line style="stroke:#181818;stroke-width:0.5;" x1="366" x2="637.5068" y1="307.5" y2="307.5"/></g><!--class logic_arc_int__orchestration__deployment--><g id="elem_logic_arc_int__orchestration__deployment"><rect fill="#F1F1F1" height="40" id="logic_arc_int__orchestration__deployment" rx="2.5" ry="2.5" style="stroke:#181818;stroke-width:0.5;" width="324.3936" x="7" y="158.5"/><ellipse cx="22" cy="174.5" fill="#ADD1B2" rx="11" ry="11" style="stroke:#181818;stroke-width:1;"/><path d="M24.9688,180.1406 Q24.3906,180.4375 23.75,180.5781 Q23.1094,180.7344 22.4063,180.7344 Q19.9063,180.7344 18.5781,179.0938 Q17.2656,177.4375 17.2656,174.3125 Q17.2656,171.1875 18.5781,169.5313 Q19.9063,167.875 22.4063,167.875 Q23.1094,167.875 23.75,168.0313 Q24.4063,168.1875 24.9688,168.4844 L24.9688,171.2031 Q24.3438,170.625 23.75,170.3594 Q23.1563,170.0781 22.5313,170.0781 Q21.1875,170.0781 20.5,171.1563 Q19.8125,172.2188 19.8125,174.3125 Q19.8125,176.4063 20.5,177.4844 Q21.1875,178.5469 22.5313,178.5469 Q23.1563,178.5469 23.75,178.2813 Q24.3438,178 24.9688,177.4219 L24.9688,180.1406 Z " fill="#000000"/><text fill="#000000" font-family="sans-serif" font-size="14" lengthAdjust="spacing" textLength="292.3936" x="36" y="179.3467">logic_arc_int__orchestration__deployment</text><line style="stroke:#181818;stroke-width:0.5;" x1="8" x2="330.3936" y1="190.5" y2="190.5"/></g><!--link Feature_User to logic_arc_int__orchestration__user--><g id="link_Feature_User_logic_arc_int__orchestration__user"><path codeLine="14" d="M502,81.55 C502,106.45 502,132.26 502,152.26 " fill="transparent" id="Feature_User-to-logic_arc_int__orchestration__user" style="stroke:#181818;stroke-width:1;"/><polygon fill="#181818" points="502,158.26,506,149.26,502,153.26,498,149.26,502,158.26" style="stroke:#181818;stroke-width:1;"/><text fill="#000000" font-family="sans-serif" font-size="13" lengthAdjust="spacing" textLength="23.0103" x="503" y="124.5669">use</text></g><!--link Feature_User to logic_arc_int__orchestration__design--><g id="link_Feature_User_logic_arc_int__orchestration__design"><path codeLine="16" d="M547.32,63.7 C607.02,88.98 705.8551,130.85 765.4251,156.08 " fill="transparent" id="Feature_User-to-logic_arc_int__orchestration__design" style="stroke:#181818;stroke-width:1;"/><polygon fill="#181818" points="770.95,158.42,764.2227,151.2268,766.3459,156.47,761.1027,158.5933,770.95,158.42" style="stroke:#181818;stroke-width:1;"/><text fill="#000000" font-family="sans-serif" font-size="13" lengthAdjust="spacing" textLength="23.0103" x="698" y="124.5669">use</text></g><!--reverse link logic_arc_int__orchestration__design to comp_arc_sta__orch__orchestrator--><g id="link_logic_arc_int__orchestration__design_comp_arc_sta__orch__orchestrator"><path codeLine="17" d="M758.1659,200.6834 C700.0059,221.9834 612.17,254.15 554.07,275.43 " fill="transparent" id="logic_arc_int__orchestration__design-backto-comp_arc_sta__orch__orchestrator" style="stroke:#181818;stroke-width:1;"/><polygon fill="#181818" points="763.8,198.62,753.9733,197.959,759.105,200.3395,756.7245,205.4711,763.8,198.62" style="stroke:#181818;stroke-width:1;"/><text fill="#000000" font-family="sans-serif" font-size="13" lengthAdjust="spacing" textLength="76.9082" x="679" y="241.5669">implements</text></g><!--reverse link logic_arc_int__orchestration__user to comp_arc_sta__orch__orchestrator--><g id="link_logic_arc_int__orchestration__user_comp_arc_sta__orch__orchestrator"><path codeLine="18" d="M502,204.75 C502,225.98 502,253.94 502,275.19 " fill="transparent" id="logic_arc_int__orchestration__user-backto-comp_arc_sta__orch__orchestrator" style="stroke:#181818;stroke-width:1;"/><polygon fill="#181818" points="502,198.75,498,207.75,502,203.75,506,207.75,502,198.75" style="stroke:#181818;stroke-width:1;"/><text fill="#000000" font-family="sans-serif" font-size="13" lengthAdjust="spacing" textLength="76.9082" x="503" y="241.5669">implements</text></g><!--reverse link logic_arc_int__orchestration__deployment to comp_arc_sta__orch__orchestrator--><g id="link_logic_arc_int__orchestration__deployment_comp_arc_sta__orch__orchestrator"><path codeLine="19" d="M230.0314,200.5785 C291.7114,221.8785 385.16,254.15 446.78,275.43 " fill="transparent" id="logic_arc_int__orchestration__deployment-backto-comp_arc_sta__orch__orchestrator" style="stroke:#181818;stroke-width:1;"/><polygon fill="#181818" points="224.36,198.62,231.5614,205.3386,229.0861,200.2521,234.1727,197.7768,224.36,198.62" style="stroke:#181818;stroke-width:1;"/><text fill="#000000" font-family="sans-serif" font-size="13" lengthAdjust="spacing" textLength="76.9082" x="357" y="241.5669">implements</text></g><!--link Feature_User to logic_arc_int__orchestration__deployment--><g id="link_Feature_User_logic_arc_int__orchestration__deployment"><path codeLine="20" d="M456.74,62.58 C393.88,87.68 286.2318,130.6741 222.1518,156.2741 " fill="transparent" id="Feature_User-to-logic_arc_int__orchestration__deployment" style="stroke:#181818;stroke-width:1;"/><polygon fill="#181818" points="216.58,158.5,226.4217,158.8756,221.2232,156.645,223.4538,151.4465,216.58,158.5" style="stroke:#181818;stroke-width:1;"/><text fill="#000000" font-family="sans-serif" font-size="13" lengthAdjust="spacing" textLength="23.0103" x="327" y="124.5669">use</text></g><!--SRC=[hP0zQmCn38Pt_mgH_PBIiOGiXKmPszduR74dObl6qj4UfV-zzmLjjWQo65xnl0-oN8pyOHDzKkwCSW5bQ5cL4mIgw9Kucvu2WYXMP1qBhXbJqH6SQgLsK1Hp51qZdipU2SKMlio5Chvov0eLmvBUUlBNZ2Bml7yot-Pus3h6UPsutHcT3XNXNR3km0bi0piFmDoa9ZGdYDoHjwvwIrcjvUfx5ArktjlQOU9UO7h1tDqDADJbhUqvbOKKTIlvbvysRuP_2ocLY0cpocEywoSVRGrO8e-pyDPz_nb_FSifVm00]--></g></svg>