<svg xmlns="http://www.w3.org/2000/svg" xmlns:xlink="http://www.w3.org/1999/xlink" contentStyleType="text/css" data-diagram-type="CLASS" height="322px" preserveAspectRatio="none" style="width:6210px;height:322px;background:#FFFFFF;" version="1.1" viewBox="0 0 6210 322" width="6210px" zoomAndPan="magnify"><defs/><g><!--entity Feature_User--><g id="elem_Feature_User"><ellipse cx="2971.6685" cy="14" fill="#F1F1F1" rx="8" ry="8" style="stroke:#181818;stroke-width:0.5;"/><path d="M2971.6685,22 L2971.6685,49 M2958.6685,30 L2984.6685,30 M2971.6685,49 L2958.6685,64 M2971.6685,49 L2984.6685,64 " fill="transparent" style="stroke:#181818;stroke-width:0.5;"/><text fill="#000000" font-family="sans-serif" font-size="14" lengthAdjust="spacing" textLength="90.3369" x="2926.5" y="78.4951">Feature User</text></g><!--class logic_arc_int__baselibs__utils_base64--><g id="elem_logic_arc_int__baselibs__utils_base64"><rect fill="#F1F1F1" height="40" id="logic_arc_int__baselibs__utils_base64" rx="2.5" ry="2.5" style="stroke:#181818;stroke-width:0.5;" width="292.1689" x="649.5" y="158.5"/><ellipse cx="664.5" cy="174.5" fill="#ADD1B2" rx="11" ry="11" style="stroke:#181818;stroke-width:1;"/><path d="M667.4688,180.1406 Q666.8906,180.4375 666.25,180.5781 Q665.6094,180.7344 664.9063,180.7344 Q662.4063,180.7344 661.0781,179.0938 Q659.7656,177.4375 659.7656,174.3125 Q659.7656,171.1875 661.0781,169.5313 Q662.4063,167.875 664.9063,167.875 Q665.6094,167.875 666.25,168.0313 Q666.9063,168.1875 667.4688,168.4844 L667.4688,171.2031 Q666.8438,170.625 666.25,170.3594 Q665.6563,170.0781 665.0313,170.0781 Q663.6875,170.0781 663,171.1563 Q662.3125,172.2188 662.3125,174.3125 Q662.3125,176.4063 663,177.4844 Q663.6875,178.5469 665.0313,178.5469 Q665.6563,178.5469 666.25,178.2813 Q666.8438,178 667.4688,177.4219 L667.4688,180.1406 Z " fill="#000000"/><text fill="#000000" font-family="sans-serif" font-size="14" lengthAdjust="spacing" textLength="260.1689" x="678.5" y="179.3467">logic_arc_int__baselibs__utils_base64</text><line style="stroke:#181818;stroke-width:0.5;" x1="650.5" x2="940.6689" y1="190.5" y2="190.5"/></g><!--class logic_arc_int__baselibs__memory_shared--><g id="elem_logic_arc_int__baselibs__memory_shared"><rect fill="#F1F1F1" height="40" id="logic_arc_int__baselibs__memory_shared" rx="2.5" ry="2.5" style="stroke:#181818;stroke-width:0.5;" width="318.043" x="15.5" y="158.5"/><ellipse cx="30.5" cy="174.5" fill="#ADD1B2" rx="11" ry="11" style="stroke:#181818;stroke-width:1;"/><path d="M33.4688,180.1406 Q32.8906,180.4375 32.25,180.5781 Q31.6094,180.7344 30.9063,180.7344 Q28.4063,180.7344 27.0781,179.0938 Q25.7656,177.4375 25.7656,174.3125 Q25.7656,171.1875 27.0781,169.5313 Q28.4063,167.875 30.9063,167.875 Q31.6094,167.875 32.25,168.0313 Q32.9063,168.1875 33.4688,168.4844 L33.4688,171.2031 Q32.8438,170.625 32.25,170.3594 Q31.6563,170.0781 31.0313,170.0781 Q29.6875,170.0781 29,171.1563 Q28.3125,172.2188 28.3125,174.3125 Q28.3125,176.4063 29,177.4844 Q29.6875,178.5469 31.0313,178.5469 Q31.6563,178.5469 32.25,178.2813 Q32.8438,178 33.4688,177.4219 L33.4688,180.1406 Z " fill="#000000"/><text fill="#000000" font-family="sans-serif" font-size="14" lengthAdjust="spacing" textLength="286.043" x="44.5" y="179.3467">logic_arc_int__baselibs__memory_shared</text><line style="stroke:#181818;stroke-width:0.5;" x1="16.5" x2="332.543" y1="190.5" y2="190.5"/></g><!--class logic_arc_int__baselibs__filesystem--><g id="elem_logic_arc_int__baselibs__filesystem"><rect fill="#F1F1F1" height="40" id="logic_arc_int__baselibs__filesystem" rx="2.5" ry="2.5" style="stroke:#181818;stroke-width:0.5;" width="276.4805" x="5550.5" y="158.5"/><ellipse cx="5565.5" cy="174.5" fill="#ADD1B2" rx="11" ry="11" style="stroke:#181818;stroke-width:1;"/><path d="M5568.4688,180.1406 Q5567.8906,180.4375 5567.25,180.5781 Q5566.6094,180.7344 5565.9063,180.7344 Q5563.4063,180.7344 5562.0781,179.0938 Q5560.7656,177.4375 5560.7656,174.3125 Q5560.7656,171.1875 5562.0781,169.5313 Q5563.4063,167.875 5565.9063,167.875 Q5566.6094,167.875 5567.25,168.0313 Q5567.9063,168.1875 5568.4688,168.4844 L5568.4688,171.2031 Q5567.8438,170.625 5567.25,170.3594 Q5566.6563,170.0781 5566.0313,170.0781 Q5564.6875,170.0781 5564,171.1563 Q5563.3125,172.2188 5563.3125,174.3125 Q5563.3125,176.4063 5564,177.4844 Q5564.6875,178.5469 5566.0313,178.5469 Q5566.6563,178.5469 5567.25,178.2813 Q5567.8438,178 5568.4688,177.4219 L5568.4688,180.1406 Z " fill="#000000"/><text fill="#000000" font-family="sans-serif" font-size="14" lengthAdjust="spacing" textLength="244.4805" x="5579.5" y="179.3467">logic_arc_int__baselibs__filesystem</text><line style="stroke:#181818;stroke-width:0.5;" x1="5551.5" x2="5825.9805" y1="190.5" y2="190.5"/></g><!--class comp_arc_sta__baselibs__concurrency--><g id="elem_comp_arc_sta__baselibs__concurrency"><rect fill="#F1F1F1" height="40" id="comp_arc_sta__baselibs__concurrency" rx="2.5" ry="2.5" style="stroke:#181818;stroke-width:0.5;" width="300.2012" x="2302.5" y="275.5"/><ellipse cx="2317.5" cy="291.5" fill="#ADD1B2" rx="11" ry="11" style="stroke:#181818;stroke-width:1;"/><path d="M2320.4688,297.1406 Q2319.8906,297.4375 2319.25,297.5781 Q2318.6094,297.7344 2317.9063,297.7344 Q2315.4063,297.7344 2314.0781,296.0938 Q2312.7656,294.4375 2312.7656,291.3125 Q2312.7656,288.1875 2314.0781,286.5313 Q2315.4063,284.875 2317.9063,284.875 Q2318.6094,284.875 2319.25,285.0313 Q2319.9063,285.1875 2320.4688,285.4844 L2320.4688,288.2031 Q2319.8438,287.625 2319.25,287.3594 Q2318.6563,287.0781 2318.0313,287.0781 Q2316.6875,287.0781 2316,288.1563 Q2315.3125,289.2188 2315.3125,291.3125 Q2315.3125,293.4063 2316,294.4844 Q2316.6875,295.5469 2318.0313,295.5469 Q2318.6563,295.5469 2319.25,295.2813 Q2319.8438,295 2320.4688,294.4219 L2320.4688,297.1406 Z " fill="#000000"/><text fill="#000000" font-family="sans-serif" font-size="14" lengthAdjust="spacing" textLength="268.2012" x="2331.5" y="296.3467">comp_arc_sta__baselibs__concurrency</text><line style="stroke:#181818;stroke-width:0.5;" x1="2303.5" x2="2601.7012" y1="307.5" y2="307.5"/></g><!--class logic_arc_int__baselibs__executor--><g id="elem_logic_arc_int__baselibs__executor"><rect fill="#F1F1F1" height="40" id="logic_arc_int__baselibs__executor" rx="2.5" ry="2.5" style="stroke:#181818;stroke-width:0.5;" width="266.4385" x="2209.5" y="158.5"/><ellipse cx="2224.5" cy="174.5" fill="#ADD1B2" rx="11" ry="11" style="stroke:#181818;stroke-width:1;"/><path d="M2227.4688,180.1406 Q2226.8906,180.4375 2226.25,180.5781 Q2225.6094,180.7344 2224.9063,180.7344 Q2222.4063,180.7344 2221.0781,179.0938 Q2219.7656,177.4375 2219.7656,174.3125 Q2219.7656,171.1875 2221.0781,169.5313 Q2222.4063,167.875 2224.9063,167.875 Q2225.6094,167.875 2226.25,168.0313 Q2226.9063,168.1875 2227.4688,168.4844 L2227.4688,171.2031 Q2226.8438,170.625 2226.25,170.3594 Q2225.6563,170.0781 2225.0313,170.0781 Q2223.6875,170.0781 2223,171.1563 Q2222.3125,172.2188 2222.3125,174.3125 Q2222.3125,176.4063 2223,177.4844 Q2223.6875,178.5469 2225.0313,178.5469 Q2225.6563,178.5469 2226.25,178.2813 Q2226.8438,178 2227.4688,177.4219 L2227.4688,180.1406 Z " fill="#000000"/><text fill="#000000" font-family="sans-serif" font-size="14" lengthAdjust="spacing" textLength="234.4385" x="2238.5" y="179.3467">logic_arc_int__baselibs__executor</text><line style="stroke:#181818;stroke-width:0.5;" x1="2210.5" x2="2474.9385" y1="190.5" y2="190.5"/></g><!--class logic_arc_int__baselibs__dynamic_array--><g id="elem_logic_arc_int__baselibs__dynamic_array"><rect fill="#F1F1F1" height="40" id="logic_arc_int__baselibs__dynamic_array" rx="2.5" ry="2.5" style="stroke:#181818;stroke-width:0.5;" width="308.3496" x="4610.5" y="158.5"/><ellipse cx="4625.5" cy="174.5" fill="#ADD1B2" rx="11" ry="11" style="stroke:#181818;stroke-width:1;"/><path d="M4628.4688,180.1406 Q4627.8906,180.4375 4627.25,180.5781 Q4626.6094,180.7344 4625.9063,180.7344 Q4623.4063,180.7344 4622.0781,179.0938 Q4620.7656,177.4375 4620.7656,174.3125 Q4620.7656,171.1875 4622.0781,169.5313 Q4623.4063,167.875 4625.9063,167.875 Q4626.6094,167.875 4627.25,168.0313 Q4627.9063,168.1875 4628.4688,168.4844 L4628.4688,171.2031 Q4627.8438,170.625 4627.25,170.3594 Q4626.6563,170.0781 4626.0313,170.0781 Q4624.6875,170.0781 4624,171.1563 Q4623.3125,172.2188 4623.3125,174.3125 Q4623.3125,176.4063 4624,177.4844 Q4624.6875,178.5469 4626.0313,178.5469 Q4626.6563,178.5469 4627.25,178.2813 Q4627.8438,178 4628.4688,177.4219 L4628.4688,180.1406 Z " fill="#000000"/><text fill="#000000" font-family="sans-serif" font-size="14" lengthAdjust="spacing" textLength="276.3496" x="4639.5" y="179.3467">logic_arc_int__baselibs__dynamic_array</text><line style="stroke:#181818;stroke-width:0.5;" x1="4611.5" x2="4917.8496" y1="190.5" y2="190.5"/></g><!--class logic_arc_int__baselibs__future--><g id="elem_logic_arc_int__baselibs__future"><rect fill="#F1F1F1" height="40" id="logic_arc_int__baselibs__future" rx="2.5" ry="2.5" style="stroke:#181818;stroke-width:0.5;" width="247.0791" x="2848" y="158.5"/><ellipse cx="2863" cy="174.5" fill="#ADD1B2" rx="11" ry="11" style="stroke:#181818;stroke-width:1;"/><path d="M2865.9688,180.1406 Q2865.3906,180.4375 2864.75,180.5781 Q2864.1094,180.7344 2863.4063,180.7344 Q2860.9063,180.7344 2859.5781,179.0938 Q2858.2656,177.4375 2858.2656,174.3125 Q2858.2656,171.1875 2859.5781,169.5313 Q2860.9063,167.875 2863.4063,167.875 Q2864.1094,167.875 2864.75,168.0313 Q2865.4063,168.1875 2865.9688,168.4844 L2865.9688,171.2031 Q2865.3438,170.625 2864.75,170.3594 Q2864.1563,170.0781 2863.5313,170.0781 Q2862.1875,170.0781 2861.5,171.1563 Q2860.8125,172.2188 2860.8125,174.3125 Q2860.8125,176.4063 2861.5,177.4844 Q2862.1875,178.5469 2863.5313,178.5469 Q2864.1563,178.5469 2864.75,178.2813 Q2865.3438,178 2865.9688,177.4219 L2865.9688,180.1406 Z " fill="#000000"/><text fill="#000000" font-family="sans-serif" font-size="14" lengthAdjust="spacing" textLength="215.0791" x="2877" y="179.3467">logic_arc_int__baselibs__future</text><line style="stroke:#181818;stroke-width:0.5;" x1="2849" x2="3094.0791" y1="190.5" y2="190.5"/></g><!--class logic_arc_int__baselibs__task_result--><g id="elem_logic_arc_int__baselibs__task_result"><rect fill="#F1F1F1" height="40" id="logic_arc_int__baselibs__task_result" rx="2.5" ry="2.5" style="stroke:#181818;stroke-width:0.5;" width="280.9307" x="1893" y="158.5"/><ellipse cx="1908" cy="174.5" fill="#ADD1B2" rx="11" ry="11" style="stroke:#181818;stroke-width:1;"/><path d="M1910.9688,180.1406 Q1910.3906,180.4375 1909.75,180.5781 Q1909.1094,180.7344 1908.4063,180.7344 Q1905.9063,180.7344 1904.5781,179.0938 Q1903.2656,177.4375 1903.2656,174.3125 Q1903.2656,171.1875 1904.5781,169.5313 Q1905.9063,167.875 1908.4063,167.875 Q1909.1094,167.875 1909.75,168.0313 Q1910.4063,168.1875 1910.9688,168.4844 L1910.9688,171.2031 Q1910.3438,170.625 1909.75,170.3594 Q1909.1563,170.0781 1908.5313,170.0781 Q1907.1875,170.0781 1906.5,171.1563 Q1905.8125,172.2188 1905.8125,174.3125 Q1905.8125,176.4063 1906.5,177.4844 Q1907.1875,178.5469 1908.5313,178.5469 Q1909.1563,178.5469 1909.75,178.2813 Q1910.3438,178 1910.9688,177.4219 L1910.9688,180.1406 Z " fill="#000000"/><text fill="#000000" font-family="sans-serif" font-size="14" lengthAdjust="spacing" textLength="248.9307" x="1922" y="179.3467">logic_arc_int__baselibs__task_result</text><line style="stroke:#181818;stroke-width:0.5;" x1="1894" x2="2172.9307" y1="190.5" y2="190.5"/></g><!--class logic_arc_int__baselibs__synchronized_queue--><g id="elem_logic_arc_int__baselibs__synchronized_queue"><rect fill="#F1F1F1" height="40" id="logic_arc_int__baselibs__synchronized_queue" rx="2.5" ry="2.5" style="stroke:#181818;stroke-width:0.5;" width="348.3604" x="3130.5" y="158.5"/><ellipse cx="3145.5" cy="174.5" fill="#ADD1B2" rx="11" ry="11" style="stroke:#181818;stroke-width:1;"/><path d="M3148.4688,180.1406 Q3147.8906,180.4375 3147.25,180.5781 Q3146.6094,180.7344 3145.9063,180.7344 Q3143.4063,180.7344 3142.0781,179.0938 Q3140.7656,177.4375 3140.7656,174.3125 Q3140.7656,171.1875 3142.0781,169.5313 Q3143.4063,167.875 3145.9063,167.875 Q3146.6094,167.875 3147.25,168.0313 Q3147.9063,168.1875 3148.4688,168.4844 L3148.4688,171.2031 Q3147.8438,170.625 3147.25,170.3594 Q3146.6563,170.0781 3146.0313,170.0781 Q3144.6875,170.0781 3144,171.1563 Q3143.3125,172.2188 3143.3125,174.3125 Q3143.3125,176.4063 3144,177.4844 Q3144.6875,178.5469 3146.0313,178.5469 Q3146.6563,178.5469 3147.25,178.2813 Q3147.8438,178 3148.4688,177.4219 L3148.4688,180.1406 Z " fill="#000000"/><text fill="#000000" font-family="sans-serif" font-size="14" lengthAdjust="spacing" textLength="316.3604" x="3159.5" y="179.3467">logic_arc_int__baselibs__synchronized_queue</text><line style="stroke:#181818;stroke-width:0.5;" x1="3131.5" x2="3477.8604" y1="190.5" y2="190.5"/></g><!--class logic_arc_int__baselibs__result--><g id="elem_logic_arc_int__baselibs__result"><rect fill="#F1F1F1" height="40" id="logic_arc_int__baselibs__result" rx="2.5" ry="2.5" style="stroke:#181818;stroke-width:0.5;" width="244.4609" x="370.5" y="158.5"/><ellipse cx="385.5" cy="174.5" fill="#ADD1B2" rx="11" ry="11" style="stroke:#181818;stroke-width:1;"/><path d="M388.4688,180.1406 Q387.8906,180.4375 387.25,180.5781 Q386.6094,180.7344 385.9063,180.7344 Q383.4063,180.7344 382.0781,179.0938 Q380.7656,177.4375 380.7656,174.3125 Q380.7656,171.1875 382.0781,169.5313 Q383.4063,167.875 385.9063,167.875 Q386.6094,167.875 387.25,168.0313 Q387.9063,168.1875 388.4688,168.4844 L388.4688,171.2031 Q387.8438,170.625 387.25,170.3594 Q386.6563,170.0781 386.0313,170.0781 Q384.6875,170.0781 384,171.1563 Q383.3125,172.2188 383.3125,174.3125 Q383.3125,176.4063 384,177.4844 Q384.6875,178.5469 386.0313,178.5469 Q386.6563,178.5469 387.25,178.2813 Q387.8438,178 388.4688,177.4219 L388.4688,180.1406 Z " fill="#000000"/><text fill="#000000" font-family="sans-serif" font-size="14" lengthAdjust="spacing" textLength="212.4609" x="399.5" y="179.3467">logic_arc_int__baselibs__result</text><line style="stroke:#181818;stroke-width:0.5;" x1="371.5" x2="613.9609" y1="190.5" y2="190.5"/></g><!--class comp_arc_sta__baselibs__message_passing--><g id="elem_comp_arc_sta__baselibs__message_passing"><rect fill="#F1F1F1" height="40" id="comp_arc_sta__baselibs__message_passing" rx="2.5" ry="2.5" style="stroke:#181818;stroke-width:0.5;" width="337.1357" x="5866" y="275.5"/><ellipse cx="5881" cy="291.5" fill="#ADD1B2" rx="11" ry="11" style="stroke:#181818;stroke-width:1;"/><path d="M5883.9688,297.1406 Q5883.3906,297.4375 5882.75,297.5781 Q5882.1094,297.7344 5881.4063,297.7344 Q5878.9063,297.7344 5877.5781,296.0938 Q5876.2656,294.4375 5876.2656,291.3125 Q5876.2656,288.1875 5877.5781,286.5313 Q5878.9063,284.875 5881.4063,284.875 Q5882.1094,284.875 5882.75,285.0313 Q5883.4063,285.1875 5883.9688,285.4844 L5883.9688,288.2031 Q5883.3438,287.625 5882.75,287.3594 Q5882.1563,287.0781 5881.5313,287.0781 Q5880.1875,287.0781 5879.5,288.1563 Q5878.8125,289.2188 5878.8125,291.3125 Q5878.8125,293.4063 5879.5,294.4844 Q5880.1875,295.5469 5881.5313,295.5469 Q5882.1563,295.5469 5882.75,295.2813 Q5883.3438,295 5883.9688,294.4219 L5883.9688,297.1406 Z " fill="#000000"/><text fill="#000000" font-family="sans-serif" font-size="14" lengthAdjust="spacing" textLength="305.1357" x="5895" y="296.3467">comp_arc_sta__baselibs__message_passing</text><line style="stroke:#181818;stroke-width:0.5;" x1="5867" x2="6202.1357" y1="307.5" y2="307.5"/></g><!--class logic_arc_int__baselibs__message_passing--><g id="elem_logic_arc_int__baselibs__message_passing"><rect fill="#F1F1F1" height="40" id="logic_arc_int__baselibs__message_passing" rx="2.5" ry="2.5" style="stroke:#181818;stroke-width:0.5;" width="328.167" x="5866.5" y="158.5"/><ellipse cx="5881.5" cy="174.5" fill="#ADD1B2" rx="11" ry="11" style="stroke:#181818;stroke-width:1;"/><path d="M5884.4688,180.1406 Q5883.8906,180.4375 5883.25,180.5781 Q5882.6094,180.7344 5881.9063,180.7344 Q5879.4063,180.7344 5878.0781,179.0938 Q5876.7656,177.4375 5876.7656,174.3125 Q5876.7656,171.1875 5878.0781,169.5313 Q5879.4063,167.875 5881.9063,167.875 Q5882.6094,167.875 5883.25,168.0313 Q5883.9063,168.1875 5884.4688,168.4844 L5884.4688,171.2031 Q5883.8438,170.625 5883.25,170.3594 Q5882.6563,170.0781 5882.0313,170.0781 Q5880.6875,170.0781 5880,171.1563 Q5879.3125,172.2188 5879.3125,174.3125 Q5879.3125,176.4063 5880,177.4844 Q5880.6875,178.5469 5882.0313,178.5469 Q5882.6563,178.5469 5883.25,178.2813 Q5883.8438,178 5884.4688,177.4219 L5884.4688,180.1406 Z " fill="#000000"/><text fill="#000000" font-family="sans-serif" font-size="14" lengthAdjust="spacing" textLength="296.167" x="5895.5" y="179.3467">logic_arc_int__baselibs__message_passing</text><line style="stroke:#181818;stroke-width:0.5;" x1="5867.5" x2="6193.667" y1="190.5" y2="190.5"/></g><!--class comp_arc_sta__baselibs__filesystem--><g id="elem_comp_arc_sta__baselibs__filesystem"><rect fill="#F1F1F1" height="40" id="comp_arc_sta__baselibs__filesystem" rx="2.5" ry="2.5" style="stroke:#181818;stroke-width:0.5;" width="285.4492" x="5546" y="275.5"/><ellipse cx="5561" cy="291.5" fill="#ADD1B2" rx="11" ry="11" style="stroke:#181818;stroke-width:1;"/><path d="M5563.9688,297.1406 Q5563.3906,297.4375 5562.75,297.5781 Q5562.1094,297.7344 5561.4063,297.7344 Q5558.9063,297.7344 5557.5781,296.0938 Q5556.2656,294.4375 5556.2656,291.3125 Q5556.2656,288.1875 5557.5781,286.5313 Q5558.9063,284.875 5561.4063,284.875 Q5562.1094,284.875 5562.75,285.0313 Q5563.4063,285.1875 5563.9688,285.4844 L5563.9688,288.2031 Q5563.3438,287.625 5562.75,287.3594 Q5562.1563,287.0781 5561.5313,287.0781 Q5560.1875,287.0781 5559.5,288.1563 Q5558.8125,289.2188 5558.8125,291.3125 Q5558.8125,293.4063 5559.5,294.4844 Q5560.1875,295.5469 5561.5313,295.5469 Q5562.1563,295.5469 5562.75,295.2813 Q5563.3438,295 5563.9688,294.4219 L5563.9688,297.1406 Z " fill="#000000"/><text fill="#000000" font-family="sans-serif" font-size="14" lengthAdjust="spacing" textLength="253.4492" x="5575" y="296.3467">comp_arc_sta__baselibs__filesystem</text><line style="stroke:#181818;stroke-width:0.5;" x1="5547" x2="5830.4492" y1="307.5" y2="307.5"/></g><!--class logic_arc_int__baselibs__condition_variable--><g id="elem_logic_arc_int__baselibs__condition_variable"><rect fill="#F1F1F1" height="40" id="logic_arc_int__baselibs__condition_variable" rx="2.5" ry="2.5" style="stroke:#181818;stroke-width:0.5;" width="332.7539" x="3514" y="158.5"/><ellipse cx="3529" cy="174.5" fill="#ADD1B2" rx="11" ry="11" style="stroke:#181818;stroke-width:1;"/><path d="M3531.9688,180.1406 Q3531.3906,180.4375 3530.75,180.5781 Q3530.1094,180.7344 3529.4063,180.7344 Q3526.9063,180.7344 3525.5781,179.0938 Q3524.2656,177.4375 3524.2656,174.3125 Q3524.2656,171.1875 3525.5781,169.5313 Q3526.9063,167.875 3529.4063,167.875 Q3530.1094,167.875 3530.75,168.0313 Q3531.4063,168.1875 3531.9688,168.4844 L3531.9688,171.2031 Q3531.3438,170.625 3530.75,170.3594 Q3530.1563,170.0781 3529.5313,170.0781 Q3528.1875,170.0781 3527.5,171.1563 Q3526.8125,172.2188 3526.8125,174.3125 Q3526.8125,176.4063 3527.5,177.4844 Q3528.1875,178.5469 3529.5313,178.5469 Q3530.1563,178.5469 3530.75,178.2813 Q3531.3438,178 3531.9688,177.4219 L3531.9688,180.1406 Z " fill="#000000"/><text fill="#000000" font-family="sans-serif" font-size="14" lengthAdjust="spacing" textLength="300.7539" x="3543" y="179.3467">logic_arc_int__baselibs__condition_variable</text><line style="stroke:#181818;stroke-width:0.5;" x1="3515" x2="3845.7539" y1="190.5" y2="190.5"/></g><!--class comp_arc_sta__baselibs__utils--><g id="elem_comp_arc_sta__baselibs__utils"><rect fill="#F1F1F1" height="40" id="comp_arc_sta__baselibs__utils" rx="2.5" ry="2.5" style="stroke:#181818;stroke-width:0.5;" width="242.9502" x="816" y="275.5"/><ellipse cx="831" cy="291.5" fill="#ADD1B2" rx="11" ry="11" style="stroke:#181818;stroke-width:1;"/><path d="M833.9688,297.1406 Q833.3906,297.4375 832.75,297.5781 Q832.1094,297.7344 831.4063,297.7344 Q828.9063,297.7344 827.5781,296.0938 Q826.2656,294.4375 826.2656,291.3125 Q826.2656,288.1875 827.5781,286.5313 Q828.9063,284.875 831.4063,284.875 Q832.1094,284.875 832.75,285.0313 Q833.4063,285.1875 833.9688,285.4844 L833.9688,288.2031 Q833.3438,287.625 832.75,287.3594 Q832.1563,287.0781 831.5313,287.0781 Q830.1875,287.0781 829.5,288.1563 Q828.8125,289.2188 828.8125,291.3125 Q828.8125,293.4063 829.5,294.4844 Q830.1875,295.5469 831.5313,295.5469 Q832.1563,295.5469 832.75,295.2813 Q833.3438,295 833.9688,294.4219 L833.9688,297.1406 Z " fill="#000000"/><text fill="#000000" font-family="sans-serif" font-size="14" lengthAdjust="spacing" textLength="210.9502" x="845" y="296.3467">comp_arc_sta__baselibs__utils</text><line style="stroke:#181818;stroke-width:0.5;" x1="817" x2="1057.9502" y1="307.5" y2="307.5"/></g><!--class logic_arc_int__baselibs__utils_scoped_op--><g id="elem_logic_arc_int__baselibs__utils_scoped_op"><rect fill="#F1F1F1" height="40" id="logic_arc_int__baselibs__utils_scoped_op" rx="2.5" ry="2.5" style="stroke:#181818;stroke-width:0.5;" width="315.377" x="977" y="158.5"/><ellipse cx="992" cy="174.5" fill="#ADD1B2" rx="11" ry="11" style="stroke:#181818;stroke-width:1;"/><path d="M994.9688,180.1406 Q994.3906,180.4375 993.75,180.5781 Q993.1094,180.7344 992.4063,180.7344 Q989.9063,180.7344 988.5781,179.0938 Q987.2656,177.4375 987.2656,174.3125 Q987.2656,171.1875 988.5781,169.5313 Q989.9063,167.875 992.4063,167.875 Q993.1094,167.875 993.75,168.0313 Q994.4063,168.1875 994.9688,168.4844 L994.9688,171.2031 Q994.3438,170.625 993.75,170.3594 Q993.1563,170.0781 992.5313,170.0781 Q991.1875,170.0781 990.5,171.1563 Q989.8125,172.2188 989.8125,174.3125 Q989.8125,176.4063 990.5,177.4844 Q991.1875,178.5469 992.5313,178.5469 Q993.1563,178.5469 993.75,178.2813 Q994.3438,178 994.9688,177.4219 L994.9688,180.1406 Z " fill="#000000"/><text fill="#000000" font-family="sans-serif" font-size="14" lengthAdjust="spacing" textLength="283.377" x="1006" y="179.3467">logic_arc_int__baselibs__utils_scoped_op</text><line style="stroke:#181818;stroke-width:0.5;" x1="978" x2="1291.377" y1="190.5" y2="190.5"/></g><!--class comp_arc_sta__baselibs__containers--><g id="elem_comp_arc_sta__baselibs__containers"><rect fill="#F1F1F1" height="40" id="comp_arc_sta__baselibs__containers" rx="2.5" ry="2.5" style="stroke:#181818;stroke-width:0.5;" width="287.1445" x="4761" y="275.5"/><ellipse cx="4776" cy="291.5" fill="#ADD1B2" rx="11" ry="11" style="stroke:#181818;stroke-width:1;"/><path d="M4778.9688,297.1406 Q4778.3906,297.4375 4777.75,297.5781 Q4777.1094,297.7344 4776.4063,297.7344 Q4773.9063,297.7344 4772.5781,296.0938 Q4771.2656,294.4375 4771.2656,291.3125 Q4771.2656,288.1875 4772.5781,286.5313 Q4773.9063,284.875 4776.4063,284.875 Q4777.1094,284.875 4777.75,285.0313 Q4778.4063,285.1875 4778.9688,285.4844 L4778.9688,288.2031 Q4778.3438,287.625 4777.75,287.3594 Q4777.1563,287.0781 4776.5313,287.0781 Q4775.1875,287.0781 4774.5,288.1563 Q4773.8125,289.2188 4773.8125,291.3125 Q4773.8125,293.4063 4774.5,294.4844 Q4775.1875,295.5469 4776.5313,295.5469 Q4777.1563,295.5469 4777.75,295.2813 Q4778.3438,295 4778.9688,294.4219 L4778.9688,297.1406 Z " fill="#000000"/><text fill="#000000" font-family="sans-serif" font-size="14" lengthAdjust="spacing" textLength="255.1445" x="4790" y="296.3467">comp_arc_sta__baselibs__containers</text><line style="stroke:#181818;stroke-width:0.5;" x1="4762" x2="5047.1445" y1="307.5" y2="307.5"/></g><!--class logic_arc_int__baselibs__intrusive_list--><g id="elem_logic_arc_int__baselibs__intrusive_list"><rect fill="#F1F1F1" height="40" id="logic_arc_int__baselibs__intrusive_list" rx="2.5" ry="2.5" style="stroke:#181818;stroke-width:0.5;" width="293.0713" x="4954" y="158.5"/><ellipse cx="4969" cy="174.5" fill="#ADD1B2" rx="11" ry="11" style="stroke:#181818;stroke-width:1;"/><path d="M4971.9688,180.1406 Q4971.3906,180.4375 4970.75,180.5781 Q4970.1094,180.7344 4969.4063,180.7344 Q4966.9063,180.7344 4965.5781,179.0938 Q4964.2656,177.4375 4964.2656,174.3125 Q4964.2656,171.1875 4965.5781,169.5313 Q4966.9063,167.875 4969.4063,167.875 Q4970.1094,167.875 4970.75,168.0313 Q4971.4063,168.1875 4971.9688,168.4844 L4971.9688,171.2031 Q4971.3438,170.625 4970.75,170.3594 Q4970.1563,170.0781 4969.5313,170.0781 Q4968.1875,170.0781 4967.5,171.1563 Q4966.8125,172.2188 4966.8125,174.3125 Q4966.8125,176.4063 4967.5,177.4844 Q4968.1875,178.5469 4969.5313,178.5469 Q4970.1563,178.5469 4970.75,178.2813 Q4971.3438,178 4971.9688,177.4219 L4971.9688,180.1406 Z " fill="#000000"/><text fill="#000000" font-family="sans-serif" font-size="14" lengthAdjust="spacing" textLength="261.0713" x="4983" y="179.3467">logic_arc_int__baselibs__intrusive_list</text><line style="stroke:#181818;stroke-width:0.5;" x1="4955" x2="5246.0713" y1="190.5" y2="190.5"/></g><!--class logic_arc_int__baselibs__bit_manipulation--><g id="elem_logic_arc_int__baselibs__bit_manipulation"><rect fill="#F1F1F1" height="40" id="logic_arc_int__baselibs__bit_manipulation" rx="2.5" ry="2.5" style="stroke:#181818;stroke-width:0.5;" width="321.8369" x="3882.5" y="158.5"/><ellipse cx="3897.5" cy="174.5" fill="#ADD1B2" rx="11" ry="11" style="stroke:#181818;stroke-width:1;"/><path d="M3900.4688,180.1406 Q3899.8906,180.4375 3899.25,180.5781 Q3898.6094,180.7344 3897.9063,180.7344 Q3895.4063,180.7344 3894.0781,179.0938 Q3892.7656,177.4375 3892.7656,174.3125 Q3892.7656,171.1875 3894.0781,169.5313 Q3895.4063,167.875 3897.9063,167.875 Q3898.6094,167.875 3899.25,168.0313 Q3899.9063,168.1875 3900.4688,168.4844 L3900.4688,171.2031 Q3899.8438,170.625 3899.25,170.3594 Q3898.6563,170.0781 3898.0313,170.0781 Q3896.6875,170.0781 3896,171.1563 Q3895.3125,172.2188 3895.3125,174.3125 Q3895.3125,176.4063 3896,177.4844 Q3896.6875,178.5469 3898.0313,178.5469 Q3898.6563,178.5469 3899.25,178.2813 Q3899.8438,178 3900.4688,177.4219 L3900.4688,180.1406 Z " fill="#000000"/><text fill="#000000" font-family="sans-serif" font-size="14" lengthAdjust="spacing" textLength="289.8369" x="3911.5" y="179.3467">logic_arc_int__baselibs__bit_manipulation</text><line style="stroke:#181818;stroke-width:0.5;" x1="3883.5" x2="4203.3369" y1="190.5" y2="190.5"/></g><!--class comp_arc_sta__baselibs__json--><g id="elem_comp_arc_sta__baselibs__json"><rect fill="#F1F1F1" height="40" id="comp_arc_sta__baselibs__json" rx="2.5" ry="2.5" style="stroke:#181818;stroke-width:0.5;" width="242.1367" x="5268.5" y="275.5"/><ellipse cx="5283.5" cy="291.5" fill="#ADD1B2" rx="11" ry="11" style="stroke:#181818;stroke-width:1;"/><path d="M5286.4688,297.1406 Q5285.8906,297.4375 5285.25,297.5781 Q5284.6094,297.7344 5283.9063,297.7344 Q5281.4063,297.7344 5280.0781,296.0938 Q5278.7656,294.4375 5278.7656,291.3125 Q5278.7656,288.1875 5280.0781,286.5313 Q5281.4063,284.875 5283.9063,284.875 Q5284.6094,284.875 5285.25,285.0313 Q5285.9063,285.1875 5286.4688,285.4844 L5286.4688,288.2031 Q5285.8438,287.625 5285.25,287.3594 Q5284.6563,287.0781 5284.0313,287.0781 Q5282.6875,287.0781 5282,288.1563 Q5281.3125,289.2188 5281.3125,291.3125 Q5281.3125,293.4063 5282,294.4844 Q5282.6875,295.5469 5284.0313,295.5469 Q5284.6563,295.5469 5285.25,295.2813 Q5285.8438,295 5286.4688,294.4219 L5286.4688,297.1406 Z " fill="#000000"/><text fill="#000000" font-family="sans-serif" font-size="14" lengthAdjust="spacing" textLength="210.1367" x="5297.5" y="296.3467">comp_arc_sta__baselibs__json</text><line style="stroke:#181818;stroke-width:0.5;" x1="5269.5" x2="5509.6367" y1="307.5" y2="307.5"/></g><!--class logic_arc_int__baselibs__json--><g id="elem_logic_arc_int__baselibs__json"><rect fill="#F1F1F1" height="40" id="logic_arc_int__baselibs__json" rx="2.5" ry="2.5" style="stroke:#181818;stroke-width:0.5;" width="233.168" x="5282" y="158.5"/><ellipse cx="5297" cy="174.5" fill="#ADD1B2" rx="11" ry="11" style="stroke:#181818;stroke-width:1;"/><path d="M5299.9688,180.1406 Q5299.3906,180.4375 5298.75,180.5781 Q5298.1094,180.7344 5297.4063,180.7344 Q5294.9063,180.7344 5293.5781,179.0938 Q5292.2656,177.4375 5292.2656,174.3125 Q5292.2656,171.1875 5293.5781,169.5313 Q5294.9063,167.875 5297.4063,167.875 Q5298.1094,167.875 5298.75,168.0313 Q5299.4063,168.1875 5299.9688,168.4844 L5299.9688,171.2031 Q5299.3438,170.625 5298.75,170.3594 Q5298.1563,170.0781 5297.5313,170.0781 Q5296.1875,170.0781 5295.5,171.1563 Q5294.8125,172.2188 5294.8125,174.3125 Q5294.8125,176.4063 5295.5,177.4844 Q5296.1875,178.5469 5297.5313,178.5469 Q5298.1563,178.5469 5298.75,178.2813 Q5299.3438,178 5299.9688,177.4219 L5299.9688,180.1406 Z " fill="#000000"/><text fill="#000000" font-family="sans-serif" font-size="14" lengthAdjust="spacing" textLength="201.168" x="5311" y="179.3467">logic_arc_int__baselibs__json</text><line style="stroke:#181818;stroke-width:0.5;" x1="5283" x2="5514.168" y1="190.5" y2="190.5"/></g><!--class logic_arc_int__baselibs__shared_future--><g id="elem_logic_arc_int__baselibs__shared_future"><rect fill="#F1F1F1" height="40" id="logic_arc_int__baselibs__shared_future" rx="2.5" ry="2.5" style="stroke:#181818;stroke-width:0.5;" width="302.0811" x="2510.5" y="158.5"/><ellipse cx="2525.5" cy="174.5" fill="#ADD1B2" rx="11" ry="11" style="stroke:#181818;stroke-width:1;"/><path d="M2528.4688,180.1406 Q2527.8906,180.4375 2527.25,180.5781 Q2526.6094,180.7344 2525.9063,180.7344 Q2523.4063,180.7344 2522.0781,179.0938 Q2520.7656,177.4375 2520.7656,174.3125 Q2520.7656,171.1875 2522.0781,169.5313 Q2523.4063,167.875 2525.9063,167.875 Q2526.6094,167.875 2527.25,168.0313 Q2527.9063,168.1875 2528.4688,168.4844 L2528.4688,171.2031 Q2527.8438,170.625 2527.25,170.3594 Q2526.6563,170.0781 2526.0313,170.0781 Q2524.6875,170.0781 2524,171.1563 Q2523.3125,172.2188 2523.3125,174.3125 Q2523.3125,176.4063 2524,177.4844 Q2524.6875,178.5469 2526.0313,178.5469 Q2526.6563,178.5469 2527.25,178.2813 Q2527.8438,178 2528.4688,177.4219 L2528.4688,180.1406 Z " fill="#000000"/><text fill="#000000" font-family="sans-serif" font-size="14" lengthAdjust="spacing" textLength="270.0811" x="2539.5" y="179.3467">logic_arc_int__baselibs__shared_future</text><line style="stroke:#181818;stroke-width:0.5;" x1="2511.5" x2="2811.5811" y1="190.5" y2="190.5"/></g><!--class comp_arc_sta__baselibs__bit_manipulation--><g id="elem_comp_arc_sta__baselibs__bit_manipulation"><rect fill="#F1F1F1" height="40" id="comp_arc_sta__baselibs__bit_manipulation" rx="2.5" ry="2.5" style="stroke:#181818;stroke-width:0.5;" width="330.8057" x="4029" y="275.5"/><ellipse cx="4044" cy="291.5" fill="#ADD1B2" rx="11" ry="11" style="stroke:#181818;stroke-width:1;"/><path d="M4046.9688,297.1406 Q4046.3906,297.4375 4045.75,297.5781 Q4045.1094,297.7344 4044.4063,297.7344 Q4041.9063,297.7344 4040.5781,296.0938 Q4039.2656,294.4375 4039.2656,291.3125 Q4039.2656,288.1875 4040.5781,286.5313 Q4041.9063,284.875 4044.4063,284.875 Q4045.1094,284.875 4045.75,285.0313 Q4046.4063,285.1875 4046.9688,285.4844 L4046.9688,288.2031 Q4046.3438,287.625 4045.75,287.3594 Q4045.1563,287.0781 4044.5313,287.0781 Q4043.1875,287.0781 4042.5,288.1563 Q4041.8125,289.2188 4041.8125,291.3125 Q4041.8125,293.4063 4042.5,294.4844 Q4043.1875,295.5469 4044.5313,295.5469 Q4045.1563,295.5469 4045.75,295.2813 Q4046.3438,295 4046.9688,294.4219 L4046.9688,297.1406 Z " fill="#000000"/><text fill="#000000" font-family="sans-serif" font-size="14" lengthAdjust="spacing" textLength="298.8057" x="4058" y="296.3467">comp_arc_sta__baselibs__bit_manipulation</text><line style="stroke:#181818;stroke-width:0.5;" x1="4030" x2="4358.8057" y1="307.5" y2="307.5"/></g><!--class logic_arc_int__baselibs__bit_mask_operator--><g id="elem_logic_arc_int__baselibs__bit_mask_operator"><rect fill="#F1F1F1" height="40" id="logic_arc_int__baselibs__bit_mask_operator" rx="2.5" ry="2.5" style="stroke:#181818;stroke-width:0.5;" width="334.6406" x="4240" y="158.5"/><ellipse cx="4255" cy="174.5" fill="#ADD1B2" rx="11" ry="11" style="stroke:#181818;stroke-width:1;"/><path d="M4257.9688,180.1406 Q4257.3906,180.4375 4256.75,180.5781 Q4256.1094,180.7344 4255.4063,180.7344 Q4252.9063,180.7344 4251.5781,179.0938 Q4250.2656,177.4375 4250.2656,174.3125 Q4250.2656,171.1875 4251.5781,169.5313 Q4252.9063,167.875 4255.4063,167.875 Q4256.1094,167.875 4256.75,168.0313 Q4257.4063,168.1875 4257.9688,168.4844 L4257.9688,171.2031 Q4257.3438,170.625 4256.75,170.3594 Q4256.1563,170.0781 4255.5313,170.0781 Q4254.1875,170.0781 4253.5,171.1563 Q4252.8125,172.2188 4252.8125,174.3125 Q4252.8125,176.4063 4253.5,177.4844 Q4254.1875,178.5469 4255.5313,178.5469 Q4256.1563,178.5469 4256.75,178.2813 Q4257.3438,178 4257.9688,177.4219 L4257.9688,180.1406 Z " fill="#000000"/><text fill="#000000" font-family="sans-serif" font-size="14" lengthAdjust="spacing" textLength="302.6406" x="4269" y="179.3467">logic_arc_int__baselibs__bit_mask_operator</text><line style="stroke:#181818;stroke-width:0.5;" x1="4241" x2="4573.6406" y1="190.5" y2="190.5"/></g><!--class logic_arc_int__baselibs__task--><g id="elem_logic_arc_int__baselibs__task"><rect fill="#F1F1F1" height="40" id="logic_arc_int__baselibs__task" rx="2.5" ry="2.5" style="stroke:#181818;stroke-width:0.5;" width="234.0156" x="1327.5" y="158.5"/><ellipse cx="1342.5" cy="174.5" fill="#ADD1B2" rx="11" ry="11" style="stroke:#181818;stroke-width:1;"/><path d="M1345.4688,180.1406 Q1344.8906,180.4375 1344.25,180.5781 Q1343.6094,180.7344 1342.9063,180.7344 Q1340.4063,180.7344 1339.0781,179.0938 Q1337.7656,177.4375 1337.7656,174.3125 Q1337.7656,171.1875 1339.0781,169.5313 Q1340.4063,167.875 1342.9063,167.875 Q1343.6094,167.875 1344.25,168.0313 Q1344.9063,168.1875 1345.4688,168.4844 L1345.4688,171.2031 Q1344.8438,170.625 1344.25,170.3594 Q1343.6563,170.0781 1343.0313,170.0781 Q1341.6875,170.0781 1341,171.1563 Q1340.3125,172.2188 1340.3125,174.3125 Q1340.3125,176.4063 1341,177.4844 Q1341.6875,178.5469 1343.0313,178.5469 Q1343.6563,178.5469 1344.25,178.2813 Q1344.8438,178 1345.4688,177.4219 L1345.4688,180.1406 Z " fill="#000000"/><text fill="#000000" font-family="sans-serif" font-size="14" lengthAdjust="spacing" textLength="202.0156" x="1356.5" y="179.3467">logic_arc_int__baselibs__task</text><line style="stroke:#181818;stroke-width:0.5;" x1="1328.5" x2="1560.5156" y1="190.5" y2="190.5"/></g><!--class logic_arc_int__baselibs__promise--><g id="elem_logic_arc_int__baselibs__promise"><rect fill="#F1F1F1" height="40" id="logic_arc_int__baselibs__promise" rx="2.5" ry="2.5" style="stroke:#181818;stroke-width:0.5;" width="261.1885" x="1597" y="158.5"/><ellipse cx="1612" cy="174.5" fill="#ADD1B2" rx="11" ry="11" style="stroke:#181818;stroke-width:1;"/><path d="M1614.9688,180.1406 Q1614.3906,180.4375 1613.75,180.5781 Q1613.1094,180.7344 1612.4063,180.7344 Q1609.9063,180.7344 1608.5781,179.0938 Q1607.2656,177.4375 1607.2656,174.3125 Q1607.2656,171.1875 1608.5781,169.5313 Q1609.9063,167.875 1612.4063,167.875 Q1613.1094,167.875 1613.75,168.0313 Q1614.4063,168.1875 1614.9688,168.4844 L1614.9688,171.2031 Q1614.3438,170.625 1613.75,170.3594 Q1613.1563,170.0781 1612.5313,170.0781 Q1611.1875,170.0781 1610.5,171.1563 Q1609.8125,172.2188 1609.8125,174.3125 Q1609.8125,176.4063 1610.5,177.4844 Q1611.1875,178.5469 1612.5313,178.5469 Q1613.1563,178.5469 1613.75,178.2813 Q1614.3438,178 1614.9688,177.4219 L1614.9688,180.1406 Z " fill="#000000"/><text fill="#000000" font-family="sans-serif" font-size="14" lengthAdjust="spacing" textLength="229.1885" x="1626" y="179.3467">logic_arc_int__baselibs__promise</text><line style="stroke:#181818;stroke-width:0.5;" x1="1598" x2="1857.1885" y1="190.5" y2="190.5"/></g><!--class comp_arc_sta__baselibs__result--><g id="elem_comp_arc_sta__baselibs__result"><rect fill="#F1F1F1" height="40" id="comp_arc_sta__baselibs__result" rx="2.5" ry="2.5" style="stroke:#181818;stroke-width:0.5;" width="253.4297" x="369" y="275.5"/><ellipse cx="384" cy="291.5" fill="#ADD1B2" rx="11" ry="11" style="stroke:#181818;stroke-width:1;"/><path d="M386.9688,297.1406 Q386.3906,297.4375 385.75,297.5781 Q385.1094,297.7344 384.4063,297.7344 Q381.9063,297.7344 380.5781,296.0938 Q379.2656,294.4375 379.2656,291.3125 Q379.2656,288.1875 380.5781,286.5313 Q381.9063,284.875 384.4063,284.875 Q385.1094,284.875 385.75,285.0313 Q386.4063,285.1875 386.9688,285.4844 L386.9688,288.2031 Q386.3438,287.625 385.75,287.3594 Q385.1563,287.0781 384.5313,287.0781 Q383.1875,287.0781 382.5,288.1563 Q381.8125,289.2188 381.8125,291.3125 Q381.8125,293.4063 382.5,294.4844 Q383.1875,295.5469 384.5313,295.5469 Q385.1563,295.5469 385.75,295.2813 Q386.3438,295 386.9688,294.4219 L386.9688,297.1406 Z " fill="#000000"/><text fill="#000000" font-family="sans-serif" font-size="14" lengthAdjust="spacing" textLength="221.4297" x="398" y="296.3467">comp_arc_sta__baselibs__result</text><line style="stroke:#181818;stroke-width:0.5;" x1="370" x2="621.4297" y1="307.5" y2="307.5"/></g><!--class comp_arc_sta__baselibs__memory_shared--><g id="elem_comp_arc_sta__baselibs__memory_shared"><rect fill="#F1F1F1" height="40" id="comp_arc_sta__baselibs__memory_shared" rx="2.5" ry="2.5" style="stroke:#181818;stroke-width:0.5;" width="327.0117" x="7" y="275.5"/><ellipse cx="22" cy="291.5" fill="#ADD1B2" rx="11" ry="11" style="stroke:#181818;stroke-width:1;"/><path d="M24.9688,297.1406 Q24.3906,297.4375 23.75,297.5781 Q23.1094,297.7344 22.4063,297.7344 Q19.9063,297.7344 18.5781,296.0938 Q17.2656,294.4375 17.2656,291.3125 Q17.2656,288.1875 18.5781,286.5313 Q19.9063,284.875 22.4063,284.875 Q23.1094,284.875 23.75,285.0313 Q24.4063,285.1875 24.9688,285.4844 L24.9688,288.2031 Q24.3438,287.625 23.75,287.3594 Q23.1563,287.0781 22.5313,287.0781 Q21.1875,287.0781 20.5,288.1563 Q19.8125,289.2188 19.8125,291.3125 Q19.8125,293.4063 20.5,294.4844 Q21.1875,295.5469 22.5313,295.5469 Q23.1563,295.5469 23.75,295.2813 Q24.3438,295 24.9688,294.4219 L24.9688,297.1406 Z " fill="#000000"/><text fill="#000000" font-family="sans-serif" font-size="14" lengthAdjust="spacing" textLength="295.0117" x="36" y="296.3467">comp_arc_sta__baselibs__memory_shared</text><line style="stroke:#181818;stroke-width:0.5;" x1="8" x2="333.0117" y1="307.5" y2="307.5"/></g><!--link Feature_User to logic_arc_int__baselibs__utils_base64--><g id="link_Feature_User_logic_arc_int__baselibs__utils_base64"><path codeLine="15" d="M2926.28,46.32 C2754.01,53.32 2122.36,79.78 1602.5,111.5 C1316.49,128.95 1244.77,131.56 959.5,158.5 C953.65,159.05 953.6595,159.0361 947.6295,159.6461 " fill="transparent" id="Feature_User-to-logic_arc_int__baselibs__utils_base64" style="stroke:#181818;stroke-width:1;"/><polygon fill="#181818" points="941.66,160.25,951.0169,163.3239,946.6346,159.7468,950.2117,155.3645,941.66,160.25" style="stroke:#181818;stroke-width:1;"/><text fill="#000000" font-family="sans-serif" font-size="13" lengthAdjust="spacing" textLength="23.0103" x="1603.5" y="124.5669">use</text></g><!--link Feature_User to logic_arc_int__baselibs__memory_shared--><g id="link_Feature_User_logic_arc_int__baselibs__memory_shared"><path codeLine="16" d="M2926.43,45.26 C2708.82,49.07 1745.02,67.73 956.5,111.5 C687.66,126.42 620.62,133.76 352.5,158.5 C346.31,159.07 345.9718,159.0888 339.6018,159.7088 " fill="transparent" id="Feature_User-to-logic_arc_int__baselibs__memory_shared" style="stroke:#181818;stroke-width:1;"/><polygon fill="#181818" points="333.63,160.29,342.9752,163.3993,338.6065,159.8056,342.2002,155.437,333.63,160.29" style="stroke:#181818;stroke-width:1;"/><text fill="#000000" font-family="sans-serif" font-size="13" lengthAdjust="spacing" textLength="23.0103" x="957.5" y="124.5669">use</text></g><!--link Feature_User to logic_arc_int__baselibs__filesystem--><g id="link_Feature_User_logic_arc_int__baselibs__filesystem"><path codeLine="17" d="M3016.61,45.28 C3231.32,49.16 4171.29,67.9 4940.5,111.5 C5204.02,126.44 5269.89,132.09 5532.5,158.5 C5538.34,159.09 5538.3247,159.0659 5544.3447,159.7159 " fill="transparent" id="Feature_User-to-logic_arc_int__baselibs__filesystem" style="stroke:#181818;stroke-width:1;"/><polygon fill="#181818" points="5550.31,160.36,5541.7914,155.417,5545.3389,159.8233,5540.9326,163.3707,5550.31,160.36" style="stroke:#181818;stroke-width:1;"/><text fill="#000000" font-family="sans-serif" font-size="13" lengthAdjust="spacing" textLength="23.0103" x="5208.5" y="124.5669">use</text></g><!--reverse link logic_arc_int__baselibs__executor to comp_arc_sta__baselibs__concurrency--><g id="link_logic_arc_int__baselibs__executor_comp_arc_sta__baselibs__concurrency"><path codeLine="18" d="M2365.0577,203.0855 C2385.3677,224.3155 2413.7,253.94 2434.03,275.19 " fill="transparent" id="logic_arc_int__baselibs__executor-backto-comp_arc_sta__baselibs__concurrency" style="stroke:#181818;stroke-width:1;"/><polygon fill="#181818" points="2360.91,198.75,2364.2411,208.0184,2364.3664,202.363,2370.0219,202.4882,2360.91,198.75" style="stroke:#181818;stroke-width:1;"/><text fill="#000000" font-family="sans-serif" font-size="13" lengthAdjust="spacing" textLength="76.9082" x="2405.5" y="241.5669">implements</text></g><!--link Feature_User to logic_arc_int__baselibs__dynamic_array--><g id="link_Feature_User_logic_arc_int__baselibs__dynamic_array"><path codeLine="19" d="M3016.68,47.02 C3207.8,57.8 3968.74,102.14 4592.5,158.5 C4598.33,159.03 4598.3078,159.0027 4604.3078,159.5827 " fill="transparent" id="Feature_User-to-logic_arc_int__baselibs__dynamic_array" style="stroke:#181818;stroke-width:1;"/><polygon fill="#181818" points="4610.28,160.16,4601.7066,155.3126,4605.3032,159.6789,4600.9369,163.2755,4610.28,160.16" style="stroke:#181818;stroke-width:1;"/><text fill="#000000" font-family="sans-serif" font-size="13" lengthAdjust="spacing" textLength="23.0103" x="4194.5" y="124.5669">use</text></g><!--link Feature_User to logic_arc_int__baselibs__future--><g id="link_Feature_User_logic_arc_int__baselibs__future"><path codeLine="20" d="M2971.5,81.55 C2971.5,106.45 2971.5,132.26 2971.5,152.26 " fill="transparent" id="Feature_User-to-logic_arc_int__baselibs__future" style="stroke:#181818;stroke-width:1;"/><polygon fill="#181818" points="2971.5,158.26,2975.5,149.26,2971.5,153.26,2967.5,149.26,2971.5,158.26" style="stroke:#181818;stroke-width:1;"/><text fill="#000000" font-family="sans-serif" font-size="13" lengthAdjust="spacing" textLength="23.0103" x="2972.5" y="124.5669">use</text></g><!--reverse link logic_arc_int__baselibs__task_result to comp_arc_sta__baselibs__concurrency--><g id="link_logic_arc_int__baselibs__task_result_comp_arc_sta__baselibs__concurrency"><path codeLine="21" d="M2108.946,200.208 C2186.556,221.508 2305.49,254.15 2383.02,275.43 " fill="transparent" id="logic_arc_int__baselibs__task_result-backto-comp_arc_sta__baselibs__concurrency" style="stroke:#181818;stroke-width:1;"/><polygon fill="#181818" points="2103.16,198.62,2110.7804,204.8593,2107.9817,199.9433,2112.8977,197.1446,2103.16,198.62" style="stroke:#181818;stroke-width:1;"/><text fill="#000000" font-family="sans-serif" font-size="13" lengthAdjust="spacing" textLength="76.9082" x="2269.5" y="241.5669">implements</text></g><!--link Feature_User to logic_arc_int__baselibs__executor--><g id="link_Feature_User_logic_arc_int__baselibs__executor"><path codeLine="22" d="M2926.26,54.07 C2823.1,75.88 2574.6802,128.4089 2438.2702,157.2489 " fill="transparent" id="Feature_User-to-logic_arc_int__baselibs__executor" style="stroke:#181818;stroke-width:1;"/><polygon fill="#181818" points="2432.4,158.49,2442.0328,160.5419,2437.2919,157.4558,2440.378,152.7149,2432.4,158.49" style="stroke:#181818;stroke-width:1;"/><text fill="#000000" font-family="sans-serif" font-size="13" lengthAdjust="spacing" textLength="23.0103" x="2639.5" y="124.5669">use</text></g><!--link Feature_User to logic_arc_int__baselibs__synchronized_queue--><g id="link_Feature_User_logic_arc_int__baselibs__synchronized_queue"><path codeLine="23" d="M3016.76,62.58 C3079.62,87.68 3187.2682,130.6741 3251.3482,156.2741 " fill="transparent" id="Feature_User-to-logic_arc_int__baselibs__synchronized_queue" style="stroke:#181818;stroke-width:1;"/><polygon fill="#181818" points="3256.92,158.5,3250.0462,151.4465,3252.2768,156.645,3247.0783,158.8756,3256.92,158.5" style="stroke:#181818;stroke-width:1;"/><text fill="#000000" font-family="sans-serif" font-size="13" lengthAdjust="spacing" textLength="23.0103" x="3179.5" y="124.5669">use</text></g><!--link Feature_User to logic_arc_int__baselibs__result--><g id="link_Feature_User_logic_arc_int__baselibs__result"><path codeLine="24" d="M2926.34,45.82 C2731.88,51.6 1946.75,76.01 1302.5,111.5 C1004,127.94 928.87,127.8 631.5,158.5 C626.05,159.06 626.4403,158.9806 620.8203,159.6306 " fill="transparent" id="Feature_User-to-logic_arc_int__baselibs__result" style="stroke:#181818;stroke-width:1;"/><polygon fill="#181818" points="614.86,160.32,624.26,163.2595,619.8269,159.7455,623.3408,155.3125,614.86,160.32" style="stroke:#181818;stroke-width:1;"/><text fill="#000000" font-family="sans-serif" font-size="13" lengthAdjust="spacing" textLength="23.0103" x="1303.5" y="124.5669">use</text></g><!--reverse link logic_arc_int__baselibs__message_passing to comp_arc_sta__baselibs__message_passing--><g id="link_logic_arc_int__baselibs__message_passing_comp_arc_sta__baselibs__message_passing"><path codeLine="25" d="M6031.379,204.7464 C6032.119,225.9764 6033.09,253.94 6033.83,275.19 " fill="transparent" id="logic_arc_int__baselibs__message_passing-backto-comp_arc_sta__baselibs__message_passing" style="stroke:#181818;stroke-width:1;"/><polygon fill="#181818" points="6031.17,198.75,6027.4859,207.8839,6031.3442,203.747,6035.4811,207.6052,6031.17,198.75" style="stroke:#181818;stroke-width:1;"/><text fill="#000000" font-family="sans-serif" font-size="13" lengthAdjust="spacing" textLength="76.9082" x="6034.5" y="241.5669">implements</text></g><!--reverse link logic_arc_int__baselibs__filesystem to comp_arc_sta__baselibs__filesystem--><g id="link_logic_arc_int__baselibs__filesystem_comp_arc_sta__baselibs__filesystem"><path codeLine="26" d="M5688.5,204.75 C5688.5,225.98 5688.5,253.94 5688.5,275.19 " fill="transparent" id="logic_arc_int__baselibs__filesystem-backto-comp_arc_sta__baselibs__filesystem" style="stroke:#181818;stroke-width:1;"/><polygon fill="#181818" points="5688.5,198.75,5684.5,207.75,5688.5,203.75,5692.5,207.75,5688.5,198.75" style="stroke:#181818;stroke-width:1;"/><text fill="#000000" font-family="sans-serif" font-size="13" lengthAdjust="spacing" textLength="76.9082" x="5689.5" y="241.5669">implements</text></g><!--link Feature_User to logic_arc_int__baselibs__condition_variable--><g id="link_Feature_User_logic_arc_int__baselibs__condition_variable"><path codeLine="27" d="M3016.66,52.97 C3128.91,74.03 3416.8429,128.0437 3573.2429,157.3837 " fill="transparent" id="Feature_User-to-logic_arc_int__baselibs__condition_variable" style="stroke:#181818;stroke-width:1;"/><polygon fill="#181818" points="3579.14,158.49,3571.0318,152.8992,3574.2257,157.5681,3569.5568,160.762,3579.14,158.49" style="stroke:#181818;stroke-width:1;"/><text fill="#000000" font-family="sans-serif" font-size="13" lengthAdjust="spacing" textLength="23.0103" x="3411.5" y="124.5669">use</text></g><!--reverse link logic_arc_int__baselibs__utils_scoped_op to comp_arc_sta__baselibs__utils--><g id="link_logic_arc_int__baselibs__utils_scoped_op_comp_arc_sta__baselibs__utils"><path codeLine="28" d="M1096.3479,201.7743 C1059.8679,223.0643 1006.64,254.14 970.25,275.38 " fill="transparent" id="logic_arc_int__baselibs__utils_scoped_op-backto-comp_arc_sta__baselibs__utils" style="stroke:#181818;stroke-width:1;"/><polygon fill="#181818" points="1101.53,198.75,1091.7407,199.8317,1097.2116,201.2702,1095.7731,206.7411,1101.53,198.75" style="stroke:#181818;stroke-width:1;"/><text fill="#000000" font-family="sans-serif" font-size="13" lengthAdjust="spacing" textLength="76.9082" x="1049.5" y="241.5669">implements</text></g><!--reverse link logic_arc_int__baselibs__intrusive_list to comp_arc_sta__baselibs__containers--><g id="link_logic_arc_int__baselibs__intrusive_list_comp_arc_sta__baselibs__containers"><path codeLine="29" d="M5062.5148,201.7861 C5026.2248,223.0761 4973.29,254.14 4937.09,275.38 " fill="transparent" id="logic_arc_int__baselibs__intrusive_list-backto-comp_arc_sta__baselibs__containers" style="stroke:#181818;stroke-width:1;"/><polygon fill="#181818" points="5067.69,198.75,5057.9032,199.854,5063.3774,201.2801,5061.9513,206.7542,5067.69,198.75" style="stroke:#181818;stroke-width:1;"/><text fill="#000000" font-family="sans-serif" font-size="13" lengthAdjust="spacing" textLength="76.9082" x="5015.5" y="241.5669">implements</text></g><!--link Feature_User to logic_arc_int__baselibs__intrusive_list--><g id="link_Feature_User_logic_arc_int__baselibs__intrusive_list"><path codeLine="30" d="M3016.54,46.03 C3230.92,53.55 4169.31,89.03 4935.5,158.5 C4941.53,159.05 4941.7087,159.0435 4947.9187,159.6535 " fill="transparent" id="Feature_User-to-logic_arc_int__baselibs__intrusive_list" style="stroke:#181818;stroke-width:1;"/><polygon fill="#181818" points="4953.89,160.24,4945.3241,155.3793,4948.9139,159.7512,4944.5421,163.341,4953.89,160.24" style="stroke:#181818;stroke-width:1;"/><text fill="#000000" font-family="sans-serif" font-size="13" lengthAdjust="spacing" textLength="23.0103" x="4561.5" y="124.5669">use</text></g><!--link Feature_User to logic_arc_int__baselibs__bit_manipulation--><g id="link_Feature_User_logic_arc_int__baselibs__bit_manipulation"><path codeLine="31" d="M3016.54,50.09 C3164.76,68.48 3636.1057,126.9512 3884.3457,157.7512 " fill="transparent" id="Feature_User-to-logic_arc_int__baselibs__bit_manipulation" style="stroke:#181818;stroke-width:1;"/><polygon fill="#181818" points="3890.3,158.49,3881.861,153.4123,3885.338,157.8744,3880.876,161.3514,3890.3,158.49" style="stroke:#181818;stroke-width:1;"/><text fill="#000000" font-family="sans-serif" font-size="13" lengthAdjust="spacing" textLength="23.0103" x="3636.5" y="124.5669">use</text></g><!--reverse link logic_arc_int__baselibs__json to comp_arc_sta__baselibs__json--><g id="link_logic_arc_int__baselibs__json_comp_arc_sta__baselibs__json"><path codeLine="32" d="M5396.5223,204.7317 C5394.8623,225.9617 5392.67,253.94 5391.01,275.19 " fill="transparent" id="logic_arc_int__baselibs__json-backto-comp_arc_sta__baselibs__json" style="stroke:#181818;stroke-width:1;"/><polygon fill="#181818" points="5396.99,198.75,5392.3006,207.4108,5396.6002,203.7348,5400.2762,208.0344,5396.99,198.75" style="stroke:#181818;stroke-width:1;"/><text fill="#000000" font-family="sans-serif" font-size="13" lengthAdjust="spacing" textLength="76.9082" x="5396.5" y="241.5669">implements</text></g><!--link Feature_User to logic_arc_int__baselibs__shared_future--><g id="link_Feature_User_logic_arc_int__baselibs__shared_future"><path codeLine="33" d="M2926.42,63.84 C2867.4,89.16 2770.064,130.9244 2711.394,156.0944 " fill="transparent" id="Feature_User-to-logic_arc_int__baselibs__shared_future" style="stroke:#181818;stroke-width:1;"/><polygon fill="#181818" points="2705.88,158.46,2715.728,158.5877,2710.475,156.4887,2712.574,151.2357,2705.88,158.46" style="stroke:#181818;stroke-width:1;"/><text fill="#000000" font-family="sans-serif" font-size="13" lengthAdjust="spacing" textLength="23.0103" x="2808.5" y="124.5669">use</text></g><!--reverse link logic_arc_int__baselibs__future to comp_arc_sta__baselibs__concurrency--><g id="link_logic_arc_int__baselibs__future_comp_arc_sta__baselibs__concurrency"><path codeLine="34" d="M2879.6521,199.848 C2783.5721,221.138 2634.8,254.11 2538.66,275.41 " fill="transparent" id="logic_arc_int__baselibs__future-backto-comp_arc_sta__baselibs__concurrency" style="stroke:#181818;stroke-width:1;"/><polygon fill="#181818" points="2885.51,198.55,2875.8578,196.5918,2880.6284,199.6317,2877.5885,204.4023,2885.51,198.55" style="stroke:#181818;stroke-width:1;"/><text fill="#000000" font-family="sans-serif" font-size="13" lengthAdjust="spacing" textLength="76.9082" x="2744.5" y="241.5669">implements</text></g><!--reverse link logic_arc_int__baselibs__shared_future to comp_arc_sta__baselibs__concurrency--><g id="link_logic_arc_int__baselibs__shared_future_comp_arc_sta__baselibs__concurrency"><path codeLine="35" d="M2621.263,201.642 C2582.563,222.932 2525.85,254.14 2487.25,275.38 " fill="transparent" id="logic_arc_int__baselibs__shared_future-backto-comp_arc_sta__baselibs__concurrency" style="stroke:#181818;stroke-width:1;"/><polygon fill="#181818" points="2626.52,198.75,2616.7065,199.5834,2622.1392,201.16,2620.5625,206.5927,2626.52,198.75" style="stroke:#181818;stroke-width:1;"/><text fill="#000000" font-family="sans-serif" font-size="13" lengthAdjust="spacing" textLength="76.9082" x="2571.5" y="241.5669">implements</text></g><!--reverse link logic_arc_int__baselibs__bit_mask_operator to comp_arc_sta__baselibs__bit_manipulation--><g id="link_logic_arc_int__baselibs__bit_mask_operator_comp_arc_sta__baselibs__bit_manipulation"><path codeLine="36" d="M4366.5701,201.6001 C4327.1301,222.8901 4269.25,254.14 4229.91,275.38 " fill="transparent" id="logic_arc_int__baselibs__bit_mask_operator-backto-comp_arc_sta__baselibs__bit_manipulation" style="stroke:#181818;stroke-width:1;"/><polygon fill="#181818" points="4371.85,198.75,4362.0301,199.5053,4367.4501,201.1251,4365.8303,206.5451,4371.85,198.75" style="stroke:#181818;stroke-width:1;"/><text fill="#000000" font-family="sans-serif" font-size="13" lengthAdjust="spacing" textLength="76.9082" x="4315.5" y="241.5669">implements</text></g><!--link Feature_User to logic_arc_int__baselibs__message_passing--><g id="link_Feature_User_logic_arc_int__baselibs__message_passing"><path codeLine="37" d="M3016.7,45.02 C3250.45,47.9 4345.72,63.45 5240.5,111.5 C5508.93,125.92 5575.76,134.47 5843.5,158.5 C5850.98,159.17 5852.6467,159.3044 5860.3567,160.0344 " fill="transparent" id="Feature_User-to-logic_arc_int__baselibs__message_passing" style="stroke:#181818;stroke-width:1;"/><polygon fill="#181818" points="5866.33,160.6,5857.7471,155.7695,5861.3523,160.1287,5856.993,163.7338,5866.33,160.6" style="stroke:#181818;stroke-width:1;"/><text fill="#000000" font-family="sans-serif" font-size="13" lengthAdjust="spacing" textLength="23.0103" x="5503.5" y="124.5669">use</text></g><!--reverse link logic_arc_int__baselibs__dynamic_array to comp_arc_sta__baselibs__containers--><g id="link_logic_arc_int__baselibs__dynamic_array_comp_arc_sta__baselibs__containers"><path codeLine="38" d="M4792.5667,202.558 C4818.4167,223.788 4855.12,253.94 4880.99,275.19 " fill="transparent" id="logic_arc_int__baselibs__dynamic_array-backto-comp_arc_sta__baselibs__containers" style="stroke:#181818;stroke-width:1;"/><polygon fill="#181818" points="4787.93,198.75,4792.3464,207.5532,4791.7939,201.9233,4797.4237,201.3709,4787.93,198.75" style="stroke:#181818;stroke-width:1;"/><text fill="#000000" font-family="sans-serif" font-size="13" lengthAdjust="spacing" textLength="76.9082" x="4844.5" y="241.5669">implements</text></g><!--link Feature_User to logic_arc_int__baselibs__bit_mask_operator--><g id="link_Feature_User_logic_arc_int__baselibs__bit_mask_operator"><path codeLine="39" d="M3016.64,48.44 C3179.28,62.67 3750.55,112.97 4221.5,158.5 C4227.48,159.08 4227.5893,159.0778 4233.7393,159.6878 " fill="transparent" id="Feature_User-to-logic_arc_int__baselibs__bit_mask_operator" style="stroke:#181818;stroke-width:1;"/><polygon fill="#181818" points="4239.71,160.28,4231.1488,155.4112,4234.7344,159.7865,4230.3591,163.3721,4239.71,160.28" style="stroke:#181818;stroke-width:1;"/><text fill="#000000" font-family="sans-serif" font-size="13" lengthAdjust="spacing" textLength="23.0103" x="3879.5" y="124.5669">use</text></g><!--link Feature_User to logic_arc_int__baselibs__utils_scoped_op--><g id="link_Feature_User_logic_arc_int__baselibs__utils_scoped_op"><path codeLine="40" d="M2926.39,46.76 C2774.68,54.47 2268.94,80.92 1851.5,111.5 C1610.35,129.17 1550.15,135 1309.5,158.5 C1303.87,159.05 1304.1201,159.022 1298.3301,159.602 " fill="transparent" id="Feature_User-to-logic_arc_int__baselibs__utils_scoped_op" style="stroke:#181818;stroke-width:1;"/><polygon fill="#181818" points="1292.36,160.2,1301.7139,163.283,1297.3351,159.7016,1300.9165,155.3229,1292.36,160.2" style="stroke:#181818;stroke-width:1;"/><text fill="#000000" font-family="sans-serif" font-size="13" lengthAdjust="spacing" textLength="23.0103" x="1852.5" y="124.5669">use</text></g><!--link Feature_User to logic_arc_int__baselibs__task--><g id="link_Feature_User_logic_arc_int__baselibs__task"><path codeLine="41" d="M2926.33,47.14 C2752.18,57.55 2107.69,98.13 1579.5,158.5 C1573.62,159.17 1573.5535,159.1446 1567.4835,159.9046 " fill="transparent" id="Feature_User-to-logic_arc_int__baselibs__task" style="stroke:#181818;stroke-width:1;"/><polygon fill="#181818" points="1561.53,160.65,1570.9572,163.5009,1566.4913,160.0288,1569.9633,155.5629,1561.53,160.65" style="stroke:#181818;stroke-width:1;"/><text fill="#000000" font-family="sans-serif" font-size="13" lengthAdjust="spacing" textLength="23.0103" x="2039.5" y="124.5669">use</text></g><!--link Feature_User to logic_arc_int__baselibs__json--><g id="link_Feature_User_logic_arc_int__baselibs__json"><path codeLine="42" d="M3016.67,45.89 C3207.79,51.88 3968.79,76.73 4593.5,111.5 C4891.99,128.12 4967.21,127.05 5264.5,158.5 C5270.22,159.11 5270.1216,159.0643 5276.0316,159.7643 " fill="transparent" id="Feature_User-to-logic_arc_int__baselibs__json" style="stroke:#181818;stroke-width:1;"/><polygon fill="#181818" points="5281.99,160.47,5273.523,155.4392,5277.0247,159.8819,5272.582,163.3836,5281.99,160.47" style="stroke:#181818;stroke-width:1;"/><text fill="#000000" font-family="sans-serif" font-size="13" lengthAdjust="spacing" textLength="23.0103" x="4908.5" y="124.5669">use</text></g><!--reverse link logic_arc_int__baselibs__bit_manipulation to comp_arc_sta__baselibs__bit_manipulation--><g id="link_logic_arc_int__baselibs__bit_manipulation_comp_arc_sta__baselibs__bit_manipulation"><path codeLine="43" d="M4073.5436,202.3849 C4101.5036,223.6749 4141.51,254.14 4169.4,275.38 " fill="transparent" id="logic_arc_int__baselibs__bit_manipulation-backto-comp_arc_sta__baselibs__bit_manipulation" style="stroke:#181818;stroke-width:1;"/><polygon fill="#181818" points="4068.77,198.75,4073.5072,207.3847,4072.748,201.7791,4078.3537,201.0199,4068.77,198.75" style="stroke:#181818;stroke-width:1;"/><text fill="#000000" font-family="sans-serif" font-size="13" lengthAdjust="spacing" textLength="76.9082" x="4129.5" y="241.5669">implements</text></g><!--link Feature_User to logic_arc_int__baselibs__promise--><g id="link_Feature_User_logic_arc_int__baselibs__promise"><path codeLine="44" d="M2926.3,48.81 C2776.54,63.17 2282.87,111.17 1875.5,158.5 C1869.84,159.16 1870.0161,159.1159 1864.1761,159.8259 " fill="transparent" id="Feature_User-to-logic_arc_int__baselibs__promise" style="stroke:#181818;stroke-width:1;"/><polygon fill="#181818" points="1858.22,160.55,1867.637,163.4346,1863.1835,159.9466,1866.6715,155.4931,1858.22,160.55" style="stroke:#181818;stroke-width:1;"/><text fill="#000000" font-family="sans-serif" font-size="13" lengthAdjust="spacing" textLength="23.0103" x="2298.5" y="124.5669">use</text></g><!--reverse link logic_arc_int__baselibs__synchronized_queue to comp_arc_sta__baselibs__concurrency--><g id="link_logic_arc_int__baselibs__synchronized_queue_comp_arc_sta__baselibs__concurrency"><path codeLine="45" d="M3163.9784,199.3549 C3068.8984,212.7149 2944.4,230.05 2829.5,245.5 C2754.27,255.61 2670.56,266.53 2601.16,275.49 " fill="transparent" id="logic_arc_int__baselibs__synchronized_queue-backto-comp_arc_sta__baselibs__concurrency" style="stroke:#181818;stroke-width:1;"/><polygon fill="#181818" points="3169.92,198.52,3160.451,195.8112,3164.9686,199.2157,3161.5641,203.7334,3169.92,198.52" style="stroke:#181818;stroke-width:1;"/><text fill="#000000" font-family="sans-serif" font-size="13" lengthAdjust="spacing" textLength="76.9082" x="2948.5" y="241.5669">implements</text></g><!--reverse link logic_arc_int__baselibs__promise to comp_arc_sta__baselibs__concurrency--><g id="link_logic_arc_int__baselibs__promise_comp_arc_sta__baselibs__concurrency"><path codeLine="46" d="M1848.5903,199.5447 C1929.6203,212.8847 2034.69,230.04 2132.5,245.5 C2196.34,255.59 2267.4,266.5 2326.31,275.46 " fill="transparent" id="logic_arc_int__baselibs__promise-backto-comp_arc_sta__baselibs__concurrency" style="stroke:#181818;stroke-width:1;"/><polygon fill="#181818" points="1842.67,198.57,1850.9007,203.9789,1847.6036,199.3822,1852.2002,196.0851,1842.67,198.57" style="stroke:#181818;stroke-width:1;"/><text fill="#000000" font-family="sans-serif" font-size="13" lengthAdjust="spacing" textLength="76.9082" x="2133.5" y="241.5669">implements</text></g><!--reverse link logic_arc_int__baselibs__task to comp_arc_sta__baselibs__concurrency--><g id="link_logic_arc_int__baselibs__task_comp_arc_sta__baselibs__concurrency"><path codeLine="47" d="M1567.5047,196.8829 C1573.5747,197.7129 1573.64,197.71 1579.5,198.5 C1742.48,220.4 1783.09,227.13 1946.5,245.5 C2066,258.93 2201.63,271.95 2302.37,281.18 " fill="transparent" id="logic_arc_int__baselibs__task-backto-comp_arc_sta__baselibs__concurrency" style="stroke:#181818;stroke-width:1;"/><polygon fill="#181818" points="1561.56,196.07,1569.9351,201.2524,1566.5139,196.7474,1571.0189,193.3262,1561.56,196.07" style="stroke:#181818;stroke-width:1;"/><text fill="#000000" font-family="sans-serif" font-size="13" lengthAdjust="spacing" textLength="76.9082" x="1947.5" y="241.5669">implements</text></g><!--link Feature_User to logic_arc_int__baselibs__task_result--><g id="link_Feature_User_logic_arc_int__baselibs__task_result"><path codeLine="48" d="M2926.26,50.91 C2790.31,70.19 2387.5706,127.2977 2173.5106,157.6477 " fill="transparent" id="Feature_User-to-logic_arc_int__baselibs__task_result" style="stroke:#181818;stroke-width:1;"/><polygon fill="#181818" points="2167.57,158.49,2177.0424,161.187,2172.5205,157.7881,2175.9194,153.2662,2167.57,158.49" style="stroke:#181818;stroke-width:1;"/><text fill="#000000" font-family="sans-serif" font-size="13" lengthAdjust="spacing" textLength="23.0103" x="2475.5" y="124.5669">use</text></g><!--reverse link logic_arc_int__baselibs__result to comp_arc_sta__baselibs__result--><g id="link_logic_arc_int__baselibs__result_comp_arc_sta__baselibs__result"><path codeLine="49" d="M493.1582,204.7479 C493.7182,225.9779 494.44,253.94 495,275.19 " fill="transparent" id="logic_arc_int__baselibs__result-backto-comp_arc_sta__baselibs__result" style="stroke:#181818;stroke-width:1;"/><polygon fill="#181818" points="493,198.75,489.2387,207.8523,493.1318,203.7483,497.2359,207.6414,493,198.75" style="stroke:#181818;stroke-width:1;"/><text fill="#000000" font-family="sans-serif" font-size="13" lengthAdjust="spacing" textLength="76.9082" x="495.5" y="241.5669">implements</text></g><!--reverse link logic_arc_int__baselibs__condition_variable to comp_arc_sta__baselibs__concurrency--><g id="link_logic_arc_int__baselibs__condition_variable_comp_arc_sta__baselibs__concurrency"><path codeLine="50" d="M3507.6307,197.2557 C3501.5207,197.8757 3501.44,197.89 3495.5,198.5 C3290.18,219.49 3239.01,226.38 3033.5,245.5 C2887.23,259.11 2720.08,273.03 2602.74,282.54 " fill="transparent" id="logic_arc_int__baselibs__condition_variable-backto-comp_arc_sta__baselibs__concurrency" style="stroke:#181818;stroke-width:1;"/><polygon fill="#181818" points="3513.6,196.65,3504.2422,193.579,3508.6255,197.1548,3505.0498,201.5382,3513.6,196.65" style="stroke:#181818;stroke-width:1;"/><text fill="#000000" font-family="sans-serif" font-size="13" lengthAdjust="spacing" textLength="76.9082" x="3203.5" y="241.5669">implements</text></g><!--reverse link logic_arc_int__baselibs__utils_base64 to comp_arc_sta__baselibs__utils--><g id="link_logic_arc_int__baselibs__utils_base64_comp_arc_sta__baselibs__utils"><path codeLine="51" d="M823.9324,202.5265 C850.1424,223.7565 887.41,253.94 913.65,275.19 " fill="transparent" id="logic_arc_int__baselibs__utils_base64-backto-comp_arc_sta__baselibs__utils" style="stroke:#181818;stroke-width:1;"/><polygon fill="#181818" points="819.27,198.75,823.7459,207.523,823.1553,201.8971,828.7813,201.3065,819.27,198.75" style="stroke:#181818;stroke-width:1;"/><text fill="#000000" font-family="sans-serif" font-size="13" lengthAdjust="spacing" textLength="76.9082" x="876.5" y="241.5669">implements</text></g><!--reverse link logic_arc_int__baselibs__memory_shared to comp_arc_sta__baselibs__memory_shared--><g id="link_logic_arc_int__baselibs__memory_shared_comp_arc_sta__baselibs__memory_shared"><path codeLine="52" d="M173.621,204.7464 C172.881,225.9764 171.91,253.94 171.17,275.19 " fill="transparent" id="logic_arc_int__baselibs__memory_shared-backto-comp_arc_sta__baselibs__memory_shared" style="stroke:#181818;stroke-width:1;"/><polygon fill="#181818" points="173.83,198.75,169.5189,207.6052,173.6558,203.747,177.5141,207.8839,173.83,198.75" style="stroke:#181818;stroke-width:1;"/><text fill="#000000" font-family="sans-serif" font-size="13" lengthAdjust="spacing" textLength="76.9082" x="174.5" y="241.5669">implements</text></g><!--SRC=[hLPDRzim3BtxLmYzfnk6OeUYw6N0JZkkPu6MkOIhFZoHwkeD- - -JxMHDqYootHnbaq_auoD5i3Ryr8wUoQyh2QsIeEeW4fngAA8H2hxQK8EA1IC6wLeSp-XQwHI8HAgJ85TtB9t5- -eQc6ojVbTVoEEdO4DK4PlXz7L3vj4Zi_fm_RxwKzszs_fKO2JRNNr6a1HHFJ36AmMijXzq_q5LrS5nrQpkbGrhCXgYqUH5wneOBTMiTHAoF9m_tjognAZcU3jq8NQQDv1Zd-_-ZInobobpMryJN3iOii2-eGdUf1ZHcqwjqZb8V4QJCactYbnhqQ4NdXLJqtbmmwy8tOAKKczviNG4-557v6HbSKOlbCnDXZjlDZ5u-eMD_f4muNoCNV1d2N5PxB16tG9pRh42AKVMXyJyxueNhHNGzqMvaF5StuRwcQ2V81BKjYI8eGiBSOsToYQqkHYXdPPrZaGWZvHOGi_7c9YUK5lYvLexXfchbff4E_3K9WizWGNUldFmXSHwayNfZ8FjqaszWvjOm8ceHx5E0Jzckt33Q9u7KfPWXBSCsLSTN69sceYFPlV2u4waELV6htfrBa0_z-TxZLe_o-MYak_tuq9IsnWSyULwwDJJTDb- -XVnPM77oYvayM0TEClaQ5I8vTHYyVOCJxr-KswO_WZkrjKfg0ShQd6nE5Xdz-7_0W00]--></g></svg>