<svg xmlns="http://www.w3.org/2000/svg" xmlns:xlink="http://www.w3.org/1999/xlink" contentStyleType="text/css" data-diagram-type="CLASS" height="322px" preserveAspectRatio="none" style="width:966px;height:322px;background:#FFFFFF;" version="1.1" viewBox="0 0 966 322" width="966px" zoomAndPan="magnify"><defs/><g><!--entity Feature_User--><g id="elem_Feature_User"><ellipse cx="510.1685" cy="14" fill="#F1F1F1" rx="8" ry="8" style="stroke:#181818;stroke-width:0.5;"/><path d="M510.1685,22 L510.1685,49 M497.1685,30 L523.1685,30 M510.1685,49 L497.1685,64 M510.1685,49 L523.1685,64 " fill="transparent" style="stroke:#181818;stroke-width:0.5;"/><text fill="#000000" font-family="sans-serif" font-size="14" lengthAdjust="spacing" textLength="90.3369" x="465" y="78.4951">Feature User</text></g><!--class logic_arc_int__orchestration__user--><g id="elem_logic_arc_int__orchestration__user"><rect fill="#F1F1F1" height="40" id="logic_arc_int__orchestration__user" rx="2.5" ry="2.5" style="stroke:#181818;stroke-width:0.5;" width="271.1895" x="688.5" y="158.5"/><ellipse cx="703.5" cy="174.5" fill="#ADD1B2" rx="11" ry="11" style="stroke:#181818;stroke-width:1;"/><path d="M706.4688,180.1406 Q705.8906,180.4375 705.25,180.5781 Q704.6094,180.7344 703.9063,180.7344 Q701.4063,180.7344 700.0781,179.0938 Q698.7656,177.4375 698.7656,174.3125 Q698.7656,171.1875 700.0781,169.5313 Q701.4063,167.875 703.9063,167.875 Q704.6094,167.875 705.25,168.0313 Q705.9063,168.1875 706.4688,168.4844 L706.4688,171.2031 Q705.8438,170.625 705.25,170.3594 Q704.6563,170.0781 704.0313,170.0781 Q702.6875,170.0781 702,171.1563 Q701.3125,172.2188 701.3125,174.3125 Q701.3125,176.4063 702,177.4844 Q702.6875,178.5469 704.0313,178.5469 Q704.6563,178.5469 705.25,178.2813 Q705.8438,178 706.4688,177.4219 L706.4688,180.1406 Z " fill="#000000"/><text fill="#000000" font-family="sans-serif" font-size="14" lengthAdjust="spacing" textLength="239.1895" x="717.5" y="179.3467">logic_arc_int__orchestration__user</text><line style="stroke:#181818;stroke-width:0.5;" x1="689.5" x2="958.6895" y1="190.5" y2="190.5"/></g><!--class comp_arc_sta__orch__orchestrator--><g id="elem_comp_arc_sta__orch__orchestrator"><rect fill="#F1F1F1" height="40" id="comp_arc_sta__orch__orchestrator" rx="2.5" ry="2.5" style="stroke:#181818;stroke-width:0.5;" width="273.5068" x="373" y="275.5"/><ellipse cx="388" cy="291.5" fill="#ADD1B2" rx="11" ry="11" style="stroke:#181818;stroke-width:1;"/><path d="M390.9688,297.1406 Q390.3906,297.4375 389.75,297.5781 Q389.1094,297.7344 388.4063,297.7344 Q385.9063,297.7344 384.5781,296.0938 Q383.2656,294.4375 383.2656,291.3125 Q383.2656,288.1875 384.5781,286.5313 Q385.9063,284.875 388.4063,284.875 Q389.1094,284.875 389.75,285.0313 Q390.4063,285.1875 390.9688,285.4844 L390.9688,288.2031 Q390.3438,287.625 389.75,287.3594 Q389.1563,287.0781 388.5313,287.0781 Q387.1875,287.0781 386.5,288.1563 Q385.8125,289.2188 385.8125,291.3125 Q385.8125,293.4063 386.5,294.4844 Q387.1875,295.5469 388.5313,295.5469 Q389.1563,295.5469 389.75,295.2813 Q390.3438,295 390.9688,294.4219 L390.9688,297.1406 Z " fill="#000000"/><text fill="#000000" font-family="sans-serif" font-size="14" lengthAdjust="spacing" textLength="241.5068" x="402" y="296.3467">comp_arc_sta__orch__orchestrator</text><line style="stroke:#181818;stroke-width:0.5;" x1="374" x2="645.5068" y1="307.5" y2="307.5"/></g><!--class logic_arc_int__orchestration__deployment--><g id="elem_logic_arc_int__orchestration__deployment"><rect fill="#F1F1F1" height="40" id="logic_arc_int__orchestration__deployment" rx="2.5" ry="2.5" style="stroke:#181818;stroke-width:0.5;" width="324.3936" x="7" y="158.5"/><ellipse cx="22" cy="174.5" fill="#ADD1B2" rx="11" ry="11" style="stroke:#181818;stroke-width:1;"/><path d="M24.9688,180.1406 Q24.3906,180.4375 23.75,180.5781 Q23.1094,180.7344 22.4063,180.7344 Q19.9063,180.7344 18.5781,179.0938 Q17.2656,177.4375 17.2656,174.3125 Q17.2656,171.1875 18.5781,169.5313 Q19.9063,167.875 22.4063,167.875 Q23.1094,167.875 23.75,168.0313 Q24.4063,168.1875 24.9688,168.4844 L24.9688,171.2031 Q24.3438,170.625 23.75,170.3594 Q23.1563,170.0781 22.5313,170.0781 Q21.1875,170.0781 20.5,171.1563 Q19.8125,172.2188 19.8125,174.3125 Q19.8125,176.4063 20.5,177.4844 Q21.1875,178.5469 22.5313,178.5469 Q23.1563,178.5469 23.75,178.2813 Q24.3438,178 24.9688,177.4219 L24.9688,180.1406 Z " fill="#000000"/><text fill="#000000" font-family="sans-serif" font-size="14" lengthAdjust="spacing" textLength="292.3936" x="36" y="179.3467">logic_arc_int__orchestration__deployment</text><line style="stroke:#181818;stroke-width:0.5;" x1="8" x2="330.3936" y1="190.5" y2="190.5"/></g><!--class logic_arc_int__orchestration__design--><g id="elem_logic_arc_int__orchestration__design"><rect fill="#F1F1F1" height="40" id="logic_arc_int__orchestration__design" rx="2.5" ry="2.5" style="stroke:#181818;stroke-width:0.5;" width="287.0967" x="366.5" y="158.5"/><ellipse cx="381.5" cy="174.5" fill="#ADD1B2" rx="11" ry="11" style="stroke:#181818;stroke-width:1;"/><path d="M384.4688,180.1406 Q383.8906,180.4375 383.25,180.5781 Q382.6094,180.7344 381.9063,180.7344 Q379.4063,180.7344 378.0781,179.0938 Q376.7656,177.4375 376.7656,174.3125 Q376.7656,171.1875 378.0781,169.5313 Q379.4063,167.875 381.9063,167.875 Q382.6094,167.875 383.25,168.0313 Q383.9063,168.1875 384.4688,168.4844 L384.4688,171.2031 Q383.8438,170.625 383.25,170.3594 Q382.6563,170.0781 382.0313,170.0781 Q380.6875,170.0781 380,171.1563 Q379.3125,172.2188 379.3125,174.3125 Q379.3125,176.4063 380,177.4844 Q380.6875,178.5469 382.0313,178.5469 Q382.6563,178.5469 383.25,178.2813 Q383.8438,178 384.4688,177.4219 L384.4688,180.1406 Z " fill="#000000"/><text fill="#000000" font-family="sans-serif" font-size="14" lengthAdjust="spacing" textLength="255.0967" x="395.5" y="179.3467">logic_arc_int__orchestration__design</text><line style="stroke:#181818;stroke-width:0.5;" x1="367.5" x2="652.5967" y1="190.5" y2="190.5"/></g><!--link Feature_User to logic_arc_int__orchestration__user--><g id="link_Feature_User_logic_arc_int__orchestration__user"><path codeLine="15" d="M555.32,63.7 C615.02,88.98 713.8551,130.85 773.4251,156.08 " fill="transparent" id="Feature_User-to-logic_arc_int__orchestration__user" style="stroke:#181818;stroke-width:1;"/><polygon fill="#181818" points="778.95,158.42,772.2227,151.2268,774.3459,156.47,769.1027,158.5933,778.95,158.42" style="stroke:#181818;stroke-width:1;"/><text fill="#000000" font-family="sans-serif" font-size="13" lengthAdjust="spacing" textLength="23.0103" x="706" y="124.5669">use</text></g><!--reverse link logic_arc_int__orchestration__user to comp_arc_sta__orch__orchestrator--><g id="link_logic_arc_int__orchestration__user_comp_arc_sta__orch__orchestrator"><path codeLine="16" d="M766.1659,200.6834 C708.0059,221.9834 620.17,254.15 562.07,275.43 " fill="transparent" id="logic_arc_int__orchestration__user-backto-comp_arc_sta__orch__orchestrator" style="stroke:#181818;stroke-width:1;"/><polygon fill="#181818" points="771.8,198.62,761.9733,197.959,767.105,200.3395,764.7245,205.4711,771.8,198.62" style="stroke:#181818;stroke-width:1;"/><text fill="#000000" font-family="sans-serif" font-size="13" lengthAdjust="spacing" textLength="76.9082" x="687" y="241.5669">implements</text></g><!--link Feature_User to logic_arc_int__orchestration__deployment--><g id="link_Feature_User_logic_arc_int__orchestration__deployment"><path codeLine="17" d="M464.72,62.16 C400.58,87.18 289.3601,130.5604 223.3701,156.2904 " fill="transparent" id="Feature_User-to-logic_arc_int__orchestration__deployment" style="stroke:#181818;stroke-width:1;"/><polygon fill="#181818" points="217.78,158.47,227.6182,158.9273,222.4384,156.6536,224.7121,151.4738,217.78,158.47" style="stroke:#181818;stroke-width:1;"/><text fill="#000000" font-family="sans-serif" font-size="13" lengthAdjust="spacing" textLength="23.0103" x="331" y="124.5669">use</text></g><!--reverse link logic_arc_int__orchestration__design to comp_arc_sta__orch__orchestrator--><g id="link_logic_arc_int__orchestration__design_comp_arc_sta__orch__orchestrator"><path codeLine="18" d="M510,204.75 C510,225.98 510,253.94 510,275.19 " fill="transparent" id="logic_arc_int__orchestration__design-backto-comp_arc_sta__orch__orchestrator" style="stroke:#181818;stroke-width:1;"/><polygon fill="#181818" points="510,198.75,506,207.75,510,203.75,514,207.75,510,198.75" style="stroke:#181818;stroke-width:1;"/><text fill="#000000" font-family="sans-serif" font-size="13" lengthAdjust="spacing" textLength="76.9082" x="511" y="241.5669">implements</text></g><!--link Feature_User to logic_arc_int__orchestration__design--><g id="link_Feature_User_logic_arc_int__orchestration__design"><path codeLine="19" d="M510,81.55 C510,106.45 510,132.26 510,152.26 " fill="transparent" id="Feature_User-to-logic_arc_int__orchestration__design" style="stroke:#181818;stroke-width:1;"/><polygon fill="#181818" points="510,158.26,514,149.26,510,153.26,506,149.26,510,158.26" style="stroke:#181818;stroke-width:1;"/><text fill="#000000" font-family="sans-serif" font-size="13" lengthAdjust="spacing" textLength="23.0103" x="511" y="124.5669">use</text></g><!--reverse link logic_arc_int__orchestration__deployment to comp_arc_sta__orch__orchestrator--><g id="link_logic_arc_int__orchestration__deployment_comp_arc_sta__orch__orchestrator"><path codeLine="20" d="M231.3754,200.5373 C294.5354,221.8373 390.36,254.15 453.46,275.43 " fill="transparent" id="logic_arc_int__orchestration__deployment-backto-comp_arc_sta__orch__orchestrator" style="stroke:#181818;stroke-width:1;"/><polygon fill="#181818" points="225.69,198.62,232.9399,205.2863,230.4278,200.2178,235.4963,197.7057,225.69,198.62" style="stroke:#181818;stroke-width:1;"/><text fill="#000000" font-family="sans-serif" font-size="13" lengthAdjust="spacing" textLength="76.9082" x="361" y="241.5669">implements</text></g><!--SRC=[hO-nIWH138RxF4MuVa-nbECQmSfIws5s9km6PoR398ikuhkxUtlWsIbU4_Z3b-IBJqdUNEPtBWEOL3J1NimaO-H6mLWAZ1m9rQYHs5nfovIhpUZD6lUJaS91RKvqXBrNJZr-m1CNUf0a3Hl5KteUERmMKiMx_Irymk7cF0C-sCBj7idRr0XVbDeElUAvuTO60lo8NUoEc6JWu7mBZeiv9osCfDRyAkxSj73tk5I48BcUE3M_SPVqShoRVhcESqsKgPZYduKYrIJpEdn5hKZAG_clsBRZYbBVdrwAVG40]--></g></svg>