<svg xmlns="http://www.w3.org/2000/svg" xmlns:xlink="http://www.w3.org/1999/xlink" contentStyleType="text/css" data-diagram-type="CLASS" height="322px" preserveAspectRatio="none" style="width:6208px;height:322px;background:#FFFFFF;" version="1.1" viewBox="0 0 6208 322" width="6208px" zoomAndPan="magnify"><defs/><g><!--entity Feature_User--><g id="elem_Feature_User"><ellipse cx="3167.6685" cy="14" fill="#F1F1F1" rx="8" ry="8" style="stroke:#181818;stroke-width:0.5;"/><path d="M3167.6685,22 L3167.6685,49 M3154.6685,30 L3180.6685,30 M3167.6685,49 L3154.6685,64 M3167.6685,49 L3180.6685,64 " fill="transparent" style="stroke:#181818;stroke-width:0.5;"/><text fill="#000000" font-family="sans-serif" font-size="14" lengthAdjust="spacing" textLength="90.3369" x="3122.5" y="78.4951">Feature User</text></g><!--class comp_arc_sta__baselibs__concurrency--><g id="elem_comp_arc_sta__baselibs__concurrency"><rect fill="#F1F1F1" height="40" id="comp_arc_sta__baselibs__concurrency" rx="2.5" ry="2.5" style="stroke:#181818;stroke-width:0.5;" width="300.2012" x="3148.5" y="275.5"/><ellipse cx="3163.5" cy="291.5" fill="#ADD1B2" rx="11" ry="11" style="stroke:#181818;stroke-width:1;"/><path d="M3166.4688,297.1406 Q3165.8906,297.4375 3165.25,297.5781 Q3164.6094,297.7344 3163.9063,297.7344 Q3161.4063,297.7344 3160.0781,296.0938 Q3158.7656,294.4375 3158.7656,291.3125 Q3158.7656,288.1875 3160.0781,286.5313 Q3161.4063,284.875 3163.9063,284.875 Q3164.6094,284.875 3165.25,285.0313 Q3165.9063,285.1875 3166.4688,285.4844 L3166.4688,288.2031 Q3165.8438,287.625 3165.25,287.3594 Q3164.6563,287.0781 3164.0313,287.0781 Q3162.6875,287.0781 3162,288.1563 Q3161.3125,289.2188 3161.3125,291.3125 Q3161.3125,293.4063 3162,294.4844 Q3162.6875,295.5469 3164.0313,295.5469 Q3164.6563,295.5469 3165.25,295.2813 Q3165.8438,295 3166.4688,294.4219 L3166.4688,297.1406 Z " fill="#000000"/><text fill="#000000" font-family="sans-serif" font-size="14" lengthAdjust="spacing" textLength="268.2012" x="3177.5" y="296.3467">comp_arc_sta__baselibs__concurrency</text><line style="stroke:#181818;stroke-width:0.5;" x1="3149.5" x2="3447.7012" y1="307.5" y2="307.5"/></g><!--class logic_arc_int__baselibs__condition_variable--><g id="elem_logic_arc_int__baselibs__condition_variable"><rect fill="#F1F1F1" height="40" id="logic_arc_int__baselibs__condition_variable" rx="2.5" ry="2.5" style="stroke:#181818;stroke-width:0.5;" width="332.7539" x="2360" y="158.5"/><ellipse cx="2375" cy="174.5" fill="#ADD1B2" rx="11" ry="11" style="stroke:#181818;stroke-width:1;"/><path d="M2377.9688,180.1406 Q2377.3906,180.4375 2376.75,180.5781 Q2376.1094,180.7344 2375.4063,180.7344 Q2372.9063,180.7344 2371.5781,179.0938 Q2370.2656,177.4375 2370.2656,174.3125 Q2370.2656,171.1875 2371.5781,169.5313 Q2372.9063,167.875 2375.4063,167.875 Q2376.1094,167.875 2376.75,168.0313 Q2377.4063,168.1875 2377.9688,168.4844 L2377.9688,171.2031 Q2377.3438,170.625 2376.75,170.3594 Q2376.1563,170.0781 2375.5313,170.0781 Q2374.1875,170.0781 2373.5,171.1563 Q2372.8125,172.2188 2372.8125,174.3125 Q2372.8125,176.4063 2373.5,177.4844 Q2374.1875,178.5469 2375.5313,178.5469 Q2376.1563,178.5469 2376.75,178.2813 Q2377.3438,178 2377.9688,177.4219 L2377.9688,180.1406 Z " fill="#000000"/><text fill="#000000" font-family="sans-serif" font-size="14" lengthAdjust="spacing" textLength="300.7539" x="2389" y="179.3467">logic_arc_int__baselibs__condition_variable</text><line style="stroke:#181818;stroke-width:0.5;" x1="2361" x2="2691.7539" y1="190.5" y2="190.5"/></g><!--class comp_arc_sta__baselibs__utils--><g id="elem_comp_arc_sta__baselibs__utils"><rect fill="#F1F1F1" height="40" id="comp_arc_sta__baselibs__utils" rx="2.5" ry="2.5" style="stroke:#181818;stroke-width:0.5;" width="242.9502" x="4795" y="275.5"/><ellipse cx="4810" cy="291.5" fill="#ADD1B2" rx="11" ry="11" style="stroke:#181818;stroke-width:1;"/><path d="M4812.9688,297.1406 Q4812.3906,297.4375 4811.75,297.5781 Q4811.1094,297.7344 4810.4063,297.7344 Q4807.9063,297.7344 4806.5781,296.0938 Q4805.2656,294.4375 4805.2656,291.3125 Q4805.2656,288.1875 4806.5781,286.5313 Q4807.9063,284.875 4810.4063,284.875 Q4811.1094,284.875 4811.75,285.0313 Q4812.4063,285.1875 4812.9688,285.4844 L4812.9688,288.2031 Q4812.3438,287.625 4811.75,287.3594 Q4811.1563,287.0781 4810.5313,287.0781 Q4809.1875,287.0781 4808.5,288.1563 Q4807.8125,289.2188 4807.8125,291.3125 Q4807.8125,293.4063 4808.5,294.4844 Q4809.1875,295.5469 4810.5313,295.5469 Q4811.1563,295.5469 4811.75,295.2813 Q4812.3438,295 4812.9688,294.4219 L4812.9688,297.1406 Z " fill="#000000"/><text fill="#000000" font-family="sans-serif" font-size="14" lengthAdjust="spacing" textLength="210.9502" x="4824" y="296.3467">comp_arc_sta__baselibs__utils</text><line style="stroke:#181818;stroke-width:0.5;" x1="4796" x2="5036.9502" y1="307.5" y2="307.5"/></g><!--class logic_arc_int__baselibs__utils_base64--><g id="elem_logic_arc_int__baselibs__utils_base64"><rect fill="#F1F1F1" height="40" id="logic_arc_int__baselibs__utils_base64" rx="2.5" ry="2.5" style="stroke:#181818;stroke-width:0.5;" width="292.1689" x="4994.5" y="158.5"/><ellipse cx="5009.5" cy="174.5" fill="#ADD1B2" rx="11" ry="11" style="stroke:#181818;stroke-width:1;"/><path d="M5012.4688,180.1406 Q5011.8906,180.4375 5011.25,180.5781 Q5010.6094,180.7344 5009.9063,180.7344 Q5007.4063,180.7344 5006.0781,179.0938 Q5004.7656,177.4375 5004.7656,174.3125 Q5004.7656,171.1875 5006.0781,169.5313 Q5007.4063,167.875 5009.9063,167.875 Q5010.6094,167.875 5011.25,168.0313 Q5011.9063,168.1875 5012.4688,168.4844 L5012.4688,171.2031 Q5011.8438,170.625 5011.25,170.3594 Q5010.6563,170.0781 5010.0313,170.0781 Q5008.6875,170.0781 5008,171.1563 Q5007.3125,172.2188 5007.3125,174.3125 Q5007.3125,176.4063 5008,177.4844 Q5008.6875,178.5469 5010.0313,178.5469 Q5010.6563,178.5469 5011.25,178.2813 Q5011.8438,178 5012.4688,177.4219 L5012.4688,180.1406 Z " fill="#000000"/><text fill="#000000" font-family="sans-serif" font-size="14" lengthAdjust="spacing" textLength="260.1689" x="5023.5" y="179.3467">logic_arc_int__baselibs__utils_base64</text><line style="stroke:#181818;stroke-width:0.5;" x1="4995.5" x2="5285.6689" y1="190.5" y2="190.5"/></g><!--class logic_arc_int__baselibs__promise--><g id="elem_logic_arc_int__baselibs__promise"><rect fill="#F1F1F1" height="40" id="logic_arc_int__baselibs__promise" rx="2.5" ry="2.5" style="stroke:#181818;stroke-width:0.5;" width="261.1885" x="4348" y="158.5"/><ellipse cx="4363" cy="174.5" fill="#ADD1B2" rx="11" ry="11" style="stroke:#181818;stroke-width:1;"/><path d="M4365.9688,180.1406 Q4365.3906,180.4375 4364.75,180.5781 Q4364.1094,180.7344 4363.4063,180.7344 Q4360.9063,180.7344 4359.5781,179.0938 Q4358.2656,177.4375 4358.2656,174.3125 Q4358.2656,171.1875 4359.5781,169.5313 Q4360.9063,167.875 4363.4063,167.875 Q4364.1094,167.875 4364.75,168.0313 Q4365.4063,168.1875 4365.9688,168.4844 L4365.9688,171.2031 Q4365.3438,170.625 4364.75,170.3594 Q4364.1563,170.0781 4363.5313,170.0781 Q4362.1875,170.0781 4361.5,171.1563 Q4360.8125,172.2188 4360.8125,174.3125 Q4360.8125,176.4063 4361.5,177.4844 Q4362.1875,178.5469 4363.5313,178.5469 Q4364.1563,178.5469 4364.75,178.2813 Q4365.3438,178 4365.9688,177.4219 L4365.9688,180.1406 Z " fill="#000000"/><text fill="#000000" font-family="sans-serif" font-size="14" lengthAdjust="spacing" textLength="229.1885" x="4377" y="179.3467">logic_arc_int__baselibs__promise</text><line style="stroke:#181818;stroke-width:0.5;" x1="4349" x2="4608.1885" y1="190.5" y2="190.5"/></g><!--class logic_arc_int__baselibs__task--><g id="elem_logic_arc_int__baselibs__task"><rect fill="#F1F1F1" height="40" id="logic_arc_int__baselibs__task" rx="2.5" ry="2.5" style="stroke:#181818;stroke-width:0.5;" width="234.0156" x="2090.5" y="158.5"/><ellipse cx="2105.5" cy="174.5" fill="#ADD1B2" rx="11" ry="11" style="stroke:#181818;stroke-width:1;"/><path d="M2108.4688,180.1406 Q2107.8906,180.4375 2107.25,180.5781 Q2106.6094,180.7344 2105.9063,180.7344 Q2103.4063,180.7344 2102.0781,179.0938 Q2100.7656,177.4375 2100.7656,174.3125 Q2100.7656,171.1875 2102.0781,169.5313 Q2103.4063,167.875 2105.9063,167.875 Q2106.6094,167.875 2107.25,168.0313 Q2107.9063,168.1875 2108.4688,168.4844 L2108.4688,171.2031 Q2107.8438,170.625 2107.25,170.3594 Q2106.6563,170.0781 2106.0313,170.0781 Q2104.6875,170.0781 2104,171.1563 Q2103.3125,172.2188 2103.3125,174.3125 Q2103.3125,176.4063 2104,177.4844 Q2104.6875,178.5469 2106.0313,178.5469 Q2106.6563,178.5469 2107.25,178.2813 Q2107.8438,178 2108.4688,177.4219 L2108.4688,180.1406 Z " fill="#000000"/><text fill="#000000" font-family="sans-serif" font-size="14" lengthAdjust="spacing" textLength="202.0156" x="2119.5" y="179.3467">logic_arc_int__baselibs__task</text><line style="stroke:#181818;stroke-width:0.5;" x1="2091.5" x2="2323.5156" y1="190.5" y2="190.5"/></g><!--class logic_arc_int__baselibs__task_result--><g id="elem_logic_arc_int__baselibs__task_result"><rect fill="#F1F1F1" height="40" id="logic_arc_int__baselibs__task_result" rx="2.5" ry="2.5" style="stroke:#181818;stroke-width:0.5;" width="280.9307" x="2728" y="158.5"/><ellipse cx="2743" cy="174.5" fill="#ADD1B2" rx="11" ry="11" style="stroke:#181818;stroke-width:1;"/><path d="M2745.9688,180.1406 Q2745.3906,180.4375 2744.75,180.5781 Q2744.1094,180.7344 2743.4063,180.7344 Q2740.9063,180.7344 2739.5781,179.0938 Q2738.2656,177.4375 2738.2656,174.3125 Q2738.2656,171.1875 2739.5781,169.5313 Q2740.9063,167.875 2743.4063,167.875 Q2744.1094,167.875 2744.75,168.0313 Q2745.4063,168.1875 2745.9688,168.4844 L2745.9688,171.2031 Q2745.3438,170.625 2744.75,170.3594 Q2744.1563,170.0781 2743.5313,170.0781 Q2742.1875,170.0781 2741.5,171.1563 Q2740.8125,172.2188 2740.8125,174.3125 Q2740.8125,176.4063 2741.5,177.4844 Q2742.1875,178.5469 2743.5313,178.5469 Q2744.1563,178.5469 2744.75,178.2813 Q2745.3438,178 2745.9688,177.4219 L2745.9688,180.1406 Z " fill="#000000"/><text fill="#000000" font-family="sans-serif" font-size="14" lengthAdjust="spacing" textLength="248.9307" x="2757" y="179.3467">logic_arc_int__baselibs__task_result</text><line style="stroke:#181818;stroke-width:0.5;" x1="2729" x2="3007.9307" y1="190.5" y2="190.5"/></g><!--class logic_arc_int__baselibs__dynamic_array--><g id="elem_logic_arc_int__baselibs__dynamic_array"><rect fill="#F1F1F1" height="40" id="logic_arc_int__baselibs__dynamic_array" rx="2.5" ry="2.5" style="stroke:#181818;stroke-width:0.5;" width="308.3496" x="691.5" y="158.5"/><ellipse cx="706.5" cy="174.5" fill="#ADD1B2" rx="11" ry="11" style="stroke:#181818;stroke-width:1;"/><path d="M709.4688,180.1406 Q708.8906,180.4375 708.25,180.5781 Q707.6094,180.7344 706.9063,180.7344 Q704.4063,180.7344 703.0781,179.0938 Q701.7656,177.4375 701.7656,174.3125 Q701.7656,171.1875 703.0781,169.5313 Q704.4063,167.875 706.9063,167.875 Q707.6094,167.875 708.25,168.0313 Q708.9063,168.1875 709.4688,168.4844 L709.4688,171.2031 Q708.8438,170.625 708.25,170.3594 Q707.6563,170.0781 707.0313,170.0781 Q705.6875,170.0781 705,171.1563 Q704.3125,172.2188 704.3125,174.3125 Q704.3125,176.4063 705,177.4844 Q705.6875,178.5469 707.0313,178.5469 Q707.6563,178.5469 708.25,178.2813 Q708.8438,178 709.4688,177.4219 L709.4688,180.1406 Z " fill="#000000"/><text fill="#000000" font-family="sans-serif" font-size="14" lengthAdjust="spacing" textLength="276.3496" x="720.5" y="179.3467">logic_arc_int__baselibs__dynamic_array</text><line style="stroke:#181818;stroke-width:0.5;" x1="692.5" x2="998.8496" y1="190.5" y2="190.5"/></g><!--class logic_arc_int__baselibs__json--><g id="elem_logic_arc_int__baselibs__json"><rect fill="#F1F1F1" height="40" id="logic_arc_int__baselibs__json" rx="2.5" ry="2.5" style="stroke:#181818;stroke-width:0.5;" width="233.168" x="5322" y="158.5"/><ellipse cx="5337" cy="174.5" fill="#ADD1B2" rx="11" ry="11" style="stroke:#181818;stroke-width:1;"/><path d="M5339.9688,180.1406 Q5339.3906,180.4375 5338.75,180.5781 Q5338.1094,180.7344 5337.4063,180.7344 Q5334.9063,180.7344 5333.5781,179.0938 Q5332.2656,177.4375 5332.2656,174.3125 Q5332.2656,171.1875 5333.5781,169.5313 Q5334.9063,167.875 5337.4063,167.875 Q5338.1094,167.875 5338.75,168.0313 Q5339.4063,168.1875 5339.9688,168.4844 L5339.9688,171.2031 Q5339.3438,170.625 5338.75,170.3594 Q5338.1563,170.0781 5337.5313,170.0781 Q5336.1875,170.0781 5335.5,171.1563 Q5334.8125,172.2188 5334.8125,174.3125 Q5334.8125,176.4063 5335.5,177.4844 Q5336.1875,178.5469 5337.5313,178.5469 Q5338.1563,178.5469 5338.75,178.2813 Q5339.3438,178 5339.9688,177.4219 L5339.9688,180.1406 Z " fill="#000000"/><text fill="#000000" font-family="sans-serif" font-size="14" lengthAdjust="spacing" textLength="201.168" x="5351" y="179.3467">logic_arc_int__baselibs__json</text><line style="stroke:#181818;stroke-width:0.5;" x1="5323" x2="5554.168" y1="190.5" y2="190.5"/></g><!--class logic_arc_int__baselibs__bit_mask_operator--><g id="elem_logic_arc_int__baselibs__bit_mask_operator"><rect fill="#F1F1F1" height="40" id="logic_arc_int__baselibs__bit_mask_operator" rx="2.5" ry="2.5" style="stroke:#181818;stroke-width:0.5;" width="334.6406" x="1363" y="158.5"/><ellipse cx="1378" cy="174.5" fill="#ADD1B2" rx="11" ry="11" style="stroke:#181818;stroke-width:1;"/><path d="M1380.9688,180.1406 Q1380.3906,180.4375 1379.75,180.5781 Q1379.1094,180.7344 1378.4063,180.7344 Q1375.9063,180.7344 1374.5781,179.0938 Q1373.2656,177.4375 1373.2656,174.3125 Q1373.2656,171.1875 1374.5781,169.5313 Q1375.9063,167.875 1378.4063,167.875 Q1379.1094,167.875 1379.75,168.0313 Q1380.4063,168.1875 1380.9688,168.4844 L1380.9688,171.2031 Q1380.3438,170.625 1379.75,170.3594 Q1379.1563,170.0781 1378.5313,170.0781 Q1377.1875,170.0781 1376.5,171.1563 Q1375.8125,172.2188 1375.8125,174.3125 Q1375.8125,176.4063 1376.5,177.4844 Q1377.1875,178.5469 1378.5313,178.5469 Q1379.1563,178.5469 1379.75,178.2813 Q1380.3438,178 1380.9688,177.4219 L1380.9688,180.1406 Z " fill="#000000"/><text fill="#000000" font-family="sans-serif" font-size="14" lengthAdjust="spacing" textLength="302.6406" x="1392" y="179.3467">logic_arc_int__baselibs__bit_mask_operator</text><line style="stroke:#181818;stroke-width:0.5;" x1="1364" x2="1696.6406" y1="190.5" y2="190.5"/></g><!--class logic_arc_int__baselibs__utils_scoped_op--><g id="elem_logic_arc_int__baselibs__utils_scoped_op"><rect fill="#F1F1F1" height="40" id="logic_arc_int__baselibs__utils_scoped_op" rx="2.5" ry="2.5" style="stroke:#181818;stroke-width:0.5;" width="315.377" x="4644" y="158.5"/><ellipse cx="4659" cy="174.5" fill="#ADD1B2" rx="11" ry="11" style="stroke:#181818;stroke-width:1;"/><path d="M4661.9688,180.1406 Q4661.3906,180.4375 4660.75,180.5781 Q4660.1094,180.7344 4659.4063,180.7344 Q4656.9063,180.7344 4655.5781,179.0938 Q4654.2656,177.4375 4654.2656,174.3125 Q4654.2656,171.1875 4655.5781,169.5313 Q4656.9063,167.875 4659.4063,167.875 Q4660.1094,167.875 4660.75,168.0313 Q4661.4063,168.1875 4661.9688,168.4844 L4661.9688,171.2031 Q4661.3438,170.625 4660.75,170.3594 Q4660.1563,170.0781 4659.5313,170.0781 Q4658.1875,170.0781 4657.5,171.1563 Q4656.8125,172.2188 4656.8125,174.3125 Q4656.8125,176.4063 4657.5,177.4844 Q4658.1875,178.5469 4659.5313,178.5469 Q4660.1563,178.5469 4660.75,178.2813 Q4661.3438,178 4661.9688,177.4219 L4661.9688,180.1406 Z " fill="#000000"/><text fill="#000000" font-family="sans-serif" font-size="14" lengthAdjust="spacing" textLength="283.377" x="4673" y="179.3467">logic_arc_int__baselibs__utils_scoped_op</text><line style="stroke:#181818;stroke-width:0.5;" x1="4645" x2="4958.377" y1="190.5" y2="190.5"/></g><!--class logic_arc_int__baselibs__bit_manipulation--><g id="elem_logic_arc_int__baselibs__bit_manipulation"><rect fill="#F1F1F1" height="40" id="logic_arc_int__baselibs__bit_manipulation" rx="2.5" ry="2.5" style="stroke:#181818;stroke-width:0.5;" width="321.8369" x="1733.5" y="158.5"/><ellipse cx="1748.5" cy="174.5" fill="#ADD1B2" rx="11" ry="11" style="stroke:#181818;stroke-width:1;"/><path d="M1751.4688,180.1406 Q1750.8906,180.4375 1750.25,180.5781 Q1749.6094,180.7344 1748.9063,180.7344 Q1746.4063,180.7344 1745.0781,179.0938 Q1743.7656,177.4375 1743.7656,174.3125 Q1743.7656,171.1875 1745.0781,169.5313 Q1746.4063,167.875 1748.9063,167.875 Q1749.6094,167.875 1750.25,168.0313 Q1750.9063,168.1875 1751.4688,168.4844 L1751.4688,171.2031 Q1750.8438,170.625 1750.25,170.3594 Q1749.6563,170.0781 1749.0313,170.0781 Q1747.6875,170.0781 1747,171.1563 Q1746.3125,172.2188 1746.3125,174.3125 Q1746.3125,176.4063 1747,177.4844 Q1747.6875,178.5469 1749.0313,178.5469 Q1749.6563,178.5469 1750.25,178.2813 Q1750.8438,178 1751.4688,177.4219 L1751.4688,180.1406 Z " fill="#000000"/><text fill="#000000" font-family="sans-serif" font-size="14" lengthAdjust="spacing" textLength="289.8369" x="1762.5" y="179.3467">logic_arc_int__baselibs__bit_manipulation</text><line style="stroke:#181818;stroke-width:0.5;" x1="1734.5" x2="2054.3369" y1="190.5" y2="190.5"/></g><!--class logic_arc_int__baselibs__shared_future--><g id="elem_logic_arc_int__baselibs__shared_future"><rect fill="#F1F1F1" height="40" id="logic_arc_int__baselibs__shared_future" rx="2.5" ry="2.5" style="stroke:#181818;stroke-width:0.5;" width="302.0811" x="3326.5" y="158.5"/><ellipse cx="3341.5" cy="174.5" fill="#ADD1B2" rx="11" ry="11" style="stroke:#181818;stroke-width:1;"/><path d="M3344.4688,180.1406 Q3343.8906,180.4375 3343.25,180.5781 Q3342.6094,180.7344 3341.9063,180.7344 Q3339.4063,180.7344 3338.0781,179.0938 Q3336.7656,177.4375 3336.7656,174.3125 Q3336.7656,171.1875 3338.0781,169.5313 Q3339.4063,167.875 3341.9063,167.875 Q3342.6094,167.875 3343.25,168.0313 Q3343.9063,168.1875 3344.4688,168.4844 L3344.4688,171.2031 Q3343.8438,170.625 3343.25,170.3594 Q3342.6563,170.0781 3342.0313,170.0781 Q3340.6875,170.0781 3340,171.1563 Q3339.3125,172.2188 3339.3125,174.3125 Q3339.3125,176.4063 3340,177.4844 Q3340.6875,178.5469 3342.0313,178.5469 Q3342.6563,178.5469 3343.25,178.2813 Q3343.8438,178 3344.4688,177.4219 L3344.4688,180.1406 Z " fill="#000000"/><text fill="#000000" font-family="sans-serif" font-size="14" lengthAdjust="spacing" textLength="270.0811" x="3355.5" y="179.3467">logic_arc_int__baselibs__shared_future</text><line style="stroke:#181818;stroke-width:0.5;" x1="3327.5" x2="3627.5811" y1="190.5" y2="190.5"/></g><!--class logic_arc_int__baselibs__memory_shared--><g id="elem_logic_arc_int__baselibs__memory_shared"><rect fill="#F1F1F1" height="40" id="logic_arc_int__baselibs__memory_shared" rx="2.5" ry="2.5" style="stroke:#181818;stroke-width:0.5;" width="318.043" x="5874.5" y="158.5"/><ellipse cx="5889.5" cy="174.5" fill="#ADD1B2" rx="11" ry="11" style="stroke:#181818;stroke-width:1;"/><path d="M5892.4688,180.1406 Q5891.8906,180.4375 5891.25,180.5781 Q5890.6094,180.7344 5889.9063,180.7344 Q5887.4063,180.7344 5886.0781,179.0938 Q5884.7656,177.4375 5884.7656,174.3125 Q5884.7656,171.1875 5886.0781,169.5313 Q5887.4063,167.875 5889.9063,167.875 Q5890.6094,167.875 5891.25,168.0313 Q5891.9063,168.1875 5892.4688,168.4844 L5892.4688,171.2031 Q5891.8438,170.625 5891.25,170.3594 Q5890.6563,170.0781 5890.0313,170.0781 Q5888.6875,170.0781 5888,171.1563 Q5887.3125,172.2188 5887.3125,174.3125 Q5887.3125,176.4063 5888,177.4844 Q5888.6875,178.5469 5890.0313,178.5469 Q5890.6563,178.5469 5891.25,178.2813 Q5891.8438,178 5892.4688,177.4219 L5892.4688,180.1406 Z " fill="#000000"/><text fill="#000000" font-family="sans-serif" font-size="14" lengthAdjust="spacing" textLength="286.043" x="5903.5" y="179.3467">logic_arc_int__baselibs__memory_shared</text><line style="stroke:#181818;stroke-width:0.5;" x1="5875.5" x2="6191.543" y1="190.5" y2="190.5"/></g><!--class logic_arc_int__baselibs__message_passing--><g id="elem_logic_arc_int__baselibs__message_passing"><rect fill="#F1F1F1" height="40" id="logic_arc_int__baselibs__message_passing" rx="2.5" ry="2.5" style="stroke:#181818;stroke-width:0.5;" width="328.167" x="15.5" y="158.5"/><ellipse cx="30.5" cy="174.5" fill="#ADD1B2" rx="11" ry="11" style="stroke:#181818;stroke-width:1;"/><path d="M33.4688,180.1406 Q32.8906,180.4375 32.25,180.5781 Q31.6094,180.7344 30.9063,180.7344 Q28.4063,180.7344 27.0781,179.0938 Q25.7656,177.4375 25.7656,174.3125 Q25.7656,171.1875 27.0781,169.5313 Q28.4063,167.875 30.9063,167.875 Q31.6094,167.875 32.25,168.0313 Q32.9063,168.1875 33.4688,168.4844 L33.4688,171.2031 Q32.8438,170.625 32.25,170.3594 Q31.6563,170.0781 31.0313,170.0781 Q29.6875,170.0781 29,171.1563 Q28.3125,172.2188 28.3125,174.3125 Q28.3125,176.4063 29,177.4844 Q29.6875,178.5469 31.0313,178.5469 Q31.6563,178.5469 32.25,178.2813 Q32.8438,178 33.4688,177.4219 L33.4688,180.1406 Z " fill="#000000"/><text fill="#000000" font-family="sans-serif" font-size="14" lengthAdjust="spacing" textLength="296.167" x="44.5" y="179.3467">logic_arc_int__baselibs__message_passing</text><line style="stroke:#181818;stroke-width:0.5;" x1="16.5" x2="342.667" y1="190.5" y2="190.5"/></g><!--class logic_arc_int__baselibs__synchronized_queue--><g id="elem_logic_arc_int__baselibs__synchronized_queue"><rect fill="#F1F1F1" height="40" id="logic_arc_int__baselibs__synchronized_queue" rx="2.5" ry="2.5" style="stroke:#181818;stroke-width:0.5;" width="348.3604" x="3663.5" y="158.5"/><ellipse cx="3678.5" cy="174.5" fill="#ADD1B2" rx="11" ry="11" style="stroke:#181818;stroke-width:1;"/><path d="M3681.4688,180.1406 Q3680.8906,180.4375 3680.25,180.5781 Q3679.6094,180.7344 3678.9063,180.7344 Q3676.4063,180.7344 3675.0781,179.0938 Q3673.7656,177.4375 3673.7656,174.3125 Q3673.7656,171.1875 3675.0781,169.5313 Q3676.4063,167.875 3678.9063,167.875 Q3679.6094,167.875 3680.25,168.0313 Q3680.9063,168.1875 3681.4688,168.4844 L3681.4688,171.2031 Q3680.8438,170.625 3680.25,170.3594 Q3679.6563,170.0781 3679.0313,170.0781 Q3677.6875,170.0781 3677,171.1563 Q3676.3125,172.2188 3676.3125,174.3125 Q3676.3125,176.4063 3677,177.4844 Q3677.6875,178.5469 3679.0313,178.5469 Q3679.6563,178.5469 3680.25,178.2813 Q3680.8438,178 3681.4688,177.4219 L3681.4688,180.1406 Z " fill="#000000"/><text fill="#000000" font-family="sans-serif" font-size="14" lengthAdjust="spacing" textLength="316.3604" x="3692.5" y="179.3467">logic_arc_int__baselibs__synchronized_queue</text><line style="stroke:#181818;stroke-width:0.5;" x1="3664.5" x2="4010.8604" y1="190.5" y2="190.5"/></g><!--class comp_arc_sta__baselibs__memory_shared--><g id="elem_comp_arc_sta__baselibs__memory_shared"><rect fill="#F1F1F1" height="40" id="comp_arc_sta__baselibs__memory_shared" rx="2.5" ry="2.5" style="stroke:#181818;stroke-width:0.5;" width="327.0117" x="5874" y="275.5"/><ellipse cx="5889" cy="291.5" fill="#ADD1B2" rx="11" ry="11" style="stroke:#181818;stroke-width:1;"/><path d="M5891.9688,297.1406 Q5891.3906,297.4375 5890.75,297.5781 Q5890.1094,297.7344 5889.4063,297.7344 Q5886.9063,297.7344 5885.5781,296.0938 Q5884.2656,294.4375 5884.2656,291.3125 Q5884.2656,288.1875 5885.5781,286.5313 Q5886.9063,284.875 5889.4063,284.875 Q5890.1094,284.875 5890.75,285.0313 Q5891.4063,285.1875 5891.9688,285.4844 L5891.9688,288.2031 Q5891.3438,287.625 5890.75,287.3594 Q5890.1563,287.0781 5889.5313,287.0781 Q5888.1875,287.0781 5887.5,288.1563 Q5886.8125,289.2188 5886.8125,291.3125 Q5886.8125,293.4063 5887.5,294.4844 Q5888.1875,295.5469 5889.5313,295.5469 Q5890.1563,295.5469 5890.75,295.2813 Q5891.3438,295 5891.9688,294.4219 L5891.9688,297.1406 Z " fill="#000000"/><text fill="#000000" font-family="sans-serif" font-size="14" lengthAdjust="spacing" textLength="295.0117" x="5903" y="296.3467">comp_arc_sta__baselibs__memory_shared</text><line style="stroke:#181818;stroke-width:0.5;" x1="5875" x2="6200.0117" y1="307.5" y2="307.5"/></g><!--class comp_arc_sta__baselibs__result--><g id="elem_comp_arc_sta__baselibs__result"><rect fill="#F1F1F1" height="40" id="comp_arc_sta__baselibs__result" rx="2.5" ry="2.5" style="stroke:#181818;stroke-width:0.5;" width="253.4297" x="5586" y="275.5"/><ellipse cx="5601" cy="291.5" fill="#ADD1B2" rx="11" ry="11" style="stroke:#181818;stroke-width:1;"/><path d="M5603.9688,297.1406 Q5603.3906,297.4375 5602.75,297.5781 Q5602.1094,297.7344 5601.4063,297.7344 Q5598.9063,297.7344 5597.5781,296.0938 Q5596.2656,294.4375 5596.2656,291.3125 Q5596.2656,288.1875 5597.5781,286.5313 Q5598.9063,284.875 5601.4063,284.875 Q5602.1094,284.875 5602.75,285.0313 Q5603.4063,285.1875 5603.9688,285.4844 L5603.9688,288.2031 Q5603.3438,287.625 5602.75,287.3594 Q5602.1563,287.0781 5601.5313,287.0781 Q5600.1875,287.0781 5599.5,288.1563 Q5598.8125,289.2188 5598.8125,291.3125 Q5598.8125,293.4063 5599.5,294.4844 Q5600.1875,295.5469 5601.5313,295.5469 Q5602.1563,295.5469 5602.75,295.2813 Q5603.3438,295 5603.9688,294.4219 L5603.9688,297.1406 Z " fill="#000000"/><text fill="#000000" font-family="sans-serif" font-size="14" lengthAdjust="spacing" textLength="221.4297" x="5615" y="296.3467">comp_arc_sta__baselibs__result</text><line style="stroke:#181818;stroke-width:0.5;" x1="5587" x2="5838.4297" y1="307.5" y2="307.5"/></g><!--class logic_arc_int__baselibs__result--><g id="elem_logic_arc_int__baselibs__result"><rect fill="#F1F1F1" height="40" id="logic_arc_int__baselibs__result" rx="2.5" ry="2.5" style="stroke:#181818;stroke-width:0.5;" width="244.4609" x="5590.5" y="158.5"/><ellipse cx="5605.5" cy="174.5" fill="#ADD1B2" rx="11" ry="11" style="stroke:#181818;stroke-width:1;"/><path d="M5608.4688,180.1406 Q5607.8906,180.4375 5607.25,180.5781 Q5606.6094,180.7344 5605.9063,180.7344 Q5603.4063,180.7344 5602.0781,179.0938 Q5600.7656,177.4375 5600.7656,174.3125 Q5600.7656,171.1875 5602.0781,169.5313 Q5603.4063,167.875 5605.9063,167.875 Q5606.6094,167.875 5607.25,168.0313 Q5607.9063,168.1875 5608.4688,168.4844 L5608.4688,171.2031 Q5607.8438,170.625 5607.25,170.3594 Q5606.6563,170.0781 5606.0313,170.0781 Q5604.6875,170.0781 5604,171.1563 Q5603.3125,172.2188 5603.3125,174.3125 Q5603.3125,176.4063 5604,177.4844 Q5604.6875,178.5469 5606.0313,178.5469 Q5606.6563,178.5469 5607.25,178.2813 Q5607.8438,178 5608.4688,177.4219 L5608.4688,180.1406 Z " fill="#000000"/><text fill="#000000" font-family="sans-serif" font-size="14" lengthAdjust="spacing" textLength="212.4609" x="5619.5" y="179.3467">logic_arc_int__baselibs__result</text><line style="stroke:#181818;stroke-width:0.5;" x1="5591.5" x2="5833.9609" y1="190.5" y2="190.5"/></g><!--class comp_arc_sta__baselibs__bit_manipulation--><g id="elem_comp_arc_sta__baselibs__bit_manipulation"><rect fill="#F1F1F1" height="40" id="comp_arc_sta__baselibs__bit_manipulation" rx="2.5" ry="2.5" style="stroke:#181818;stroke-width:0.5;" width="330.8057" x="1516" y="275.5"/><ellipse cx="1531" cy="291.5" fill="#ADD1B2" rx="11" ry="11" style="stroke:#181818;stroke-width:1;"/><path d="M1533.9688,297.1406 Q1533.3906,297.4375 1532.75,297.5781 Q1532.1094,297.7344 1531.4063,297.7344 Q1528.9063,297.7344 1527.5781,296.0938 Q1526.2656,294.4375 1526.2656,291.3125 Q1526.2656,288.1875 1527.5781,286.5313 Q1528.9063,284.875 1531.4063,284.875 Q1532.1094,284.875 1532.75,285.0313 Q1533.4063,285.1875 1533.9688,285.4844 L1533.9688,288.2031 Q1533.3438,287.625 1532.75,287.3594 Q1532.1563,287.0781 1531.5313,287.0781 Q1530.1875,287.0781 1529.5,288.1563 Q1528.8125,289.2188 1528.8125,291.3125 Q1528.8125,293.4063 1529.5,294.4844 Q1530.1875,295.5469 1531.5313,295.5469 Q1532.1563,295.5469 1532.75,295.2813 Q1533.3438,295 1533.9688,294.4219 L1533.9688,297.1406 Z " fill="#000000"/><text fill="#000000" font-family="sans-serif" font-size="14" lengthAdjust="spacing" textLength="298.8057" x="1545" y="296.3467">comp_arc_sta__baselibs__bit_manipulation</text><line style="stroke:#181818;stroke-width:0.5;" x1="1517" x2="1845.8057" y1="307.5" y2="307.5"/></g><!--class comp_arc_sta__baselibs__json--><g id="elem_comp_arc_sta__baselibs__json"><rect fill="#F1F1F1" height="40" id="comp_arc_sta__baselibs__json" rx="2.5" ry="2.5" style="stroke:#181818;stroke-width:0.5;" width="242.1367" x="5308.5" y="275.5"/><ellipse cx="5323.5" cy="291.5" fill="#ADD1B2" rx="11" ry="11" style="stroke:#181818;stroke-width:1;"/><path d="M5326.4688,297.1406 Q5325.8906,297.4375 5325.25,297.5781 Q5324.6094,297.7344 5323.9063,297.7344 Q5321.4063,297.7344 5320.0781,296.0938 Q5318.7656,294.4375 5318.7656,291.3125 Q5318.7656,288.1875 5320.0781,286.5313 Q5321.4063,284.875 5323.9063,284.875 Q5324.6094,284.875 5325.25,285.0313 Q5325.9063,285.1875 5326.4688,285.4844 L5326.4688,288.2031 Q5325.8438,287.625 5325.25,287.3594 Q5324.6563,287.0781 5324.0313,287.0781 Q5322.6875,287.0781 5322,288.1563 Q5321.3125,289.2188 5321.3125,291.3125 Q5321.3125,293.4063 5322,294.4844 Q5322.6875,295.5469 5324.0313,295.5469 Q5324.6563,295.5469 5325.25,295.2813 Q5325.8438,295 5326.4688,294.4219 L5326.4688,297.1406 Z " fill="#000000"/><text fill="#000000" font-family="sans-serif" font-size="14" lengthAdjust="spacing" textLength="210.1367" x="5337.5" y="296.3467">comp_arc_sta__baselibs__json</text><line style="stroke:#181818;stroke-width:0.5;" x1="5309.5" x2="5549.6367" y1="307.5" y2="307.5"/></g><!--class comp_arc_sta__baselibs__containers--><g id="elem_comp_arc_sta__baselibs__containers"><rect fill="#F1F1F1" height="40" id="comp_arc_sta__baselibs__containers" rx="2.5" ry="2.5" style="stroke:#181818;stroke-width:0.5;" width="287.1445" x="816" y="275.5"/><ellipse cx="831" cy="291.5" fill="#ADD1B2" rx="11" ry="11" style="stroke:#181818;stroke-width:1;"/><path d="M833.9688,297.1406 Q833.3906,297.4375 832.75,297.5781 Q832.1094,297.7344 831.4063,297.7344 Q828.9063,297.7344 827.5781,296.0938 Q826.2656,294.4375 826.2656,291.3125 Q826.2656,288.1875 827.5781,286.5313 Q828.9063,284.875 831.4063,284.875 Q832.1094,284.875 832.75,285.0313 Q833.4063,285.1875 833.9688,285.4844 L833.9688,288.2031 Q833.3438,287.625 832.75,287.3594 Q832.1563,287.0781 831.5313,287.0781 Q830.1875,287.0781 829.5,288.1563 Q828.8125,289.2188 828.8125,291.3125 Q828.8125,293.4063 829.5,294.4844 Q830.1875,295.5469 831.5313,295.5469 Q832.1563,295.5469 832.75,295.2813 Q833.3438,295 833.9688,294.4219 L833.9688,297.1406 Z " fill="#000000"/><text fill="#000000" font-family="sans-serif" font-size="14" lengthAdjust="spacing" textLength="255.1445" x="845" y="296.3467">comp_arc_sta__baselibs__containers</text><line style="stroke:#181818;stroke-width:0.5;" x1="817" x2="1102.1445" y1="307.5" y2="307.5"/></g><!--class logic_arc_int__baselibs__intrusive_list--><g id="elem_logic_arc_int__baselibs__intrusive_list"><rect fill="#F1F1F1" height="40" id="logic_arc_int__baselibs__intrusive_list" rx="2.5" ry="2.5" style="stroke:#181818;stroke-width:0.5;" width="293.0713" x="1035" y="158.5"/><ellipse cx="1050" cy="174.5" fill="#ADD1B2" rx="11" ry="11" style="stroke:#181818;stroke-width:1;"/><path d="M1052.9688,180.1406 Q1052.3906,180.4375 1051.75,180.5781 Q1051.1094,180.7344 1050.4063,180.7344 Q1047.9063,180.7344 1046.5781,179.0938 Q1045.2656,177.4375 1045.2656,174.3125 Q1045.2656,171.1875 1046.5781,169.5313 Q1047.9063,167.875 1050.4063,167.875 Q1051.1094,167.875 1051.75,168.0313 Q1052.4063,168.1875 1052.9688,168.4844 L1052.9688,171.2031 Q1052.3438,170.625 1051.75,170.3594 Q1051.1563,170.0781 1050.5313,170.0781 Q1049.1875,170.0781 1048.5,171.1563 Q1047.8125,172.2188 1047.8125,174.3125 Q1047.8125,176.4063 1048.5,177.4844 Q1049.1875,178.5469 1050.5313,178.5469 Q1051.1563,178.5469 1051.75,178.2813 Q1052.3438,178 1052.9688,177.4219 L1052.9688,180.1406 Z " fill="#000000"/><text fill="#000000" font-family="sans-serif" font-size="14" lengthAdjust="spacing" textLength="261.0713" x="1064" y="179.3467">logic_arc_int__baselibs__intrusive_list</text><line style="stroke:#181818;stroke-width:0.5;" x1="1036" x2="1327.0713" y1="190.5" y2="190.5"/></g><!--class logic_arc_int__baselibs__filesystem--><g id="elem_logic_arc_int__baselibs__filesystem"><rect fill="#F1F1F1" height="40" id="logic_arc_int__baselibs__filesystem" rx="2.5" ry="2.5" style="stroke:#181818;stroke-width:0.5;" width="276.4805" x="380.5" y="158.5"/><ellipse cx="395.5" cy="174.5" fill="#ADD1B2" rx="11" ry="11" style="stroke:#181818;stroke-width:1;"/><path d="M398.4688,180.1406 Q397.8906,180.4375 397.25,180.5781 Q396.6094,180.7344 395.9063,180.7344 Q393.4063,180.7344 392.0781,179.0938 Q390.7656,177.4375 390.7656,174.3125 Q390.7656,171.1875 392.0781,169.5313 Q393.4063,167.875 395.9063,167.875 Q396.6094,167.875 397.25,168.0313 Q397.9063,168.1875 398.4688,168.4844 L398.4688,171.2031 Q397.8438,170.625 397.25,170.3594 Q396.6563,170.0781 396.0313,170.0781 Q394.6875,170.0781 394,171.1563 Q393.3125,172.2188 393.3125,174.3125 Q393.3125,176.4063 394,177.4844 Q394.6875,178.5469 396.0313,178.5469 Q396.6563,178.5469 397.25,178.2813 Q397.8438,178 398.4688,177.4219 L398.4688,180.1406 Z " fill="#000000"/><text fill="#000000" font-family="sans-serif" font-size="14" lengthAdjust="spacing" textLength="244.4805" x="409.5" y="179.3467">logic_arc_int__baselibs__filesystem</text><line style="stroke:#181818;stroke-width:0.5;" x1="381.5" x2="655.9805" y1="190.5" y2="190.5"/></g><!--class logic_arc_int__baselibs__executor--><g id="elem_logic_arc_int__baselibs__executor"><rect fill="#F1F1F1" height="40" id="logic_arc_int__baselibs__executor" rx="2.5" ry="2.5" style="stroke:#181818;stroke-width:0.5;" width="266.4385" x="4046.5" y="158.5"/><ellipse cx="4061.5" cy="174.5" fill="#ADD1B2" rx="11" ry="11" style="stroke:#181818;stroke-width:1;"/><path d="M4064.4688,180.1406 Q4063.8906,180.4375 4063.25,180.5781 Q4062.6094,180.7344 4061.9063,180.7344 Q4059.4063,180.7344 4058.0781,179.0938 Q4056.7656,177.4375 4056.7656,174.3125 Q4056.7656,171.1875 4058.0781,169.5313 Q4059.4063,167.875 4061.9063,167.875 Q4062.6094,167.875 4063.25,168.0313 Q4063.9063,168.1875 4064.4688,168.4844 L4064.4688,171.2031 Q4063.8438,170.625 4063.25,170.3594 Q4062.6563,170.0781 4062.0313,170.0781 Q4060.6875,170.0781 4060,171.1563 Q4059.3125,172.2188 4059.3125,174.3125 Q4059.3125,176.4063 4060,177.4844 Q4060.6875,178.5469 4062.0313,178.5469 Q4062.6563,178.5469 4063.25,178.2813 Q4063.8438,178 4064.4688,177.4219 L4064.4688,180.1406 Z " fill="#000000"/><text fill="#000000" font-family="sans-serif" font-size="14" lengthAdjust="spacing" textLength="234.4385" x="4075.5" y="179.3467">logic_arc_int__baselibs__executor</text><line style="stroke:#181818;stroke-width:0.5;" x1="4047.5" x2="4311.9385" y1="190.5" y2="190.5"/></g><!--class comp_arc_sta__baselibs__filesystem--><g id="elem_comp_arc_sta__baselibs__filesystem"><rect fill="#F1F1F1" height="40" id="comp_arc_sta__baselibs__filesystem" rx="2.5" ry="2.5" style="stroke:#181818;stroke-width:0.5;" width="285.4492" x="379" y="275.5"/><ellipse cx="394" cy="291.5" fill="#ADD1B2" rx="11" ry="11" style="stroke:#181818;stroke-width:1;"/><path d="M396.9688,297.1406 Q396.3906,297.4375 395.75,297.5781 Q395.1094,297.7344 394.4063,297.7344 Q391.9063,297.7344 390.5781,296.0938 Q389.2656,294.4375 389.2656,291.3125 Q389.2656,288.1875 390.5781,286.5313 Q391.9063,284.875 394.4063,284.875 Q395.1094,284.875 395.75,285.0313 Q396.4063,285.1875 396.9688,285.4844 L396.9688,288.2031 Q396.3438,287.625 395.75,287.3594 Q395.1563,287.0781 394.5313,287.0781 Q393.1875,287.0781 392.5,288.1563 Q391.8125,289.2188 391.8125,291.3125 Q391.8125,293.4063 392.5,294.4844 Q393.1875,295.5469 394.5313,295.5469 Q395.1563,295.5469 395.75,295.2813 Q396.3438,295 396.9688,294.4219 L396.9688,297.1406 Z " fill="#000000"/><text fill="#000000" font-family="sans-serif" font-size="14" lengthAdjust="spacing" textLength="253.4492" x="408" y="296.3467">comp_arc_sta__baselibs__filesystem</text><line style="stroke:#181818;stroke-width:0.5;" x1="380" x2="663.4492" y1="307.5" y2="307.5"/></g><!--class comp_arc_sta__baselibs__message_passing--><g id="elem_comp_arc_sta__baselibs__message_passing"><rect fill="#F1F1F1" height="40" id="comp_arc_sta__baselibs__message_passing" rx="2.5" ry="2.5" style="stroke:#181818;stroke-width:0.5;" width="337.1357" x="7" y="275.5"/><ellipse cx="22" cy="291.5" fill="#ADD1B2" rx="11" ry="11" style="stroke:#181818;stroke-width:1;"/><path d="M24.9688,297.1406 Q24.3906,297.4375 23.75,297.5781 Q23.1094,297.7344 22.4063,297.7344 Q19.9063,297.7344 18.5781,296.0938 Q17.2656,294.4375 17.2656,291.3125 Q17.2656,288.1875 18.5781,286.5313 Q19.9063,284.875 22.4063,284.875 Q23.1094,284.875 23.75,285.0313 Q24.4063,285.1875 24.9688,285.4844 L24.9688,288.2031 Q24.3438,287.625 23.75,287.3594 Q23.1563,287.0781 22.5313,287.0781 Q21.1875,287.0781 20.5,288.1563 Q19.8125,289.2188 19.8125,291.3125 Q19.8125,293.4063 20.5,294.4844 Q21.1875,295.5469 22.5313,295.5469 Q23.1563,295.5469 23.75,295.2813 Q24.3438,295 24.9688,294.4219 L24.9688,297.1406 Z " fill="#000000"/><text fill="#000000" font-family="sans-serif" font-size="14" lengthAdjust="spacing" textLength="305.1357" x="36" y="296.3467">comp_arc_sta__baselibs__message_passing</text><line style="stroke:#181818;stroke-width:0.5;" x1="8" x2="343.1357" y1="307.5" y2="307.5"/></g><!--class logic_arc_int__baselibs__future--><g id="elem_logic_arc_int__baselibs__future"><rect fill="#F1F1F1" height="40" id="logic_arc_int__baselibs__future" rx="2.5" ry="2.5" style="stroke:#181818;stroke-width:0.5;" width="247.0791" x="3044" y="158.5"/><ellipse cx="3059" cy="174.5" fill="#ADD1B2" rx="11" ry="11" style="stroke:#181818;stroke-width:1;"/><path d="M3061.9688,180.1406 Q3061.3906,180.4375 3060.75,180.5781 Q3060.1094,180.7344 3059.4063,180.7344 Q3056.9063,180.7344 3055.5781,179.0938 Q3054.2656,177.4375 3054.2656,174.3125 Q3054.2656,171.1875 3055.5781,169.5313 Q3056.9063,167.875 3059.4063,167.875 Q3060.1094,167.875 3060.75,168.0313 Q3061.4063,168.1875 3061.9688,168.4844 L3061.9688,171.2031 Q3061.3438,170.625 3060.75,170.3594 Q3060.1563,170.0781 3059.5313,170.0781 Q3058.1875,170.0781 3057.5,171.1563 Q3056.8125,172.2188 3056.8125,174.3125 Q3056.8125,176.4063 3057.5,177.4844 Q3058.1875,178.5469 3059.5313,178.5469 Q3060.1563,178.5469 3060.75,178.2813 Q3061.3438,178 3061.9688,177.4219 L3061.9688,180.1406 Z " fill="#000000"/><text fill="#000000" font-family="sans-serif" font-size="14" lengthAdjust="spacing" textLength="215.0791" x="3073" y="179.3467">logic_arc_int__baselibs__future</text><line style="stroke:#181818;stroke-width:0.5;" x1="3045" x2="3290.0791" y1="190.5" y2="190.5"/></g><!--reverse link logic_arc_int__baselibs__condition_variable to comp_arc_sta__baselibs__concurrency--><g id="link_logic_arc_int__baselibs__condition_variable_comp_arc_sta__baselibs__concurrency"><path codeLine="15" d="M2660.3445,199.4342 C2803.3645,220.7442 3027.68,254.16 3170.66,275.46 " fill="transparent" id="logic_arc_int__baselibs__condition_variable-backto-comp_arc_sta__baselibs__concurrency" style="stroke:#181818;stroke-width:1;"/><polygon fill="#181818" points="2654.41,198.55,2662.7222,203.8327,2659.3554,199.2869,2663.9012,195.92,2654.41,198.55" style="stroke:#181818;stroke-width:1;"/><text fill="#000000" font-family="sans-serif" font-size="13" lengthAdjust="spacing" textLength="76.9082" x="2959.5" y="241.5669">implements</text></g><!--reverse link logic_arc_int__baselibs__utils_base64 to comp_arc_sta__baselibs__utils--><g id="link_logic_arc_int__baselibs__utils_base64_comp_arc_sta__baselibs__utils"><path codeLine="16" d="M5097.9223,201.3603 C5056.4923,222.6303 4995.29,254.05 4953.83,275.34 " fill="transparent" id="logic_arc_int__baselibs__utils_base64-backto-comp_arc_sta__baselibs__utils" style="stroke:#181818;stroke-width:1;"/><polygon fill="#181818" points="5103.26,198.62,5093.4266,199.1721,5098.812,200.9036,5097.0804,206.2889,5103.26,198.62" style="stroke:#181818;stroke-width:1;"/><text fill="#000000" font-family="sans-serif" font-size="13" lengthAdjust="spacing" textLength="76.9082" x="5042.5" y="241.5669">implements</text></g><!--reverse link logic_arc_int__baselibs__promise to comp_arc_sta__baselibs__concurrency--><g id="link_logic_arc_int__baselibs__promise_comp_arc_sta__baselibs__concurrency"><path codeLine="17" d="M4341.8239,197.1541 C4335.9839,197.8641 4336.16,197.83 4330.5,198.5 C4136.5,221.38 4087.97,227.04 3893.5,245.5 C3742.21,259.86 3569.03,273.85 3448.67,283.18 " fill="transparent" id="logic_arc_int__baselibs__promise-backto-comp_arc_sta__baselibs__concurrency" style="stroke:#181818;stroke-width:1;"/><polygon fill="#181818" points="4347.78,196.43,4338.363,193.5454,4342.8165,197.0334,4339.3285,201.4869,4347.78,196.43" style="stroke:#181818;stroke-width:1;"/><text fill="#000000" font-family="sans-serif" font-size="13" lengthAdjust="spacing" textLength="76.9082" x="4060.5" y="241.5669">implements</text></g><!--link Feature_User to logic_arc_int__baselibs__task--><g id="link_Feature_User_logic_arc_int__baselibs__task"><path codeLine="18" d="M3122.33,50.7 C2997.97,67.78 2640.01,117.01 2342.5,158.5 C2336.64,159.32 2336.5834,159.3375 2330.5134,160.1775 " fill="transparent" id="Feature_User-to-logic_arc_int__baselibs__task" style="stroke:#181818;stroke-width:1;"/><polygon fill="#181818" points="2324.57,161,2334.0334,163.7285,2329.5228,160.3146,2332.9367,155.804,2324.57,161" style="stroke:#181818;stroke-width:1;"/><text fill="#000000" font-family="sans-serif" font-size="13" lengthAdjust="spacing" textLength="23.0103" x="2661.5" y="124.5669">use</text></g><!--link Feature_User to logic_arc_int__baselibs__condition_variable--><g id="link_Feature_User_logic_arc_int__baselibs__condition_variable"><path codeLine="19" d="M3122.43,53.85 C3017.98,75.52 2763.5849,128.3111 2624.0949,157.2511 " fill="transparent" id="Feature_User-to-logic_arc_int__baselibs__condition_variable" style="stroke:#181818;stroke-width:1;"/><polygon fill="#181818" points="2618.22,158.47,2627.8449,160.5583,2623.1157,157.4543,2626.2198,152.7251,2618.22,158.47" style="stroke:#181818;stroke-width:1;"/><text fill="#000000" font-family="sans-serif" font-size="13" lengthAdjust="spacing" textLength="23.0103" x="2828.5" y="124.5669">use</text></g><!--link Feature_User to logic_arc_int__baselibs__task_result--><g id="link_Feature_User_logic_arc_int__baselibs__task_result"><path codeLine="20" d="M3122.41,64.56 C3065.31,89.95 2973.1124,130.9722 2917.0024,155.9222 " fill="transparent" id="Feature_User-to-logic_arc_int__baselibs__task_result" style="stroke:#181818;stroke-width:1;"/><polygon fill="#181818" points="2911.52,158.36,2921.3689,158.3582,2916.0887,156.3285,2918.1184,151.0483,2911.52,158.36" style="stroke:#181818;stroke-width:1;"/><text fill="#000000" font-family="sans-serif" font-size="13" lengthAdjust="spacing" textLength="23.0103" x="3009.5" y="124.5669">use</text></g><!--link Feature_User to logic_arc_int__baselibs__dynamic_array--><g id="link_Feature_User_logic_arc_int__baselibs__dynamic_array"><path codeLine="21" d="M3122.5,46.22 C2943.88,53.1 2267.62,79.88 1711.5,111.5 C1402.85,129.05 1325.43,131.08 1017.5,158.5 C1011.66,159.02 1011.6931,159.0026 1005.6931,159.5726 " fill="transparent" id="Feature_User-to-logic_arc_int__baselibs__dynamic_array" style="stroke:#181818;stroke-width:1;"/><polygon fill="#181818" points="999.72,160.14,1009.058,163.2709,1004.6976,159.6671,1008.3014,155.3068,999.72,160.14" style="stroke:#181818;stroke-width:1;"/><text fill="#000000" font-family="sans-serif" font-size="13" lengthAdjust="spacing" textLength="23.0103" x="1712.5" y="124.5669">use</text></g><!--link Feature_User to logic_arc_int__baselibs__json--><g id="link_Feature_User_logic_arc_int__baselibs__json"><path codeLine="22" d="M3212.8,46.24 C3391.11,53.17 4061.83,79.96 4613.5,111.5 C4920.82,129.07 4998.35,126.43 5304.5,158.5 C5310.23,159.1 5310.1216,159.0543 5316.0316,159.7543 " fill="transparent" id="Feature_User-to-logic_arc_int__baselibs__json" style="stroke:#181818;stroke-width:1;"/><polygon fill="#181818" points="5321.99,160.46,5313.523,155.4292,5317.0247,159.8719,5312.582,163.3736,5321.99,160.46" style="stroke:#181818;stroke-width:1;"/><text fill="#000000" font-family="sans-serif" font-size="13" lengthAdjust="spacing" textLength="23.0103" x="4936.5" y="124.5669">use</text></g><!--link Feature_User to logic_arc_int__baselibs__bit_mask_operator--><g id="link_Feature_User_logic_arc_int__baselibs__bit_mask_operator"><path codeLine="23" d="M3122.3,47.65 C2943.66,60.19 2269.52,108.31 1715.5,158.5 C1709.87,159.01 1710.124,158.9819 1704.344,159.5219 " fill="transparent" id="Feature_User-to-logic_arc_int__baselibs__bit_mask_operator" style="stroke:#181818;stroke-width:1;"/><polygon fill="#181818" points="1698.37,160.08,1707.7031,163.2255,1703.3483,159.6149,1706.9589,155.2602,1698.37,160.08" style="stroke:#181818;stroke-width:1;"/><text fill="#000000" font-family="sans-serif" font-size="13" lengthAdjust="spacing" textLength="23.0103" x="2235.5" y="124.5669">use</text></g><!--link Feature_User to logic_arc_int__baselibs__utils_scoped_op--><g id="link_Feature_User_logic_arc_int__baselibs__utils_scoped_op"><path codeLine="24" d="M3212.63,47.41 C3391.75,59.08 4069.84,104.5 4626.5,158.5 C4632.13,159.05 4631.89,159.0109 4637.67,159.5909 " fill="transparent" id="Feature_User-to-logic_arc_int__baselibs__utils_scoped_op" style="stroke:#181818;stroke-width:1;"/><polygon fill="#181818" points="4643.64,160.19,4635.0844,155.3114,4638.665,159.6908,4634.2856,163.2714,4643.64,160.19" style="stroke:#181818;stroke-width:1;"/><text fill="#000000" font-family="sans-serif" font-size="13" lengthAdjust="spacing" textLength="23.0103" x="4267.5" y="124.5669">use</text></g><!--link Feature_User to logic_arc_int__baselibs__bit_manipulation--><g id="link_Feature_User_logic_arc_int__baselibs__bit_manipulation"><path codeLine="25" d="M3122.38,49.15 C2972.87,64.59 2479.98,115.54 2072.5,158.5 C2066.94,159.09 2067.2462,159.0437 2061.5262,159.6537 " fill="transparent" id="Feature_User-to-logic_arc_int__baselibs__bit_manipulation" style="stroke:#181818;stroke-width:1;"/><polygon fill="#181818" points="2055.56,160.29,2064.9334,163.3131,2060.5318,159.7598,2064.0851,155.3582,2055.56,160.29" style="stroke:#181818;stroke-width:1;"/><text fill="#000000" font-family="sans-serif" font-size="13" lengthAdjust="spacing" textLength="23.0103" x="2495.5" y="124.5669">use</text></g><!--link Feature_User to logic_arc_int__baselibs__shared_future--><g id="link_Feature_User_logic_arc_int__baselibs__shared_future"><path codeLine="26" d="M3212.58,63.84 C3271.6,89.16 3368.936,130.9244 3427.606,156.0944 " fill="transparent" id="Feature_User-to-logic_arc_int__baselibs__shared_future" style="stroke:#181818;stroke-width:1;"/><polygon fill="#181818" points="3433.12,158.46,3426.426,151.2357,3428.525,156.4887,3423.272,158.5877,3433.12,158.46" style="stroke:#181818;stroke-width:1;"/><text fill="#000000" font-family="sans-serif" font-size="13" lengthAdjust="spacing" textLength="23.0103" x="3359.5" y="124.5669">use</text></g><!--link Feature_User to logic_arc_int__baselibs__memory_shared--><g id="link_Feature_User_logic_arc_int__baselibs__memory_shared"><path codeLine="27" d="M3212.74,45.11 C3436.48,48.32 4447.17,64.85 5273.5,111.5 C5531.27,126.05 5595.43,134.58 5852.5,158.5 C5859.58,159.16 5860.8381,159.27 5868.1481,159.98 " fill="transparent" id="Feature_User-to-logic_arc_int__baselibs__memory_shared" style="stroke:#181818;stroke-width:1;"/><polygon fill="#181818" points="5874.12,160.56,5865.5488,155.7087,5869.1434,160.0766,5864.7755,163.6712,5874.12,160.56" style="stroke:#181818;stroke-width:1;"/><text fill="#000000" font-family="sans-serif" font-size="13" lengthAdjust="spacing" textLength="23.0103" x="5524.5" y="124.5669">use</text></g><!--link Feature_User to logic_arc_int__baselibs__message_passing--><g id="link_Feature_User_logic_arc_int__baselibs__message_passing"><path codeLine="28" d="M3122.32,45.26 C2896.63,49.19 1868.94,68.7 1028.5,111.5 C732.15,126.59 658.12,132.73 362.5,158.5 C356.29,159.04 355.9445,159.0575 349.5645,159.6475 " fill="transparent" id="Feature_User-to-logic_arc_int__baselibs__message_passing" style="stroke:#181818;stroke-width:1;"/><polygon fill="#181818" points="343.59,160.2,352.9201,163.3543,348.5688,159.7396,352.1834,155.3882,343.59,160.2" style="stroke:#181818;stroke-width:1;"/><text fill="#000000" font-family="sans-serif" font-size="13" lengthAdjust="spacing" textLength="23.0103" x="1029.5" y="124.5669">use</text></g><!--link Feature_User to logic_arc_int__baselibs__synchronized_queue--><g id="link_Feature_User_logic_arc_int__baselibs__synchronized_queue"><path codeLine="29" d="M3212.5,53.43 C3320.25,74.82 3589.1049,128.1916 3735.8349,157.3216 " fill="transparent" id="Feature_User-to-logic_arc_int__baselibs__synchronized_queue" style="stroke:#181818;stroke-width:1;"/><polygon fill="#181818" points="3741.72,158.49,3733.6712,152.814,3736.8157,157.5164,3732.1134,160.6609,3741.72,158.49" style="stroke:#181818;stroke-width:1;"/><text fill="#000000" font-family="sans-serif" font-size="13" lengthAdjust="spacing" textLength="23.0103" x="3582.5" y="124.5669">use</text></g><!--reverse link logic_arc_int__baselibs__memory_shared to comp_arc_sta__baselibs__memory_shared--><g id="link_logic_arc_int__baselibs__memory_shared_comp_arc_sta__baselibs__memory_shared"><path codeLine="30" d="M6034.379,204.7464 C6035.119,225.9764 6036.09,253.94 6036.83,275.19 " fill="transparent" id="logic_arc_int__baselibs__memory_shared-backto-comp_arc_sta__baselibs__memory_shared" style="stroke:#181818;stroke-width:1;"/><polygon fill="#181818" points="6034.17,198.75,6030.4859,207.8839,6034.3442,203.747,6038.4811,207.6052,6034.17,198.75" style="stroke:#181818;stroke-width:1;"/><text fill="#000000" font-family="sans-serif" font-size="13" lengthAdjust="spacing" textLength="76.9082" x="6036.5" y="241.5669">implements</text></g><!--reverse link logic_arc_int__baselibs__result to comp_arc_sta__baselibs__result--><g id="link_logic_arc_int__baselibs__result_comp_arc_sta__baselibs__result"><path codeLine="31" d="M5712.5,204.75 C5712.5,225.98 5712.5,253.94 5712.5,275.19 " fill="transparent" id="logic_arc_int__baselibs__result-backto-comp_arc_sta__baselibs__result" style="stroke:#181818;stroke-width:1;"/><polygon fill="#181818" points="5712.5,198.75,5708.5,207.75,5712.5,203.75,5716.5,207.75,5712.5,198.75" style="stroke:#181818;stroke-width:1;"/><text fill="#000000" font-family="sans-serif" font-size="13" lengthAdjust="spacing" textLength="76.9082" x="5713.5" y="241.5669">implements</text></g><!--reverse link logic_arc_int__baselibs__shared_future to comp_arc_sta__baselibs__concurrency--><g id="link_logic_arc_int__baselibs__shared_future_comp_arc_sta__baselibs__concurrency"><path codeLine="32" d="M3442.4919,201.993 C3409.3519,223.283 3361.32,254.14 3328.26,275.38 " fill="transparent" id="logic_arc_int__baselibs__shared_future-backto-comp_arc_sta__baselibs__concurrency" style="stroke:#181818;stroke-width:1;"/><polygon fill="#181818" points="3447.54,198.75,3437.8059,200.2491,3443.3333,201.4525,3442.1299,206.9799,3447.54,198.75" style="stroke:#181818;stroke-width:1;"/><text fill="#000000" font-family="sans-serif" font-size="13" lengthAdjust="spacing" textLength="76.9082" x="3399.5" y="241.5669">implements</text></g><!--reverse link logic_arc_int__baselibs__bit_manipulation to comp_arc_sta__baselibs__bit_manipulation--><g id="link_logic_arc_int__baselibs__bit_manipulation_comp_arc_sta__baselibs__bit_manipulation"><path codeLine="33" d="M1853.5701,201.6001 C1814.1301,222.8901 1756.25,254.14 1716.91,275.38 " fill="transparent" id="logic_arc_int__baselibs__bit_manipulation-backto-comp_arc_sta__baselibs__bit_manipulation" style="stroke:#181818;stroke-width:1;"/><polygon fill="#181818" points="1858.85,198.75,1849.0301,199.5053,1854.4501,201.1251,1852.8303,206.5451,1858.85,198.75" style="stroke:#181818;stroke-width:1;"/><text fill="#000000" font-family="sans-serif" font-size="13" lengthAdjust="spacing" textLength="76.9082" x="1802.5" y="241.5669">implements</text></g><!--reverse link logic_arc_int__baselibs__json to comp_arc_sta__baselibs__json--><g id="link_logic_arc_int__baselibs__json_comp_arc_sta__baselibs__json"><path codeLine="34" d="M5436.5223,204.7317 C5434.8623,225.9617 5432.67,253.94 5431.01,275.19 " fill="transparent" id="logic_arc_int__baselibs__json-backto-comp_arc_sta__baselibs__json" style="stroke:#181818;stroke-width:1;"/><polygon fill="#181818" points="5436.99,198.75,5432.3006,207.4108,5436.6002,203.7348,5440.2762,208.0344,5436.99,198.75" style="stroke:#181818;stroke-width:1;"/><text fill="#000000" font-family="sans-serif" font-size="13" lengthAdjust="spacing" textLength="76.9082" x="5435.5" y="241.5669">implements</text></g><!--reverse link logic_arc_int__baselibs__intrusive_list to comp_arc_sta__baselibs__containers--><g id="link_logic_arc_int__baselibs__intrusive_list_comp_arc_sta__baselibs__containers"><path codeLine="35" d="M1139.2627,201.3803 C1098.2127,222.6503 1037.59,254.05 996.5,275.34 " fill="transparent" id="logic_arc_int__baselibs__intrusive_list-backto-comp_arc_sta__baselibs__containers" style="stroke:#181818;stroke-width:1;"/><polygon fill="#181818" points="1144.59,198.62,1134.7588,199.209,1140.1506,200.9203,1138.4392,206.3121,1144.59,198.62" style="stroke:#181818;stroke-width:1;"/><text fill="#000000" font-family="sans-serif" font-size="13" lengthAdjust="spacing" textLength="76.9082" x="1085.5" y="241.5669">implements</text></g><!--link Feature_User to logic_arc_int__baselibs__filesystem--><g id="link_Feature_User_logic_arc_int__baselibs__filesystem"><path codeLine="36" d="M3122.2,45.71 C2919.18,51.24 2072.6,75.37 1378.5,111.5 C1064.9,127.82 986.13,128.94 673.5,158.5 C667.97,159.02 668.2981,158.9622 662.5981,159.5522 " fill="transparent" id="Feature_User-to-logic_arc_int__baselibs__filesystem" style="stroke:#181818;stroke-width:1;"/><polygon fill="#181818" points="656.63,160.17,665.994,163.2221,661.6034,159.6552,665.1703,155.2646,656.63,160.17" style="stroke:#181818;stroke-width:1;"/><text fill="#000000" font-family="sans-serif" font-size="13" lengthAdjust="spacing" textLength="23.0103" x="1379.5" y="124.5669">use</text></g><!--reverse link logic_arc_int__baselibs__task_result to comp_arc_sta__baselibs__concurrency--><g id="link_logic_arc_int__baselibs__task_result_comp_arc_sta__baselibs__concurrency"><path codeLine="37" d="M2945.7863,200.1702 C3025.4263,221.4702 3147.63,254.15 3227.2,275.43 " fill="transparent" id="logic_arc_int__baselibs__task_result-backto-comp_arc_sta__baselibs__concurrency" style="stroke:#181818;stroke-width:1;"/><polygon fill="#181818" points="2939.99,198.62,2947.6509,204.8095,2944.8202,199.9119,2949.7179,197.0812,2939.99,198.62" style="stroke:#181818;stroke-width:1;"/><text fill="#000000" font-family="sans-serif" font-size="13" lengthAdjust="spacing" textLength="76.9082" x="3109.5" y="241.5669">implements</text></g><!--link Feature_User to logic_arc_int__baselibs__utils_base64--><g id="link_Feature_User_logic_arc_int__baselibs__utils_base64"><path codeLine="38" d="M3212.67,46.37 C3416.97,55.01 4275,93.55 4976.5,158.5 C4982.35,159.04 4982.3496,159.0249 4988.3696,159.6249 " fill="transparent" id="Feature_User-to-logic_arc_int__baselibs__utils_base64" style="stroke:#181818;stroke-width:1;"/><polygon fill="#181818" points="4994.34,160.22,4985.7811,155.3471,4989.3647,159.7241,4984.9877,163.3077,4994.34,160.22" style="stroke:#181818;stroke-width:1;"/><text fill="#000000" font-family="sans-serif" font-size="13" lengthAdjust="spacing" textLength="23.0103" x="4581.5" y="124.5669">use</text></g><!--reverse link logic_arc_int__baselibs__task to comp_arc_sta__baselibs__concurrency--><g id="link_logic_arc_int__baselibs__task_comp_arc_sta__baselibs__concurrency"><path codeLine="39" d="M2330.4998,196.9844 C2336.5698,197.7744 2336.63,197.77 2342.5,198.5 C2626.81,233.79 2959.93,264.94 3148.4,281.62 " fill="transparent" id="logic_arc_int__baselibs__task-backto-comp_arc_sta__baselibs__concurrency" style="stroke:#181818;stroke-width:1;"/><polygon fill="#181818" points="2324.55,196.21,2332.9585,201.3381,2329.5082,196.8553,2333.991,193.405,2324.55,196.21" style="stroke:#181818;stroke-width:1;"/><text fill="#000000" font-family="sans-serif" font-size="13" lengthAdjust="spacing" textLength="76.9082" x="2762.5" y="241.5669">implements</text></g><!--reverse link logic_arc_int__baselibs__executor to comp_arc_sta__baselibs__concurrency--><g id="link_logic_arc_int__baselibs__executor_comp_arc_sta__baselibs__concurrency"><path codeLine="40" d="M4040.4438,198.3415 C3941.0338,211.7415 3807.77,229.59 3685.5,245.5 C3607.43,255.66 3520.46,266.69 3448.77,275.72 " fill="transparent" id="logic_arc_int__baselibs__executor-backto-comp_arc_sta__baselibs__concurrency" style="stroke:#181818;stroke-width:1;"/><polygon fill="#181818" points="4046.39,197.54,4036.9363,194.7781,4041.4348,198.2079,4038.005,202.7064,4046.39,197.54" style="stroke:#181818;stroke-width:1;"/><text fill="#000000" font-family="sans-serif" font-size="13" lengthAdjust="spacing" textLength="76.9082" x="3808.5" y="241.5669">implements</text></g><!--reverse link logic_arc_int__baselibs__bit_mask_operator to comp_arc_sta__baselibs__bit_manipulation--><g id="link_logic_arc_int__baselibs__bit_mask_operator_comp_arc_sta__baselibs__bit_manipulation"><path codeLine="41" d="M1560.5436,202.3849 C1588.5036,223.6749 1628.51,254.14 1656.4,275.38 " fill="transparent" id="logic_arc_int__baselibs__bit_mask_operator-backto-comp_arc_sta__baselibs__bit_manipulation" style="stroke:#181818;stroke-width:1;"/><polygon fill="#181818" points="1555.77,198.75,1560.5072,207.3847,1559.748,201.7791,1565.3537,201.0199,1555.77,198.75" style="stroke:#181818;stroke-width:1;"/><text fill="#000000" font-family="sans-serif" font-size="13" lengthAdjust="spacing" textLength="76.9082" x="1616.5" y="241.5669">implements</text></g><!--reverse link logic_arc_int__baselibs__filesystem to comp_arc_sta__baselibs__filesystem--><g id="link_logic_arc_int__baselibs__filesystem_comp_arc_sta__baselibs__filesystem"><path codeLine="42" d="M519.1582,204.7479 C519.7182,225.9779 520.44,253.94 521,275.19 " fill="transparent" id="logic_arc_int__baselibs__filesystem-backto-comp_arc_sta__baselibs__filesystem" style="stroke:#181818;stroke-width:1;"/><polygon fill="#181818" points="519,198.75,515.2387,207.8523,519.1318,203.7483,523.2359,207.6414,519,198.75" style="stroke:#181818;stroke-width:1;"/><text fill="#000000" font-family="sans-serif" font-size="13" lengthAdjust="spacing" textLength="76.9082" x="521.5" y="241.5669">implements</text></g><!--link Feature_User to logic_arc_int__baselibs__executor--><g id="link_Feature_User_logic_arc_int__baselibs__executor"><path codeLine="43" d="M3212.62,50.43 C3357.8,69.51 3810.7812,129.0381 4040.2412,159.1981 " fill="transparent" id="Feature_User-to-logic_arc_int__baselibs__executor" style="stroke:#181818;stroke-width:1;"/><polygon fill="#181818" points="4046.19,159.98,4037.788,154.8412,4041.2326,159.3284,4036.7455,162.773,4046.19,159.98" style="stroke:#181818;stroke-width:1;"/><text fill="#000000" font-family="sans-serif" font-size="13" lengthAdjust="spacing" textLength="23.0103" x="3794.5" y="124.5669">use</text></g><!--link Feature_User to logic_arc_int__baselibs__intrusive_list--><g id="link_Feature_User_logic_arc_int__baselibs__intrusive_list"><path codeLine="44" d="M3122.35,46.36 C2917.21,55.02 2052.48,93.71 1345.5,158.5 C1339.79,159.02 1339.9409,158.99 1334.0709,159.57 " fill="transparent" id="Feature_User-to-logic_arc_int__baselibs__intrusive_list" style="stroke:#181818;stroke-width:1;"/><polygon fill="#181818" points="1328.1,160.16,1337.4497,163.2557,1333.0758,159.6684,1336.6631,155.2944,1328.1,160.16" style="stroke:#181818;stroke-width:1;"/><text fill="#000000" font-family="sans-serif" font-size="13" lengthAdjust="spacing" textLength="23.0103" x="1897.5" y="124.5669">use</text></g><!--reverse link logic_arc_int__baselibs__synchronized_queue to comp_arc_sta__baselibs__concurrency--><g id="link_logic_arc_int__baselibs__synchronized_queue_comp_arc_sta__baselibs__concurrency"><path codeLine="45" d="M3742.3221,199.8022 C3642.5521,221.0922 3487.83,254.11 3387.98,275.41 " fill="transparent" id="logic_arc_int__baselibs__synchronized_queue-backto-comp_arc_sta__baselibs__concurrency" style="stroke:#181818;stroke-width:1;"/><polygon fill="#181818" points="3748.19,198.55,3738.5534,196.5163,3743.3001,199.5935,3740.2229,204.3402,3748.19,198.55" style="stroke:#181818;stroke-width:1;"/><text fill="#000000" font-family="sans-serif" font-size="13" lengthAdjust="spacing" textLength="76.9082" x="3600.5" y="241.5669">implements</text></g><!--link Feature_User to logic_arc_int__baselibs__result--><g id="link_Feature_User_logic_arc_int__baselibs__result"><path codeLine="46" d="M3212.77,45.51 C3416.59,50.19 4269.56,71.32 4968.5,111.5 C5237.31,126.95 5304.76,129.94 5572.5,158.5 C5578.35,159.12 5578.381,159.0995 5584.421,159.8095 " fill="transparent" id="Feature_User-to-logic_arc_int__baselibs__result" style="stroke:#181818;stroke-width:1;"/><polygon fill="#181818" points="5590.38,160.51,5581.9085,155.4866,5585.4142,159.9263,5580.9746,163.4319,5590.38,160.51" style="stroke:#181818;stroke-width:1;"/><text fill="#000000" font-family="sans-serif" font-size="13" lengthAdjust="spacing" textLength="23.0103" x="5241.5" y="124.5669">use</text></g><!--reverse link logic_arc_int__baselibs__dynamic_array to comp_arc_sta__baselibs__containers--><g id="link_logic_arc_int__baselibs__dynamic_array_comp_arc_sta__baselibs__containers"><path codeLine="47" d="M868.8035,203.0117 C889.8435,224.2417 919.29,253.94 940.36,275.19 " fill="transparent" id="logic_arc_int__baselibs__dynamic_array-backto-comp_arc_sta__baselibs__containers" style="stroke:#181818;stroke-width:1;"/><polygon fill="#181818" points="864.58,198.75,868.0742,207.9582,868.0996,202.3014,873.7564,202.3268,864.58,198.75" style="stroke:#181818;stroke-width:1;"/><text fill="#000000" font-family="sans-serif" font-size="13" lengthAdjust="spacing" textLength="76.9082" x="910.5" y="241.5669">implements</text></g><!--link Feature_User to logic_arc_int__baselibs__promise--><g id="link_Feature_User_logic_arc_int__baselibs__promise"><path codeLine="48" d="M3212.72,48.44 C3368.31,62.11 3895.82,109.31 4330.5,158.5 C4336.16,159.14 4335.9914,159.106 4341.8314,159.796 " fill="transparent" id="Feature_User-to-logic_arc_int__baselibs__promise" style="stroke:#181818;stroke-width:1;"/><polygon fill="#181818" points="4347.79,160.5,4339.3215,155.4716,4342.8245,159.9133,4338.3828,163.4164,4347.79,160.5" style="stroke:#181818;stroke-width:1;"/><text fill="#000000" font-family="sans-serif" font-size="13" lengthAdjust="spacing" textLength="23.0103" x="4044.5" y="124.5669">use</text></g><!--reverse link logic_arc_int__baselibs__utils_scoped_op to comp_arc_sta__baselibs__utils--><g id="link_logic_arc_int__baselibs__utils_scoped_op_comp_arc_sta__baselibs__utils"><path codeLine="49" d="M4824.9926,202.9926 C4846.2226,224.2226 4875.94,253.94 4897.19,275.19 " fill="transparent" id="logic_arc_int__baselibs__utils_scoped_op-backto-comp_arc_sta__baselibs__utils" style="stroke:#181818;stroke-width:1;"/><polygon fill="#181818" points="4820.75,198.75,4824.2855,207.9424,4824.2855,202.2855,4829.9424,202.2855,4820.75,198.75" style="stroke:#181818;stroke-width:1;"/><text fill="#000000" font-family="sans-serif" font-size="13" lengthAdjust="spacing" textLength="76.9082" x="4866.5" y="241.5669">implements</text></g><!--reverse link logic_arc_int__baselibs__message_passing to comp_arc_sta__baselibs__message_passing--><g id="link_logic_arc_int__baselibs__message_passing_comp_arc_sta__baselibs__message_passing"><path codeLine="50" d="M178.621,204.7464 C177.881,225.9764 176.91,253.94 176.17,275.19 " fill="transparent" id="logic_arc_int__baselibs__message_passing-backto-comp_arc_sta__baselibs__message_passing" style="stroke:#181818;stroke-width:1;"/><polygon fill="#181818" points="178.83,198.75,174.5189,207.6052,178.6558,203.747,182.5141,207.8839,178.83,198.75" style="stroke:#181818;stroke-width:1;"/><text fill="#000000" font-family="sans-serif" font-size="13" lengthAdjust="spacing" textLength="76.9082" x="179.5" y="241.5669">implements</text></g><!--link Feature_User to logic_arc_int__baselibs__future--><g id="link_Feature_User_logic_arc_int__baselibs__future"><path codeLine="51" d="M3167.5,81.55 C3167.5,106.45 3167.5,132.26 3167.5,152.26 " fill="transparent" id="Feature_User-to-logic_arc_int__baselibs__future" style="stroke:#181818;stroke-width:1;"/><polygon fill="#181818" points="3167.5,158.26,3171.5,149.26,3167.5,153.26,3163.5,149.26,3167.5,158.26" style="stroke:#181818;stroke-width:1;"/><text fill="#000000" font-family="sans-serif" font-size="13" lengthAdjust="spacing" textLength="23.0103" x="3168.5" y="124.5669">use</text></g><!--reverse link logic_arc_int__baselibs__future to comp_arc_sta__baselibs__concurrency--><g id="link_logic_arc_int__baselibs__future_comp_arc_sta__baselibs__concurrency"><path codeLine="52" d="M3193.9388,202.7087 C3218.1188,223.9387 3252.29,253.94 3276.5,275.19 " fill="transparent" id="logic_arc_int__baselibs__future-backto-comp_arc_sta__baselibs__concurrency" style="stroke:#181818;stroke-width:1;"/><polygon fill="#181818" points="3189.43,198.75,3193.554,207.6939,3193.1873,202.0489,3198.8323,201.6822,3189.43,198.75" style="stroke:#181818;stroke-width:1;"/><text fill="#000000" font-family="sans-serif" font-size="13" lengthAdjust="spacing" textLength="76.9082" x="3241.5" y="241.5669">implements</text></g><!--SRC=[jLPDRzGm4BtxLrYzRq48SQYgNf0uSOIpDN6ckqFz4JpZqe3uxpZPBTs4RVFHvUZ4y_p6ysQUmRdumtXweB1L4XijKLTH97fTKq8h58FQKOsQ1HD6QHlShz4tqceGILHbGLRNBAt36tK9JAxIlzHd2lWnkfXqmhfVVTcHlGl8hDzTlbM_rVMRGum2AsNVnIS4oGdrLyPqeO7ruOFfFcYbRFIDWMGD2nXJ0QEZYesnCTYS4WRRwatUt6WNjsJxdHHajBEcBYjp3ucWSdYboJSEFGPX_Um9MSZn17Q_frz_U3yFTJxl9aLFF28xk9rD_LAy0DzTwSouAEhKRIt5w4us2JaxMHvSjm5y_oj1kppy6yUmFAeYCRvZ7HjCK8Iv768l1RO5eIumQpa4QhA3hW3B4NW7fU_CRUu2beTxz36r1vGruSomHTC0SvajA-YtmUvI3FIp9F4zOtxCuRbU6X2UwAPHSdDQTQ_W2Tn7cP-tzqULd0C-bi_42V-gRSuXNNTD0EyRSEPr21IFI5DJjYnJPhf7uuXbzK2y9OVS5bVp4xgQNwV1f5j9Q-WXPoHsRb7Y0zhSpyR_fiV119vpobDD9_2FYx-oK4_vBvriOm6VgSYd1kRAt0Pk_Ug67NduIav_7q0lafh_J3lovZdI6ldPfB-Ct6_ja3esxzTBv9I3_040]--></g></svg>