<svg xmlns="http://www.w3.org/2000/svg" viewBox="0 0 720 320" font-family="Arial, sans-serif" font-size="13">
  <title>PA4 Implementation — estimated total Lines of Code per release</title>

  <text x="360" y="22" text-anchor="middle" font-size="15" font-weight="bold">
    PA4 Implementation — estimated total Lines of Code per release
  </text>

  <line x1="70" y1="50"  x2="70"  y2="260" stroke="#333" stroke-width="1"/>
  <line x1="70" y1="260" x2="690" y2="260" stroke="#333" stroke-width="1"/>

  <!-- y range 0..900k LOC -->
  <g stroke="#ddd" stroke-width="1">
    <line x1="70" y1="213.33" x2="690" y2="213.33"/>
    <line x1="70" y1="166.67" x2="690" y2="166.67"/>
    <line x1="70" y1="120"    x2="690" y2="120"/>
    <line x1="70" y1="73.33"  x2="690" y2="73.33"/>
  </g>
  <g fill="#555" text-anchor="end" font-size="11">
    <text x="64" y="263">0</text>
    <text x="64" y="217">200k</text>
    <text x="64" y="170">400k</text>
    <text x="64" y="123">600k</text>
    <text x="64" y="76">800k</text>
  </g>

  <!-- scale: y = 260 - loc * (210/900000) = 260 - loc * 0.0002333 -->

  <!-- v0.5.0-beta: 569,578 -->
  <g>
    <rect x="120" y="127.1" width="80" height="132.9" fill="#1f77b4"/>
    <text x="160" y="121" text-anchor="middle" font-size="12" fill="#1f77b4" font-weight="bold">~570k</text>
    <text x="160" y="280" text-anchor="middle" font-weight="bold">v0.5.0-beta</text>
  </g>

  <!-- v0.6.0: 650,743 -->
  <g>
    <rect x="270" y="108.2" width="80" height="151.8" fill="#1f77b4"/>
    <text x="310" y="102" text-anchor="middle" font-size="12" fill="#1f77b4" font-weight="bold">~651k</text>
    <text x="310" y="280" text-anchor="middle" font-weight="bold">v0.6.0</text>
  </g>

  <!-- v0.7.0: 689,601 -->
  <g>
    <rect x="420" y="99.1" width="80" height="160.9" fill="#1f77b4"/>
    <text x="460" y="93" text-anchor="middle" font-size="12" fill="#1f77b4" font-weight="bold">~690k</text>
    <text x="460" y="280" text-anchor="middle" font-weight="bold">v0.7.0</text>
  </g>

  <!-- v0.8: 881,800 -->
  <g>
    <rect x="570" y="54.276" width="80" height="205.724" fill="#1f77b4"/>
    <text x="610" y="48.276" text-anchor="middle" font-size="12" fill="#1f77b4" font-weight="bold">~882k</text>
    <text x="610" y="280" text-anchor="middle" font-weight="bold">v0.8</text>
  </g>

  <g font-size="11" fill="#666">
    <text x="360" y="308" text-anchor="middle">
      Estimated from GitHub tree blob sizes (.cpp / .h / .c / .rs / .py outside docs/, third_party/, bazel-*) ÷ 30
    </text>
  </g>
</svg>
