<svg xmlns="http://www.w3.org/2000/svg" xmlns:xlink="http://www.w3.org/1999/xlink" contentStyleType="text/css" data-diagram-type="CLASS" height="322px" preserveAspectRatio="none" style="width:6186px;height:322px;background:#FFFFFF;" version="1.1" viewBox="0 0 6186 322" width="6186px" zoomAndPan="magnify"><defs/><g><!--entity Feature_User--><g id="elem_Feature_User"><ellipse cx="3111.1685" cy="14" fill="#F1F1F1" rx="8" ry="8" style="stroke:#181818;stroke-width:0.5;"/><path d="M3111.1685,22 L3111.1685,49 M3098.1685,30 L3124.1685,30 M3111.1685,49 L3098.1685,64 M3111.1685,49 L3124.1685,64 " fill="transparent" style="stroke:#181818;stroke-width:0.5;"/><text fill="#000000" font-family="sans-serif" font-size="14" lengthAdjust="spacing" textLength="90.3369" x="3066" y="78.4951">Feature User</text></g><!--class comp_arc_sta__baselibs__concurrency--><g id="elem_comp_arc_sta__baselibs__concurrency"><rect fill="#F1F1F1" height="40" id="comp_arc_sta__baselibs__concurrency" rx="2.5" ry="2.5" style="stroke:#181818;stroke-width:0.5;" width="300.2012" x="4161" y="275.5"/><ellipse cx="4176" cy="291.5" fill="#ADD1B2" rx="11" ry="11" style="stroke:#181818;stroke-width:1;"/><path d="M4178.9688,297.1406 Q4178.3906,297.4375 4177.75,297.5781 Q4177.1094,297.7344 4176.4063,297.7344 Q4173.9063,297.7344 4172.5781,296.0938 Q4171.2656,294.4375 4171.2656,291.3125 Q4171.2656,288.1875 4172.5781,286.5313 Q4173.9063,284.875 4176.4063,284.875 Q4177.1094,284.875 4177.75,285.0313 Q4178.4063,285.1875 4178.9688,285.4844 L4178.9688,288.2031 Q4178.3438,287.625 4177.75,287.3594 Q4177.1563,287.0781 4176.5313,287.0781 Q4175.1875,287.0781 4174.5,288.1563 Q4173.8125,289.2188 4173.8125,291.3125 Q4173.8125,293.4063 4174.5,294.4844 Q4175.1875,295.5469 4176.5313,295.5469 Q4177.1563,295.5469 4177.75,295.2813 Q4178.3438,295 4178.9688,294.4219 L4178.9688,297.1406 Z " fill="#000000"/><text fill="#000000" font-family="sans-serif" font-size="14" lengthAdjust="spacing" textLength="268.2012" x="4190" y="296.3467">comp_arc_sta__baselibs__concurrency</text><line style="stroke:#181818;stroke-width:0.5;" x1="4162" x2="4460.2012" y1="307.5" y2="307.5"/></g><!--class logic_arc_int__baselibs__task--><g id="elem_logic_arc_int__baselibs__task"><rect fill="#F1F1F1" height="40" id="logic_arc_int__baselibs__task" rx="2.5" ry="2.5" style="stroke:#181818;stroke-width:0.5;" width="234.0156" x="4972" y="158.5"/><ellipse cx="4987" cy="174.5" fill="#ADD1B2" rx="11" ry="11" style="stroke:#181818;stroke-width:1;"/><path d="M4989.9688,180.1406 Q4989.3906,180.4375 4988.75,180.5781 Q4988.1094,180.7344 4987.4063,180.7344 Q4984.9063,180.7344 4983.5781,179.0938 Q4982.2656,177.4375 4982.2656,174.3125 Q4982.2656,171.1875 4983.5781,169.5313 Q4984.9063,167.875 4987.4063,167.875 Q4988.1094,167.875 4988.75,168.0313 Q4989.4063,168.1875 4989.9688,168.4844 L4989.9688,171.2031 Q4989.3438,170.625 4988.75,170.3594 Q4988.1563,170.0781 4987.5313,170.0781 Q4986.1875,170.0781 4985.5,171.1563 Q4984.8125,172.2188 4984.8125,174.3125 Q4984.8125,176.4063 4985.5,177.4844 Q4986.1875,178.5469 4987.5313,178.5469 Q4988.1563,178.5469 4988.75,178.2813 Q4989.3438,178 4989.9688,177.4219 L4989.9688,180.1406 Z " fill="#000000"/><text fill="#000000" font-family="sans-serif" font-size="14" lengthAdjust="spacing" textLength="202.0156" x="5001" y="179.3467">logic_arc_int__baselibs__task</text><line style="stroke:#181818;stroke-width:0.5;" x1="4973" x2="5205.0156" y1="190.5" y2="190.5"/></g><!--class logic_arc_int__baselibs__promise--><g id="elem_logic_arc_int__baselibs__promise"><rect fill="#F1F1F1" height="40" id="logic_arc_int__baselibs__promise" rx="2.5" ry="2.5" style="stroke:#181818;stroke-width:0.5;" width="261.1885" x="4675.5" y="158.5"/><ellipse cx="4690.5" cy="174.5" fill="#ADD1B2" rx="11" ry="11" style="stroke:#181818;stroke-width:1;"/><path d="M4693.4688,180.1406 Q4692.8906,180.4375 4692.25,180.5781 Q4691.6094,180.7344 4690.9063,180.7344 Q4688.4063,180.7344 4687.0781,179.0938 Q4685.7656,177.4375 4685.7656,174.3125 Q4685.7656,171.1875 4687.0781,169.5313 Q4688.4063,167.875 4690.9063,167.875 Q4691.6094,167.875 4692.25,168.0313 Q4692.9063,168.1875 4693.4688,168.4844 L4693.4688,171.2031 Q4692.8438,170.625 4692.25,170.3594 Q4691.6563,170.0781 4691.0313,170.0781 Q4689.6875,170.0781 4689,171.1563 Q4688.3125,172.2188 4688.3125,174.3125 Q4688.3125,176.4063 4689,177.4844 Q4689.6875,178.5469 4691.0313,178.5469 Q4691.6563,178.5469 4692.25,178.2813 Q4692.8438,178 4693.4688,177.4219 L4693.4688,180.1406 Z " fill="#000000"/><text fill="#000000" font-family="sans-serif" font-size="14" lengthAdjust="spacing" textLength="229.1885" x="4704.5" y="179.3467">logic_arc_int__baselibs__promise</text><line style="stroke:#181818;stroke-width:0.5;" x1="4676.5" x2="4935.6885" y1="190.5" y2="190.5"/></g><!--class logic_arc_int__baselibs__dynamic_array--><g id="elem_logic_arc_int__baselibs__dynamic_array"><rect fill="#F1F1F1" height="40" id="logic_arc_int__baselibs__dynamic_array" rx="2.5" ry="2.5" style="stroke:#181818;stroke-width:0.5;" width="308.3496" x="5871" y="158.5"/><ellipse cx="5886" cy="174.5" fill="#ADD1B2" rx="11" ry="11" style="stroke:#181818;stroke-width:1;"/><path d="M5888.9688,180.1406 Q5888.3906,180.4375 5887.75,180.5781 Q5887.1094,180.7344 5886.4063,180.7344 Q5883.9063,180.7344 5882.5781,179.0938 Q5881.2656,177.4375 5881.2656,174.3125 Q5881.2656,171.1875 5882.5781,169.5313 Q5883.9063,167.875 5886.4063,167.875 Q5887.1094,167.875 5887.75,168.0313 Q5888.4063,168.1875 5888.9688,168.4844 L5888.9688,171.2031 Q5888.3438,170.625 5887.75,170.3594 Q5887.1563,170.0781 5886.5313,170.0781 Q5885.1875,170.0781 5884.5,171.1563 Q5883.8125,172.2188 5883.8125,174.3125 Q5883.8125,176.4063 5884.5,177.4844 Q5885.1875,178.5469 5886.5313,178.5469 Q5887.1563,178.5469 5887.75,178.2813 Q5888.3438,178 5888.9688,177.4219 L5888.9688,180.1406 Z " fill="#000000"/><text fill="#000000" font-family="sans-serif" font-size="14" lengthAdjust="spacing" textLength="276.3496" x="5900" y="179.3467">logic_arc_int__baselibs__dynamic_array</text><line style="stroke:#181818;stroke-width:0.5;" x1="5872" x2="6178.3496" y1="190.5" y2="190.5"/></g><!--class logic_arc_int__baselibs__filesystem--><g id="elem_logic_arc_int__baselibs__filesystem"><rect fill="#F1F1F1" height="40" id="logic_arc_int__baselibs__filesystem" rx="2.5" ry="2.5" style="stroke:#181818;stroke-width:0.5;" width="276.4805" x="2408" y="158.5"/><ellipse cx="2423" cy="174.5" fill="#ADD1B2" rx="11" ry="11" style="stroke:#181818;stroke-width:1;"/><path d="M2425.9688,180.1406 Q2425.3906,180.4375 2424.75,180.5781 Q2424.1094,180.7344 2423.4063,180.7344 Q2420.9063,180.7344 2419.5781,179.0938 Q2418.2656,177.4375 2418.2656,174.3125 Q2418.2656,171.1875 2419.5781,169.5313 Q2420.9063,167.875 2423.4063,167.875 Q2424.1094,167.875 2424.75,168.0313 Q2425.4063,168.1875 2425.9688,168.4844 L2425.9688,171.2031 Q2425.3438,170.625 2424.75,170.3594 Q2424.1563,170.0781 2423.5313,170.0781 Q2422.1875,170.0781 2421.5,171.1563 Q2420.8125,172.2188 2420.8125,174.3125 Q2420.8125,176.4063 2421.5,177.4844 Q2422.1875,178.5469 2423.5313,178.5469 Q2424.1563,178.5469 2424.75,178.2813 Q2425.3438,178 2425.9688,177.4219 L2425.9688,180.1406 Z " fill="#000000"/><text fill="#000000" font-family="sans-serif" font-size="14" lengthAdjust="spacing" textLength="244.4805" x="2437" y="179.3467">logic_arc_int__baselibs__filesystem</text><line style="stroke:#181818;stroke-width:0.5;" x1="2409" x2="2683.4805" y1="190.5" y2="190.5"/></g><!--class logic_arc_int__baselibs__bit_manipulation--><g id="elem_logic_arc_int__baselibs__bit_manipulation"><rect fill="#F1F1F1" height="40" id="logic_arc_int__baselibs__bit_manipulation" rx="2.5" ry="2.5" style="stroke:#181818;stroke-width:0.5;" width="321.8369" x="1688" y="158.5"/><ellipse cx="1703" cy="174.5" fill="#ADD1B2" rx="11" ry="11" style="stroke:#181818;stroke-width:1;"/><path d="M1705.9688,180.1406 Q1705.3906,180.4375 1704.75,180.5781 Q1704.1094,180.7344 1703.4063,180.7344 Q1700.9063,180.7344 1699.5781,179.0938 Q1698.2656,177.4375 1698.2656,174.3125 Q1698.2656,171.1875 1699.5781,169.5313 Q1700.9063,167.875 1703.4063,167.875 Q1704.1094,167.875 1704.75,168.0313 Q1705.4063,168.1875 1705.9688,168.4844 L1705.9688,171.2031 Q1705.3438,170.625 1704.75,170.3594 Q1704.1563,170.0781 1703.5313,170.0781 Q1702.1875,170.0781 1701.5,171.1563 Q1700.8125,172.2188 1700.8125,174.3125 Q1700.8125,176.4063 1701.5,177.4844 Q1702.1875,178.5469 1703.5313,178.5469 Q1704.1563,178.5469 1704.75,178.2813 Q1705.3438,178 1705.9688,177.4219 L1705.9688,180.1406 Z " fill="#000000"/><text fill="#000000" font-family="sans-serif" font-size="14" lengthAdjust="spacing" textLength="289.8369" x="1717" y="179.3467">logic_arc_int__baselibs__bit_manipulation</text><line style="stroke:#181818;stroke-width:0.5;" x1="1689" x2="2008.8369" y1="190.5" y2="190.5"/></g><!--class logic_arc_int__baselibs__task_result--><g id="elem_logic_arc_int__baselibs__task_result"><rect fill="#F1F1F1" height="40" id="logic_arc_int__baselibs__task_result" rx="2.5" ry="2.5" style="stroke:#181818;stroke-width:0.5;" width="280.9307" x="4359.5" y="158.5"/><ellipse cx="4374.5" cy="174.5" fill="#ADD1B2" rx="11" ry="11" style="stroke:#181818;stroke-width:1;"/><path d="M4377.4688,180.1406 Q4376.8906,180.4375 4376.25,180.5781 Q4375.6094,180.7344 4374.9063,180.7344 Q4372.4063,180.7344 4371.0781,179.0938 Q4369.7656,177.4375 4369.7656,174.3125 Q4369.7656,171.1875 4371.0781,169.5313 Q4372.4063,167.875 4374.9063,167.875 Q4375.6094,167.875 4376.25,168.0313 Q4376.9063,168.1875 4377.4688,168.4844 L4377.4688,171.2031 Q4376.8438,170.625 4376.25,170.3594 Q4375.6563,170.0781 4375.0313,170.0781 Q4373.6875,170.0781 4373,171.1563 Q4372.3125,172.2188 4372.3125,174.3125 Q4372.3125,176.4063 4373,177.4844 Q4373.6875,178.5469 4375.0313,178.5469 Q4375.6563,178.5469 4376.25,178.2813 Q4376.8438,178 4377.4688,177.4219 L4377.4688,180.1406 Z " fill="#000000"/><text fill="#000000" font-family="sans-serif" font-size="14" lengthAdjust="spacing" textLength="248.9307" x="4388.5" y="179.3467">logic_arc_int__baselibs__task_result</text><line style="stroke:#181818;stroke-width:0.5;" x1="4360.5" x2="4639.4307" y1="190.5" y2="190.5"/></g><!--class comp_arc_sta__baselibs__containers--><g id="elem_comp_arc_sta__baselibs__containers"><rect fill="#F1F1F1" height="40" id="comp_arc_sta__baselibs__containers" rx="2.5" ry="2.5" style="stroke:#181818;stroke-width:0.5;" width="287.1445" x="5713.5" y="275.5"/><ellipse cx="5728.5" cy="291.5" fill="#ADD1B2" rx="11" ry="11" style="stroke:#181818;stroke-width:1;"/><path d="M5731.4688,297.1406 Q5730.8906,297.4375 5730.25,297.5781 Q5729.6094,297.7344 5728.9063,297.7344 Q5726.4063,297.7344 5725.0781,296.0938 Q5723.7656,294.4375 5723.7656,291.3125 Q5723.7656,288.1875 5725.0781,286.5313 Q5726.4063,284.875 5728.9063,284.875 Q5729.6094,284.875 5730.25,285.0313 Q5730.9063,285.1875 5731.4688,285.4844 L5731.4688,288.2031 Q5730.8438,287.625 5730.25,287.3594 Q5729.6563,287.0781 5729.0313,287.0781 Q5727.6875,287.0781 5727,288.1563 Q5726.3125,289.2188 5726.3125,291.3125 Q5726.3125,293.4063 5727,294.4844 Q5727.6875,295.5469 5729.0313,295.5469 Q5729.6563,295.5469 5730.25,295.2813 Q5730.8438,295 5731.4688,294.4219 L5731.4688,297.1406 Z " fill="#000000"/><text fill="#000000" font-family="sans-serif" font-size="14" lengthAdjust="spacing" textLength="255.1445" x="5742.5" y="296.3467">comp_arc_sta__baselibs__containers</text><line style="stroke:#181818;stroke-width:0.5;" x1="5714.5" x2="5999.6445" y1="307.5" y2="307.5"/></g><!--class logic_arc_int__baselibs__intrusive_list--><g id="elem_logic_arc_int__baselibs__intrusive_list"><rect fill="#F1F1F1" height="40" id="logic_arc_int__baselibs__intrusive_list" rx="2.5" ry="2.5" style="stroke:#181818;stroke-width:0.5;" width="293.0713" x="5542.5" y="158.5"/><ellipse cx="5557.5" cy="174.5" fill="#ADD1B2" rx="11" ry="11" style="stroke:#181818;stroke-width:1;"/><path d="M5560.4688,180.1406 Q5559.8906,180.4375 5559.25,180.5781 Q5558.6094,180.7344 5557.9063,180.7344 Q5555.4063,180.7344 5554.0781,179.0938 Q5552.7656,177.4375 5552.7656,174.3125 Q5552.7656,171.1875 5554.0781,169.5313 Q5555.4063,167.875 5557.9063,167.875 Q5558.6094,167.875 5559.25,168.0313 Q5559.9063,168.1875 5560.4688,168.4844 L5560.4688,171.2031 Q5559.8438,170.625 5559.25,170.3594 Q5558.6563,170.0781 5558.0313,170.0781 Q5556.6875,170.0781 5556,171.1563 Q5555.3125,172.2188 5555.3125,174.3125 Q5555.3125,176.4063 5556,177.4844 Q5556.6875,178.5469 5558.0313,178.5469 Q5558.6563,178.5469 5559.25,178.2813 Q5559.8438,178 5560.4688,177.4219 L5560.4688,180.1406 Z " fill="#000000"/><text fill="#000000" font-family="sans-serif" font-size="14" lengthAdjust="spacing" textLength="261.0713" x="5571.5" y="179.3467">logic_arc_int__baselibs__intrusive_list</text><line style="stroke:#181818;stroke-width:0.5;" x1="5543.5" x2="5834.5713" y1="190.5" y2="190.5"/></g><!--class logic_arc_int__baselibs__condition_variable--><g id="elem_logic_arc_int__baselibs__condition_variable"><rect fill="#F1F1F1" height="40" id="logic_arc_int__baselibs__condition_variable" rx="2.5" ry="2.5" style="stroke:#181818;stroke-width:0.5;" width="332.7539" x="3653.5" y="158.5"/><ellipse cx="3668.5" cy="174.5" fill="#ADD1B2" rx="11" ry="11" style="stroke:#181818;stroke-width:1;"/><path d="M3671.4688,180.1406 Q3670.8906,180.4375 3670.25,180.5781 Q3669.6094,180.7344 3668.9063,180.7344 Q3666.4063,180.7344 3665.0781,179.0938 Q3663.7656,177.4375 3663.7656,174.3125 Q3663.7656,171.1875 3665.0781,169.5313 Q3666.4063,167.875 3668.9063,167.875 Q3669.6094,167.875 3670.25,168.0313 Q3670.9063,168.1875 3671.4688,168.4844 L3671.4688,171.2031 Q3670.8438,170.625 3670.25,170.3594 Q3669.6563,170.0781 3669.0313,170.0781 Q3667.6875,170.0781 3667,171.1563 Q3666.3125,172.2188 3666.3125,174.3125 Q3666.3125,176.4063 3667,177.4844 Q3667.6875,178.5469 3669.0313,178.5469 Q3669.6563,178.5469 3670.25,178.2813 Q3670.8438,178 3671.4688,177.4219 L3671.4688,180.1406 Z " fill="#000000"/><text fill="#000000" font-family="sans-serif" font-size="14" lengthAdjust="spacing" textLength="300.7539" x="3682.5" y="179.3467">logic_arc_int__baselibs__condition_variable</text><line style="stroke:#181818;stroke-width:0.5;" x1="3654.5" x2="3985.2539" y1="190.5" y2="190.5"/></g><!--class logic_arc_int__baselibs__json--><g id="elem_logic_arc_int__baselibs__json"><rect fill="#F1F1F1" height="40" id="logic_arc_int__baselibs__json" rx="2.5" ry="2.5" style="stroke:#181818;stroke-width:0.5;" width="233.168" x="2719.5" y="158.5"/><ellipse cx="2734.5" cy="174.5" fill="#ADD1B2" rx="11" ry="11" style="stroke:#181818;stroke-width:1;"/><path d="M2737.4688,180.1406 Q2736.8906,180.4375 2736.25,180.5781 Q2735.6094,180.7344 2734.9063,180.7344 Q2732.4063,180.7344 2731.0781,179.0938 Q2729.7656,177.4375 2729.7656,174.3125 Q2729.7656,171.1875 2731.0781,169.5313 Q2732.4063,167.875 2734.9063,167.875 Q2735.6094,167.875 2736.25,168.0313 Q2736.9063,168.1875 2737.4688,168.4844 L2737.4688,171.2031 Q2736.8438,170.625 2736.25,170.3594 Q2735.6563,170.0781 2735.0313,170.0781 Q2733.6875,170.0781 2733,171.1563 Q2732.3125,172.2188 2732.3125,174.3125 Q2732.3125,176.4063 2733,177.4844 Q2733.6875,178.5469 2735.0313,178.5469 Q2735.6563,178.5469 2736.25,178.2813 Q2736.8438,178 2737.4688,177.4219 L2737.4688,180.1406 Z " fill="#000000"/><text fill="#000000" font-family="sans-serif" font-size="14" lengthAdjust="spacing" textLength="201.168" x="2748.5" y="179.3467">logic_arc_int__baselibs__json</text><line style="stroke:#181818;stroke-width:0.5;" x1="2720.5" x2="2951.668" y1="190.5" y2="190.5"/></g><!--class logic_arc_int__baselibs__future--><g id="elem_logic_arc_int__baselibs__future"><rect fill="#F1F1F1" height="40" id="logic_arc_int__baselibs__future" rx="2.5" ry="2.5" style="stroke:#181818;stroke-width:0.5;" width="247.0791" x="2987.5" y="158.5"/><ellipse cx="3002.5" cy="174.5" fill="#ADD1B2" rx="11" ry="11" style="stroke:#181818;stroke-width:1;"/><path d="M3005.4688,180.1406 Q3004.8906,180.4375 3004.25,180.5781 Q3003.6094,180.7344 3002.9063,180.7344 Q3000.4063,180.7344 2999.0781,179.0938 Q2997.7656,177.4375 2997.7656,174.3125 Q2997.7656,171.1875 2999.0781,169.5313 Q3000.4063,167.875 3002.9063,167.875 Q3003.6094,167.875 3004.25,168.0313 Q3004.9063,168.1875 3005.4688,168.4844 L3005.4688,171.2031 Q3004.8438,170.625 3004.25,170.3594 Q3003.6563,170.0781 3003.0313,170.0781 Q3001.6875,170.0781 3001,171.1563 Q3000.3125,172.2188 3000.3125,174.3125 Q3000.3125,176.4063 3001,177.4844 Q3001.6875,178.5469 3003.0313,178.5469 Q3003.6563,178.5469 3004.25,178.2813 Q3004.8438,178 3005.4688,177.4219 L3005.4688,180.1406 Z " fill="#000000"/><text fill="#000000" font-family="sans-serif" font-size="14" lengthAdjust="spacing" textLength="215.0791" x="3016.5" y="179.3467">logic_arc_int__baselibs__future</text><line style="stroke:#181818;stroke-width:0.5;" x1="2988.5" x2="3233.5791" y1="190.5" y2="190.5"/></g><!--class logic_arc_int__baselibs__executor--><g id="elem_logic_arc_int__baselibs__executor"><rect fill="#F1F1F1" height="40" id="logic_arc_int__baselibs__executor" rx="2.5" ry="2.5" style="stroke:#181818;stroke-width:0.5;" width="266.4385" x="5241" y="158.5"/><ellipse cx="5256" cy="174.5" fill="#ADD1B2" rx="11" ry="11" style="stroke:#181818;stroke-width:1;"/><path d="M5258.9688,180.1406 Q5258.3906,180.4375 5257.75,180.5781 Q5257.1094,180.7344 5256.4063,180.7344 Q5253.9063,180.7344 5252.5781,179.0938 Q5251.2656,177.4375 5251.2656,174.3125 Q5251.2656,171.1875 5252.5781,169.5313 Q5253.9063,167.875 5256.4063,167.875 Q5257.1094,167.875 5257.75,168.0313 Q5258.4063,168.1875 5258.9688,168.4844 L5258.9688,171.2031 Q5258.3438,170.625 5257.75,170.3594 Q5257.1563,170.0781 5256.5313,170.0781 Q5255.1875,170.0781 5254.5,171.1563 Q5253.8125,172.2188 5253.8125,174.3125 Q5253.8125,176.4063 5254.5,177.4844 Q5255.1875,178.5469 5256.5313,178.5469 Q5257.1563,178.5469 5257.75,178.2813 Q5258.3438,178 5258.9688,177.4219 L5258.9688,180.1406 Z " fill="#000000"/><text fill="#000000" font-family="sans-serif" font-size="14" lengthAdjust="spacing" textLength="234.4385" x="5270" y="179.3467">logic_arc_int__baselibs__executor</text><line style="stroke:#181818;stroke-width:0.5;" x1="5242" x2="5506.4385" y1="190.5" y2="190.5"/></g><!--class logic_arc_int__baselibs__result--><g id="elem_logic_arc_int__baselibs__result"><rect fill="#F1F1F1" height="40" id="logic_arc_int__baselibs__result" rx="2.5" ry="2.5" style="stroke:#181818;stroke-width:0.5;" width="244.4609" x="1038" y="158.5"/><ellipse cx="1053" cy="174.5" fill="#ADD1B2" rx="11" ry="11" style="stroke:#181818;stroke-width:1;"/><path d="M1055.9688,180.1406 Q1055.3906,180.4375 1054.75,180.5781 Q1054.1094,180.7344 1053.4063,180.7344 Q1050.9063,180.7344 1049.5781,179.0938 Q1048.2656,177.4375 1048.2656,174.3125 Q1048.2656,171.1875 1049.5781,169.5313 Q1050.9063,167.875 1053.4063,167.875 Q1054.1094,167.875 1054.75,168.0313 Q1055.4063,168.1875 1055.9688,168.4844 L1055.9688,171.2031 Q1055.3438,170.625 1054.75,170.3594 Q1054.1563,170.0781 1053.5313,170.0781 Q1052.1875,170.0781 1051.5,171.1563 Q1050.8125,172.2188 1050.8125,174.3125 Q1050.8125,176.4063 1051.5,177.4844 Q1052.1875,178.5469 1053.5313,178.5469 Q1054.1563,178.5469 1054.75,178.2813 Q1055.3438,178 1055.9688,177.4219 L1055.9688,180.1406 Z " fill="#000000"/><text fill="#000000" font-family="sans-serif" font-size="14" lengthAdjust="spacing" textLength="212.4609" x="1067" y="179.3467">logic_arc_int__baselibs__result</text><line style="stroke:#181818;stroke-width:0.5;" x1="1039" x2="1281.4609" y1="190.5" y2="190.5"/></g><!--class logic_arc_int__baselibs__utils_base64--><g id="elem_logic_arc_int__baselibs__utils_base64"><rect fill="#F1F1F1" height="40" id="logic_arc_int__baselibs__utils_base64" rx="2.5" ry="2.5" style="stroke:#181818;stroke-width:0.5;" width="292.1689" x="7" y="158.5"/><ellipse cx="22" cy="174.5" fill="#ADD1B2" rx="11" ry="11" style="stroke:#181818;stroke-width:1;"/><path d="M24.9688,180.1406 Q24.3906,180.4375 23.75,180.5781 Q23.1094,180.7344 22.4063,180.7344 Q19.9063,180.7344 18.5781,179.0938 Q17.2656,177.4375 17.2656,174.3125 Q17.2656,171.1875 18.5781,169.5313 Q19.9063,167.875 22.4063,167.875 Q23.1094,167.875 23.75,168.0313 Q24.4063,168.1875 24.9688,168.4844 L24.9688,171.2031 Q24.3438,170.625 23.75,170.3594 Q23.1563,170.0781 22.5313,170.0781 Q21.1875,170.0781 20.5,171.1563 Q19.8125,172.2188 19.8125,174.3125 Q19.8125,176.4063 20.5,177.4844 Q21.1875,178.5469 22.5313,178.5469 Q23.1563,178.5469 23.75,178.2813 Q24.3438,178 24.9688,177.4219 L24.9688,180.1406 Z " fill="#000000"/><text fill="#000000" font-family="sans-serif" font-size="14" lengthAdjust="spacing" textLength="260.1689" x="36" y="179.3467">logic_arc_int__baselibs__utils_base64</text><line style="stroke:#181818;stroke-width:0.5;" x1="8" x2="298.1689" y1="190.5" y2="190.5"/></g><!--class comp_arc_sta__baselibs__bit_manipulation--><g id="elem_comp_arc_sta__baselibs__bit_manipulation"><rect fill="#F1F1F1" height="40" id="comp_arc_sta__baselibs__bit_manipulation" rx="2.5" ry="2.5" style="stroke:#181818;stroke-width:0.5;" width="330.8057" x="1493.5" y="275.5"/><ellipse cx="1508.5" cy="291.5" fill="#ADD1B2" rx="11" ry="11" style="stroke:#181818;stroke-width:1;"/><path d="M1511.4688,297.1406 Q1510.8906,297.4375 1510.25,297.5781 Q1509.6094,297.7344 1508.9063,297.7344 Q1506.4063,297.7344 1505.0781,296.0938 Q1503.7656,294.4375 1503.7656,291.3125 Q1503.7656,288.1875 1505.0781,286.5313 Q1506.4063,284.875 1508.9063,284.875 Q1509.6094,284.875 1510.25,285.0313 Q1510.9063,285.1875 1511.4688,285.4844 L1511.4688,288.2031 Q1510.8438,287.625 1510.25,287.3594 Q1509.6563,287.0781 1509.0313,287.0781 Q1507.6875,287.0781 1507,288.1563 Q1506.3125,289.2188 1506.3125,291.3125 Q1506.3125,293.4063 1507,294.4844 Q1507.6875,295.5469 1509.0313,295.5469 Q1509.6563,295.5469 1510.25,295.2813 Q1510.8438,295 1511.4688,294.4219 L1511.4688,297.1406 Z " fill="#000000"/><text fill="#000000" font-family="sans-serif" font-size="14" lengthAdjust="spacing" textLength="298.8057" x="1522.5" y="296.3467">comp_arc_sta__baselibs__bit_manipulation</text><line style="stroke:#181818;stroke-width:0.5;" x1="1494.5" x2="1823.3057" y1="307.5" y2="307.5"/></g><!--class comp_arc_sta__baselibs__json--><g id="elem_comp_arc_sta__baselibs__json"><rect fill="#F1F1F1" height="40" id="comp_arc_sta__baselibs__json" rx="2.5" ry="2.5" style="stroke:#181818;stroke-width:0.5;" width="242.1367" x="2724" y="275.5"/><ellipse cx="2739" cy="291.5" fill="#ADD1B2" rx="11" ry="11" style="stroke:#181818;stroke-width:1;"/><path d="M2741.9688,297.1406 Q2741.3906,297.4375 2740.75,297.5781 Q2740.1094,297.7344 2739.4063,297.7344 Q2736.9063,297.7344 2735.5781,296.0938 Q2734.2656,294.4375 2734.2656,291.3125 Q2734.2656,288.1875 2735.5781,286.5313 Q2736.9063,284.875 2739.4063,284.875 Q2740.1094,284.875 2740.75,285.0313 Q2741.4063,285.1875 2741.9688,285.4844 L2741.9688,288.2031 Q2741.3438,287.625 2740.75,287.3594 Q2740.1563,287.0781 2739.5313,287.0781 Q2738.1875,287.0781 2737.5,288.1563 Q2736.8125,289.2188 2736.8125,291.3125 Q2736.8125,293.4063 2737.5,294.4844 Q2738.1875,295.5469 2739.5313,295.5469 Q2740.1563,295.5469 2740.75,295.2813 Q2741.3438,295 2741.9688,294.4219 L2741.9688,297.1406 Z " fill="#000000"/><text fill="#000000" font-family="sans-serif" font-size="14" lengthAdjust="spacing" textLength="210.1367" x="2753" y="296.3467">comp_arc_sta__baselibs__json</text><line style="stroke:#181818;stroke-width:0.5;" x1="2725" x2="2965.1367" y1="307.5" y2="307.5"/></g><!--class logic_arc_int__baselibs__shared_future--><g id="elem_logic_arc_int__baselibs__shared_future"><rect fill="#F1F1F1" height="40" id="logic_arc_int__baselibs__shared_future" rx="2.5" ry="2.5" style="stroke:#181818;stroke-width:0.5;" width="302.0811" x="4022" y="158.5"/><ellipse cx="4037" cy="174.5" fill="#ADD1B2" rx="11" ry="11" style="stroke:#181818;stroke-width:1;"/><path d="M4039.9688,180.1406 Q4039.3906,180.4375 4038.75,180.5781 Q4038.1094,180.7344 4037.4063,180.7344 Q4034.9063,180.7344 4033.5781,179.0938 Q4032.2656,177.4375 4032.2656,174.3125 Q4032.2656,171.1875 4033.5781,169.5313 Q4034.9063,167.875 4037.4063,167.875 Q4038.1094,167.875 4038.75,168.0313 Q4039.4063,168.1875 4039.9688,168.4844 L4039.9688,171.2031 Q4039.3438,170.625 4038.75,170.3594 Q4038.1563,170.0781 4037.5313,170.0781 Q4036.1875,170.0781 4035.5,171.1563 Q4034.8125,172.2188 4034.8125,174.3125 Q4034.8125,176.4063 4035.5,177.4844 Q4036.1875,178.5469 4037.5313,178.5469 Q4038.1563,178.5469 4038.75,178.2813 Q4039.3438,178 4039.9688,177.4219 L4039.9688,180.1406 Z " fill="#000000"/><text fill="#000000" font-family="sans-serif" font-size="14" lengthAdjust="spacing" textLength="270.0811" x="4051" y="179.3467">logic_arc_int__baselibs__shared_future</text><line style="stroke:#181818;stroke-width:0.5;" x1="4023" x2="4323.0811" y1="190.5" y2="190.5"/></g><!--class logic_arc_int__baselibs__memory_shared--><g id="elem_logic_arc_int__baselibs__memory_shared"><rect fill="#F1F1F1" height="40" id="logic_arc_int__baselibs__memory_shared" rx="2.5" ry="2.5" style="stroke:#181818;stroke-width:0.5;" width="318.043" x="685" y="158.5"/><ellipse cx="700" cy="174.5" fill="#ADD1B2" rx="11" ry="11" style="stroke:#181818;stroke-width:1;"/><path d="M702.9688,180.1406 Q702.3906,180.4375 701.75,180.5781 Q701.1094,180.7344 700.4063,180.7344 Q697.9063,180.7344 696.5781,179.0938 Q695.2656,177.4375 695.2656,174.3125 Q695.2656,171.1875 696.5781,169.5313 Q697.9063,167.875 700.4063,167.875 Q701.1094,167.875 701.75,168.0313 Q702.4063,168.1875 702.9688,168.4844 L702.9688,171.2031 Q702.3438,170.625 701.75,170.3594 Q701.1563,170.0781 700.5313,170.0781 Q699.1875,170.0781 698.5,171.1563 Q697.8125,172.2188 697.8125,174.3125 Q697.8125,176.4063 698.5,177.4844 Q699.1875,178.5469 700.5313,178.5469 Q701.1563,178.5469 701.75,178.2813 Q702.3438,178 702.9688,177.4219 L702.9688,180.1406 Z " fill="#000000"/><text fill="#000000" font-family="sans-serif" font-size="14" lengthAdjust="spacing" textLength="286.043" x="714" y="179.3467">logic_arc_int__baselibs__memory_shared</text><line style="stroke:#181818;stroke-width:0.5;" x1="686" x2="1002.043" y1="190.5" y2="190.5"/></g><!--class logic_arc_int__baselibs__bit_mask_operator--><g id="elem_logic_arc_int__baselibs__bit_mask_operator"><rect fill="#F1F1F1" height="40" id="logic_arc_int__baselibs__bit_mask_operator" rx="2.5" ry="2.5" style="stroke:#181818;stroke-width:0.5;" width="334.6406" x="1317.5" y="158.5"/><ellipse cx="1332.5" cy="174.5" fill="#ADD1B2" rx="11" ry="11" style="stroke:#181818;stroke-width:1;"/><path d="M1335.4688,180.1406 Q1334.8906,180.4375 1334.25,180.5781 Q1333.6094,180.7344 1332.9063,180.7344 Q1330.4063,180.7344 1329.0781,179.0938 Q1327.7656,177.4375 1327.7656,174.3125 Q1327.7656,171.1875 1329.0781,169.5313 Q1330.4063,167.875 1332.9063,167.875 Q1333.6094,167.875 1334.25,168.0313 Q1334.9063,168.1875 1335.4688,168.4844 L1335.4688,171.2031 Q1334.8438,170.625 1334.25,170.3594 Q1333.6563,170.0781 1333.0313,170.0781 Q1331.6875,170.0781 1331,171.1563 Q1330.3125,172.2188 1330.3125,174.3125 Q1330.3125,176.4063 1331,177.4844 Q1331.6875,178.5469 1333.0313,178.5469 Q1333.6563,178.5469 1334.25,178.2813 Q1334.8438,178 1335.4688,177.4219 L1335.4688,180.1406 Z " fill="#000000"/><text fill="#000000" font-family="sans-serif" font-size="14" lengthAdjust="spacing" textLength="302.6406" x="1346.5" y="179.3467">logic_arc_int__baselibs__bit_mask_operator</text><line style="stroke:#181818;stroke-width:0.5;" x1="1318.5" x2="1651.1406" y1="190.5" y2="190.5"/></g><!--class comp_arc_sta__baselibs__filesystem--><g id="elem_comp_arc_sta__baselibs__filesystem"><rect fill="#F1F1F1" height="40" id="comp_arc_sta__baselibs__filesystem" rx="2.5" ry="2.5" style="stroke:#181818;stroke-width:0.5;" width="285.4492" x="2403.5" y="275.5"/><ellipse cx="2418.5" cy="291.5" fill="#ADD1B2" rx="11" ry="11" style="stroke:#181818;stroke-width:1;"/><path d="M2421.4688,297.1406 Q2420.8906,297.4375 2420.25,297.5781 Q2419.6094,297.7344 2418.9063,297.7344 Q2416.4063,297.7344 2415.0781,296.0938 Q2413.7656,294.4375 2413.7656,291.3125 Q2413.7656,288.1875 2415.0781,286.5313 Q2416.4063,284.875 2418.9063,284.875 Q2419.6094,284.875 2420.25,285.0313 Q2420.9063,285.1875 2421.4688,285.4844 L2421.4688,288.2031 Q2420.8438,287.625 2420.25,287.3594 Q2419.6563,287.0781 2419.0313,287.0781 Q2417.6875,287.0781 2417,288.1563 Q2416.3125,289.2188 2416.3125,291.3125 Q2416.3125,293.4063 2417,294.4844 Q2417.6875,295.5469 2419.0313,295.5469 Q2419.6563,295.5469 2420.25,295.2813 Q2420.8438,295 2421.4688,294.4219 L2421.4688,297.1406 Z " fill="#000000"/><text fill="#000000" font-family="sans-serif" font-size="14" lengthAdjust="spacing" textLength="253.4492" x="2432.5" y="296.3467">comp_arc_sta__baselibs__filesystem</text><line style="stroke:#181818;stroke-width:0.5;" x1="2404.5" x2="2687.9492" y1="307.5" y2="307.5"/></g><!--class comp_arc_sta__baselibs__message_passing--><g id="elem_comp_arc_sta__baselibs__message_passing"><rect fill="#F1F1F1" height="40" id="comp_arc_sta__baselibs__message_passing" rx="2.5" ry="2.5" style="stroke:#181818;stroke-width:0.5;" width="337.1357" x="2031.5" y="275.5"/><ellipse cx="2046.5" cy="291.5" fill="#ADD1B2" rx="11" ry="11" style="stroke:#181818;stroke-width:1;"/><path d="M2049.4688,297.1406 Q2048.8906,297.4375 2048.25,297.5781 Q2047.6094,297.7344 2046.9063,297.7344 Q2044.4063,297.7344 2043.0781,296.0938 Q2041.7656,294.4375 2041.7656,291.3125 Q2041.7656,288.1875 2043.0781,286.5313 Q2044.4063,284.875 2046.9063,284.875 Q2047.6094,284.875 2048.25,285.0313 Q2048.9063,285.1875 2049.4688,285.4844 L2049.4688,288.2031 Q2048.8438,287.625 2048.25,287.3594 Q2047.6563,287.0781 2047.0313,287.0781 Q2045.6875,287.0781 2045,288.1563 Q2044.3125,289.2188 2044.3125,291.3125 Q2044.3125,293.4063 2045,294.4844 Q2045.6875,295.5469 2047.0313,295.5469 Q2047.6563,295.5469 2048.25,295.2813 Q2048.8438,295 2049.4688,294.4219 L2049.4688,297.1406 Z " fill="#000000"/><text fill="#000000" font-family="sans-serif" font-size="14" lengthAdjust="spacing" textLength="305.1357" x="2060.5" y="296.3467">comp_arc_sta__baselibs__message_passing</text><line style="stroke:#181818;stroke-width:0.5;" x1="2032.5" x2="2367.6357" y1="307.5" y2="307.5"/></g><!--class logic_arc_int__baselibs__message_passing--><g id="elem_logic_arc_int__baselibs__message_passing"><rect fill="#F1F1F1" height="40" id="logic_arc_int__baselibs__message_passing" rx="2.5" ry="2.5" style="stroke:#181818;stroke-width:0.5;" width="328.167" x="2045" y="158.5"/><ellipse cx="2060" cy="174.5" fill="#ADD1B2" rx="11" ry="11" style="stroke:#181818;stroke-width:1;"/><path d="M2062.9688,180.1406 Q2062.3906,180.4375 2061.75,180.5781 Q2061.1094,180.7344 2060.4063,180.7344 Q2057.9063,180.7344 2056.5781,179.0938 Q2055.2656,177.4375 2055.2656,174.3125 Q2055.2656,171.1875 2056.5781,169.5313 Q2057.9063,167.875 2060.4063,167.875 Q2061.1094,167.875 2061.75,168.0313 Q2062.4063,168.1875 2062.9688,168.4844 L2062.9688,171.2031 Q2062.3438,170.625 2061.75,170.3594 Q2061.1563,170.0781 2060.5313,170.0781 Q2059.1875,170.0781 2058.5,171.1563 Q2057.8125,172.2188 2057.8125,174.3125 Q2057.8125,176.4063 2058.5,177.4844 Q2059.1875,178.5469 2060.5313,178.5469 Q2061.1563,178.5469 2061.75,178.2813 Q2062.3438,178 2062.9688,177.4219 L2062.9688,180.1406 Z " fill="#000000"/><text fill="#000000" font-family="sans-serif" font-size="14" lengthAdjust="spacing" textLength="296.167" x="2074" y="179.3467">logic_arc_int__baselibs__message_passing</text><line style="stroke:#181818;stroke-width:0.5;" x1="2046" x2="2372.167" y1="190.5" y2="190.5"/></g><!--class logic_arc_int__baselibs__utils_scoped_op--><g id="elem_logic_arc_int__baselibs__utils_scoped_op"><rect fill="#F1F1F1" height="40" id="logic_arc_int__baselibs__utils_scoped_op" rx="2.5" ry="2.5" style="stroke:#181818;stroke-width:0.5;" width="315.377" x="334.5" y="158.5"/><ellipse cx="349.5" cy="174.5" fill="#ADD1B2" rx="11" ry="11" style="stroke:#181818;stroke-width:1;"/><path d="M352.4688,180.1406 Q351.8906,180.4375 351.25,180.5781 Q350.6094,180.7344 349.9063,180.7344 Q347.4063,180.7344 346.0781,179.0938 Q344.7656,177.4375 344.7656,174.3125 Q344.7656,171.1875 346.0781,169.5313 Q347.4063,167.875 349.9063,167.875 Q350.6094,167.875 351.25,168.0313 Q351.9063,168.1875 352.4688,168.4844 L352.4688,171.2031 Q351.8438,170.625 351.25,170.3594 Q350.6563,170.0781 350.0313,170.0781 Q348.6875,170.0781 348,171.1563 Q347.3125,172.2188 347.3125,174.3125 Q347.3125,176.4063 348,177.4844 Q348.6875,178.5469 350.0313,178.5469 Q350.6563,178.5469 351.25,178.2813 Q351.8438,178 352.4688,177.4219 L352.4688,180.1406 Z " fill="#000000"/><text fill="#000000" font-family="sans-serif" font-size="14" lengthAdjust="spacing" textLength="283.377" x="363.5" y="179.3467">logic_arc_int__baselibs__utils_scoped_op</text><line style="stroke:#181818;stroke-width:0.5;" x1="335.5" x2="648.877" y1="190.5" y2="190.5"/></g><!--class comp_arc_sta__baselibs__result--><g id="elem_comp_arc_sta__baselibs__result"><rect fill="#F1F1F1" height="40" id="comp_arc_sta__baselibs__result" rx="2.5" ry="2.5" style="stroke:#181818;stroke-width:0.5;" width="253.4297" x="1037.5" y="275.5"/><ellipse cx="1052.5" cy="291.5" fill="#ADD1B2" rx="11" ry="11" style="stroke:#181818;stroke-width:1;"/><path d="M1055.4688,297.1406 Q1054.8906,297.4375 1054.25,297.5781 Q1053.6094,297.7344 1052.9063,297.7344 Q1050.4063,297.7344 1049.0781,296.0938 Q1047.7656,294.4375 1047.7656,291.3125 Q1047.7656,288.1875 1049.0781,286.5313 Q1050.4063,284.875 1052.9063,284.875 Q1053.6094,284.875 1054.25,285.0313 Q1054.9063,285.1875 1055.4688,285.4844 L1055.4688,288.2031 Q1054.8438,287.625 1054.25,287.3594 Q1053.6563,287.0781 1053.0313,287.0781 Q1051.6875,287.0781 1051,288.1563 Q1050.3125,289.2188 1050.3125,291.3125 Q1050.3125,293.4063 1051,294.4844 Q1051.6875,295.5469 1053.0313,295.5469 Q1053.6563,295.5469 1054.25,295.2813 Q1054.8438,295 1055.4688,294.4219 L1055.4688,297.1406 Z " fill="#000000"/><text fill="#000000" font-family="sans-serif" font-size="14" lengthAdjust="spacing" textLength="221.4297" x="1066.5" y="296.3467">comp_arc_sta__baselibs__result</text><line style="stroke:#181818;stroke-width:0.5;" x1="1038.5" x2="1289.9297" y1="307.5" y2="307.5"/></g><!--class comp_arc_sta__baselibs__utils--><g id="elem_comp_arc_sta__baselibs__utils"><rect fill="#F1F1F1" height="40" id="comp_arc_sta__baselibs__utils" rx="2.5" ry="2.5" style="stroke:#181818;stroke-width:0.5;" width="242.9502" x="173.5" y="275.5"/><ellipse cx="188.5" cy="291.5" fill="#ADD1B2" rx="11" ry="11" style="stroke:#181818;stroke-width:1;"/><path d="M191.4688,297.1406 Q190.8906,297.4375 190.25,297.5781 Q189.6094,297.7344 188.9063,297.7344 Q186.4063,297.7344 185.0781,296.0938 Q183.7656,294.4375 183.7656,291.3125 Q183.7656,288.1875 185.0781,286.5313 Q186.4063,284.875 188.9063,284.875 Q189.6094,284.875 190.25,285.0313 Q190.9063,285.1875 191.4688,285.4844 L191.4688,288.2031 Q190.8438,287.625 190.25,287.3594 Q189.6563,287.0781 189.0313,287.0781 Q187.6875,287.0781 187,288.1563 Q186.3125,289.2188 186.3125,291.3125 Q186.3125,293.4063 187,294.4844 Q187.6875,295.5469 189.0313,295.5469 Q189.6563,295.5469 190.25,295.2813 Q190.8438,295 191.4688,294.4219 L191.4688,297.1406 Z " fill="#000000"/><text fill="#000000" font-family="sans-serif" font-size="14" lengthAdjust="spacing" textLength="210.9502" x="202.5" y="296.3467">comp_arc_sta__baselibs__utils</text><line style="stroke:#181818;stroke-width:0.5;" x1="174.5" x2="415.4502" y1="307.5" y2="307.5"/></g><!--class logic_arc_int__baselibs__synchronized_queue--><g id="elem_logic_arc_int__baselibs__synchronized_queue"><rect fill="#F1F1F1" height="40" id="logic_arc_int__baselibs__synchronized_queue" rx="2.5" ry="2.5" style="stroke:#181818;stroke-width:0.5;" width="348.3604" x="3270" y="158.5"/><ellipse cx="3285" cy="174.5" fill="#ADD1B2" rx="11" ry="11" style="stroke:#181818;stroke-width:1;"/><path d="M3287.9688,180.1406 Q3287.3906,180.4375 3286.75,180.5781 Q3286.1094,180.7344 3285.4063,180.7344 Q3282.9063,180.7344 3281.5781,179.0938 Q3280.2656,177.4375 3280.2656,174.3125 Q3280.2656,171.1875 3281.5781,169.5313 Q3282.9063,167.875 3285.4063,167.875 Q3286.1094,167.875 3286.75,168.0313 Q3287.4063,168.1875 3287.9688,168.4844 L3287.9688,171.2031 Q3287.3438,170.625 3286.75,170.3594 Q3286.1563,170.0781 3285.5313,170.0781 Q3284.1875,170.0781 3283.5,171.1563 Q3282.8125,172.2188 3282.8125,174.3125 Q3282.8125,176.4063 3283.5,177.4844 Q3284.1875,178.5469 3285.5313,178.5469 Q3286.1563,178.5469 3286.75,178.2813 Q3287.3438,178 3287.9688,177.4219 L3287.9688,180.1406 Z " fill="#000000"/><text fill="#000000" font-family="sans-serif" font-size="14" lengthAdjust="spacing" textLength="316.3604" x="3299" y="179.3467">logic_arc_int__baselibs__synchronized_queue</text><line style="stroke:#181818;stroke-width:0.5;" x1="3271" x2="3617.3604" y1="190.5" y2="190.5"/></g><!--class comp_arc_sta__baselibs__memory_shared--><g id="elem_comp_arc_sta__baselibs__memory_shared"><rect fill="#F1F1F1" height="40" id="comp_arc_sta__baselibs__memory_shared" rx="2.5" ry="2.5" style="stroke:#181818;stroke-width:0.5;" width="327.0117" x="675.5" y="275.5"/><ellipse cx="690.5" cy="291.5" fill="#ADD1B2" rx="11" ry="11" style="stroke:#181818;stroke-width:1;"/><path d="M693.4688,297.1406 Q692.8906,297.4375 692.25,297.5781 Q691.6094,297.7344 690.9063,297.7344 Q688.4063,297.7344 687.0781,296.0938 Q685.7656,294.4375 685.7656,291.3125 Q685.7656,288.1875 687.0781,286.5313 Q688.4063,284.875 690.9063,284.875 Q691.6094,284.875 692.25,285.0313 Q692.9063,285.1875 693.4688,285.4844 L693.4688,288.2031 Q692.8438,287.625 692.25,287.3594 Q691.6563,287.0781 691.0313,287.0781 Q689.6875,287.0781 689,288.1563 Q688.3125,289.2188 688.3125,291.3125 Q688.3125,293.4063 689,294.4844 Q689.6875,295.5469 691.0313,295.5469 Q691.6563,295.5469 692.25,295.2813 Q692.8438,295 693.4688,294.4219 L693.4688,297.1406 Z " fill="#000000"/><text fill="#000000" font-family="sans-serif" font-size="14" lengthAdjust="spacing" textLength="295.0117" x="704.5" y="296.3467">comp_arc_sta__baselibs__memory_shared</text><line style="stroke:#181818;stroke-width:0.5;" x1="676.5" x2="1001.5117" y1="307.5" y2="307.5"/></g><!--reverse link logic_arc_int__baselibs__task to comp_arc_sta__baselibs__concurrency--><g id="link_logic_arc_int__baselibs__task_comp_arc_sta__baselibs__concurrency"><path codeLine="15" d="M4968.2484,199.4767 C4884.9984,213.0667 4775.59,230.57 4674,245.5 C4602.9,255.95 4523.85,266.72 4457.71,275.5 " fill="transparent" id="logic_arc_int__baselibs__task-backto-comp_arc_sta__baselibs__concurrency" style="stroke:#181818;stroke-width:1;"/><polygon fill="#181818" points="4974.17,198.51,4964.6431,196.0123,4969.2353,199.3156,4965.932,203.9077,4974.17,198.51" style="stroke:#181818;stroke-width:1;"/><text fill="#000000" font-family="sans-serif" font-size="13" lengthAdjust="spacing" textLength="76.9082" x="4777" y="241.5669">implements</text></g><!--reverse link logic_arc_int__baselibs__promise to comp_arc_sta__baselibs__concurrency--><g id="link_logic_arc_int__baselibs__promise_comp_arc_sta__baselibs__concurrency"><path codeLine="16" d="M4718.1357,199.9079 C4626.5057,221.1979 4484.87,254.11 4393.18,275.41 " fill="transparent" id="logic_arc_int__baselibs__promise-backto-comp_arc_sta__baselibs__concurrency" style="stroke:#181818;stroke-width:1;"/><polygon fill="#181818" points="4723.98,198.55,4714.3082,196.6907,4719.1097,199.6816,4716.1188,204.4831,4723.98,198.55" style="stroke:#181818;stroke-width:1;"/><text fill="#000000" font-family="sans-serif" font-size="13" lengthAdjust="spacing" textLength="76.9082" x="4589" y="241.5669">implements</text></g><!--link Feature_User to logic_arc_int__baselibs__dynamic_array--><g id="link_Feature_User_logic_arc_int__baselibs__dynamic_array"><path codeLine="17" d="M3156.29,45.23 C3380.33,48.97 4392.34,67.65 5220,111.5 C5501.71,126.43 5572.09,132.56 5853,158.5 C5858.83,159.04 5858.8078,159.0327 5864.8078,159.6127 " fill="transparent" id="Feature_User-to-logic_arc_int__baselibs__dynamic_array" style="stroke:#181818;stroke-width:1;"/><polygon fill="#181818" points="5870.78,160.19,5862.2066,155.3426,5865.8032,159.7089,5861.4369,163.3055,5870.78,160.19" style="stroke:#181818;stroke-width:1;"/><text fill="#000000" font-family="sans-serif" font-size="13" lengthAdjust="spacing" textLength="23.0103" x="5495" y="124.5669">use</text></g><!--link Feature_User to logic_arc_int__baselibs__filesystem--><g id="link_Feature_User_logic_arc_int__baselibs__filesystem"><path codeLine="18" d="M3065.72,55.16 C2970.27,77.63 2753.1604,128.7354 2632.6204,157.1054 " fill="transparent" id="Feature_User-to-logic_arc_int__baselibs__filesystem" style="stroke:#181818;stroke-width:1;"/><polygon fill="#181818" points="2626.78,158.48,2636.457,160.3117,2631.647,157.3345,2634.6242,152.5245,2626.78,158.48" style="stroke:#181818;stroke-width:1;"/><text fill="#000000" font-family="sans-serif" font-size="13" lengthAdjust="spacing" textLength="23.0103" x="2813" y="124.5669">use</text></g><!--link Feature_User to logic_arc_int__baselibs__bit_manipulation--><g id="link_Feature_User_logic_arc_int__baselibs__bit_manipulation"><path codeLine="19" d="M3065.82,49.23 C2917.2,64.78 2429.94,115.81 2027,158.5 C2021.44,159.09 2021.7462,159.0537 2016.0262,159.6637 " fill="transparent" id="Feature_User-to-logic_arc_int__baselibs__bit_manipulation" style="stroke:#181818;stroke-width:1;"/><polygon fill="#181818" points="2010.06,160.3,2019.4334,163.3231,2015.0318,159.7698,2018.5851,155.3682,2010.06,160.3" style="stroke:#181818;stroke-width:1;"/><text fill="#000000" font-family="sans-serif" font-size="13" lengthAdjust="spacing" textLength="23.0103" x="2446" y="124.5669">use</text></g><!--link Feature_User to logic_arc_int__baselibs__promise--><g id="link_Feature_User_logic_arc_int__baselibs__promise"><path codeLine="20" d="M3156.02,46.82 C3341.59,56.58 4065.37,96.73 4658,158.5 C4663.67,159.09 4663.498,159.0462 4669.338,159.7062 " fill="transparent" id="Feature_User-to-logic_arc_int__baselibs__promise" style="stroke:#181818;stroke-width:1;"/><polygon fill="#181818" points="4675.3,160.38,4666.8061,155.3946,4670.3316,159.8185,4665.9077,163.344,4675.3,160.38" style="stroke:#181818;stroke-width:1;"/><text fill="#000000" font-family="sans-serif" font-size="13" lengthAdjust="spacing" textLength="23.0103" x="4320" y="124.5669">use</text></g><!--reverse link logic_arc_int__baselibs__task_result to comp_arc_sta__baselibs__concurrency--><g id="link_logic_arc_int__baselibs__task_result_comp_arc_sta__baselibs__concurrency"><path codeLine="21" d="M4463.2439,201.8681 C4428.2439,223.1581 4377.33,254.14 4342.42,275.38 " fill="transparent" id="logic_arc_int__baselibs__task_result-backto-comp_arc_sta__baselibs__concurrency" style="stroke:#181818;stroke-width:1;"/><polygon fill="#181818" points="4468.37,198.75,4458.602,200.0098,4464.0982,201.3485,4462.7596,206.8446,4468.37,198.75" style="stroke:#181818;stroke-width:1;"/><text fill="#000000" font-family="sans-serif" font-size="13" lengthAdjust="spacing" textLength="76.9082" x="4417" y="241.5669">implements</text></g><!--reverse link logic_arc_int__baselibs__intrusive_list to comp_arc_sta__baselibs__containers--><g id="link_logic_arc_int__baselibs__intrusive_list_comp_arc_sta__baselibs__containers"><path codeLine="22" d="M5722.071,202.1393 C5753.171,223.4293 5798.04,254.14 5829.07,275.38 " fill="transparent" id="logic_arc_int__baselibs__intrusive_list-backto-comp_arc_sta__baselibs__containers" style="stroke:#181818;stroke-width:1;"/><polygon fill="#181818" points="5717.12,198.75,5722.287,207.1346,5721.2459,201.5744,5726.8061,200.5333,5717.12,198.75" style="stroke:#181818;stroke-width:1;"/><text fill="#000000" font-family="sans-serif" font-size="13" lengthAdjust="spacing" textLength="76.9082" x="5784" y="241.5669">implements</text></g><!--reverse link logic_arc_int__baselibs__condition_variable to comp_arc_sta__baselibs__concurrency--><g id="link_logic_arc_int__baselibs__condition_variable_comp_arc_sta__baselibs__concurrency"><path codeLine="23" d="M3907.1919,199.9184 C3998.0819,221.2084 4138.53,254.11 4229.49,275.41 " fill="transparent" id="logic_arc_int__baselibs__condition_variable-backto-comp_arc_sta__baselibs__concurrency" style="stroke:#181818;stroke-width:1;"/><polygon fill="#181818" points="3901.35,198.55,3909.2005,204.4972,3906.2182,199.6903,3911.0251,196.708,3901.35,198.55" style="stroke:#181818;stroke-width:1;"/><text fill="#000000" font-family="sans-serif" font-size="13" lengthAdjust="spacing" textLength="76.9082" x="4096" y="241.5669">implements</text></g><!--link Feature_User to logic_arc_int__baselibs__json--><g id="link_Feature_User_logic_arc_int__baselibs__json"><path codeLine="24" d="M3065.9,66.31 C3012.87,91.96 2931.1215,131.4977 2880.7315,155.8677 " fill="transparent" id="Feature_User-to-logic_arc_int__baselibs__json" style="stroke:#181818;stroke-width:1;"/><polygon fill="#181818" points="2875.33,158.48,2885.1737,158.1625,2879.8312,156.3031,2881.6907,150.9606,2875.33,158.48" style="stroke:#181818;stroke-width:1;"/><text fill="#000000" font-family="sans-serif" font-size="13" lengthAdjust="spacing" textLength="23.0103" x="2967" y="124.5669">use</text></g><!--reverse link logic_arc_int__baselibs__dynamic_array to comp_arc_sta__baselibs__containers--><g id="link_logic_arc_int__baselibs__dynamic_array_comp_arc_sta__baselibs__containers"><path codeLine="25" d="M5991.929,202.1393 C5960.829,223.4293 5915.96,254.14 5884.93,275.38 " fill="transparent" id="logic_arc_int__baselibs__dynamic_array-backto-comp_arc_sta__baselibs__containers" style="stroke:#181818;stroke-width:1;"/><polygon fill="#181818" points="5996.88,198.75,5987.1939,200.5333,5992.7541,201.5744,5991.713,207.1346,5996.88,198.75" style="stroke:#181818;stroke-width:1;"/><text fill="#000000" font-family="sans-serif" font-size="13" lengthAdjust="spacing" textLength="76.9082" x="5952" y="241.5669">implements</text></g><!--reverse link logic_arc_int__baselibs__future to comp_arc_sta__baselibs__concurrency--><g id="link_logic_arc_int__baselibs__future_comp_arc_sta__baselibs__concurrency"><path codeLine="26" d="M3240.716,197.1753 C3246.546,197.8853 3246.36,197.85 3252,198.5 C3575.22,235.83 3955.35,267.26 4160.82,283.22 " fill="transparent" id="logic_arc_int__baselibs__future-backto-comp_arc_sta__baselibs__concurrency" style="stroke:#181818;stroke-width:1;"/><polygon fill="#181818" points="3234.76,196.45,3243.2104,201.5087,3239.7233,197.0545,3244.1776,193.5674,3234.76,196.45" style="stroke:#181818;stroke-width:1;"/><text fill="#000000" font-family="sans-serif" font-size="13" lengthAdjust="spacing" textLength="76.9082" x="3689" y="241.5669">implements</text></g><!--reverse link logic_arc_int__baselibs__executor to comp_arc_sta__baselibs__concurrency--><g id="link_logic_arc_int__baselibs__executor_comp_arc_sta__baselibs__concurrency"><path codeLine="27" d="M5234.8151,198.9514 C5131.5851,213.0414 4990.86,231.47 4862,245.5 C4726.55,260.25 4572,273.7 4461.12,282.76 " fill="transparent" id="logic_arc_int__baselibs__executor-backto-comp_arc_sta__baselibs__concurrency" style="stroke:#181818;stroke-width:1;"/><polygon fill="#181818" points="5240.76,198.14,5231.3017,195.3939,5235.8059,198.8162,5232.3836,203.3204,5240.76,198.14" style="stroke:#181818;stroke-width:1;"/><text fill="#000000" font-family="sans-serif" font-size="13" lengthAdjust="spacing" textLength="76.9082" x="5003" y="241.5669">implements</text></g><!--link Feature_User to logic_arc_int__baselibs__result--><g id="link_Feature_User_logic_arc_int__baselibs__result"><path codeLine="28" d="M3065.75,46.07 C2861.1,53.42 2001.66,87.17 1300,158.5 C1294.14,159.1 1294.1112,159.069 1288.0712,159.759 " fill="transparent" id="Feature_User-to-logic_arc_int__baselibs__result" style="stroke:#181818;stroke-width:1;"/><polygon fill="#181818" points="1282.11,160.44,1291.5058,163.3927,1287.0777,159.8725,1290.5978,155.4443,1282.11,160.44" style="stroke:#181818;stroke-width:1;"/><text fill="#000000" font-family="sans-serif" font-size="13" lengthAdjust="spacing" textLength="23.0103" x="1848" y="124.5669">use</text></g><!--link Feature_User to logic_arc_int__baselibs__utils_base64--><g id="link_Feature_User_logic_arc_int__baselibs__utils_base64"><path codeLine="29" d="M3065.93,45.34 C2842.98,49.64 1835.88,70.51 1012,111.5 C702.79,126.89 625.3,130.23 317,158.5 C311.15,159.04 311.1504,159.0149 305.1304,159.6149 " fill="transparent" id="Feature_User-to-logic_arc_int__baselibs__utils_base64" style="stroke:#181818;stroke-width:1;"/><polygon fill="#181818" points="299.16,160.21,308.5123,163.2977,304.1353,159.7141,307.7189,155.3371,299.16,160.21" style="stroke:#181818;stroke-width:1;"/><text fill="#000000" font-family="sans-serif" font-size="13" lengthAdjust="spacing" textLength="23.0103" x="1013" y="124.5669">use</text></g><!--link Feature_User to logic_arc_int__baselibs__condition_variable--><g id="link_Feature_User_logic_arc_int__baselibs__condition_variable"><path codeLine="30" d="M3156.16,52.97 C3268.41,74.03 3556.3429,128.0437 3712.7429,157.3837 " fill="transparent" id="Feature_User-to-logic_arc_int__baselibs__condition_variable" style="stroke:#181818;stroke-width:1;"/><polygon fill="#181818" points="3718.64,158.49,3710.5318,152.8992,3713.7257,157.5681,3709.0568,160.762,3718.64,158.49" style="stroke:#181818;stroke-width:1;"/><text fill="#000000" font-family="sans-serif" font-size="13" lengthAdjust="spacing" textLength="23.0103" x="3551" y="124.5669">use</text></g><!--reverse link logic_arc_int__baselibs__bit_manipulation to comp_arc_sta__baselibs__bit_manipulation--><g id="link_logic_arc_int__baselibs__bit_manipulation_comp_arc_sta__baselibs__bit_manipulation"><path codeLine="31" d="M1812.0668,201.8565 C1776.8868,223.1465 1725.68,254.14 1690.59,275.38 " fill="transparent" id="logic_arc_int__baselibs__bit_manipulation-backto-comp_arc_sta__baselibs__bit_manipulation" style="stroke:#181818;stroke-width:1;"/><polygon fill="#181818" points="1817.2,198.75,1807.4292,199.9876,1812.9223,201.3387,1811.5712,206.8319,1817.2,198.75" style="stroke:#181818;stroke-width:1;"/><text fill="#000000" font-family="sans-serif" font-size="13" lengthAdjust="spacing" textLength="76.9082" x="1767" y="241.5669">implements</text></g><!--reverse link logic_arc_int__baselibs__json to comp_arc_sta__baselibs__json--><g id="link_logic_arc_int__baselibs__json_comp_arc_sta__baselibs__json"><path codeLine="32" d="M2837.9777,204.7317 C2839.6377,225.9617 2841.83,253.94 2843.49,275.19 " fill="transparent" id="logic_arc_int__baselibs__json-backto-comp_arc_sta__baselibs__json" style="stroke:#181818;stroke-width:1;"/><polygon fill="#181818" points="2837.51,198.75,2834.2238,208.0344,2837.8998,203.7348,2842.1994,207.4108,2837.51,198.75" style="stroke:#181818;stroke-width:1;"/><text fill="#000000" font-family="sans-serif" font-size="13" lengthAdjust="spacing" textLength="76.9082" x="2843" y="241.5669">implements</text></g><!--link Feature_User to logic_arc_int__baselibs__shared_future--><g id="link_Feature_User_logic_arc_int__baselibs__shared_future"><path codeLine="33" d="M3156.29,50.17 C3303.97,68.67 3770.1265,127.0444 4015.5765,157.7844 " fill="transparent" id="Feature_User-to-logic_arc_int__baselibs__shared_future" style="stroke:#181818;stroke-width:1;"/><polygon fill="#181818" points="4021.53,158.53,4013.0968,153.4426,4016.5688,157.9087,4012.1027,161.3806,4021.53,158.53" style="stroke:#181818;stroke-width:1;"/><text fill="#000000" font-family="sans-serif" font-size="13" lengthAdjust="spacing" textLength="23.0103" x="3770" y="124.5669">use</text></g><!--link Feature_User to logic_arc_int__baselibs__task_result--><g id="link_Feature_User_logic_arc_int__baselibs__task_result"><path codeLine="34" d="M3156.04,48.22 C3317.04,61.63 3879.13,109.25 4342,158.5 C4347.63,159.1 4347.4173,159.0518 4353.2173,159.7018 " fill="transparent" id="Feature_User-to-logic_arc_int__baselibs__task_result" style="stroke:#181818;stroke-width:1;"/><polygon fill="#181818" points="4359.18,160.37,4350.6815,155.3925,4354.2111,159.8131,4349.7905,163.3428,4359.18,160.37" style="stroke:#181818;stroke-width:1;"/><text fill="#000000" font-family="sans-serif" font-size="13" lengthAdjust="spacing" textLength="23.0103" x="4040" y="124.5669">use</text></g><!--link Feature_User to logic_arc_int__baselibs__memory_shared--><g id="link_Feature_User_logic_arc_int__baselibs__memory_shared"><path codeLine="35" d="M3065.93,45.95 C2884.03,51.92 2186.25,75.97 1613,111.5 C1349.12,127.85 1283.23,133.86 1020,158.5 C1014.49,159.02 1014.8608,158.9592 1009.2008,159.5192 " fill="transparent" id="Feature_User-to-logic_arc_int__baselibs__memory_shared" style="stroke:#181818;stroke-width:1;"/><polygon fill="#181818" points="1003.23,160.11,1012.5801,163.2044,1008.2057,159.6177,1011.7924,155.2433,1003.23,160.11" style="stroke:#181818;stroke-width:1;"/><text fill="#000000" font-family="sans-serif" font-size="13" lengthAdjust="spacing" textLength="23.0103" x="1614" y="124.5669">use</text></g><!--link Feature_User to logic_arc_int__baselibs__bit_mask_operator--><g id="link_Feature_User_logic_arc_int__baselibs__bit_mask_operator"><path codeLine="36" d="M3065.84,47.69 C2888.1,60.31 2219.52,108.55 1670,158.5 C1664.37,159.01 1664.623,158.9716 1658.843,159.5216 " fill="transparent" id="Feature_User-to-logic_arc_int__baselibs__bit_mask_operator" style="stroke:#181818;stroke-width:1;"/><polygon fill="#181818" points="1652.87,160.09,1662.2084,163.2195,1657.8475,159.6164,1661.4506,155.2554,1652.87,160.09" style="stroke:#181818;stroke-width:1;"/><text fill="#000000" font-family="sans-serif" font-size="13" lengthAdjust="spacing" textLength="23.0103" x="2186" y="124.5669">use</text></g><!--link Feature_User to logic_arc_int__baselibs__executor--><g id="link_Feature_User_logic_arc_int__baselibs__executor"><path codeLine="37" d="M3156.21,45.86 C3341,51.53 4057.02,74.81 4645,111.5 C4902.68,127.58 4967.2,131.83 5224,158.5 C5229.48,159.07 5229.1171,159.0039 5234.7571,159.6339 " fill="transparent" id="Feature_User-to-logic_arc_int__baselibs__executor" style="stroke:#181818;stroke-width:1;"/><polygon fill="#181818" points="5240.72,160.3,5232.2197,155.3256,5235.7509,159.7449,5231.3316,163.2762,5240.72,160.3" style="stroke:#181818;stroke-width:1;"/><text fill="#000000" font-family="sans-serif" font-size="13" lengthAdjust="spacing" textLength="23.0103" x="4897" y="124.5669">use</text></g><!--reverse link logic_arc_int__baselibs__filesystem to comp_arc_sta__baselibs__filesystem--><g id="link_logic_arc_int__baselibs__filesystem_comp_arc_sta__baselibs__filesystem"><path codeLine="38" d="M2546,204.75 C2546,225.98 2546,253.94 2546,275.19 " fill="transparent" id="logic_arc_int__baselibs__filesystem-backto-comp_arc_sta__baselibs__filesystem" style="stroke:#181818;stroke-width:1;"/><polygon fill="#181818" points="2546,198.75,2542,207.75,2546,203.75,2550,207.75,2546,198.75" style="stroke:#181818;stroke-width:1;"/><text fill="#000000" font-family="sans-serif" font-size="13" lengthAdjust="spacing" textLength="76.9082" x="2547" y="241.5669">implements</text></g><!--reverse link logic_arc_int__baselibs__message_passing to comp_arc_sta__baselibs__message_passing--><g id="link_logic_arc_int__baselibs__message_passing_comp_arc_sta__baselibs__message_passing"><path codeLine="39" d="M2207.0223,204.7317 C2205.3623,225.9617 2203.17,253.94 2201.51,275.19 " fill="transparent" id="logic_arc_int__baselibs__message_passing-backto-comp_arc_sta__baselibs__message_passing" style="stroke:#181818;stroke-width:1;"/><polygon fill="#181818" points="2207.49,198.75,2202.8006,207.4108,2207.1002,203.7348,2210.7762,208.0344,2207.49,198.75" style="stroke:#181818;stroke-width:1;"/><text fill="#000000" font-family="sans-serif" font-size="13" lengthAdjust="spacing" textLength="76.9082" x="2207" y="241.5669">implements</text></g><!--reverse link logic_arc_int__baselibs__shared_future to comp_arc_sta__baselibs__concurrency--><g id="link_logic_arc_int__baselibs__shared_future_comp_arc_sta__baselibs__concurrency"><path codeLine="40" d="M4200.7089,202.5916 C4226.1789,223.8216 4262.32,253.94 4287.83,275.19 " fill="transparent" id="logic_arc_int__baselibs__shared_future-backto-comp_arc_sta__baselibs__concurrency" style="stroke:#181818;stroke-width:1;"/><polygon fill="#181818" points="4196.1,198.75,4200.4522,207.585,4199.9407,201.9514,4205.5744,201.4399,4196.1,198.75" style="stroke:#181818;stroke-width:1;"/><text fill="#000000" font-family="sans-serif" font-size="13" lengthAdjust="spacing" textLength="76.9082" x="4252" y="241.5669">implements</text></g><!--link Feature_User to logic_arc_int__baselibs__future--><g id="link_Feature_User_logic_arc_int__baselibs__future"><path codeLine="41" d="M3111,81.55 C3111,106.45 3111,132.26 3111,152.26 " fill="transparent" id="Feature_User-to-logic_arc_int__baselibs__future" style="stroke:#181818;stroke-width:1;"/><polygon fill="#181818" points="3111,158.26,3115,149.26,3111,153.26,3107,149.26,3111,158.26" style="stroke:#181818;stroke-width:1;"/><text fill="#000000" font-family="sans-serif" font-size="13" lengthAdjust="spacing" textLength="23.0103" x="3112" y="124.5669">use</text></g><!--link Feature_User to logic_arc_int__baselibs__utils_scoped_op--><g id="link_Feature_User_logic_arc_int__baselibs__utils_scoped_op"><path codeLine="42" d="M3065.67,45.66 C2863.39,50.97 2023,74.25 1334,111.5 C1037.25,127.55 963,132.01 667,158.5 C661.37,159 661.6131,158.9626 655.8231,159.5126 " fill="transparent" id="Feature_User-to-logic_arc_int__baselibs__utils_scoped_op" style="stroke:#181818;stroke-width:1;"/><polygon fill="#181818" points="649.85,160.08,659.1879,163.211,654.8276,159.6072,658.4314,155.2468,649.85,160.08" style="stroke:#181818;stroke-width:1;"/><text fill="#000000" font-family="sans-serif" font-size="13" lengthAdjust="spacing" textLength="23.0103" x="1335" y="124.5669">use</text></g><!--reverse link logic_arc_int__baselibs__result to comp_arc_sta__baselibs__result--><g id="link_logic_arc_int__baselibs__result_comp_arc_sta__baselibs__result"><path codeLine="43" d="M1160.879,204.7464 C1161.619,225.9764 1162.59,253.94 1163.33,275.19 " fill="transparent" id="logic_arc_int__baselibs__result-backto-comp_arc_sta__baselibs__result" style="stroke:#181818;stroke-width:1;"/><polygon fill="#181818" points="1160.67,198.75,1156.9859,207.8839,1160.8442,203.747,1164.9811,207.6052,1160.67,198.75" style="stroke:#181818;stroke-width:1;"/><text fill="#000000" font-family="sans-serif" font-size="13" lengthAdjust="spacing" textLength="76.9082" x="1164" y="241.5669">implements</text></g><!--reverse link logic_arc_int__baselibs__utils_scoped_op to comp_arc_sta__baselibs__utils--><g id="link_logic_arc_int__baselibs__utils_scoped_op_comp_arc_sta__baselibs__utils"><path codeLine="44" d="M453.8479,201.7743 C417.3679,223.0643 364.14,254.14 327.75,275.38 " fill="transparent" id="logic_arc_int__baselibs__utils_scoped_op-backto-comp_arc_sta__baselibs__utils" style="stroke:#181818;stroke-width:1;"/><polygon fill="#181818" points="459.03,198.75,449.2407,199.8317,454.7116,201.2702,453.2731,206.7411,459.03,198.75" style="stroke:#181818;stroke-width:1;"/><text fill="#000000" font-family="sans-serif" font-size="13" lengthAdjust="spacing" textLength="76.9082" x="407" y="241.5669">implements</text></g><!--link Feature_User to logic_arc_int__baselibs__message_passing--><g id="link_Feature_User_logic_arc_int__baselibs__message_passing"><path codeLine="45" d="M3065.96,51.14 C2933.75,70.64 2549.1258,127.3448 2344.0358,157.5848 " fill="transparent" id="Feature_User-to-logic_arc_int__baselibs__message_passing" style="stroke:#181818;stroke-width:1;"/><polygon fill="#181818" points="2338.1,158.46,2347.5872,161.1044,2343.0465,157.7306,2346.4203,153.19,2338.1,158.46" style="stroke:#181818;stroke-width:1;"/><text fill="#000000" font-family="sans-serif" font-size="13" lengthAdjust="spacing" textLength="23.0103" x="2634" y="124.5669">use</text></g><!--link Feature_User to logic_arc_int__baselibs__synchronized_queue--><g id="link_Feature_User_logic_arc_int__baselibs__synchronized_queue"><path codeLine="46" d="M3156.26,62.58 C3219.12,87.68 3326.7682,130.6741 3390.8482,156.2741 " fill="transparent" id="Feature_User-to-logic_arc_int__baselibs__synchronized_queue" style="stroke:#181818;stroke-width:1;"/><polygon fill="#181818" points="3396.42,158.5,3389.5462,151.4465,3391.7768,156.645,3386.5783,158.8756,3396.42,158.5" style="stroke:#181818;stroke-width:1;"/><text fill="#000000" font-family="sans-serif" font-size="13" lengthAdjust="spacing" textLength="23.0103" x="3319" y="124.5669">use</text></g><!--link Feature_User to logic_arc_int__baselibs__intrusive_list--><g id="link_Feature_User_logic_arc_int__baselibs__intrusive_list"><path codeLine="47" d="M3156.01,45.46 C3360.52,49.99 4222.7,70.65 4929,111.5 C5194.27,126.84 5260.54,132.76 5525,158.5 C5530.71,159.06 5530.5521,159.0198 5536.4221,159.6298 " fill="transparent" id="Feature_User-to-logic_arc_int__baselibs__intrusive_list" style="stroke:#181818;stroke-width:1;"/><polygon fill="#181818" points="5542.39,160.25,5533.8517,155.3412,5537.4168,159.7332,5533.0248,163.2983,5542.39,160.25" style="stroke:#181818;stroke-width:1;"/><text fill="#000000" font-family="sans-serif" font-size="13" lengthAdjust="spacing" textLength="23.0103" x="5188" y="124.5669">use</text></g><!--reverse link logic_arc_int__baselibs__memory_shared to comp_arc_sta__baselibs__memory_shared--><g id="link_logic_arc_int__baselibs__memory_shared_comp_arc_sta__baselibs__memory_shared"><path codeLine="48" d="M842.9002,204.7444 C841.9802,225.9744 840.76,253.94 839.84,275.19 " fill="transparent" id="logic_arc_int__baselibs__memory_shared-backto-comp_arc_sta__baselibs__memory_shared" style="stroke:#181818;stroke-width:1;"/><polygon fill="#181818" points="843.16,198.75,838.7741,207.5684,842.9435,203.7453,846.7666,207.9147,843.16,198.75" style="stroke:#181818;stroke-width:1;"/><text fill="#000000" font-family="sans-serif" font-size="13" lengthAdjust="spacing" textLength="76.9082" x="843" y="241.5669">implements</text></g><!--link Feature_User to logic_arc_int__baselibs__task--><g id="link_Feature_User_logic_arc_int__baselibs__task"><path codeLine="49" d="M3156.1,46.54 C3317.97,53.96 3884.81,80.66 4352,111.5 C4619.79,129.18 4687.22,129.34 4954,158.5 C4959.88,159.14 4959.944,159.1151 4966.024,159.8551 " fill="transparent" id="Feature_User-to-logic_arc_int__baselibs__task" style="stroke:#181818;stroke-width:1;"/><polygon fill="#181818" points="4971.98,160.58,4963.5292,155.5219,4967.0166,159.9759,4962.5627,163.4633,4971.98,160.58" style="stroke:#181818;stroke-width:1;"/><text fill="#000000" font-family="sans-serif" font-size="13" lengthAdjust="spacing" textLength="23.0103" x="4613" y="124.5669">use</text></g><!--reverse link logic_arc_int__baselibs__utils_base64 to comp_arc_sta__baselibs__utils--><g id="link_logic_arc_int__baselibs__utils_base64_comp_arc_sta__baselibs__utils"><path codeLine="50" d="M181.4324,202.5265 C207.6424,223.7565 244.91,253.94 271.15,275.19 " fill="transparent" id="logic_arc_int__baselibs__utils_base64-backto-comp_arc_sta__baselibs__utils" style="stroke:#181818;stroke-width:1;"/><polygon fill="#181818" points="176.77,198.75,181.2459,207.523,180.6553,201.8971,186.2813,201.3065,176.77,198.75" style="stroke:#181818;stroke-width:1;"/><text fill="#000000" font-family="sans-serif" font-size="13" lengthAdjust="spacing" textLength="76.9082" x="234" y="241.5669">implements</text></g><!--reverse link logic_arc_int__baselibs__bit_mask_operator to comp_arc_sta__baselibs__bit_manipulation--><g id="link_logic_arc_int__baselibs__bit_mask_operator_comp_arc_sta__baselibs__bit_manipulation"><path codeLine="51" d="M1519.1259,202.0577 C1551.3459,223.3477 1597.93,254.14 1630.07,275.38 " fill="transparent" id="logic_arc_int__baselibs__bit_mask_operator-backto-comp_arc_sta__baselibs__bit_manipulation" style="stroke:#181818;stroke-width:1;"/><polygon fill="#181818" points="1514.12,198.75,1519.4237,207.0489,1518.2916,201.5064,1523.834,200.3743,1514.12,198.75" style="stroke:#181818;stroke-width:1;"/><text fill="#000000" font-family="sans-serif" font-size="13" lengthAdjust="spacing" textLength="76.9082" x="1584" y="241.5669">implements</text></g><!--reverse link logic_arc_int__baselibs__synchronized_queue to comp_arc_sta__baselibs__concurrency--><g id="link_logic_arc_int__baselibs__synchronized_queue_comp_arc_sta__baselibs__concurrency"><path codeLine="52" d="M3593.5979,199.3391 C3754.2179,220.6491 4006.85,254.16 4167.43,275.46 " fill="transparent" id="logic_arc_int__baselibs__synchronized_queue-backto-comp_arc_sta__baselibs__concurrency" style="stroke:#181818;stroke-width:1;"/><polygon fill="#181818" points="3587.65,198.55,3596.0457,203.6989,3592.6066,199.2076,3597.0979,195.7684,3587.65,198.55" style="stroke:#181818;stroke-width:1;"/><text fill="#000000" font-family="sans-serif" font-size="13" lengthAdjust="spacing" textLength="76.9082" x="3931" y="241.5669">implements</text></g><!--SRC=[hLPDRzim3BtxLmYzfnk6OOUYw6N0JZkkPu6MsOIhFboHwkeD- - -JxJIDaoB-c8-IIOfyxv4qM1j-QKSlvBU5X5f9K6KG2KvL5D481L_ig4B5WX63D3NsPtIrD0f48fL9a8jRbiRYNN4DJBPKVuhlvF5hi26gY5Lt-h4Zy-YHMNsw_bZyBMu_x7qAC9BjhhuXI8gexXdZbG9M-mlTNgYYCC7L6gBHBA1r2OoMIjRQ16zIZEXDepPfSwTis9BfBCdBiQK0FzueShL5XrvOhH2pZi4Hup3i8FDDTSc_QZouxbE4vaObnbdk3sIHcyoFc-zRacW7dkfaeULwVeH3yPtZEWJfY9oiJEP988ihyaZaV8o9wHcr9PQrHP0jAseXrCyG2KgxN0y_-K34VnTzegrrQtv8RKbhHyKND2cFWyNulQfdhfIJaENk_ENpVE_t172HmzFU6u7bl5MdmDvgQIHmBxU5MFCEydG_A64kQ8Dkd-liq8NOx5DOEllo-w7629tWvePua-f5fjycz5X37OtoAUowl4jXYxe6vhp1HwAVMA_TjoTIM2YefKhgcvTD9hFAZ8umqajkfA0vMwXxVYJUMOeB8JhZSIvMt7YpYy7Jxvp8KyAq0E_JRNeHxa6dZgfqqDKBCUh_youcDPsorvKmHGYBflfW2AtSbUzmVVp2Fm00]--></g></svg>