<svg xmlns="http://www.w3.org/2000/svg" xmlns:xlink="http://www.w3.org/1999/xlink" contentStyleType="text/css" data-diagram-type="CLASS" height="322px" preserveAspectRatio="none" style="width:6190px;height:322px;background:#FFFFFF;" version="1.1" viewBox="0 0 6190 322" width="6190px" zoomAndPan="magnify"><defs/><g><!--entity Feature_User--><g id="elem_Feature_User"><ellipse cx="3203.6685" cy="14" fill="#F1F1F1" rx="8" ry="8" style="stroke:#181818;stroke-width:0.5;"/><path d="M3203.6685,22 L3203.6685,49 M3190.6685,30 L3216.6685,30 M3203.6685,49 L3190.6685,64 M3203.6685,49 L3216.6685,64 " fill="transparent" style="stroke:#181818;stroke-width:0.5;"/><text fill="#000000" font-family="sans-serif" font-size="14" lengthAdjust="spacing" textLength="90.3369" x="3158.5" y="78.4951">Feature User</text></g><!--class logic_arc_int__baselibs__json--><g id="elem_logic_arc_int__baselibs__json"><rect fill="#F1F1F1" height="40" id="logic_arc_int__baselibs__json" rx="2.5" ry="2.5" style="stroke:#181818;stroke-width:0.5;" width="233.168" x="5279" y="158.5"/><ellipse cx="5294" cy="174.5" fill="#ADD1B2" rx="11" ry="11" style="stroke:#181818;stroke-width:1;"/><path d="M5296.9688,180.1406 Q5296.3906,180.4375 5295.75,180.5781 Q5295.1094,180.7344 5294.4063,180.7344 Q5291.9063,180.7344 5290.5781,179.0938 Q5289.2656,177.4375 5289.2656,174.3125 Q5289.2656,171.1875 5290.5781,169.5313 Q5291.9063,167.875 5294.4063,167.875 Q5295.1094,167.875 5295.75,168.0313 Q5296.4063,168.1875 5296.9688,168.4844 L5296.9688,171.2031 Q5296.3438,170.625 5295.75,170.3594 Q5295.1563,170.0781 5294.5313,170.0781 Q5293.1875,170.0781 5292.5,171.1563 Q5291.8125,172.2188 5291.8125,174.3125 Q5291.8125,176.4063 5292.5,177.4844 Q5293.1875,178.5469 5294.5313,178.5469 Q5295.1563,178.5469 5295.75,178.2813 Q5296.3438,178 5296.9688,177.4219 L5296.9688,180.1406 Z " fill="#000000"/><text fill="#000000" font-family="sans-serif" font-size="14" lengthAdjust="spacing" textLength="201.168" x="5308" y="179.3467">logic_arc_int__baselibs__json</text><line style="stroke:#181818;stroke-width:0.5;" x1="5280" x2="5511.168" y1="190.5" y2="190.5"/></g><!--class logic_arc_int__baselibs__condition_variable--><g id="elem_logic_arc_int__baselibs__condition_variable"><rect fill="#F1F1F1" height="40" id="logic_arc_int__baselibs__condition_variable" rx="2.5" ry="2.5" style="stroke:#181818;stroke-width:0.5;" width="332.7539" x="1685" y="158.5"/><ellipse cx="1700" cy="174.5" fill="#ADD1B2" rx="11" ry="11" style="stroke:#181818;stroke-width:1;"/><path d="M1702.9688,180.1406 Q1702.3906,180.4375 1701.75,180.5781 Q1701.1094,180.7344 1700.4063,180.7344 Q1697.9063,180.7344 1696.5781,179.0938 Q1695.2656,177.4375 1695.2656,174.3125 Q1695.2656,171.1875 1696.5781,169.5313 Q1697.9063,167.875 1700.4063,167.875 Q1701.1094,167.875 1701.75,168.0313 Q1702.4063,168.1875 1702.9688,168.4844 L1702.9688,171.2031 Q1702.3438,170.625 1701.75,170.3594 Q1701.1563,170.0781 1700.5313,170.0781 Q1699.1875,170.0781 1698.5,171.1563 Q1697.8125,172.2188 1697.8125,174.3125 Q1697.8125,176.4063 1698.5,177.4844 Q1699.1875,178.5469 1700.5313,178.5469 Q1701.1563,178.5469 1701.75,178.2813 Q1702.3438,178 1702.9688,177.4219 L1702.9688,180.1406 Z " fill="#000000"/><text fill="#000000" font-family="sans-serif" font-size="14" lengthAdjust="spacing" textLength="300.7539" x="1714" y="179.3467">logic_arc_int__baselibs__condition_variable</text><line style="stroke:#181818;stroke-width:0.5;" x1="1686" x2="2016.7539" y1="190.5" y2="190.5"/></g><!--class logic_arc_int__baselibs__task--><g id="elem_logic_arc_int__baselibs__task"><rect fill="#F1F1F1" height="40" id="logic_arc_int__baselibs__task" rx="2.5" ry="2.5" style="stroke:#181818;stroke-width:0.5;" width="234.0156" x="3970.5" y="158.5"/><ellipse cx="3985.5" cy="174.5" fill="#ADD1B2" rx="11" ry="11" style="stroke:#181818;stroke-width:1;"/><path d="M3988.4688,180.1406 Q3987.8906,180.4375 3987.25,180.5781 Q3986.6094,180.7344 3985.9063,180.7344 Q3983.4063,180.7344 3982.0781,179.0938 Q3980.7656,177.4375 3980.7656,174.3125 Q3980.7656,171.1875 3982.0781,169.5313 Q3983.4063,167.875 3985.9063,167.875 Q3986.6094,167.875 3987.25,168.0313 Q3987.9063,168.1875 3988.4688,168.4844 L3988.4688,171.2031 Q3987.8438,170.625 3987.25,170.3594 Q3986.6563,170.0781 3986.0313,170.0781 Q3984.6875,170.0781 3984,171.1563 Q3983.3125,172.2188 3983.3125,174.3125 Q3983.3125,176.4063 3984,177.4844 Q3984.6875,178.5469 3986.0313,178.5469 Q3986.6563,178.5469 3987.25,178.2813 Q3987.8438,178 3988.4688,177.4219 L3988.4688,180.1406 Z " fill="#000000"/><text fill="#000000" font-family="sans-serif" font-size="14" lengthAdjust="spacing" textLength="202.0156" x="3999.5" y="179.3467">logic_arc_int__baselibs__task</text><line style="stroke:#181818;stroke-width:0.5;" x1="3971.5" x2="4203.5156" y1="190.5" y2="190.5"/></g><!--class comp_arc_sta__baselibs__containers--><g id="elem_comp_arc_sta__baselibs__containers"><rect fill="#F1F1F1" height="40" id="comp_arc_sta__baselibs__containers" rx="2.5" ry="2.5" style="stroke:#181818;stroke-width:0.5;" width="287.1445" x="5719" y="275.5"/><ellipse cx="5734" cy="291.5" fill="#ADD1B2" rx="11" ry="11" style="stroke:#181818;stroke-width:1;"/><path d="M5736.9688,297.1406 Q5736.3906,297.4375 5735.75,297.5781 Q5735.1094,297.7344 5734.4063,297.7344 Q5731.9063,297.7344 5730.5781,296.0938 Q5729.2656,294.4375 5729.2656,291.3125 Q5729.2656,288.1875 5730.5781,286.5313 Q5731.9063,284.875 5734.4063,284.875 Q5735.1094,284.875 5735.75,285.0313 Q5736.4063,285.1875 5736.9688,285.4844 L5736.9688,288.2031 Q5736.3438,287.625 5735.75,287.3594 Q5735.1563,287.0781 5734.5313,287.0781 Q5733.1875,287.0781 5732.5,288.1563 Q5731.8125,289.2188 5731.8125,291.3125 Q5731.8125,293.4063 5732.5,294.4844 Q5733.1875,295.5469 5734.5313,295.5469 Q5735.1563,295.5469 5735.75,295.2813 Q5736.3438,295 5736.9688,294.4219 L5736.9688,297.1406 Z " fill="#000000"/><text fill="#000000" font-family="sans-serif" font-size="14" lengthAdjust="spacing" textLength="255.1445" x="5748" y="296.3467">comp_arc_sta__baselibs__containers</text><line style="stroke:#181818;stroke-width:0.5;" x1="5720" x2="6005.1445" y1="307.5" y2="307.5"/></g><!--class logic_arc_int__baselibs__intrusive_list--><g id="elem_logic_arc_int__baselibs__intrusive_list"><rect fill="#F1F1F1" height="40" id="logic_arc_int__baselibs__intrusive_list" rx="2.5" ry="2.5" style="stroke:#181818;stroke-width:0.5;" width="293.0713" x="5547" y="158.5"/><ellipse cx="5562" cy="174.5" fill="#ADD1B2" rx="11" ry="11" style="stroke:#181818;stroke-width:1;"/><path d="M5564.9688,180.1406 Q5564.3906,180.4375 5563.75,180.5781 Q5563.1094,180.7344 5562.4063,180.7344 Q5559.9063,180.7344 5558.5781,179.0938 Q5557.2656,177.4375 5557.2656,174.3125 Q5557.2656,171.1875 5558.5781,169.5313 Q5559.9063,167.875 5562.4063,167.875 Q5563.1094,167.875 5563.75,168.0313 Q5564.4063,168.1875 5564.9688,168.4844 L5564.9688,171.2031 Q5564.3438,170.625 5563.75,170.3594 Q5563.1563,170.0781 5562.5313,170.0781 Q5561.1875,170.0781 5560.5,171.1563 Q5559.8125,172.2188 5559.8125,174.3125 Q5559.8125,176.4063 5560.5,177.4844 Q5561.1875,178.5469 5562.5313,178.5469 Q5563.1563,178.5469 5563.75,178.2813 Q5564.3438,178 5564.9688,177.4219 L5564.9688,180.1406 Z " fill="#000000"/><text fill="#000000" font-family="sans-serif" font-size="14" lengthAdjust="spacing" textLength="261.0713" x="5576" y="179.3467">logic_arc_int__baselibs__intrusive_list</text><line style="stroke:#181818;stroke-width:0.5;" x1="5548" x2="5839.0713" y1="190.5" y2="190.5"/></g><!--class comp_arc_sta__baselibs__concurrency--><g id="elem_comp_arc_sta__baselibs__concurrency"><rect fill="#F1F1F1" height="40" id="comp_arc_sta__baselibs__concurrency" rx="2.5" ry="2.5" style="stroke:#181818;stroke-width:0.5;" width="300.2012" x="2854.5" y="275.5"/><ellipse cx="2869.5" cy="291.5" fill="#ADD1B2" rx="11" ry="11" style="stroke:#181818;stroke-width:1;"/><path d="M2872.4688,297.1406 Q2871.8906,297.4375 2871.25,297.5781 Q2870.6094,297.7344 2869.9063,297.7344 Q2867.4063,297.7344 2866.0781,296.0938 Q2864.7656,294.4375 2864.7656,291.3125 Q2864.7656,288.1875 2866.0781,286.5313 Q2867.4063,284.875 2869.9063,284.875 Q2870.6094,284.875 2871.25,285.0313 Q2871.9063,285.1875 2872.4688,285.4844 L2872.4688,288.2031 Q2871.8438,287.625 2871.25,287.3594 Q2870.6563,287.0781 2870.0313,287.0781 Q2868.6875,287.0781 2868,288.1563 Q2867.3125,289.2188 2867.3125,291.3125 Q2867.3125,293.4063 2868,294.4844 Q2868.6875,295.5469 2870.0313,295.5469 Q2870.6563,295.5469 2871.25,295.2813 Q2871.8438,295 2872.4688,294.4219 L2872.4688,297.1406 Z " fill="#000000"/><text fill="#000000" font-family="sans-serif" font-size="14" lengthAdjust="spacing" textLength="268.2012" x="2883.5" y="296.3467">comp_arc_sta__baselibs__concurrency</text><line style="stroke:#181818;stroke-width:0.5;" x1="2855.5" x2="3153.7012" y1="307.5" y2="307.5"/></g><!--class logic_arc_int__baselibs__shared_future--><g id="elem_logic_arc_int__baselibs__shared_future"><rect fill="#F1F1F1" height="40" id="logic_arc_int__baselibs__shared_future" rx="2.5" ry="2.5" style="stroke:#181818;stroke-width:0.5;" width="302.0811" x="2053.5" y="158.5"/><ellipse cx="2068.5" cy="174.5" fill="#ADD1B2" rx="11" ry="11" style="stroke:#181818;stroke-width:1;"/><path d="M2071.4688,180.1406 Q2070.8906,180.4375 2070.25,180.5781 Q2069.6094,180.7344 2068.9063,180.7344 Q2066.4063,180.7344 2065.0781,179.0938 Q2063.7656,177.4375 2063.7656,174.3125 Q2063.7656,171.1875 2065.0781,169.5313 Q2066.4063,167.875 2068.9063,167.875 Q2069.6094,167.875 2070.25,168.0313 Q2070.9063,168.1875 2071.4688,168.4844 L2071.4688,171.2031 Q2070.8438,170.625 2070.25,170.3594 Q2069.6563,170.0781 2069.0313,170.0781 Q2067.6875,170.0781 2067,171.1563 Q2066.3125,172.2188 2066.3125,174.3125 Q2066.3125,176.4063 2067,177.4844 Q2067.6875,178.5469 2069.0313,178.5469 Q2069.6563,178.5469 2070.25,178.2813 Q2070.8438,178 2071.4688,177.4219 L2071.4688,180.1406 Z " fill="#000000"/><text fill="#000000" font-family="sans-serif" font-size="14" lengthAdjust="spacing" textLength="270.0811" x="2082.5" y="179.3467">logic_arc_int__baselibs__shared_future</text><line style="stroke:#181818;stroke-width:0.5;" x1="2054.5" x2="2354.5811" y1="190.5" y2="190.5"/></g><!--class logic_arc_int__baselibs__synchronized_queue--><g id="elem_logic_arc_int__baselibs__synchronized_queue"><rect fill="#F1F1F1" height="40" id="logic_arc_int__baselibs__synchronized_queue" rx="2.5" ry="2.5" style="stroke:#181818;stroke-width:0.5;" width="348.3604" x="2687.5" y="158.5"/><ellipse cx="2702.5" cy="174.5" fill="#ADD1B2" rx="11" ry="11" style="stroke:#181818;stroke-width:1;"/><path d="M2705.4688,180.1406 Q2704.8906,180.4375 2704.25,180.5781 Q2703.6094,180.7344 2702.9063,180.7344 Q2700.4063,180.7344 2699.0781,179.0938 Q2697.7656,177.4375 2697.7656,174.3125 Q2697.7656,171.1875 2699.0781,169.5313 Q2700.4063,167.875 2702.9063,167.875 Q2703.6094,167.875 2704.25,168.0313 Q2704.9063,168.1875 2705.4688,168.4844 L2705.4688,171.2031 Q2704.8438,170.625 2704.25,170.3594 Q2703.6563,170.0781 2703.0313,170.0781 Q2701.6875,170.0781 2701,171.1563 Q2700.3125,172.2188 2700.3125,174.3125 Q2700.3125,176.4063 2701,177.4844 Q2701.6875,178.5469 2703.0313,178.5469 Q2703.6563,178.5469 2704.25,178.2813 Q2704.8438,178 2705.4688,177.4219 L2705.4688,180.1406 Z " fill="#000000"/><text fill="#000000" font-family="sans-serif" font-size="14" lengthAdjust="spacing" textLength="316.3604" x="2716.5" y="179.3467">logic_arc_int__baselibs__synchronized_queue</text><line style="stroke:#181818;stroke-width:0.5;" x1="2688.5" x2="3034.8604" y1="190.5" y2="190.5"/></g><!--class logic_arc_int__baselibs__task_result--><g id="elem_logic_arc_int__baselibs__task_result"><rect fill="#F1F1F1" height="40" id="logic_arc_int__baselibs__task_result" rx="2.5" ry="2.5" style="stroke:#181818;stroke-width:0.5;" width="280.9307" x="3372" y="158.5"/><ellipse cx="3387" cy="174.5" fill="#ADD1B2" rx="11" ry="11" style="stroke:#181818;stroke-width:1;"/><path d="M3389.9688,180.1406 Q3389.3906,180.4375 3388.75,180.5781 Q3388.1094,180.7344 3387.4063,180.7344 Q3384.9063,180.7344 3383.5781,179.0938 Q3382.2656,177.4375 3382.2656,174.3125 Q3382.2656,171.1875 3383.5781,169.5313 Q3384.9063,167.875 3387.4063,167.875 Q3388.1094,167.875 3388.75,168.0313 Q3389.4063,168.1875 3389.9688,168.4844 L3389.9688,171.2031 Q3389.3438,170.625 3388.75,170.3594 Q3388.1563,170.0781 3387.5313,170.0781 Q3386.1875,170.0781 3385.5,171.1563 Q3384.8125,172.2188 3384.8125,174.3125 Q3384.8125,176.4063 3385.5,177.4844 Q3386.1875,178.5469 3387.5313,178.5469 Q3388.1563,178.5469 3388.75,178.2813 Q3389.3438,178 3389.9688,177.4219 L3389.9688,180.1406 Z " fill="#000000"/><text fill="#000000" font-family="sans-serif" font-size="14" lengthAdjust="spacing" textLength="248.9307" x="3401" y="179.3467">logic_arc_int__baselibs__task_result</text><line style="stroke:#181818;stroke-width:0.5;" x1="3373" x2="3651.9307" y1="190.5" y2="190.5"/></g><!--class logic_arc_int__baselibs__filesystem--><g id="elem_logic_arc_int__baselibs__filesystem"><rect fill="#F1F1F1" height="40" id="logic_arc_int__baselibs__filesystem" rx="2.5" ry="2.5" style="stroke:#181818;stroke-width:0.5;" width="276.4805" x="4967.5" y="158.5"/><ellipse cx="4982.5" cy="174.5" fill="#ADD1B2" rx="11" ry="11" style="stroke:#181818;stroke-width:1;"/><path d="M4985.4688,180.1406 Q4984.8906,180.4375 4984.25,180.5781 Q4983.6094,180.7344 4982.9063,180.7344 Q4980.4063,180.7344 4979.0781,179.0938 Q4977.7656,177.4375 4977.7656,174.3125 Q4977.7656,171.1875 4979.0781,169.5313 Q4980.4063,167.875 4982.9063,167.875 Q4983.6094,167.875 4984.25,168.0313 Q4984.9063,168.1875 4985.4688,168.4844 L4985.4688,171.2031 Q4984.8438,170.625 4984.25,170.3594 Q4983.6563,170.0781 4983.0313,170.0781 Q4981.6875,170.0781 4981,171.1563 Q4980.3125,172.2188 4980.3125,174.3125 Q4980.3125,176.4063 4981,177.4844 Q4981.6875,178.5469 4983.0313,178.5469 Q4983.6563,178.5469 4984.25,178.2813 Q4984.8438,178 4985.4688,177.4219 L4985.4688,180.1406 Z " fill="#000000"/><text fill="#000000" font-family="sans-serif" font-size="14" lengthAdjust="spacing" textLength="244.4805" x="4996.5" y="179.3467">logic_arc_int__baselibs__filesystem</text><line style="stroke:#181818;stroke-width:0.5;" x1="4968.5" x2="5242.9805" y1="190.5" y2="190.5"/></g><!--class comp_arc_sta__baselibs__bit_manipulation--><g id="elem_comp_arc_sta__baselibs__bit_manipulation"><rect fill="#F1F1F1" height="40" id="comp_arc_sta__baselibs__bit_manipulation" rx="2.5" ry="2.5" style="stroke:#181818;stroke-width:0.5;" width="330.8057" x="4415" y="275.5"/><ellipse cx="4430" cy="291.5" fill="#ADD1B2" rx="11" ry="11" style="stroke:#181818;stroke-width:1;"/><path d="M4432.9688,297.1406 Q4432.3906,297.4375 4431.75,297.5781 Q4431.1094,297.7344 4430.4063,297.7344 Q4427.9063,297.7344 4426.5781,296.0938 Q4425.2656,294.4375 4425.2656,291.3125 Q4425.2656,288.1875 4426.5781,286.5313 Q4427.9063,284.875 4430.4063,284.875 Q4431.1094,284.875 4431.75,285.0313 Q4432.4063,285.1875 4432.9688,285.4844 L4432.9688,288.2031 Q4432.3438,287.625 4431.75,287.3594 Q4431.1563,287.0781 4430.5313,287.0781 Q4429.1875,287.0781 4428.5,288.1563 Q4427.8125,289.2188 4427.8125,291.3125 Q4427.8125,293.4063 4428.5,294.4844 Q4429.1875,295.5469 4430.5313,295.5469 Q4431.1563,295.5469 4431.75,295.2813 Q4432.3438,295 4432.9688,294.4219 L4432.9688,297.1406 Z " fill="#000000"/><text fill="#000000" font-family="sans-serif" font-size="14" lengthAdjust="spacing" textLength="298.8057" x="4444" y="296.3467">comp_arc_sta__baselibs__bit_manipulation</text><line style="stroke:#181818;stroke-width:0.5;" x1="4416" x2="4744.8057" y1="307.5" y2="307.5"/></g><!--class logic_arc_int__baselibs__bit_mask_operator--><g id="elem_logic_arc_int__baselibs__bit_mask_operator"><rect fill="#F1F1F1" height="40" id="logic_arc_int__baselibs__bit_mask_operator" rx="2.5" ry="2.5" style="stroke:#181818;stroke-width:0.5;" width="334.6406" x="4597" y="158.5"/><ellipse cx="4612" cy="174.5" fill="#ADD1B2" rx="11" ry="11" style="stroke:#181818;stroke-width:1;"/><path d="M4614.9688,180.1406 Q4614.3906,180.4375 4613.75,180.5781 Q4613.1094,180.7344 4612.4063,180.7344 Q4609.9063,180.7344 4608.5781,179.0938 Q4607.2656,177.4375 4607.2656,174.3125 Q4607.2656,171.1875 4608.5781,169.5313 Q4609.9063,167.875 4612.4063,167.875 Q4613.1094,167.875 4613.75,168.0313 Q4614.4063,168.1875 4614.9688,168.4844 L4614.9688,171.2031 Q4614.3438,170.625 4613.75,170.3594 Q4613.1563,170.0781 4612.5313,170.0781 Q4611.1875,170.0781 4610.5,171.1563 Q4609.8125,172.2188 4609.8125,174.3125 Q4609.8125,176.4063 4610.5,177.4844 Q4611.1875,178.5469 4612.5313,178.5469 Q4613.1563,178.5469 4613.75,178.2813 Q4614.3438,178 4614.9688,177.4219 L4614.9688,180.1406 Z " fill="#000000"/><text fill="#000000" font-family="sans-serif" font-size="14" lengthAdjust="spacing" textLength="302.6406" x="4626" y="179.3467">logic_arc_int__baselibs__bit_mask_operator</text><line style="stroke:#181818;stroke-width:0.5;" x1="4598" x2="4930.6406" y1="190.5" y2="190.5"/></g><!--class logic_arc_int__baselibs__message_passing--><g id="elem_logic_arc_int__baselibs__message_passing"><rect fill="#F1F1F1" height="40" id="logic_arc_int__baselibs__message_passing" rx="2.5" ry="2.5" style="stroke:#181818;stroke-width:0.5;" width="328.167" x="1321.5" y="158.5"/><ellipse cx="1336.5" cy="174.5" fill="#ADD1B2" rx="11" ry="11" style="stroke:#181818;stroke-width:1;"/><path d="M1339.4688,180.1406 Q1338.8906,180.4375 1338.25,180.5781 Q1337.6094,180.7344 1336.9063,180.7344 Q1334.4063,180.7344 1333.0781,179.0938 Q1331.7656,177.4375 1331.7656,174.3125 Q1331.7656,171.1875 1333.0781,169.5313 Q1334.4063,167.875 1336.9063,167.875 Q1337.6094,167.875 1338.25,168.0313 Q1338.9063,168.1875 1339.4688,168.4844 L1339.4688,171.2031 Q1338.8438,170.625 1338.25,170.3594 Q1337.6563,170.0781 1337.0313,170.0781 Q1335.6875,170.0781 1335,171.1563 Q1334.3125,172.2188 1334.3125,174.3125 Q1334.3125,176.4063 1335,177.4844 Q1335.6875,178.5469 1337.0313,178.5469 Q1337.6563,178.5469 1338.25,178.2813 Q1338.8438,178 1339.4688,177.4219 L1339.4688,180.1406 Z " fill="#000000"/><text fill="#000000" font-family="sans-serif" font-size="14" lengthAdjust="spacing" textLength="296.167" x="1350.5" y="179.3467">logic_arc_int__baselibs__message_passing</text><line style="stroke:#181818;stroke-width:0.5;" x1="1322.5" x2="1648.667" y1="190.5" y2="190.5"/></g><!--class logic_arc_int__baselibs__utils_scoped_op--><g id="elem_logic_arc_int__baselibs__utils_scoped_op"><rect fill="#F1F1F1" height="40" id="logic_arc_int__baselibs__utils_scoped_op" rx="2.5" ry="2.5" style="stroke:#181818;stroke-width:0.5;" width="315.377" x="365" y="158.5"/><ellipse cx="380" cy="174.5" fill="#ADD1B2" rx="11" ry="11" style="stroke:#181818;stroke-width:1;"/><path d="M382.9688,180.1406 Q382.3906,180.4375 381.75,180.5781 Q381.1094,180.7344 380.4063,180.7344 Q377.9063,180.7344 376.5781,179.0938 Q375.2656,177.4375 375.2656,174.3125 Q375.2656,171.1875 376.5781,169.5313 Q377.9063,167.875 380.4063,167.875 Q381.1094,167.875 381.75,168.0313 Q382.4063,168.1875 382.9688,168.4844 L382.9688,171.2031 Q382.3438,170.625 381.75,170.3594 Q381.1563,170.0781 380.5313,170.0781 Q379.1875,170.0781 378.5,171.1563 Q377.8125,172.2188 377.8125,174.3125 Q377.8125,176.4063 378.5,177.4844 Q379.1875,178.5469 380.5313,178.5469 Q381.1563,178.5469 381.75,178.2813 Q382.3438,178 382.9688,177.4219 L382.9688,180.1406 Z " fill="#000000"/><text fill="#000000" font-family="sans-serif" font-size="14" lengthAdjust="spacing" textLength="283.377" x="394" y="179.3467">logic_arc_int__baselibs__utils_scoped_op</text><line style="stroke:#181818;stroke-width:0.5;" x1="366" x2="679.377" y1="190.5" y2="190.5"/></g><!--class logic_arc_int__baselibs__memory_shared--><g id="elem_logic_arc_int__baselibs__memory_shared"><rect fill="#F1F1F1" height="40" id="logic_arc_int__baselibs__memory_shared" rx="2.5" ry="2.5" style="stroke:#181818;stroke-width:0.5;" width="318.043" x="11.5" y="158.5"/><ellipse cx="26.5" cy="174.5" fill="#ADD1B2" rx="11" ry="11" style="stroke:#181818;stroke-width:1;"/><path d="M29.4688,180.1406 Q28.8906,180.4375 28.25,180.5781 Q27.6094,180.7344 26.9063,180.7344 Q24.4063,180.7344 23.0781,179.0938 Q21.7656,177.4375 21.7656,174.3125 Q21.7656,171.1875 23.0781,169.5313 Q24.4063,167.875 26.9063,167.875 Q27.6094,167.875 28.25,168.0313 Q28.9063,168.1875 29.4688,168.4844 L29.4688,171.2031 Q28.8438,170.625 28.25,170.3594 Q27.6563,170.0781 27.0313,170.0781 Q25.6875,170.0781 25,171.1563 Q24.3125,172.2188 24.3125,174.3125 Q24.3125,176.4063 25,177.4844 Q25.6875,178.5469 27.0313,178.5469 Q27.6563,178.5469 28.25,178.2813 Q28.8438,178 29.4688,177.4219 L29.4688,180.1406 Z " fill="#000000"/><text fill="#000000" font-family="sans-serif" font-size="14" lengthAdjust="spacing" textLength="286.043" x="40.5" y="179.3467">logic_arc_int__baselibs__memory_shared</text><line style="stroke:#181818;stroke-width:0.5;" x1="12.5" x2="328.543" y1="190.5" y2="190.5"/></g><!--class logic_arc_int__baselibs__future--><g id="elem_logic_arc_int__baselibs__future"><rect fill="#F1F1F1" height="40" id="logic_arc_int__baselibs__future" rx="2.5" ry="2.5" style="stroke:#181818;stroke-width:0.5;" width="247.0791" x="3688" y="158.5"/><ellipse cx="3703" cy="174.5" fill="#ADD1B2" rx="11" ry="11" style="stroke:#181818;stroke-width:1;"/><path d="M3705.9688,180.1406 Q3705.3906,180.4375 3704.75,180.5781 Q3704.1094,180.7344 3703.4063,180.7344 Q3700.9063,180.7344 3699.5781,179.0938 Q3698.2656,177.4375 3698.2656,174.3125 Q3698.2656,171.1875 3699.5781,169.5313 Q3700.9063,167.875 3703.4063,167.875 Q3704.1094,167.875 3704.75,168.0313 Q3705.4063,168.1875 3705.9688,168.4844 L3705.9688,171.2031 Q3705.3438,170.625 3704.75,170.3594 Q3704.1563,170.0781 3703.5313,170.0781 Q3702.1875,170.0781 3701.5,171.1563 Q3700.8125,172.2188 3700.8125,174.3125 Q3700.8125,176.4063 3701.5,177.4844 Q3702.1875,178.5469 3703.5313,178.5469 Q3704.1563,178.5469 3704.75,178.2813 Q3705.3438,178 3705.9688,177.4219 L3705.9688,180.1406 Z " fill="#000000"/><text fill="#000000" font-family="sans-serif" font-size="14" lengthAdjust="spacing" textLength="215.0791" x="3717" y="179.3467">logic_arc_int__baselibs__future</text><line style="stroke:#181818;stroke-width:0.5;" x1="3689" x2="3934.0791" y1="190.5" y2="190.5"/></g><!--class logic_arc_int__baselibs__result--><g id="elem_logic_arc_int__baselibs__result"><rect fill="#F1F1F1" height="40" id="logic_arc_int__baselibs__result" rx="2.5" ry="2.5" style="stroke:#181818;stroke-width:0.5;" width="244.4609" x="1042.5" y="158.5"/><ellipse cx="1057.5" cy="174.5" fill="#ADD1B2" rx="11" ry="11" style="stroke:#181818;stroke-width:1;"/><path d="M1060.4688,180.1406 Q1059.8906,180.4375 1059.25,180.5781 Q1058.6094,180.7344 1057.9063,180.7344 Q1055.4063,180.7344 1054.0781,179.0938 Q1052.7656,177.4375 1052.7656,174.3125 Q1052.7656,171.1875 1054.0781,169.5313 Q1055.4063,167.875 1057.9063,167.875 Q1058.6094,167.875 1059.25,168.0313 Q1059.9063,168.1875 1060.4688,168.4844 L1060.4688,171.2031 Q1059.8438,170.625 1059.25,170.3594 Q1058.6563,170.0781 1058.0313,170.0781 Q1056.6875,170.0781 1056,171.1563 Q1055.3125,172.2188 1055.3125,174.3125 Q1055.3125,176.4063 1056,177.4844 Q1056.6875,178.5469 1058.0313,178.5469 Q1058.6563,178.5469 1059.25,178.2813 Q1059.8438,178 1060.4688,177.4219 L1060.4688,180.1406 Z " fill="#000000"/><text fill="#000000" font-family="sans-serif" font-size="14" lengthAdjust="spacing" textLength="212.4609" x="1071.5" y="179.3467">logic_arc_int__baselibs__result</text><line style="stroke:#181818;stroke-width:0.5;" x1="1043.5" x2="1285.9609" y1="190.5" y2="190.5"/></g><!--class comp_arc_sta__baselibs__json--><g id="elem_comp_arc_sta__baselibs__json"><rect fill="#F1F1F1" height="40" id="comp_arc_sta__baselibs__json" rx="2.5" ry="2.5" style="stroke:#181818;stroke-width:0.5;" width="242.1367" x="5278.5" y="275.5"/><ellipse cx="5293.5" cy="291.5" fill="#ADD1B2" rx="11" ry="11" style="stroke:#181818;stroke-width:1;"/><path d="M5296.4688,297.1406 Q5295.8906,297.4375 5295.25,297.5781 Q5294.6094,297.7344 5293.9063,297.7344 Q5291.4063,297.7344 5290.0781,296.0938 Q5288.7656,294.4375 5288.7656,291.3125 Q5288.7656,288.1875 5290.0781,286.5313 Q5291.4063,284.875 5293.9063,284.875 Q5294.6094,284.875 5295.25,285.0313 Q5295.9063,285.1875 5296.4688,285.4844 L5296.4688,288.2031 Q5295.8438,287.625 5295.25,287.3594 Q5294.6563,287.0781 5294.0313,287.0781 Q5292.6875,287.0781 5292,288.1563 Q5291.3125,289.2188 5291.3125,291.3125 Q5291.3125,293.4063 5292,294.4844 Q5292.6875,295.5469 5294.0313,295.5469 Q5294.6563,295.5469 5295.25,295.2813 Q5295.8438,295 5296.4688,294.4219 L5296.4688,297.1406 Z " fill="#000000"/><text fill="#000000" font-family="sans-serif" font-size="14" lengthAdjust="spacing" textLength="210.1367" x="5307.5" y="296.3467">comp_arc_sta__baselibs__json</text><line style="stroke:#181818;stroke-width:0.5;" x1="5279.5" x2="5519.6367" y1="307.5" y2="307.5"/></g><!--class logic_arc_int__baselibs__executor--><g id="elem_logic_arc_int__baselibs__executor"><rect fill="#F1F1F1" height="40" id="logic_arc_int__baselibs__executor" rx="2.5" ry="2.5" style="stroke:#181818;stroke-width:0.5;" width="266.4385" x="3070.5" y="158.5"/><ellipse cx="3085.5" cy="174.5" fill="#ADD1B2" rx="11" ry="11" style="stroke:#181818;stroke-width:1;"/><path d="M3088.4688,180.1406 Q3087.8906,180.4375 3087.25,180.5781 Q3086.6094,180.7344 3085.9063,180.7344 Q3083.4063,180.7344 3082.0781,179.0938 Q3080.7656,177.4375 3080.7656,174.3125 Q3080.7656,171.1875 3082.0781,169.5313 Q3083.4063,167.875 3085.9063,167.875 Q3086.6094,167.875 3087.25,168.0313 Q3087.9063,168.1875 3088.4688,168.4844 L3088.4688,171.2031 Q3087.8438,170.625 3087.25,170.3594 Q3086.6563,170.0781 3086.0313,170.0781 Q3084.6875,170.0781 3084,171.1563 Q3083.3125,172.2188 3083.3125,174.3125 Q3083.3125,176.4063 3084,177.4844 Q3084.6875,178.5469 3086.0313,178.5469 Q3086.6563,178.5469 3087.25,178.2813 Q3087.8438,178 3088.4688,177.4219 L3088.4688,180.1406 Z " fill="#000000"/><text fill="#000000" font-family="sans-serif" font-size="14" lengthAdjust="spacing" textLength="234.4385" x="3099.5" y="179.3467">logic_arc_int__baselibs__executor</text><line style="stroke:#181818;stroke-width:0.5;" x1="3071.5" x2="3335.9385" y1="190.5" y2="190.5"/></g><!--class comp_arc_sta__baselibs__filesystem--><g id="elem_comp_arc_sta__baselibs__filesystem"><rect fill="#F1F1F1" height="40" id="comp_arc_sta__baselibs__filesystem" rx="2.5" ry="2.5" style="stroke:#181818;stroke-width:0.5;" width="285.4492" x="4958" y="275.5"/><ellipse cx="4973" cy="291.5" fill="#ADD1B2" rx="11" ry="11" style="stroke:#181818;stroke-width:1;"/><path d="M4975.9688,297.1406 Q4975.3906,297.4375 4974.75,297.5781 Q4974.1094,297.7344 4973.4063,297.7344 Q4970.9063,297.7344 4969.5781,296.0938 Q4968.2656,294.4375 4968.2656,291.3125 Q4968.2656,288.1875 4969.5781,286.5313 Q4970.9063,284.875 4973.4063,284.875 Q4974.1094,284.875 4974.75,285.0313 Q4975.4063,285.1875 4975.9688,285.4844 L4975.9688,288.2031 Q4975.3438,287.625 4974.75,287.3594 Q4974.1563,287.0781 4973.5313,287.0781 Q4972.1875,287.0781 4971.5,288.1563 Q4970.8125,289.2188 4970.8125,291.3125 Q4970.8125,293.4063 4971.5,294.4844 Q4972.1875,295.5469 4973.5313,295.5469 Q4974.1563,295.5469 4974.75,295.2813 Q4975.3438,295 4975.9688,294.4219 L4975.9688,297.1406 Z " fill="#000000"/><text fill="#000000" font-family="sans-serif" font-size="14" lengthAdjust="spacing" textLength="253.4492" x="4987" y="296.3467">comp_arc_sta__baselibs__filesystem</text><line style="stroke:#181818;stroke-width:0.5;" x1="4959" x2="5242.4492" y1="307.5" y2="307.5"/></g><!--class logic_arc_int__baselibs__dynamic_array--><g id="elem_logic_arc_int__baselibs__dynamic_array"><rect fill="#F1F1F1" height="40" id="logic_arc_int__baselibs__dynamic_array" rx="2.5" ry="2.5" style="stroke:#181818;stroke-width:0.5;" width="308.3496" x="5875.5" y="158.5"/><ellipse cx="5890.5" cy="174.5" fill="#ADD1B2" rx="11" ry="11" style="stroke:#181818;stroke-width:1;"/><path d="M5893.4688,180.1406 Q5892.8906,180.4375 5892.25,180.5781 Q5891.6094,180.7344 5890.9063,180.7344 Q5888.4063,180.7344 5887.0781,179.0938 Q5885.7656,177.4375 5885.7656,174.3125 Q5885.7656,171.1875 5887.0781,169.5313 Q5888.4063,167.875 5890.9063,167.875 Q5891.6094,167.875 5892.25,168.0313 Q5892.9063,168.1875 5893.4688,168.4844 L5893.4688,171.2031 Q5892.8438,170.625 5892.25,170.3594 Q5891.6563,170.0781 5891.0313,170.0781 Q5889.6875,170.0781 5889,171.1563 Q5888.3125,172.2188 5888.3125,174.3125 Q5888.3125,176.4063 5889,177.4844 Q5889.6875,178.5469 5891.0313,178.5469 Q5891.6563,178.5469 5892.25,178.2813 Q5892.8438,178 5893.4688,177.4219 L5893.4688,180.1406 Z " fill="#000000"/><text fill="#000000" font-family="sans-serif" font-size="14" lengthAdjust="spacing" textLength="276.3496" x="5904.5" y="179.3467">logic_arc_int__baselibs__dynamic_array</text><line style="stroke:#181818;stroke-width:0.5;" x1="5876.5" x2="6182.8496" y1="190.5" y2="190.5"/></g><!--class logic_arc_int__baselibs__utils_base64--><g id="elem_logic_arc_int__baselibs__utils_base64"><rect fill="#F1F1F1" height="40" id="logic_arc_int__baselibs__utils_base64" rx="2.5" ry="2.5" style="stroke:#181818;stroke-width:0.5;" width="292.1689" x="715.5" y="158.5"/><ellipse cx="730.5" cy="174.5" fill="#ADD1B2" rx="11" ry="11" style="stroke:#181818;stroke-width:1;"/><path d="M733.4688,180.1406 Q732.8906,180.4375 732.25,180.5781 Q731.6094,180.7344 730.9063,180.7344 Q728.4063,180.7344 727.0781,179.0938 Q725.7656,177.4375 725.7656,174.3125 Q725.7656,171.1875 727.0781,169.5313 Q728.4063,167.875 730.9063,167.875 Q731.6094,167.875 732.25,168.0313 Q732.9063,168.1875 733.4688,168.4844 L733.4688,171.2031 Q732.8438,170.625 732.25,170.3594 Q731.6563,170.0781 731.0313,170.0781 Q729.6875,170.0781 729,171.1563 Q728.3125,172.2188 728.3125,174.3125 Q728.3125,176.4063 729,177.4844 Q729.6875,178.5469 731.0313,178.5469 Q731.6563,178.5469 732.25,178.2813 Q732.8438,178 733.4688,177.4219 L733.4688,180.1406 Z " fill="#000000"/><text fill="#000000" font-family="sans-serif" font-size="14" lengthAdjust="spacing" textLength="260.1689" x="744.5" y="179.3467">logic_arc_int__baselibs__utils_base64</text><line style="stroke:#181818;stroke-width:0.5;" x1="716.5" x2="1006.6689" y1="190.5" y2="190.5"/></g><!--class logic_arc_int__baselibs__promise--><g id="elem_logic_arc_int__baselibs__promise"><rect fill="#F1F1F1" height="40" id="logic_arc_int__baselibs__promise" rx="2.5" ry="2.5" style="stroke:#181818;stroke-width:0.5;" width="261.1885" x="2391" y="158.5"/><ellipse cx="2406" cy="174.5" fill="#ADD1B2" rx="11" ry="11" style="stroke:#181818;stroke-width:1;"/><path d="M2408.9688,180.1406 Q2408.3906,180.4375 2407.75,180.5781 Q2407.1094,180.7344 2406.4063,180.7344 Q2403.9063,180.7344 2402.5781,179.0938 Q2401.2656,177.4375 2401.2656,174.3125 Q2401.2656,171.1875 2402.5781,169.5313 Q2403.9063,167.875 2406.4063,167.875 Q2407.1094,167.875 2407.75,168.0313 Q2408.4063,168.1875 2408.9688,168.4844 L2408.9688,171.2031 Q2408.3438,170.625 2407.75,170.3594 Q2407.1563,170.0781 2406.5313,170.0781 Q2405.1875,170.0781 2404.5,171.1563 Q2403.8125,172.2188 2403.8125,174.3125 Q2403.8125,176.4063 2404.5,177.4844 Q2405.1875,178.5469 2406.5313,178.5469 Q2407.1563,178.5469 2407.75,178.2813 Q2408.3438,178 2408.9688,177.4219 L2408.9688,180.1406 Z " fill="#000000"/><text fill="#000000" font-family="sans-serif" font-size="14" lengthAdjust="spacing" textLength="229.1885" x="2420" y="179.3467">logic_arc_int__baselibs__promise</text><line style="stroke:#181818;stroke-width:0.5;" x1="2392" x2="2651.1885" y1="190.5" y2="190.5"/></g><!--class logic_arc_int__baselibs__bit_manipulation--><g id="elem_logic_arc_int__baselibs__bit_manipulation"><rect fill="#F1F1F1" height="40" id="logic_arc_int__baselibs__bit_manipulation" rx="2.5" ry="2.5" style="stroke:#181818;stroke-width:0.5;" width="321.8369" x="4239.5" y="158.5"/><ellipse cx="4254.5" cy="174.5" fill="#ADD1B2" rx="11" ry="11" style="stroke:#181818;stroke-width:1;"/><path d="M4257.4688,180.1406 Q4256.8906,180.4375 4256.25,180.5781 Q4255.6094,180.7344 4254.9063,180.7344 Q4252.4063,180.7344 4251.0781,179.0938 Q4249.7656,177.4375 4249.7656,174.3125 Q4249.7656,171.1875 4251.0781,169.5313 Q4252.4063,167.875 4254.9063,167.875 Q4255.6094,167.875 4256.25,168.0313 Q4256.9063,168.1875 4257.4688,168.4844 L4257.4688,171.2031 Q4256.8438,170.625 4256.25,170.3594 Q4255.6563,170.0781 4255.0313,170.0781 Q4253.6875,170.0781 4253,171.1563 Q4252.3125,172.2188 4252.3125,174.3125 Q4252.3125,176.4063 4253,177.4844 Q4253.6875,178.5469 4255.0313,178.5469 Q4255.6563,178.5469 4256.25,178.2813 Q4256.8438,178 4257.4688,177.4219 L4257.4688,180.1406 Z " fill="#000000"/><text fill="#000000" font-family="sans-serif" font-size="14" lengthAdjust="spacing" textLength="289.8369" x="4268.5" y="179.3467">logic_arc_int__baselibs__bit_manipulation</text><line style="stroke:#181818;stroke-width:0.5;" x1="4240.5" x2="4560.3369" y1="190.5" y2="190.5"/></g><!--class comp_arc_sta__baselibs__message_passing--><g id="elem_comp_arc_sta__baselibs__message_passing"><rect fill="#F1F1F1" height="40" id="comp_arc_sta__baselibs__message_passing" rx="2.5" ry="2.5" style="stroke:#181818;stroke-width:0.5;" width="337.1357" x="1321" y="275.5"/><ellipse cx="1336" cy="291.5" fill="#ADD1B2" rx="11" ry="11" style="stroke:#181818;stroke-width:1;"/><path d="M1338.9688,297.1406 Q1338.3906,297.4375 1337.75,297.5781 Q1337.1094,297.7344 1336.4063,297.7344 Q1333.9063,297.7344 1332.5781,296.0938 Q1331.2656,294.4375 1331.2656,291.3125 Q1331.2656,288.1875 1332.5781,286.5313 Q1333.9063,284.875 1336.4063,284.875 Q1337.1094,284.875 1337.75,285.0313 Q1338.4063,285.1875 1338.9688,285.4844 L1338.9688,288.2031 Q1338.3438,287.625 1337.75,287.3594 Q1337.1563,287.0781 1336.5313,287.0781 Q1335.1875,287.0781 1334.5,288.1563 Q1333.8125,289.2188 1333.8125,291.3125 Q1333.8125,293.4063 1334.5,294.4844 Q1335.1875,295.5469 1336.5313,295.5469 Q1337.1563,295.5469 1337.75,295.2813 Q1338.3438,295 1338.9688,294.4219 L1338.9688,297.1406 Z " fill="#000000"/><text fill="#000000" font-family="sans-serif" font-size="14" lengthAdjust="spacing" textLength="305.1357" x="1350" y="296.3467">comp_arc_sta__baselibs__message_passing</text><line style="stroke:#181818;stroke-width:0.5;" x1="1322" x2="1657.1357" y1="307.5" y2="307.5"/></g><!--class comp_arc_sta__baselibs__result--><g id="elem_comp_arc_sta__baselibs__result"><rect fill="#F1F1F1" height="40" id="comp_arc_sta__baselibs__result" rx="2.5" ry="2.5" style="stroke:#181818;stroke-width:0.5;" width="253.4297" x="1033" y="275.5"/><ellipse cx="1048" cy="291.5" fill="#ADD1B2" rx="11" ry="11" style="stroke:#181818;stroke-width:1;"/><path d="M1050.9688,297.1406 Q1050.3906,297.4375 1049.75,297.5781 Q1049.1094,297.7344 1048.4063,297.7344 Q1045.9063,297.7344 1044.5781,296.0938 Q1043.2656,294.4375 1043.2656,291.3125 Q1043.2656,288.1875 1044.5781,286.5313 Q1045.9063,284.875 1048.4063,284.875 Q1049.1094,284.875 1049.75,285.0313 Q1050.4063,285.1875 1050.9688,285.4844 L1050.9688,288.2031 Q1050.3438,287.625 1049.75,287.3594 Q1049.1563,287.0781 1048.5313,287.0781 Q1047.1875,287.0781 1046.5,288.1563 Q1045.8125,289.2188 1045.8125,291.3125 Q1045.8125,293.4063 1046.5,294.4844 Q1047.1875,295.5469 1048.5313,295.5469 Q1049.1563,295.5469 1049.75,295.2813 Q1050.3438,295 1050.9688,294.4219 L1050.9688,297.1406 Z " fill="#000000"/><text fill="#000000" font-family="sans-serif" font-size="14" lengthAdjust="spacing" textLength="221.4297" x="1062" y="296.3467">comp_arc_sta__baselibs__result</text><line style="stroke:#181818;stroke-width:0.5;" x1="1034" x2="1285.4297" y1="307.5" y2="307.5"/></g><!--class comp_arc_sta__baselibs__utils--><g id="elem_comp_arc_sta__baselibs__utils"><rect fill="#F1F1F1" height="40" id="comp_arc_sta__baselibs__utils" rx="2.5" ry="2.5" style="stroke:#181818;stroke-width:0.5;" width="242.9502" x="543" y="275.5"/><ellipse cx="558" cy="291.5" fill="#ADD1B2" rx="11" ry="11" style="stroke:#181818;stroke-width:1;"/><path d="M560.9688,297.1406 Q560.3906,297.4375 559.75,297.5781 Q559.1094,297.7344 558.4063,297.7344 Q555.9063,297.7344 554.5781,296.0938 Q553.2656,294.4375 553.2656,291.3125 Q553.2656,288.1875 554.5781,286.5313 Q555.9063,284.875 558.4063,284.875 Q559.1094,284.875 559.75,285.0313 Q560.4063,285.1875 560.9688,285.4844 L560.9688,288.2031 Q560.3438,287.625 559.75,287.3594 Q559.1563,287.0781 558.5313,287.0781 Q557.1875,287.0781 556.5,288.1563 Q555.8125,289.2188 555.8125,291.3125 Q555.8125,293.4063 556.5,294.4844 Q557.1875,295.5469 558.5313,295.5469 Q559.1563,295.5469 559.75,295.2813 Q560.3438,295 560.9688,294.4219 L560.9688,297.1406 Z " fill="#000000"/><text fill="#000000" font-family="sans-serif" font-size="14" lengthAdjust="spacing" textLength="210.9502" x="572" y="296.3467">comp_arc_sta__baselibs__utils</text><line style="stroke:#181818;stroke-width:0.5;" x1="544" x2="784.9502" y1="307.5" y2="307.5"/></g><!--class comp_arc_sta__baselibs__memory_shared--><g id="elem_comp_arc_sta__baselibs__memory_shared"><rect fill="#F1F1F1" height="40" id="comp_arc_sta__baselibs__memory_shared" rx="2.5" ry="2.5" style="stroke:#181818;stroke-width:0.5;" width="327.0117" x="7" y="275.5"/><ellipse cx="22" cy="291.5" fill="#ADD1B2" rx="11" ry="11" style="stroke:#181818;stroke-width:1;"/><path d="M24.9688,297.1406 Q24.3906,297.4375 23.75,297.5781 Q23.1094,297.7344 22.4063,297.7344 Q19.9063,297.7344 18.5781,296.0938 Q17.2656,294.4375 17.2656,291.3125 Q17.2656,288.1875 18.5781,286.5313 Q19.9063,284.875 22.4063,284.875 Q23.1094,284.875 23.75,285.0313 Q24.4063,285.1875 24.9688,285.4844 L24.9688,288.2031 Q24.3438,287.625 23.75,287.3594 Q23.1563,287.0781 22.5313,287.0781 Q21.1875,287.0781 20.5,288.1563 Q19.8125,289.2188 19.8125,291.3125 Q19.8125,293.4063 20.5,294.4844 Q21.1875,295.5469 22.5313,295.5469 Q23.1563,295.5469 23.75,295.2813 Q24.3438,295 24.9688,294.4219 L24.9688,297.1406 Z " fill="#000000"/><text fill="#000000" font-family="sans-serif" font-size="14" lengthAdjust="spacing" textLength="295.0117" x="36" y="296.3467">comp_arc_sta__baselibs__memory_shared</text><line style="stroke:#181818;stroke-width:0.5;" x1="8" x2="333.0117" y1="307.5" y2="307.5"/></g><!--link Feature_User to logic_arc_int__baselibs__json--><g id="link_Feature_User_logic_arc_int__baselibs__json"><path codeLine="15" d="M3248.78,46.29 C3423.38,53.25 4069.7,79.8 4601.5,111.5 C4894.61,128.97 4968.5,127.58 5260.5,158.5 C5266.5,159.14 5266.6923,159.1189 5272.8923,159.8589 " fill="transparent" id="Feature_User-to-logic_arc_int__baselibs__json" style="stroke:#181818;stroke-width:1;"/><polygon fill="#181818" points="5278.85,160.57,5270.3875,155.5316,5273.8852,159.9774,5269.4394,163.4752,5278.85,160.57" style="stroke:#181818;stroke-width:1;"/><text fill="#000000" font-family="sans-serif" font-size="13" lengthAdjust="spacing" textLength="23.0103" x="4899.5" y="124.5669">use</text></g><!--link Feature_User to logic_arc_int__baselibs__condition_variable--><g id="link_Feature_User_logic_arc_int__baselibs__condition_variable"><path codeLine="16" d="M3158.4,48.81 C3002.62,63.72 2472.87,114.57 2035.5,158.5 C2029.91,159.06 2030.1896,159.0368 2024.4496,159.6168 " fill="transparent" id="Feature_User-to-logic_arc_int__baselibs__condition_variable" style="stroke:#181818;stroke-width:1;"/><polygon fill="#181818" points="2018.48,160.22,2027.8365,163.2949,2023.4547,159.7173,2027.0323,155.3355,2018.48,160.22" style="stroke:#181818;stroke-width:1;"/><text fill="#000000" font-family="sans-serif" font-size="13" lengthAdjust="spacing" textLength="23.0103" x="2486.5" y="124.5669">use</text></g><!--link Feature_User to logic_arc_int__baselibs__task--><g id="link_Feature_User_logic_arc_int__baselibs__task"><path codeLine="17" d="M3248.55,51.28 C3381.02,71.21 3766.3868,129.1872 3964.2268,158.9572 " fill="transparent" id="Feature_User-to-logic_arc_int__baselibs__task" style="stroke:#181818;stroke-width:1;"/><polygon fill="#181818" points="3970.16,159.85,3961.8554,154.5553,3965.2157,159.106,3960.665,162.4663,3970.16,159.85" style="stroke:#181818;stroke-width:1;"/><text fill="#000000" font-family="sans-serif" font-size="13" lengthAdjust="spacing" textLength="23.0103" x="3752.5" y="124.5669">use</text></g><!--reverse link logic_arc_int__baselibs__intrusive_list to comp_arc_sta__baselibs__containers--><g id="link_logic_arc_int__baselibs__intrusive_list_comp_arc_sta__baselibs__containers"><path codeLine="18" d="M5726.7506,202.1252 C5758.0406,223.4152 5803.19,254.14 5834.4,275.38 " fill="transparent" id="logic_arc_int__baselibs__intrusive_list-backto-comp_arc_sta__baselibs__containers" style="stroke:#181818;stroke-width:1;"/><polygon fill="#181818" points="5721.79,198.75,5726.9808,207.1199,5725.9238,201.5627,5731.4811,200.5058,5721.79,198.75" style="stroke:#181818;stroke-width:1;"/><text fill="#000000" font-family="sans-serif" font-size="13" lengthAdjust="spacing" textLength="76.9082" x="5788.5" y="241.5669">implements</text></g><!--reverse link logic_arc_int__baselibs__shared_future to comp_arc_sta__baselibs__concurrency--><g id="link_logic_arc_int__baselibs__shared_future_comp_arc_sta__baselibs__concurrency"><path codeLine="19" d="M2336.2131,199.4633 C2425.0831,212.8433 2541.08,230.12 2648.5,245.5 C2719.37,255.64 2798.23,266.54 2863.68,275.47 " fill="transparent" id="logic_arc_int__baselibs__shared_future-backto-comp_arc_sta__baselibs__concurrency" style="stroke:#181818;stroke-width:1;"/><polygon fill="#181818" points="2330.28,198.57,2338.5842,203.8653,2335.2243,199.3144,2339.7752,195.9545,2330.28,198.57" style="stroke:#181818;stroke-width:1;"/><text fill="#000000" font-family="sans-serif" font-size="13" lengthAdjust="spacing" textLength="76.9082" x="2649.5" y="241.5669">implements</text></g><!--link Feature_User to logic_arc_int__baselibs__synchronized_queue--><g id="link_Feature_User_logic_arc_int__baselibs__synchronized_queue"><path codeLine="20" d="M3158.44,62.02 C3094.23,86.99 2982.4521,130.4654 2916.1321,156.2554 " fill="transparent" id="Feature_User-to-logic_arc_int__baselibs__synchronized_queue" style="stroke:#181818;stroke-width:1;"/><polygon fill="#181818" points="2910.54,158.43,2920.3778,158.8961,2915.2,156.6178,2917.4784,151.4401,2910.54,158.43" style="stroke:#181818;stroke-width:1;"/><text fill="#000000" font-family="sans-serif" font-size="13" lengthAdjust="spacing" textLength="23.0103" x="3023.5" y="124.5669">use</text></g><!--link Feature_User to logic_arc_int__baselibs__task_result--><g id="link_Feature_User_logic_arc_int__baselibs__task_result"><path codeLine="21" d="M3248.76,63.98 C3307.6,89.31 3404.2089,130.8876 3462.6089,156.0276 " fill="transparent" id="Feature_User-to-logic_arc_int__baselibs__task_result" style="stroke:#181818;stroke-width:1;"/><polygon fill="#181818" points="3468.12,158.4,3461.435,151.1674,3463.5275,156.423,3458.2718,158.5154,3468.12,158.4" style="stroke:#181818;stroke-width:1;"/><text fill="#000000" font-family="sans-serif" font-size="13" lengthAdjust="spacing" textLength="23.0103" x="3396.5" y="124.5669">use</text></g><!--link Feature_User to logic_arc_int__baselibs__shared_future--><g id="link_Feature_User_logic_arc_int__baselibs__shared_future"><path codeLine="22" d="M3158.31,50.52 C3016.6,69.38 2582.7075,127.1482 2353.1675,157.7082 " fill="transparent" id="Feature_User-to-logic_arc_int__baselibs__shared_future" style="stroke:#181818;stroke-width:1;"/><polygon fill="#181818" points="2347.22,158.5,2356.6692,161.2773,2352.1763,157.8401,2355.6134,153.3472,2347.22,158.5" style="stroke:#181818;stroke-width:1;"/><text fill="#000000" font-family="sans-serif" font-size="13" lengthAdjust="spacing" textLength="23.0103" x="2675.5" y="124.5669">use</text></g><!--link Feature_User to logic_arc_int__baselibs__filesystem--><g id="link_Feature_User_logic_arc_int__baselibs__filesystem"><path codeLine="23" d="M3248.77,46.45 C3448.93,55.3 4274.41,94 4949.5,158.5 C4955.34,159.06 4955.3316,159.0453 4961.3516,159.6653 " fill="transparent" id="Feature_User-to-logic_arc_int__baselibs__filesystem" style="stroke:#181818;stroke-width:1;"/><polygon fill="#181818" points="4967.32,160.28,4958.7771,155.379,4962.3463,159.7678,4957.9576,163.3369,4967.32,160.28" style="stroke:#181818;stroke-width:1;"/><text fill="#000000" font-family="sans-serif" font-size="13" lengthAdjust="spacing" textLength="23.0103" x="4569.5" y="124.5669">use</text></g><!--reverse link logic_arc_int__baselibs__bit_mask_operator to comp_arc_sta__baselibs__bit_manipulation--><g id="link_logic_arc_int__baselibs__bit_mask_operator_comp_arc_sta__baselibs__bit_manipulation"><path codeLine="24" d="M4728.6118,201.9296 C4694.5418,223.2196 4645.08,254.14 4611.09,275.38 " fill="transparent" id="logic_arc_int__baselibs__bit_mask_operator-backto-comp_arc_sta__baselibs__bit_manipulation" style="stroke:#181818;stroke-width:1;"/><polygon fill="#181818" points="4733.7,198.75,4723.9479,200.1272,4729.4598,201.3997,4728.1874,206.9115,4733.7,198.75" style="stroke:#181818;stroke-width:1;"/><text fill="#000000" font-family="sans-serif" font-size="13" lengthAdjust="spacing" textLength="76.9082" x="4685.5" y="241.5669">implements</text></g><!--link Feature_User to logic_arc_int__baselibs__message_passing--><g id="link_Feature_User_logic_arc_int__baselibs__message_passing"><path codeLine="25" d="M3158.22,47.36 C2973.16,59.17 2256.11,105.94 1667.5,158.5 C1661.65,159.02 1661.6642,159.0143 1655.6442,159.5743 " fill="transparent" id="Feature_User-to-logic_arc_int__baselibs__message_passing" style="stroke:#181818;stroke-width:1;"/><polygon fill="#181818" points="1649.67,160.13,1659.0018,163.2792,1654.6485,159.6669,1658.2608,155.3136,1649.67,160.13" style="stroke:#181818;stroke-width:1;"/><text fill="#000000" font-family="sans-serif" font-size="13" lengthAdjust="spacing" textLength="23.0103" x="2217.5" y="124.5669">use</text></g><!--reverse link logic_arc_int__baselibs__task to comp_arc_sta__baselibs__concurrency--><g id="link_logic_arc_int__baselibs__task_comp_arc_sta__baselibs__concurrency"><path codeLine="26" d="M3964.494,196.9032 C3958.424,197.7232 3958.37,197.73 3952.5,198.5 C3782.47,220.9 3740.07,227.64 3569.5,245.5 C3428.98,260.21 3268.47,273.83 3154.53,282.95 " fill="transparent" id="logic_arc_int__baselibs__task-backto-comp_arc_sta__baselibs__concurrency" style="stroke:#181818;stroke-width:1;"/><polygon fill="#181818" points="3970.44,196.1,3960.9855,193.3409,3965.485,196.7694,3962.0565,201.2689,3970.44,196.1" style="stroke:#181818;stroke-width:1;"/><text fill="#000000" font-family="sans-serif" font-size="13" lengthAdjust="spacing" textLength="76.9082" x="3717.5" y="241.5669">implements</text></g><!--link Feature_User to logic_arc_int__baselibs__utils_scoped_op--><g id="link_Feature_User_logic_arc_int__baselibs__utils_scoped_op"><path codeLine="27" d="M3158.36,45.5 C2950.38,50.22 2063.77,71.81 1337.5,111.5 C1052.71,127.06 981.54,132.66 697.5,158.5 C691.87,159.01 692.1121,158.9724 686.3221,159.5324 " fill="transparent" id="Feature_User-to-logic_arc_int__baselibs__utils_scoped_op" style="stroke:#181818;stroke-width:1;"/><polygon fill="#181818" points="680.35,160.11,689.6933,163.225,685.3268,159.6287,688.9231,155.2622,680.35,160.11" style="stroke:#181818;stroke-width:1;"/><text fill="#000000" font-family="sans-serif" font-size="13" lengthAdjust="spacing" textLength="23.0103" x="1338.5" y="124.5669">use</text></g><!--link Feature_User to logic_arc_int__baselibs__memory_shared--><g id="link_Feature_User_logic_arc_int__baselibs__memory_shared"><path codeLine="28" d="M3158.29,45.25 C2930.26,49.17 1883.45,68.76 1027.5,111.5 C724.93,126.61 649.27,131.88 347.5,158.5 C341.65,159.02 341.6641,159.0033 335.6541,159.5633 " fill="transparent" id="Feature_User-to-logic_arc_int__baselibs__memory_shared" style="stroke:#181818;stroke-width:1;"/><polygon fill="#181818" points="329.68,160.12,339.0123,163.2678,334.6584,159.6561,338.2701,155.3023,329.68,160.12" style="stroke:#181818;stroke-width:1;"/><text fill="#000000" font-family="sans-serif" font-size="13" lengthAdjust="spacing" textLength="23.0103" x="1028.5" y="124.5669">use</text></g><!--reverse link logic_arc_int__baselibs__future to comp_arc_sta__baselibs__concurrency--><g id="link_logic_arc_int__baselibs__future_comp_arc_sta__baselibs__concurrency"><path codeLine="29" d="M3683.9706,199.4579 C3596.5706,212.9879 3481.81,230.43 3375.5,245.5 C3302.49,255.85 3221.29,266.65 3153.52,275.47 " fill="transparent" id="logic_arc_int__baselibs__future-backto-comp_arc_sta__baselibs__concurrency" style="stroke:#181818;stroke-width:1;"/><polygon fill="#181818" points="3689.9,198.54,3680.394,195.9639,3684.9589,199.3049,3681.6179,203.8698,3689.9,198.54" style="stroke:#181818;stroke-width:1;"/><text fill="#000000" font-family="sans-serif" font-size="13" lengthAdjust="spacing" textLength="76.9082" x="3484.5" y="241.5669">implements</text></g><!--link Feature_User to logic_arc_int__baselibs__result--><g id="link_Feature_User_logic_arc_int__baselibs__result"><path codeLine="30" d="M3158.16,45.85 C2947.34,52.39 2042,83.68 1303.5,158.5 C1298.05,159.05 1298.4415,158.9711 1292.8215,159.6111 " fill="transparent" id="Feature_User-to-logic_arc_int__baselibs__result" style="stroke:#181818;stroke-width:1;"/><polygon fill="#181818" points="1286.86,160.29,1296.2548,163.246,1291.8279,159.7243,1295.3496,155.2974,1286.86,160.29" style="stroke:#181818;stroke-width:1;"/><text fill="#000000" font-family="sans-serif" font-size="13" lengthAdjust="spacing" textLength="23.0103" x="1825.5" y="124.5669">use</text></g><!--reverse link logic_arc_int__baselibs__json to comp_arc_sta__baselibs__json--><g id="link_logic_arc_int__baselibs__json_comp_arc_sta__baselibs__json"><path codeLine="31" d="M5396.379,204.7464 C5397.119,225.9764 5398.09,253.94 5398.83,275.19 " fill="transparent" id="logic_arc_int__baselibs__json-backto-comp_arc_sta__baselibs__json" style="stroke:#181818;stroke-width:1;"/><polygon fill="#181818" points="5396.17,198.75,5392.4859,207.8839,5396.3442,203.747,5400.4811,207.6052,5396.17,198.75" style="stroke:#181818;stroke-width:1;"/><text fill="#000000" font-family="sans-serif" font-size="13" lengthAdjust="spacing" textLength="76.9082" x="5399.5" y="241.5669">implements</text></g><!--link Feature_User to logic_arc_int__baselibs__bit_mask_operator--><g id="link_Feature_User_logic_arc_int__baselibs__bit_mask_operator"><path codeLine="32" d="M3248.63,47.93 C3421.25,61.1 4056.15,110.17 4578.5,158.5 C4584.48,159.05 4584.5966,159.0657 4590.7366,159.6457 " fill="transparent" id="Feature_User-to-logic_arc_int__baselibs__bit_mask_operator" style="stroke:#181818;stroke-width:1;"/><polygon fill="#181818" points="4596.71,160.21,4588.1261,155.3813,4591.7322,159.7398,4587.3737,163.3459,4596.71,160.21" style="stroke:#181818;stroke-width:1;"/><text fill="#000000" font-family="sans-serif" font-size="13" lengthAdjust="spacing" textLength="23.0103" x="4240.5" y="124.5669">use</text></g><!--link Feature_User to logic_arc_int__baselibs__future--><g id="link_Feature_User_logic_arc_int__baselibs__future"><path codeLine="33" d="M3248.7,54.39 C3349.36,76.41 3587.5386,128.5079 3718.7486,157.2079 " fill="transparent" id="Feature_User-to-logic_arc_int__baselibs__future" style="stroke:#181818;stroke-width:1;"/><polygon fill="#181818" points="3724.61,158.49,3716.6726,152.6593,3719.7255,157.4216,3714.9631,160.4745,3724.61,158.49" style="stroke:#181818;stroke-width:1;"/><text fill="#000000" font-family="sans-serif" font-size="13" lengthAdjust="spacing" textLength="23.0103" x="3581.5" y="124.5669">use</text></g><!--reverse link logic_arc_int__baselibs__executor to comp_arc_sta__baselibs__concurrency--><g id="link_logic_arc_int__baselibs__executor_comp_arc_sta__baselibs__concurrency"><path codeLine="34" d="M3164.9951,201.7522 C3128.1551,223.0422 3074.34,254.14 3037.59,275.38 " fill="transparent" id="logic_arc_int__baselibs__executor-backto-comp_arc_sta__baselibs__concurrency" style="stroke:#181818;stroke-width:1;"/><polygon fill="#181818" points="3170.19,198.75,3160.3962,199.79,3165.8609,201.2518,3164.3991,206.7165,3170.19,198.75" style="stroke:#181818;stroke-width:1;"/><text fill="#000000" font-family="sans-serif" font-size="13" lengthAdjust="spacing" textLength="76.9082" x="3117.5" y="241.5669">implements</text></g><!--reverse link logic_arc_int__baselibs__filesystem to comp_arc_sta__baselibs__filesystem--><g id="link_logic_arc_int__baselibs__filesystem_comp_arc_sta__baselibs__filesystem"><path codeLine="35" d="M5104.4002,204.7444 C5103.4802,225.9744 5102.26,253.94 5101.34,275.19 " fill="transparent" id="logic_arc_int__baselibs__filesystem-backto-comp_arc_sta__baselibs__filesystem" style="stroke:#181818;stroke-width:1;"/><polygon fill="#181818" points="5104.66,198.75,5100.2741,207.5684,5104.4435,203.7453,5108.2666,207.9147,5104.66,198.75" style="stroke:#181818;stroke-width:1;"/><text fill="#000000" font-family="sans-serif" font-size="13" lengthAdjust="spacing" textLength="76.9082" x="5104.5" y="241.5669">implements</text></g><!--reverse link logic_arc_int__baselibs__dynamic_array to comp_arc_sta__baselibs__containers--><g id="link_logic_arc_int__baselibs__dynamic_array_comp_arc_sta__baselibs__containers"><path codeLine="36" d="M5996.6082,202.1527 C5965.6882,223.4427 5921.11,254.14 5890.26,275.38 " fill="transparent" id="logic_arc_int__baselibs__dynamic_array-backto-comp_arc_sta__baselibs__containers" style="stroke:#181818;stroke-width:1;"/><polygon fill="#181818" points="6001.55,198.75,5991.8688,200.5595,5997.4318,201.5856,5996.4057,207.1486,6001.55,198.75" style="stroke:#181818;stroke-width:1;"/><text fill="#000000" font-family="sans-serif" font-size="13" lengthAdjust="spacing" textLength="76.9082" x="5956.5" y="241.5669">implements</text></g><!--link Feature_User to logic_arc_int__baselibs__utils_base64--><g id="link_Feature_User_logic_arc_int__baselibs__utils_base64"><path codeLine="37" d="M3158.19,45.86 C2970.6,51.63 2236.37,75.38 1633.5,111.5 C1362.51,127.73 1294.71,132.34 1024.5,158.5 C1018.97,159.04 1019.3091,158.9916 1013.6191,159.5716 " fill="transparent" id="Feature_User-to-logic_arc_int__baselibs__utils_base64" style="stroke:#181818;stroke-width:1;"/><polygon fill="#181818" points="1007.65,160.18,1017.0092,163.2467,1012.6242,159.673,1016.198,155.288,1007.65,160.18" style="stroke:#181818;stroke-width:1;"/><text fill="#000000" font-family="sans-serif" font-size="13" lengthAdjust="spacing" textLength="23.0103" x="1634.5" y="124.5669">use</text></g><!--link Feature_User to logic_arc_int__baselibs__promise--><g id="link_Feature_User_logic_arc_int__baselibs__promise"><path codeLine="38" d="M3158.49,53.28 C3049.37,74.56 2774.609,128.1415 2624.889,157.3415 " fill="transparent" id="Feature_User-to-logic_arc_int__baselibs__promise" style="stroke:#181818;stroke-width:1;"/><polygon fill="#181818" points="2619,158.49,2628.5993,160.6932,2623.9075,157.5329,2627.0679,152.8412,2619,158.49" style="stroke:#181818;stroke-width:1;"/><text fill="#000000" font-family="sans-serif" font-size="13" lengthAdjust="spacing" textLength="23.0103" x="2843.5" y="124.5669">use</text></g><!--link Feature_User to logic_arc_int__baselibs__intrusive_list--><g id="link_Feature_User_logic_arc_int__baselibs__intrusive_list"><path codeLine="39" d="M3248.59,45.59 C3447.06,50.53 4262.77,72.27 4931.5,111.5 C5197.64,127.11 5264.15,132.71 5529.5,158.5 C5535.21,159.05 5535.0511,159.0299 5540.9211,159.6299 " fill="transparent" id="Feature_User-to-logic_arc_int__baselibs__intrusive_list" style="stroke:#181818;stroke-width:1;"/><polygon fill="#181818" points="5546.89,160.24,5538.3434,155.3456,5541.9159,159.7316,5537.5299,163.3041,5546.89,160.24" style="stroke:#181818;stroke-width:1;"/><text fill="#000000" font-family="sans-serif" font-size="13" lengthAdjust="spacing" textLength="23.0103" x="5192.5" y="124.5669">use</text></g><!--link Feature_User to logic_arc_int__baselibs__bit_manipulation--><g id="link_Feature_User_logic_arc_int__baselibs__bit_manipulation"><path codeLine="40" d="M3248.6,49.51 C3409.74,67.42 3956.1867,128.1274 4233.2967,158.9174 " fill="transparent" id="Feature_User-to-logic_arc_int__baselibs__bit_manipulation" style="stroke:#181818;stroke-width:1;"/><polygon fill="#181818" points="4239.26,159.58,4230.7568,154.6106,4234.2906,159.0278,4229.8733,162.5617,4239.26,159.58" style="stroke:#181818;stroke-width:1;"/><text fill="#000000" font-family="sans-serif" font-size="13" lengthAdjust="spacing" textLength="23.0103" x="3945.5" y="124.5669">use</text></g><!--reverse link logic_arc_int__baselibs__message_passing to comp_arc_sta__baselibs__message_passing--><g id="link_logic_arc_int__baselibs__message_passing_comp_arc_sta__baselibs__message_passing"><path codeLine="41" d="M1486.379,204.7464 C1487.119,225.9764 1488.09,253.94 1488.83,275.19 " fill="transparent" id="logic_arc_int__baselibs__message_passing-backto-comp_arc_sta__baselibs__message_passing" style="stroke:#181818;stroke-width:1;"/><polygon fill="#181818" points="1486.17,198.75,1482.4859,207.8839,1486.3442,203.747,1490.4811,207.6052,1486.17,198.75" style="stroke:#181818;stroke-width:1;"/><text fill="#000000" font-family="sans-serif" font-size="13" lengthAdjust="spacing" textLength="76.9082" x="1489.5" y="241.5669">implements</text></g><!--link Feature_User to logic_arc_int__baselibs__dynamic_array--><g id="link_Feature_User_logic_arc_int__baselibs__dynamic_array"><path codeLine="42" d="M3248.7,45.31 C3466.95,49.38 4433.56,69.04 5224.5,111.5 C5506.2,126.62 5576.59,132.56 5857.5,158.5 C5863.33,159.04 5863.3078,159.0327 5869.3078,159.6127 " fill="transparent" id="Feature_User-to-logic_arc_int__baselibs__dynamic_array" style="stroke:#181818;stroke-width:1;"/><polygon fill="#181818" points="5875.28,160.19,5866.7066,155.3426,5870.3032,159.7089,5865.9369,163.3055,5875.28,160.19" style="stroke:#181818;stroke-width:1;"/><text fill="#000000" font-family="sans-serif" font-size="13" lengthAdjust="spacing" textLength="23.0103" x="5499.5" y="124.5669">use</text></g><!--reverse link logic_arc_int__baselibs__condition_variable to comp_arc_sta__baselibs__concurrency--><g id="link_logic_arc_int__baselibs__condition_variable_comp_arc_sta__baselibs__concurrency"><path codeLine="43" d="M2022.4918,199.186 C2143.4118,212.896 2305.59,230.82 2453.5,245.5 C2589.09,258.96 2743.62,272.55 2854.46,281.99 " fill="transparent" id="logic_arc_int__baselibs__condition_variable-backto-comp_arc_sta__baselibs__concurrency" style="stroke:#181818;stroke-width:1;"/><polygon fill="#181818" points="2016.53,198.51,2025.0221,203.4985,2021.4982,199.0733,2025.9233,195.5494,2016.53,198.51" style="stroke:#181818;stroke-width:1;"/><text fill="#000000" font-family="sans-serif" font-size="13" lengthAdjust="spacing" textLength="76.9082" x="2454.5" y="241.5669">implements</text></g><!--reverse link logic_arc_int__baselibs__task_result to comp_arc_sta__baselibs__concurrency--><g id="link_logic_arc_int__baselibs__task_result_comp_arc_sta__baselibs__concurrency"><path codeLine="44" d="M3422.4781,199.8748 C3328.4381,221.1648 3182.94,254.11 3088.83,275.41 " fill="transparent" id="logic_arc_int__baselibs__task_result-backto-comp_arc_sta__baselibs__concurrency" style="stroke:#181818;stroke-width:1;"/><polygon fill="#181818" points="3428.33,198.55,3418.6689,196.636,3423.4534,199.654,3420.4354,204.4385,3428.33,198.55" style="stroke:#181818;stroke-width:1;"/><text fill="#000000" font-family="sans-serif" font-size="13" lengthAdjust="spacing" textLength="76.9082" x="3290.5" y="241.5669">implements</text></g><!--reverse link logic_arc_int__baselibs__bit_manipulation to comp_arc_sta__baselibs__bit_manipulation--><g id="link_logic_arc_int__baselibs__bit_manipulation_comp_arc_sta__baselibs__bit_manipulation"><path codeLine="45" d="M4435.6865,201.9799 C4469.0165,223.2699 4517.33,254.14 4550.57,275.38 " fill="transparent" id="logic_arc_int__baselibs__bit_manipulation-backto-comp_arc_sta__baselibs__bit_manipulation" style="stroke:#181818;stroke-width:1;"/><polygon fill="#181818" points="4430.63,198.75,4436.0614,206.9658,4434.8437,201.4416,4440.368,200.2239,4430.63,198.75" style="stroke:#181818;stroke-width:1;"/><text fill="#000000" font-family="sans-serif" font-size="13" lengthAdjust="spacing" textLength="76.9082" x="4502.5" y="241.5669">implements</text></g><!--reverse link logic_arc_int__baselibs__promise to comp_arc_sta__baselibs__concurrency--><g id="link_logic_arc_int__baselibs__promise_comp_arc_sta__baselibs__concurrency"><path codeLine="46" d="M2607.3668,199.9398 C2696.7768,221.2298 2834.84,254.11 2924.32,275.41 " fill="transparent" id="logic_arc_int__baselibs__promise-backto-comp_arc_sta__baselibs__concurrency" style="stroke:#181818;stroke-width:1;"/><polygon fill="#181818" points="2601.53,198.55,2609.3587,204.526,2606.394,199.7082,2611.2118,196.7436,2601.53,198.55" style="stroke:#181818;stroke-width:1;"/><text fill="#000000" font-family="sans-serif" font-size="13" lengthAdjust="spacing" textLength="76.9082" x="2793.5" y="241.5669">implements</text></g><!--reverse link logic_arc_int__baselibs__result to comp_arc_sta__baselibs__result--><g id="link_logic_arc_int__baselibs__result_comp_arc_sta__baselibs__result"><path codeLine="47" d="M1163.4002,204.7444 C1162.4802,225.9744 1161.26,253.94 1160.34,275.19 " fill="transparent" id="logic_arc_int__baselibs__result-backto-comp_arc_sta__baselibs__result" style="stroke:#181818;stroke-width:1;"/><polygon fill="#181818" points="1163.66,198.75,1159.2741,207.5684,1163.4435,203.7453,1167.2666,207.9147,1163.66,198.75" style="stroke:#181818;stroke-width:1;"/><text fill="#000000" font-family="sans-serif" font-size="13" lengthAdjust="spacing" textLength="76.9082" x="1163.5" y="241.5669">implements</text></g><!--reverse link logic_arc_int__baselibs__utils_base64 to comp_arc_sta__baselibs__utils--><g id="link_logic_arc_int__baselibs__utils_base64_comp_arc_sta__baselibs__utils"><path codeLine="48" d="M823.3479,201.7743 C786.8679,223.0643 733.64,254.14 697.25,275.38 " fill="transparent" id="logic_arc_int__baselibs__utils_base64-backto-comp_arc_sta__baselibs__utils" style="stroke:#181818;stroke-width:1;"/><polygon fill="#181818" points="828.53,198.75,818.7407,199.8317,824.2116,201.2702,822.7731,206.7411,828.53,198.75" style="stroke:#181818;stroke-width:1;"/><text fill="#000000" font-family="sans-serif" font-size="13" lengthAdjust="spacing" textLength="76.9082" x="776.5" y="241.5669">implements</text></g><!--reverse link logic_arc_int__baselibs__synchronized_queue to comp_arc_sta__baselibs__concurrency--><g id="link_logic_arc_int__baselibs__synchronized_queue_comp_arc_sta__baselibs__concurrency"><path codeLine="49" d="M2890.1057,202.51 C2916.5057,223.74 2954.06,253.94 2980.49,275.19 " fill="transparent" id="logic_arc_int__baselibs__synchronized_queue-backto-comp_arc_sta__baselibs__concurrency" style="stroke:#181818;stroke-width:1;"/><polygon fill="#181818" points="2885.43,198.75,2889.9368,207.5072,2889.3264,201.8834,2894.9502,201.2729,2885.43,198.75" style="stroke:#181818;stroke-width:1;"/><text fill="#000000" font-family="sans-serif" font-size="13" lengthAdjust="spacing" textLength="76.9082" x="2943.5" y="241.5669">implements</text></g><!--reverse link logic_arc_int__baselibs__memory_shared to comp_arc_sta__baselibs__memory_shared--><g id="link_logic_arc_int__baselibs__memory_shared_comp_arc_sta__baselibs__memory_shared"><path codeLine="50" d="M170.5,204.75 C170.5,225.98 170.5,253.94 170.5,275.19 " fill="transparent" id="logic_arc_int__baselibs__memory_shared-backto-comp_arc_sta__baselibs__memory_shared" style="stroke:#181818;stroke-width:1;"/><polygon fill="#181818" points="170.5,198.75,166.5,207.75,170.5,203.75,174.5,207.75,170.5,198.75" style="stroke:#181818;stroke-width:1;"/><text fill="#000000" font-family="sans-serif" font-size="13" lengthAdjust="spacing" textLength="76.9082" x="171.5" y="241.5669">implements</text></g><!--reverse link logic_arc_int__baselibs__utils_scoped_op to comp_arc_sta__baselibs__utils--><g id="link_logic_arc_int__baselibs__utils_scoped_op_comp_arc_sta__baselibs__utils"><path codeLine="51" d="M550.9324,202.5265 C577.1424,223.7565 614.41,253.94 640.65,275.19 " fill="transparent" id="logic_arc_int__baselibs__utils_scoped_op-backto-comp_arc_sta__baselibs__utils" style="stroke:#181818;stroke-width:1;"/><polygon fill="#181818" points="546.27,198.75,550.7459,207.523,550.1553,201.8971,555.7813,201.3065,546.27,198.75" style="stroke:#181818;stroke-width:1;"/><text fill="#000000" font-family="sans-serif" font-size="13" lengthAdjust="spacing" textLength="76.9082" x="603.5" y="241.5669">implements</text></g><!--link Feature_User to logic_arc_int__baselibs__executor--><g id="link_Feature_User_logic_arc_int__baselibs__executor"><path codeLine="52" d="M3203.5,81.55 C3203.5,106.45 3203.5,132.26 3203.5,152.26 " fill="transparent" id="Feature_User-to-logic_arc_int__baselibs__executor" style="stroke:#181818;stroke-width:1;"/><polygon fill="#181818" points="3203.5,158.26,3207.5,149.26,3203.5,153.26,3199.5,149.26,3203.5,158.26" style="stroke:#181818;stroke-width:1;"/><text fill="#000000" font-family="sans-serif" font-size="13" lengthAdjust="spacing" textLength="23.0103" x="3204.5" y="124.5669">use</text></g><!--SRC=[hLPDRzim3BtxLmYzfnk6OOUYw6N0JZjkPu6MsOIhFZoHwkeD- - -Jas2DtRIo7HzfYy_Yu-EZmThmIpjw8h-j9BHAWgg3I72geOX6AFXgHmqg5emOf6ln4ADhfLCW4gbEWbpTidGMxwfhOBAr-bDz9O-VWmrHHMpsqRSTcGUFpEh3zVlgRtNxxfXJWP5yxkeBWgI8wZjZl5B0wlX0zmzKLGt2JREvKpPioMY8HfCNhMjWj5IprZyu-1kL6DMSB1DyGttH-X4YGMrnFeO0FnopJ73j_WWBZ3uZa0c9h3RfBQmSniJqYDeIouqYrrfqw8NV13SfHlIcAw3p3d9hz7tgInk2pwYNEszsCNZwdR5-9amBETCHELcPdpmgOsxwFLdaBklR5RfMasW7djfaeTT8WTt3yLnNQ352rlTYXbqU6TYYRe4v3sfPN1FxVr3gmaib8SkQJQwkoINEvzsX2x4xTc-rcYuKyq23hzsczvR2DGxsi_0IPvGpMzIdmt0vg_Y49hsGy6kupnDLQjR9w4sqjcc-sNGUtFvLXEv2YVVnfu_pMz36u8WN6DBOzEVcZtsge8AHknIOVU552xaTTMWbdPxRt-lkpC6ccWAzQ6kSDc_T-_zNvHJOGvq5n3bax2UgW3USkfN_UCxygqpvmc1N5ITaiDVMfULatouSl6Shty_SFm00]--></g></svg>